<?xml version="1.0" standalone="no"?>
<!DOCTYPE svg PUBLIC "-//W3C//DTD SVG 1.1//EN" "http://www.w3.org/Graphics/SVG/1.1/DTD/svg11.dtd" >
<svg xmlns="http://www.w3.org/2000/svg">
<metadata></metadata>
<defs>
<font id="moderatbold" horiz-adv-x="1243" >
<font-face units-per-em="2048" ascent="1638" descent="-410" />
<missing-glyph horiz-adv-x="552" />
<glyph unicode="&#x31;&#x2044;&#x34;" horiz-adv-x="1794" d="M295 522v477h-193v166h117q38 0 61 23t23 63v60h189l2 -789h-199zM1544 1311h-235l-1020 -1311h235zM1692 328v-162h-133v-166h-175v166h-352v102l291 520h236v-460h133zM1266 328h118v194h-18z" />
<glyph unicode="&#x31;&#x2044;&#x32;" horiz-adv-x="1888" d="M295 522v477h-193v166h117q38 0 61 23t23 63v60h189l2 -789h-199zM1544 1311h-235l-1020 -1311h235zM1606 301q-17 -11 -44 -26t-43 -24.5t-33 -21.5t-25.5 -23.5t-10.5 -23.5h317v-182h-571v74q0 63 14 112.5t41.5 84t55 57t67.5 45.5q22 13 59.5 32.5t58 31t43.5 28.5 t33.5 35.5t10.5 40.5q0 32 -23 49.5t-61 17.5q-52 0 -81.5 -31.5t-29.5 -76.5h-186q0 54 17.5 104.5t52.5 94t95 70t136 26.5q123 0 199 -65.5t76 -176.5q0 -84 -44.5 -144t-123.5 -108z" />
<glyph unicode="&#x33;&#x2044;&#x34;" horiz-adv-x="1869" d="M578 924q39 -8 76.5 -49.5t37.5 -114.5q0 -103 -80.5 -173.5t-205.5 -70.5q-131 0 -217.5 75t-86.5 187h189q2 -36 34.5 -62t77.5 -26q40 0 67.5 21t27.5 59q0 76 -119 76h-55v151h49q56 0 83 21t27 55q0 31 -23 52.5t-59 21.5q-35 0 -59 -21t-29 -49h-186q0 94 79 167 t204 73q115 0 185.5 -62.5t70.5 -156.5q0 -63 -29.5 -106.5t-58.5 -55.5v-12zM1620 1311h-236l-1019 -1311h235zM1767 328v-162h-133v-166h-174v166h-352v102l291 520h235v-460h133zM1341 328h119v194h-18z" />
<glyph unicode="&#x31;&#x2044;&#x33;" horiz-adv-x="1888" d="M295 522v477h-193v166h117q38 0 61 23t23 63v60h189l2 -789h-199zM1544 1311h-235l-1020 -1311h235zM1671 401q39 -9 77 -49.5t38 -113.5q0 -103 -80.5 -173.5t-206.5 -70.5q-130 0 -216.5 74.5t-86.5 187.5h188q2 -36 35 -62t78 -26q40 0 67 21t27 59q0 76 -118 76h-56 v151h49q57 0 84 21.5t27 54.5q0 31 -23 52.5t-59 21.5q-35 0 -59 -21t-29 -49h-186q0 95 78.5 167.5t203.5 72.5q115 0 185.5 -63t70.5 -157q0 -63 -29.5 -106t-58.5 -55v-13z" />
<glyph unicode="&#x32;&#x2044;&#x33;" horiz-adv-x="2025" d="M512 823q-19 -12 -54 -31.5t-52 -30t-32.5 -26t-17.5 -30.5h318v-183h-572v74q0 63 14 112.5t42 84t55.5 57t67.5 45.5q22 12 59.5 32t57.5 31.5t43.5 28.5t33.5 35.5t10 40.5q0 32 -23 49.5t-61 17.5q-52 0 -81 -31.5t-29 -76.5h-187q0 54 18 104.5t52.5 94t95 70 t136.5 26.5q123 0 198.5 -65.5t75.5 -176.5q0 -84 -44.5 -144t-123.5 -108zM1681 1311h-235l-1020 -1311h236zM1808 401q39 -9 77 -49.5t38 -113.5q0 -103 -80.5 -173.5t-206.5 -70.5q-130 0 -216.5 74.5t-86.5 187.5h189q2 -36 34.5 -62t77.5 -26q40 0 67.5 21t27.5 59 q0 76 -119 76h-56v151h50q56 0 83 21t27 55q0 31 -23 52.5t-59 21.5q-35 0 -59 -21t-29 -49h-186q0 95 78.5 167.5t203.5 72.5q115 0 185.5 -63t70.5 -157q0 -63 -29.5 -106t-58.5 -55v-13z" />
<glyph unicode="&#x3c;&#x2014;" horiz-adv-x="1767" d="M1645 772v-246h-1141l332 -329l-170 -170l-584 583v80l584 584l170 -170l-334 -332h1143z" />
<glyph unicode="&#x2d;&#x3e;" horiz-adv-x="1767" d="M1102 1274l584 -584v-80l-584 -583l-170 170l332 329h-1141v246h1143l-334 332z" />
<glyph unicode="&#x3a;&#x29;" horiz-adv-x="1699" d="M1364 1231q103 -103 158 -235.5t55 -278.5t-55 -278.5t-158 -235.5t-236 -158t-278 -55q-146 0 -278.5 55t-235.5 158t-158 235.5t-55 278.5t55 278.5t158 235.5t235.5 158t278.5 55q145 0 278 -55t236 -158zM1323 244q95 95 146 217.5t51 255.5q0 135 -51 257.5 t-146 217.5t-217.5 146t-255.5 51q-135 0 -257.5 -51t-217.5 -146t-146 -217.5t-51 -257.5q0 -133 51 -255.5t146 -217.5t217.5 -146t257.5 -51q133 0 255.5 51t217.5 146zM594 784v195h-62v55h179v-55h-62v-195h-55zM1049 784v195h-62v55h178v-55h-59v-195h-57zM1210 596 l11 29l53 -19l-8 -26q-44 -133 -158 -218q-115 -83 -258 -83q-145 0 -260 83q-115 86 -156 218l-10 26l55 19l8 -29q36 -110 136 -188q104 -74 227 -74q121 0 225 74q98 76 135 188z" />
<glyph unicode="&#xfb01;" horiz-adv-x="1417" d="M1143 1139q-72 0 -124 51.5t-52 120.5q0 73 51.5 123.5t124.5 50.5q71 0 121.5 -50.5t50.5 -123.5q0 -69 -51 -120.5t-121 -51.5zM1274 1024v-1024h-262v809h-500v-809h-258v809h-172v215h172v80q0 151 107 245.5t260 94.5q44 0 85.5 -9t69 -21.5t48.5 -25t30 -21.5 l10 -9l-98 -182q-58 38 -119 38q-56 0 -95.5 -37.5t-39.5 -89.5v-63h762z" />
<glyph unicode="&#xfb02;" horiz-adv-x="1421" d="M762 1444q101 0 191 -22t147 -54t99.5 -63.5t60.5 -53.5l18 -22v-1229h-266v1135q-3 3 -9.5 7.5t-29.5 17t-48.5 22t-67 17t-85.5 7.5q-111 0 -185.5 -42.5t-74.5 -108.5v-31h295v-215h-295v-809h-258v809h-172v215h172v47q0 163 139 268t369 105z" />
<glyph unicode="ffj" horiz-adv-x="2179" d="M1868 1139q-72 0 -124 51.5t-52 120.5q0 73 51.5 123.5t124.5 50.5q71 0 121.5 -50.5t50.5 -123.5q0 -69 -51 -120.5t-121 -51.5zM1778 1024h217v-1104q0 -151 -107 -245.5t-260 -94.5q-70 0 -131 21.5t-87 42.5l-26 22l99 182q58 -38 119 -38q56 0 95.5 37.5t39.5 89.5 v872h-459v-809h-258v809h-213h-295v-809h-258v809h-172v215h172v80q0 151 107 245.5t260 94.5q44 0 85.5 -9t69 -21.5t48.5 -25t30 -21.5l10 -9l-98 -182q-58 38 -119 38q-56 0 -95.5 -37.5t-39.5 -89.5v-63h336h172v80q0 151 107 245.5t259 94.5q70 0 131 -21.5t87 -42.5 l26 -22l-98 -182q-58 38 -119 38q-56 0 -95.5 -37.5t-39.5 -89.5v-63h500z" />
<glyph unicode="fj" horiz-adv-x="1413" d="M1102 1139q-72 0 -124 51.5t-52 120.5q0 73 51.5 123.5t124.5 50.5q71 0 121.5 -50.5t50.5 -123.5q0 -69 -51 -120.5t-121 -51.5zM1012 1024h217v-1104q0 -151 -107 -245.5t-260 -94.5q-70 0 -131 21.5t-87 42.5l-26 22l99 182q58 -38 119 -38q56 0 95.5 37.5t39.5 89.5 v872h-459v-809h-258v809h-172v215h172v80q0 151 107 245.5t260 94.5q44 0 85.5 -9t69 -21.5t48.5 -25t30 -21.5l10 -9l-98 -182q-58 38 -119 38q-56 0 -95.5 -37.5t-39.5 -89.5v-63h500z" />
<glyph horiz-adv-x="0" />
<glyph horiz-adv-x="682" />
<glyph unicode=" "  horiz-adv-x="552" />
<glyph unicode="&#x09;" horiz-adv-x="552" />
<glyph unicode="&#xa0;" horiz-adv-x="552" />
<glyph unicode="!" horiz-adv-x="573" d="M385 410h-195l-40 1024h274zM287 317q68 0 116 -47t48 -116q0 -68 -48.5 -116t-115.5 -48t-115.5 48t-48.5 116q0 69 48 116t116 47z" />
<glyph unicode="&#x22;" horiz-adv-x="806" d="M334 1184l-64 -221h-123l-63 221q-23 75 -23 106q0 70 45.5 110t102.5 40t102 -40t45 -110q0 -34 -22 -106zM682 1184l-64 -221h-122l-64 221q-22 72 -22 106q0 70 45 110t102 40t102.5 -40t45.5 -110q0 -31 -23 -106z" />
<glyph unicode="#" horiz-adv-x="1431" d="M1329 817h-217l-47 -229h176v-228h-221l-72 -360h-248l72 360h-242l-71 -360h-248l72 360h-191v228h236l47 229h-195v227h240l78 390h247l-77 -390h241l78 390h248l-78 -390h172v-227zM817 588l47 229h-241l-48 -229h242z" />
<glyph unicode="$" horiz-adv-x="1181" d="M1079 348q0 -78 -30.5 -141.5t-83 -106t-118.5 -68.5t-142 -36v-180h-226v188q-168 36 -272.5 146t-104.5 243h254q0 -43 32.5 -82.5t90.5 -62.5v336q-79 36 -136.5 71.5t-105.5 81.5t-73 103t-25 125q0 138 96 229t244 117v184h226v-186q152 -31 244.5 -132t92.5 -214 h-254q0 20 -22.5 51.5t-60.5 54.5v-319q42 -17 71.5 -30.5t72 -36.5t71.5 -44.5t61.5 -53t52 -65.5t32.5 -78.5t13 -93.5zM389 975q0 -69 90 -123v231q-90 -34 -90 -108zM705 233q56 14 89 46.5t33 80.5q0 44 -30 73t-92 56v-256z" />
<glyph unicode="%" horiz-adv-x="1595" d="M410 707q-126 0 -217 90.5t-91 216.5t91 216.5t217 90.5q125 0 216 -90.5t91 -216.5t-91 -216.5t-216 -90.5zM1350 1311l-832 -1311h-274l831 1311h275zM410 922q40 0 66 26t26 66t-26 66t-66 26t-66.5 -26t-26.5 -66t26.5 -66t66.5 -26zM1186 -10q-126 0 -216.5 90.5 t-90.5 216.5t90.5 216.5t216.5 90.5q125 0 216 -90.5t91 -216.5t-91 -216.5t-216 -90.5zM1186 205q40 0 66 26t26 66t-26 66t-66 26t-66 -26t-26 -66t26 -66t66 -26z" />
<glyph unicode="&#x26;" horiz-adv-x="1368" d="M1286 0h-297l-102 123q-127 -133 -320 -133q-195 0 -330 114t-135 299q0 123 63 209.5t179 163.5q-62 86 -98.5 165.5t-36.5 164.5q0 144 104.5 241t270.5 97q168 0 263 -99.5t95 -246.5q0 -220 -250 -385l154 -185l86 148h282l-194 -354zM578 1210q-53 0 -90 -34 t-37 -86q0 -74 92 -191q77 46 117 91t40 104q0 58 -36.5 87t-85.5 29zM567 233q93 0 154 89l-229 270q-58 -40 -88.5 -81t-30.5 -97q0 -78 57 -129.5t137 -51.5z" />
<glyph unicode="'" horiz-adv-x="499" d="M375 1184l-64 -221h-123l-63 221q-23 75 -23 106q0 70 45.5 110t102.5 40t102 -40t45 -110q0 -34 -22 -106z" />
<glyph unicode="(" horiz-adv-x="743" d="M662 -213l-175 -154q-169 183 -266.5 436.5t-97.5 565.5t97.5 566t266.5 437l175 -155q-139 -152 -212 -370.5t-73 -477.5q0 -258 73.5 -477t211.5 -371z" />
<glyph unicode=")" horiz-adv-x="743" d="M61 -213q138 152 211.5 371t73.5 477q0 259 -73 477.5t-212 370.5l175 155q169 -183 266.5 -437t97.5 -566t-97.5 -565.5t-266.5 -436.5z" />
<glyph unicode="*" horiz-adv-x="819" d="M737 1194l-174 -88l174 -88l-88 -152l-164 109l13 -197h-176l12 197l-164 -109l-88 152l174 88l-174 88l88 152l164 -109l-12 197h176l-13 -197l164 109z" />
<glyph unicode="+" horiz-adv-x="1218" d="M1116 758v-238h-383v-391h-246v391h-385v238h385v385h246v-385h383z" />
<glyph unicode="," horiz-adv-x="538" d="M270 317q79 0 122.5 -59.5t43.5 -163.5q0 -77 -24 -144.5t-59 -109.5t-69.5 -72.5t-58.5 -43.5l-24 -13l-64 68q67 60 96 109.5t39 105.5q-66 4 -118 43t-52 117q0 73 48.5 118t119.5 45z" />
<glyph unicode="-" horiz-adv-x="942" d="M102 754h738v-234h-738v234z" />
<glyph unicode="." horiz-adv-x="532" d="M266 -10q-68 0 -116 48t-48 116q0 69 48 116t116 47t116 -47t48 -116q0 -68 -48 -116t-116 -48z" />
<glyph unicode="/" horiz-adv-x="997" d="M956 1536l-688 -1638h-227l688 1638h227z" />
<glyph unicode="0" horiz-adv-x="1196" d="M600 -10q-242 0 -370 174.5t-128 492.5t127.5 492t368.5 174t368.5 -174.5t127.5 -493.5q0 -318 -126.5 -491.5t-367.5 -173.5zM598 262q207 0 207 391q0 398 -207 398q-50 0 -88 -25.5t-59.5 -64t-35 -93.5t-18 -105t-4.5 -108q0 -393 205 -393z" />
<glyph unicode="1" horiz-adv-x="808" d="M383 0v887h-270v217h149q57 0 95 38.5t38 96.5v72h258l2 -1311h-272z" />
<glyph unicode="2" horiz-adv-x="1167" d="M680 514q-134 -68 -182.5 -126.5t-48.5 -129.5h565v-258h-871v104q0 93 18.5 174t48.5 140t74 110.5t87.5 86.5t97.5 67q36 22 85 46.5t77.5 39.5t57.5 36t43 47.5t16 63.5q4 75 -41 114.5t-113 39.5q-77 0 -126.5 -49.5t-49.5 -128.5h-273q0 56 15.5 113.5t51 115.5 t86 102.5t127.5 72.5t169 28q185 0 307.5 -103t122.5 -282q0 -51 -12 -97t-29 -81t-47 -68.5t-56 -56t-66 -47.5t-66.5 -39t-67.5 -35z" />
<glyph unicode="3" horiz-adv-x="1124" d="M809 696q85 -31 133.5 -116t48.5 -187q0 -167 -126.5 -285t-315.5 -118q-99 0 -186.5 36.5t-145.5 96t-91.5 134.5t-33.5 151h264q7 -66 56 -114t133 -48q76 0 126 42t50 120q0 74 -49 127t-154 53h-88v215h80q51 0 87.5 15t54 39.5t25 47.5t7.5 47q0 63 -42.5 98 t-102.5 35q-21 0 -41.5 -5t-43 -17.5t-38 -38t-19.5 -61.5h-258q0 159 121.5 259.5t288.5 100.5q106 0 195 -42.5t143.5 -122.5t54.5 -181q0 -84 -35.5 -156.5t-97.5 -107.5v-17z" />
<glyph unicode="4" horiz-adv-x="1228" d="M1126 510v-244h-213v-266h-264v266h-577v166l477 881h262h102v-803h213zM385 510h264v459h-20z" />
<glyph unicode="5" horiz-adv-x="1153" d="M569 881q203 0 327 -127.5t124 -325.5q0 -137 -62.5 -238t-165 -150.5t-229.5 -49.5q-108 0 -197 38.5t-142.5 99.5t-82 131.5t-28.5 139.5h266q1 -6 2.5 -16.5t13 -37t29 -46.5t53.5 -36.5t84 -16.5q98 0 143.5 58.5t45.5 137.5q0 90 -54 143.5t-141 53.5 q-51 0 -93 -18.5t-58 -36.5l-17 -19l-248 68l62 680h757v-258h-532l-18 -203q73 29 161 29z" />
<glyph unicode="6" horiz-adv-x="1105" d="M545 834q189 0 313.5 -114.5t124.5 -301.5q0 -98 -36.5 -180t-98 -135.5t-140.5 -83t-165 -29.5q-85 0 -164 29t-141 82t-99 136t-37 183q0 85 39 213q19 62 84 178.5t183 308.5l118 193h297zM543 242q71 0 123.5 44t52.5 132q0 47 -17 82.5t-44.5 54.5t-56.5 28t-58 9 t-58 -9t-56.5 -28t-44.5 -54.5t-17 -82.5q0 -88 53 -132t123 -44z" />
<glyph unicode="7" horiz-adv-x="993" d="M82 1313h829v-195q-181 -190 -288 -478.5t-107 -639.5h-272q0 174 22.5 332.5t54 267.5t75 206t76 149t67.5 96h-457v262z" />
<glyph unicode="8" horiz-adv-x="1191" d="M846 709q88 -32 150.5 -120.5t62.5 -197.5q0 -77 -34.5 -150t-94.5 -128.5t-148 -89t-188 -33.5q-101 0 -188 33.5t-146.5 89.5t-93 128.5t-33.5 149.5q0 112 64.5 200t148.5 118v18q-62 33 -102.5 103t-40.5 153q0 144 116 242t281 98q105 0 194 -42.5t142 -118.5 t53 -169q0 -83 -41 -157t-102 -107v-20zM596 1081q-62 0 -101.5 -34t-39.5 -89q0 -58 42.5 -89t98.5 -31t97.5 31t41.5 89q0 55 -38.5 89t-100.5 34zM598 238q85 0 133.5 51t48.5 112q0 64 -50 115t-134 51t-134 -52t-50 -114q0 -61 49.5 -112t136.5 -51z" />
<glyph unicode="9" horiz-adv-x="1064" d="M541 479q-190 0 -314.5 114.5t-124.5 301.5q0 130 63.5 229.5t162 149t213.5 49.5q85 0 164.5 -29.5t141.5 -82.5t99 -133t37 -175q0 -119 -59 -244q-45 -95 -160.5 -302t-204.5 -357h-297zM543 1071q-71 0 -123.5 -44t-52.5 -132q0 -47 17 -82.5t44.5 -54.5t56.5 -28 t58 -9t58 9t56.5 28t44.5 54.5t17 82.5q0 88 -53 132t-123 44z" />
<glyph unicode=":" horiz-adv-x="532" d="M266 707q-68 0 -116 48t-48 115q0 69 48 116.5t116 47.5t116 -47.5t48 -116.5q0 -67 -48 -115t-116 -48zM266 -10q-68 0 -116 48t-48 116q0 69 48 116t116 47t116 -47t48 -116q0 -68 -48 -116t-116 -48z" />
<glyph unicode=";" horiz-adv-x="548" d="M266 707q-68 0 -116 48t-48 115q0 69 48 116.5t116 47.5t116 -47.5t48 -116.5q0 -67 -48 -115t-116 -48zM281 317q79 0 122 -59.5t43 -163.5q0 -77 -24 -144.5t-59 -109.5t-69.5 -72.5t-58.5 -43.5l-24 -13l-64 68q68 61 97 110t39 105q-66 4 -118 43t-52 117 q0 73 48.5 118t119.5 45z" />
<glyph unicode="&#x3c;" horiz-adv-x="1085" d="M963 922l-506 -287v-33l506 -285v-317l-881 557v123l881 559v-317z" />
<glyph unicode="=" horiz-adv-x="1218" d="M102 911h1014v-237h-1014v237zM102 512h1014v-236h-1014v236z" />
<glyph unicode="&#x3e;" horiz-adv-x="1085" d="M123 1239l881 -559v-123l-881 -557v317l506 285v33l-506 287v317z" />
<glyph unicode="?" horiz-adv-x="944" d="M295 506q0 52 3.5 88t16.5 84.5t42.5 95.5t76.5 94q28 28 70 63t64.5 54.5t40.5 49t18 61.5q0 52 -37 87.5t-109 35.5q-143 0 -164 -154h-249q0 57 12.5 110.5t43 104.5t75.5 88.5t115.5 60.5t158.5 23q190 0 297 -96t107 -242q0 -56 -16 -104.5t-45.5 -87.5t-57.5 -67.5 t-67 -63.5t-58 -56q-32 -34 -51 -69t-26.5 -73.5t-9 -61.5t-1.5 -64v-14v-43h-250v96zM422 -10q-68 0 -116 48t-48 116q0 69 48 116t116 47t116 -47t48 -116q0 -68 -48 -116t-116 -48z" />
<glyph unicode="@" horiz-adv-x="2007" d="M1012 1444q136 0 267 -39t244 -115t198.5 -180t134.5 -243.5t49 -295.5q0 -228 -98.5 -373t-258.5 -167q-86 -11 -170 14.5t-137 85.5q-43 -49 -116 -74.5t-156 -25.5q-196 0 -325.5 132.5t-129.5 350.5q0 221 129 360.5t313 139.5q147 0 240 -96h29l45 86h139v-635 q0 -53 38 -80t85 -17q117 24 117 275q0 161 -51.5 290t-139.5 209t-201 122t-241 42q-136 0 -256.5 -47t-211 -134t-143.5 -219t-53 -292q0 -205 84.5 -362.5t236.5 -242.5t349 -85q89 0 166.5 20t165.5 70l166 -168q-112 -70 -244.5 -107.5t-263.5 -37.5q-134 0 -265 38.5 t-247.5 117t-205 186.5t-140.5 258t-52 321q0 168 50.5 316t138 256.5t203 187.5t248 118.5t270.5 39.5zM973 266q95 0 146.5 67.5t51.5 180.5q0 50 -10.5 94.5t-32.5 84t-62.5 62.5t-94.5 23t-95.5 -23t-65.5 -61t-36 -81.5t-12 -90.5t12 -90.5t36 -81.5t66 -61t97 -23z " />
<glyph unicode="A" horiz-adv-x="1368" d="M864 1434l484 -1434h-295l-101 313h-536l-101 -313h-295l484 1434h360zM498 567h372l-161 498h-50z" />
<glyph unicode="B" horiz-adv-x="1263" d="M926 760q104 -31 169.5 -121.5t65.5 -224.5q0 -131 -64.5 -226t-172 -141.5t-244.5 -46.5h-537v1434h494q65 0 128.5 -14t122.5 -44t103.5 -73t71.5 -105.5t27 -136.5q0 -92 -41.5 -168t-122.5 -117v-16zM406 1192v-326h196q219 0 219 162q0 164 -219 164h-196zM618 242 q138 0 203.5 51.5t65.5 138.5q0 81 -58 138t-190 57h-233v-385h212z" />
<glyph unicode="C" horiz-adv-x="1419" d="M1028 430h309q-61 -204 -220 -322t-367 -118q-185 0 -333 93.5t-231.5 260t-83.5 373.5q0 155 48.5 290t133.5 231t205 151t259 55q207 0 367.5 -118t221.5 -322h-309q-78 170 -276 170q-171 0 -269 -126.5t-98 -330.5t99 -330.5t272 -126.5q194 0 272 170z" />
<glyph unicode="D" horiz-adv-x="1417" d="M598 1434q143 0 271.5 -47.5t228 -135.5t158.5 -226.5t59 -307.5t-59 -307.5t-158.5 -226.5t-228 -135.5t-271.5 -47.5h-455v1434h455zM598 270q192 0 314 122t122 331q0 208 -121.5 324t-314.5 116h-176v-893h176z" />
<glyph unicode="E" horiz-adv-x="1251" d="M412 256h696v-256h-965v1434h944v-256h-675v-324h614v-256h-614v-342z" />
<glyph unicode="F" horiz-adv-x="1128" d="M1087 1174h-669v-320h547v-252h-547v-602h-275v854v580h944v-260z" />
<glyph unicode="G" horiz-adv-x="1501" d="M805 782h573v-782h-190l-31 121h-27q-124 -131 -362 -131q-142 0 -265.5 55t-211.5 151t-138.5 231.5t-50.5 291.5q0 155 50 289.5t138.5 230t215 150.5t274.5 55q96 0 180 -23t142 -60t106 -82t76.5 -90t48.5 -82t27 -60l8 -23h-307q-3 7 -8.5 17.5t-28 38t-51.5 48.5 t-80.5 38.5t-112.5 17.5q-178 0 -289.5 -131t-111.5 -336q0 -206 113.5 -335.5t302.5 -129.5q116 0 197.5 44.5t119.5 119.5v125h-307v241z" />
<glyph unicode="H" horiz-adv-x="1404" d="M985 1434h277v-1434h-277v596h-565v-596h-277v1434h277v-578h565v578z" />
<glyph unicode="I" horiz-adv-x="571" d="M428 1434v-1434h-285v1434h285z" />
<glyph unicode="J" horiz-adv-x="1161" d="M379 430q0 -25 10 -53.5t30 -57t57 -47t83 -18.5q90 0 138 64.5t48 152.5v963h273v-942q0 -128 -40 -227t-107.5 -157.5t-148.5 -88t-171 -29.5q-124 0 -225.5 52.5t-162.5 154t-61 233.5h277z" />
<glyph unicode="K" horiz-adv-x="1331" d="M954 0l-417 604h-119v-604h-275v1434h275v-564h114l363 564h313l-446 -697l508 -737h-316z" />
<glyph unicode="L" horiz-adv-x="1230" d="M430 268h698v-268h-985v1434h287v-1166z" />
<glyph unicode="M" horiz-adv-x="1720" d="M1577 1434v-1434h-268v874h-17l-268 -772h-330l-266 772h-16v-874h-269v1434h351l350 -1016h33l350 1016h350z" />
<glyph unicode="N" horiz-adv-x="1417" d="M1006 1434h268v-1434h-268l-568 926h-26v-926h-269v1434h271l567 -902h25v902z" />
<glyph unicode="O" horiz-adv-x="1564" d="M784 -10q-140 0 -268.5 55t-224 150.5t-152.5 231.5t-57 290t57 290.5t152.5 231.5t223.5 150t267 55t267.5 -55t224 -150t152.5 -231.5t57 -290.5t-56.5 -290t-152 -231.5t-223.5 -150.5t-267 -55zM784 260q185 0 300.5 128t115.5 329q0 200 -116.5 328.5t-301.5 128.5 q-184 0 -299.5 -128.5t-115.5 -328.5q0 -201 116 -329t301 -128z" />
<glyph unicode="P" horiz-adv-x="1216" d="M690 1434q89 0 169 -29.5t142 -84t98 -139t36 -188.5q0 -137 -62.5 -244t-163 -162t-219.5 -55h-287v-532h-260v1434h547zM670 784q87 0 140.5 59t53.5 150q0 89 -53 139t-141 50h-267v-398h267z" />
<glyph unicode="Q" horiz-adv-x="1605" d="M1202 -12q50 0 93 14t61 28l18 13l119 -178q-40 -31 -73.5 -51t-99 -40t-138.5 -20q-145 0 -254 65.5t-146 170.5q-137 4 -261.5 61t-217 152t-147 229t-54.5 285q0 154 57 290.5t152.5 231.5t224 150t267.5 55t267 -55t223.5 -150t152.5 -231.5t57 -290.5 q0 -232 -121 -413t-315 -261q37 -55 135 -55zM387 717q0 -200 116.5 -328.5t301.5 -128.5t300.5 128t115.5 329q0 200 -116.5 328.5t-301.5 128.5q-184 0 -300 -128.5t-116 -328.5z" />
<glyph unicode="R" horiz-adv-x="1284" d="M1182 0h-303l-306 526h-170v-526h-260v1434h506q89 0 169 -29.5t142 -84t98 -139.5t36 -188q0 -142 -71.5 -251.5t-186.5 -166.5zM403 1178v-398h226q87 0 140.5 59t53.5 150q0 88 -53 138.5t-141 50.5h-226z" />
<glyph unicode="S" horiz-adv-x="1214" d="M1112 399q0 -130 -66.5 -224t-173 -139.5t-239.5 -45.5q-233 0 -382 135t-149 338h267q9 -63 38 -108.5t69.5 -68t78.5 -32.5t76 -10q31 0 63 6.5t67 22t57 48.5t22 80q0 35 -14 65t-33.5 50t-54.5 40t-61.5 31.5t-70.5 28.5q-166 66 -229 100q-200 108 -230 274 q-6 32 -6 67q0 118 63.5 207.5t169 135.5t234.5 46q107 0 197 -34t146.5 -88.5t88 -122t31.5 -136.5h-262q-10 59 -68.5 95t-136.5 36q-77 0 -128.5 -37t-51.5 -102q0 -60 47.5 -95.5t171.5 -91.5q20 -9 62.5 -26.5t74.5 -30.5t77 -36.5t77.5 -46.5t68 -57.5t58 -73t37 -90 t14.5 -110.5z" />
<glyph unicode="T" horiz-adv-x="1130" d="M1090 1434v-254h-388v-1180h-274v1180h-387v254h1049z" />
<glyph unicode="U" horiz-adv-x="1400" d="M1278 1434v-820q0 -129 -30 -233.5t-82 -176.5t-125 -120.5t-158 -71t-181 -22.5t-181 22.5t-158.5 71t-126.5 120.5t-83 176.5t-30 233.5v820h285v-799q0 -178 74.5 -276.5t219.5 -98.5t218 98t73 277v799h285z" />
<glyph unicode="V" horiz-adv-x="1376" d="M1024 1434h291l-418 -1434h-418l-418 1434h293l314 -1115h43z" />
<glyph unicode="W" horiz-adv-x="1972" d="M1620 1434h281l-304 -1434h-428l-163 926h-43l-181 -926h-428l-282 1434h280l209 -1121h43l201 1018h362l187 -1018h43z" />
<glyph unicode="X" horiz-adv-x="1484" d="M1098 0l-336 559h-29l-338 -559h-334l459 739l-430 695h326l315 -519h29l315 519h320l-430 -695l458 -739h-325z" />
<glyph unicode="Y" horiz-adv-x="1308" d="M922 1434h325l-450 -715v-719h-285v719l-451 715h324l256 -439h25z" />
<glyph unicode="Z" horiz-adv-x="1251" d="M475 268h674v-268h-1047v209l664 958h-623v267h985v-207z" />
<glyph unicode="[" horiz-adv-x="737" d="M123 1583h450v-223h-211v-1483h211v-223h-450v1929z" />
<glyph unicode="\" horiz-adv-x="1058" d="M102 1536h228l688 -1638h-227z" />
<glyph unicode="]" horiz-adv-x="737" d="M594 1583v-1929h-451v223h211v1483h-211v223h451z" />
<glyph unicode="^" horiz-adv-x="1157" d="M774 737l-174 303h-41l-176 -303h-281l416 697h123l414 -697h-281z" />
<glyph unicode="_" horiz-adv-x="1095" d="M102 0h891v-233h-891v233z" />
<glyph unicode="`" horiz-adv-x="710" d="M438 1413l129 -276h-180l-244 276h295z" />
<glyph unicode="a" horiz-adv-x="1165" d="M983 344q0 -85 29 -116t92 -31v-197h-62q-185 0 -237 131q-102 -141 -324 -141q-173 0 -276 82.5t-103 220.5q0 52 16 96t41 76.5t64 59.5t77.5 45t90 32.5t92 22.5t93.5 13.5t84.5 8t74.5 4.5q-5 162 -174 162q-41 0 -71.5 -9t-46 -22t-24.5 -26t-11 -22l-2 -9h-256 q14 140 123.5 224.5t293.5 84.5q193 0 304.5 -102t111.5 -316v-272zM360 301q0 -63 67 -89q72 -28 157 6q98 39 133 138q12 34 14 74v21q-48 -5 -79.5 -9t-74.5 -11t-70.5 -14t-58 -18.5t-48 -25t-29 -32t-11.5 -40.5z" />
<glyph unicode="b" d="M664 1034q97 0 184 -38.5t152 -106t103 -166t38 -211.5t-38 -211.5t-103 -166t-152 -106t-184 -38.5q-164 0 -261 108h-30l-29 -98h-201v1454h256v-530q98 110 265 110zM625 242q101 0 175 71t74 199t-74 199t-175 71t-163.5 -72t-62.5 -198t62.5 -198t163.5 -72z" />
<glyph unicode="c" horiz-adv-x="1202" d="M1114 360q-48 -176 -185 -273t-308 -97q-141 0 -260 66.5t-189 186.5t-70 267q0 149 72.5 270t193 187.5t263.5 66.5q177 0 312 -104t177 -281h-278q-33 64 -89 100.5t-128 36.5q-109 0 -183.5 -77.5t-74.5 -196.5t74.5 -196.5t183.5 -77.5q137 0 209 122h280z" />
<glyph unicode="d" d="M844 1454h256v-1454h-201l-29 98h-30q-97 -108 -260 -108q-199 0 -338.5 147.5t-139.5 374.5t139.5 374.5t338.5 147.5q166 0 264 -110v530zM618 242q101 0 163.5 72t62.5 198t-62.5 198t-163.5 72t-175 -71t-74 -199t74 -199t175 -71z" />
<glyph unicode="e" horiz-adv-x="1212" d="M612 1034q81 0 155.5 -22t141.5 -69.5t114.5 -116t71 -170t13.5 -222.5h-748q22 -108 98.5 -160.5t170.5 -52.5q39 0 73.5 9t56.5 21.5t38 25t23 21.5l7 9h258q-57 -150 -183 -233.5t-281 -83.5q-138 0 -256 65t-190.5 187.5t-72.5 277.5q0 116 41.5 213.5t112 162.5 t163 101.5t193.5 36.5zM621 811q-84 0 -148.5 -45t-95.5 -125h461q-44 170 -217 170z" />
<glyph unicode="f" horiz-adv-x="946" d="M766 1176q-58 38 -119 38q-56 0 -95.5 -37.5t-39.5 -89.5v-63h295v-215h-295v-809h-258v809h-172v215h172v80q0 151 107 245.5t260 94.5q44 0 85.5 -9t69 -21.5t48.5 -25t30 -21.5l10 -9z" />
<glyph unicode="g" horiz-adv-x="1177" d="M715 244q161 0 249 -94.5t83 -231.5q-4 -111 -69.5 -189t-166.5 -113.5t-227 -35.5q-234 0 -361.5 117.5t-91.5 286.5l117 94q-109 68 -109 180q0 115 127 182q-104 94 -104 246t110 251t299 99q137 0 234 -51q49 23 92.5 56t62.5 55l19 22l127 -170q-70 -47 -164 -76 q59 -80 59 -184q0 -148 -122.5 -249t-313.5 -101q-80 0 -145 18q-31 -19 -31 -51q0 -15 6 -26.5t18.5 -18t24.5 -10.5t32.5 -5.5t33 -1.5t36 0.5t31.5 0.5h144zM582 819q-86 0 -130 -34.5t-44 -94.5q0 -61 44 -98t130 -37q85 0 129.5 37t44.5 98q0 59 -44.5 94t-129.5 35z M588 -182q99 0 153 29t54 79q0 44 -39 71.5t-121 27.5q-138 0 -197 2l-69 -74q-11 -47 43 -91t176 -44z" />
<glyph unicode="h" horiz-adv-x="1267" d="M733 1034q192 0 291.5 -129.5t99.5 -349.5v-555h-274v494v22q-1 23 0 49t-2.5 53t-9 53t-18 49t-30 40t-45.5 27t-63 10q-31 0 -62.5 -6.5t-69 -27.5t-66 -54.5t-47.5 -92.5t-19 -135v-481h-275v1454h260v-536h35q111 116 295 116z" />
<glyph unicode="i" horiz-adv-x="593" d="M319 1139q-72 0 -124 51.5t-52 120.5q0 73 51.5 123.5t124.5 50.5q71 0 122 -50.5t51 -123.5q0 -69 -51.5 -120.5t-121.5 -51.5zM451 1024v-1024h-263v1024h263z" />
<glyph unicode="j" horiz-adv-x="753" d="M483 1139q-72 0 -124 51.5t-52 120.5q0 73 51.5 123.5t124.5 50.5q71 0 121.5 -50.5t50.5 -123.5q0 -69 -51 -120.5t-121 -51.5zM98 -152q58 -38 119 -38q56 0 95.5 37.5t39.5 89.5v1087h258v-1104q0 -151 -107 -245.5t-259 -94.5q-70 0 -131 21.5t-87 42.5l-26 22z" />
<glyph unicode="k" horiz-adv-x="1167" d="M1085 1024l-405 -436l405 -588h-292l-283 403l-102 -110l-7 2v-295h-258v1454h258v-778h41l330 348h313z" />
<glyph unicode="l" horiz-adv-x="552" d="M143 1454h267v-1454h-267v1454z" />
<glyph unicode="m" horiz-adv-x="1796" d="M1286 1036q193 1 290 -128.5t97 -352.5v-555h-272v494q0 129 -7 169q-20 121 -119 134q-22 2 -48 0q-21 -2 -39 -6.5t-47 -23.5t-49 -50.5t-35 -92.5t-15 -143v-481h-270v494q0 129 -7 169q-20 121 -119 134q-22 2 -48 0q-184 -15 -184 -316v-481h-271v1024h209l31 -111 h33q36 48 99 84t149 37q171 3 280 -141h31q114 141 311 143z" />
<glyph unicode="n" horiz-adv-x="1249" d="M733 1034q192 0 292.5 -129.5t100.5 -349.5v-555h-272v494q0 1 0.5 19t0.5 32.5t-1.5 40t-6.5 46.5t-12.5 46t-20.5 44t-30.5 36.5t-43.5 27t-58 11.5t-65 -4.5t-70.5 -27.5t-66 -55t-47.5 -93t-19 -136v-481h-271v1024h209l35 -125h35q114 135 311 135z" />
<glyph unicode="o" horiz-adv-x="1251" d="M623 -10q-105 0 -199.5 36.5t-166 102t-113.5 164.5t-42 217q0 119 44 219.5t118 166t169 102t198 36.5q139 0 256 -61.5t189.5 -182t72.5 -276.5q0 -119 -43.5 -219t-116 -166t-167.5 -102.5t-199 -36.5zM631 227q114 0 182 81t68 204t-68 204t-182 81 q-115 0 -187.5 -81.5t-72.5 -203.5t72.5 -203.5t187.5 -81.5z" />
<glyph unicode="p" d="M664 1034q97 0 184 -38.5t152 -106t103 -166t38 -211.5t-38 -211.5t-103 -166t-152 -106t-184 -38.5q-167 0 -265 110v-510h-256v1434h201l29 -98h30q97 108 261 108zM625 242q101 0 175 71t74 199t-74 199t-175 71t-163.5 -72t-62.5 -198t62.5 -198t163.5 -72z" />
<glyph unicode="q" horiz-adv-x="1284" d="M920 1024h200v-1434h-256v510q-98 -110 -264 -110q-97 0 -184 38.5t-152 106t-103 166t-38 211.5t38 211.5t103 166t152 106t184 38.5q160 0 258 -106h33zM639 242q101 0 163 72t62 198t-62 198t-163 72q-65 0 -120.5 -29t-92.5 -92t-37 -149t37 -149t92.5 -92t120.5 -29 z" />
<glyph unicode="r" horiz-adv-x="880" d="M735 1034h64v-262q-40 8 -90 8q-56 0 -106.5 -15t-93 -45t-68 -82t-25.5 -120v-518h-273v1024h209l37 -113h33q123 123 313 123z" />
<glyph unicode="s" horiz-adv-x="1040" d="M686 723q-8 36 -42 65t-103 29q-60 0 -91.5 -25t-31.5 -61q0 -25 14 -43.5t41 -30t47 -17t51 -11.5q53 -11 91 -21.5t84 -28t77.5 -40t59 -53.5t41.5 -73.5t14 -95.5q0 -153 -110 -240t-275 -87q-179 0 -300 99.5t-130 260.5h252q6 -56 46.5 -98.5t125.5 -42.5 q70 0 99.5 29t29.5 69q0 51 -37.5 75.5t-103.5 39.5q-141 31 -207 62q-174 82 -174 247q0 96 57 166.5t144 103.5t190 33q168 0 276 -89t117 -222h-252z" />
<glyph unicode="t" horiz-adv-x="1019" d="M819 258l99 -182q-4 -3 -10.5 -9t-30 -21t-49.5 -26t-68 -20.5t-86 -9.5q-153 0 -260 94.5t-107 245.5v475h-205v201h103q53 0 85 32.5t32 87.5v205h247v-307h258v-219h-258v-459q0 -52 37.5 -87.5t93.5 -35.5q27 0 57 8.5t46 17.5z" />
<glyph unicode="u" horiz-adv-x="1265" d="M846 1024h276v-1024h-204l-37 115h-27q-40 -50 -113.5 -87.5t-185.5 -37.5q-200 0 -306 129t-106 350v555h279v-494q0 -39 1.5 -67.5t7 -67t18.5 -65.5t32.5 -52t52 -38t74.5 -13q31 0 60 7t62.5 27.5t58 54t41 92t16.5 135.5v481z" />
<glyph unicode="v" horiz-adv-x="1265" d="M891 1024h272l-332 -1024h-262h-135l-332 1024h273l237 -754h41z" />
<glyph unicode="w" horiz-adv-x="1740" d="M1366 1024h262l-244 -1024h-360l-139 598h-29l-139 -598h-361l-243 1024h262l157 -715h35l142 633h323l144 -633h32z" />
<glyph unicode="x" horiz-adv-x="1263" d="M856 0l-209 346h-29l-210 -346h-295l338 526l-318 498h289l199 -307h24l197 307h288l-317 -498l338 -526h-295z" />
<glyph unicode="y" horiz-adv-x="1271" d="M915 1024h275l-356 -1063v-1l-1 -2q-48 -144 -91 -209q-109 -169 -343 -169q-122 0 -200 36t-111 77l129 182q9 -9 26.5 -21.5t56 -27t77.5 -14.5q132 0 166 104l28 84h-137l-352 1024h285l258 -745h41z" />
<glyph unicode="z" horiz-adv-x="1116" d="M479 229h514v-229h-870v135l493 660h-473v229h830v-135z" />
<glyph unicode="{" horiz-adv-x="722" d="M485 858q0 -151 -86 -231v-17q86 -80 86 -231v-430q0 -26 0.5 -38.5t4 -29.5t11 -24.5t21.5 -13t35 -5.5h23v-184h-101q-106 0 -167.5 65t-61.5 177v462q0 87 -34 130.5t-114 43.5v168v5q80 0 114 43.5t34 130.5v462q0 112 61.5 177t167.5 65h101v-184h-23 q-21 0 -35 -5.5t-21.5 -13t-11 -24.5t-4 -29.5t-0.5 -38.5v-430z" />
<glyph unicode="|" horiz-adv-x="538" d="M395 1577v-1864h-252v1864h252z" />
<glyph unicode="}" horiz-adv-x="722" d="M473 879q0 -87 34 -130.5t114 -43.5v-168v-5q-80 0 -114 -43.5t-34 -130.5v-462q0 -112 -61.5 -177t-167.5 -65h-101v184h23q21 0 35 5.5t21.5 13t11 24.5t4 29.5t0.5 38.5v430q0 151 86 231v17q-86 80 -86 231v430q0 26 -0.5 38.5t-4 29.5t-11 24.5t-21.5 13t-35 5.5 h-23v184h101q106 0 167.5 -65t61.5 -177v-462z" />
<glyph unicode="~" horiz-adv-x="1351" d="M1249 690q-2 -6 -7 -16.5t-22.5 -40t-38 -56t-56 -57.5t-75 -51.5t-95.5 -31.5t-117 -3t-126.5 34.5t-119.5 48.5t-96 22q-48 0 -93 -25.5t-65 -50.5l-21 -25l-215 82q2 6 7 16t23 39t39 55t56.5 56.5t75 51t95 32.5t116.5 6q65 -6 129.5 -31.5t117 -48.5t93.5 -24 q31 -1 61 9.5t50.5 25t36.5 29.5t24 26l8 10z" />
<glyph unicode="&#xa1;" horiz-adv-x="573" d="M287 707q-68 0 -116 47t-48 116q0 68 48.5 116t115.5 48t115.5 -48t48.5 -116q0 -69 -48 -116t-116 -47zM188 614h195l41 -1024h-274z" />
<glyph unicode="&#xa2;" horiz-adv-x="1222" d="M727 399q64 30 107 101h280q-40 -147 -144.5 -240.5t-242.5 -120.5v-145h-231v149q-172 41 -283 179.5t-111 326.5t111 326t283 182v150h231v-142q146 -27 251.5 -126t141.5 -251h-278q-43 81 -115 115v-504zM367 651q0 -78 35 -141.5t94 -97.5v479q-59 -34 -94 -98 t-35 -142z" />
<glyph unicode="&#xa3;" horiz-adv-x="1124" d="M524 266v-16h504v-250h-924v248q5 0 13.5 1.5t33 8t47 15.5t49.5 27t46.5 40.5t33 57.5t13.5 77q0 39 -8 66h-230v215h127q-43 91 -43 188q0 79 27.5 144t71.5 107.5t101 71.5t114.5 41.5t113.5 12.5q74 0 138 -18t106.5 -46.5t77 -63t53.5 -69t31.5 -63t17.5 -46.5 l4 -18l-241 -63q-1 6 -4.5 15.5t-17 34t-31.5 43.5t-51 34.5t-72 15.5q-76 0 -124 -38t-48 -113q0 -69 59 -170h354v-215h-258q2 -10 2 -35q0 -160 -86 -240z" />
<glyph unicode="&#xa4;" horiz-adv-x="1284" d="M1087 512q0 -118 -59 -223l154 -154l-164 -164l-154 154q-102 -57 -219 -57q-123 0 -223 59l-156 -156l-164 164l154 154q-59 105 -59 223t59 223l-154 154l164 164l154 -154q102 57 223 57q119 0 221 -57l154 154l164 -164l-154 -154q59 -105 59 -223zM451 512 q0 -78 56 -135.5t136 -57.5q81 0 137 57.5t56 135.5t-56 135.5t-137 57.5q-80 0 -136 -57.5t-56 -135.5z" />
<glyph unicode="&#xa5;" horiz-adv-x="1284" d="M1202 1311l-297 -457h160v-207h-291v-106h291v-207h-291v-334h-266v334h-289v207h289v106h-289v207h158l-295 457h291l260 -404h16l260 404h293z" />
<glyph unicode="&#xa6;" horiz-adv-x="538" d="M143 1577h252v-727h-252v727zM143 -287v727h252v-727h-252z" />
<glyph unicode="&#xa7;" horiz-adv-x="1085" d="M983 535q0 -217 -182 -306q68 -37 106.5 -117t38.5 -173q0 -107 -55 -187.5t-143.5 -121t-194.5 -40.5q-174 0 -294 103.5t-120 261.5h264q0 -50 42.5 -80.5t97.5 -30.5q56 0 96.5 33t40.5 96q0 124 -174 177q-76 25 -129 47t-109 55.5t-89.5 71.5t-55 93t-21.5 122 q0 103 47 183t134 124q-56 35 -101 112.5t-45 176.5q0 122 71.5 205t192.5 118q65 19 136 19h2q167 0 284 -105t121 -260h-264q0 32 -14.5 55t-37 34.5t-44.5 16.5t-43 5q-54 0 -96 -32t-42 -101q0 -70 45 -107.5t132 -64.5q43 -13 66.5 -20.5t64 -22.5t63.5 -26.5 t55.5 -30.5t51.5 -37.5t41 -45t33.5 -55.5t19.5 -66t8 -79zM555 391q68 0 112 35t44 96q0 69 -52.5 111.5t-128.5 42.5q-68 0 -112.5 -35t-44.5 -96q0 -69 53 -111.5t129 -42.5z" />
<glyph unicode="&#xa8;" horiz-adv-x="983" d="M293 1128q-61 0 -105.5 44t-44.5 106t44 104.5t106 42.5q61 0 104 -42.5t43 -104.5q0 -61 -43.5 -105.5t-103.5 -44.5zM690 1128q-60 0 -103.5 44.5t-43.5 105.5q0 62 43 104.5t104 42.5q62 0 106 -42.5t44 -104.5t-44 -106t-106 -44z" />
<glyph unicode="&#xa9;" horiz-adv-x="1658" d="M829 -10q-197 0 -364.5 97.5t-265 265t-97.5 364.5t97.5 364.5t265 265t364.5 97.5q196 0 363.5 -97.5t265.5 -265t98 -364.5t-98 -364.5t-265.5 -265t-363.5 -97.5zM829 182q142 0 262 68.5t191.5 192t71.5 274.5q0 113 -42 213t-113.5 170t-167.5 110.5t-202 40.5 q-142 0 -262 -68.5t-191 -191.5t-71 -274t71 -274.5t191 -192t262 -68.5zM1186 625q-25 -134 -123.5 -210.5t-222.5 -76.5q-149 0 -259 107.5t-110 271.5t110 271.5t257 107.5q127 0 229 -80t123 -217h-213q-11 44 -53.5 69t-85.5 25q-62 0 -108 -49t-46 -127t46.5 -127 t115.5 -49q89 0 127 84h213z" />
<glyph unicode="&#xab;" horiz-adv-x="1271" d="M412 199l-330 413l330 414h286l-333 -414l333 -413h-286zM862 199l-330 413l330 414h287l-334 -414l334 -413h-287z" />
<glyph unicode="&#xac;" horiz-adv-x="1179" d="M1077 367h-229l-2 251h-744v232h973v-55z" />
<glyph unicode="&#xad;" horiz-adv-x="942" d="M102 754h738v-234h-738v234z" />
<glyph unicode="&#xae;" horiz-adv-x="1658" d="M829 -10q-197 0 -364.5 97.5t-265 265t-97.5 364.5t97.5 364.5t265 265t364.5 97.5q196 0 363.5 -97.5t265.5 -265t98 -364.5t-98 -364.5t-265.5 -265t-363.5 -97.5zM829 182q142 0 262 68.5t191.5 192t71.5 274.5q0 113 -42 213t-113.5 170t-167.5 110.5t-202 40.5 q-142 0 -262 -68.5t-191 -191.5t-71 -274t71 -274.5t191 -192t262 -68.5zM958 348l-151 270h-37v-270h-182v737h250q126 0 199 -62t73 -169q0 -44 -12.5 -80.5t-31 -58t-36.5 -36.5t-30 -21l-13 -5l172 -305h-201zM770 788h64q45 0 65.5 14.5t20.5 47.5q0 65 -89 65h-61 v-127z" />
<glyph unicode="&#xaf;" horiz-adv-x="1003" d="M143 1352h717v-185h-717v185z" />
<glyph unicode="&#xb0;" horiz-adv-x="708" d="M354 823q-104 0 -178 74t-74 178t74 178t178 74q103 0 177.5 -74t74.5 -178t-74.5 -178t-177.5 -74zM354 1004q31 0 51.5 20t20.5 51t-20.5 51.5t-51.5 20.5t-51 -20.5t-20 -51.5t20 -51t51 -20z" />
<glyph unicode="&#xb1;" horiz-adv-x="1054" d="M651 885h301v-238h-301v-260h-245v260h-304v238h304v258h245v-258zM102 0v238h850v-238h-850z" />
<glyph unicode="&#xb2;" horiz-adv-x="761" d="M502 985q-25 -16 -65.5 -38.5t-60 -36t-30.5 -29.5h307v-183h-551v74q0 86 48.5 160t130.5 119q109 60 146.5 88t37.5 59q0 25 -21.5 41t-60.5 16q-43 0 -67.5 -23t-24.5 -65h-187q0 47 16 93t49 88t91.5 68t134.5 26q121 0 192.5 -62t71.5 -168q0 -76 -38.5 -127 t-118.5 -100z" />
<glyph unicode="&#xb3;" horiz-adv-x="774" d="M559 1075q36 -8 74.5 -53t38.5 -109q0 -90 -77 -156.5t-200 -66.5q-129 0 -211 74.5t-82 187.5h189q2 -37 29.5 -62.5t76.5 -25.5q38 0 59 17t21 47q0 31 -24.5 50t-73.5 19h-49v152h47q86 0 86 59q0 30 -21 46t-51 16t-51.5 -17t-26.5 -43h-186q0 94 73.5 162t198.5 68 q114 0 180 -57.5t66 -147.5q0 -63 -27.5 -98.5t-58.5 -49.5v-12z" />
<glyph unicode="&#xb4;" horiz-adv-x="710" d="M272 1413h295l-243 -276h-181z" />
<glyph unicode="&#xb5;" horiz-adv-x="1265" d="M856 1024h266v-1024h-204l-39 137h-11q-38 -51 -121.5 -99t-199.5 -48q-87 0 -168 47v-447h-236v1434h273v-494v-17v-50t3.5 -52t9.5 -55.5t18.5 -48.5t30.5 -42.5t46 -26.5t64 -11q31 0 63 6.5t70 27.5t67 54.5t48.5 92.5t19.5 135v481z" />
<glyph unicode="&#xb6;" horiz-adv-x="1308" d="M123 1049q0 117 59.5 206.5t159.5 135.5q93 43 205 43h639v-148h-164v-1696h-150v1696h-172v-1696h-153v1072q-173 0 -291 100q-62 46 -97.5 121.5t-35.5 165.5z" />
<glyph unicode="&#xb7;" horiz-adv-x="593" d="M266 514q-68 0 -116 48t-48 116q0 69 48 116.5t116 47.5t116 -47.5t48 -116.5q0 -68 -48 -116t-116 -48z" />
<glyph unicode="&#xb8;" horiz-adv-x="737" d="M293 10h170l-55 -94q70 16 128 -27t58 -122q0 -77 -60 -132t-161 -55q-48 0 -89 13t-66 31t-43 36.5t-25 31.5l-7 13l123 68q4 -6 11 -16t33 -26t55 -16q30 0 46.5 14t16.5 33q0 20 -16 36t-47 16q-17 0 -33 -6t-24 -12l-7 -5l-92 96z" />
<glyph unicode="&#xb9;" horiz-adv-x="585" d="M285 696v439h-193v165h117q38 0 61 23t23 63v48h188l2 -738h-198z" />
<glyph unicode="&#xbb;" horiz-adv-x="1269" d="M369 199h-287l334 413l-334 414h287l329 -414zM817 199h-287l334 413l-334 414h287l330 -414z" />
<glyph unicode="&#xbf;" horiz-adv-x="944" d="M522 1034q68 0 116 -48t48 -116q0 -69 -48 -116t-116 -47t-116 47t-48 116q0 68 48 116t116 48zM649 518q0 -52 -3.5 -88t-16.5 -84.5t-42.5 -95.5t-76.5 -94q-28 -28 -70 -63t-64.5 -54.5t-40.5 -49t-18 -61.5q0 -52 37 -87.5t109 -35.5q143 0 164 154h250 q0 -57 -13 -110.5t-43 -104.5t-75.5 -88.5t-116 -60.5t-158.5 -23q-190 0 -296.5 96t-106.5 242q0 56 16 104.5t45.5 87.5t57 67.5t66.5 63.5t58 56q32 34 51 69t26.5 73.5t9 61.5t1.5 64v5v4.5v4.5v43h250v-96z" />
<glyph unicode="&#xc0;" horiz-adv-x="1368" d="M920 1546h-218l-290 277h352zM864 1434l484 -1434h-295l-101 313h-536l-101 -313h-295l484 1434h360zM498 567h372l-161 498h-50z" />
<glyph unicode="&#xc1;" horiz-adv-x="1368" d="M1008 1823l-291 -277h-217l155 277h353zM864 1434l484 -1434h-295l-101 313h-536l-101 -313h-295l484 1434h360zM498 567h372l-161 498h-50z" />
<glyph unicode="&#xc2;" horiz-adv-x="1368" d="M664 1686l-107 -140h-264l268 316h246l268 -316h-264l-106 140h-41zM864 1434l484 -1434h-295l-101 313h-536l-101 -313h-295l484 1434h360zM498 567h372l-161 498h-50z" />
<glyph unicode="&#xc3;" horiz-adv-x="1368" d="M539 1597q-22 2 -43 -6.5t-34.5 -22.5t-24 -28t-15.5 -24l-4 -11l-156 101q4 10 11.5 27t36 58t61.5 71t88 49t116 8q47 -8 95 -34.5t87 -49.5t68 -25q22 -2 43.5 7t36 23.5t25.5 28.5t16 25l6 10l156 -104q-4 -10 -11.5 -26.5t-36 -57.5t-62 -70t-89 -47.5t-116.5 -7.5 q-47 8 -96 34t-88 48t-70 24zM864 1434l484 -1434h-295l-101 313h-536l-101 -313h-295l484 1434h360zM498 567h372l-161 498h-50z" />
<glyph unicode="&#xc4;" horiz-adv-x="1368" d="M438 1534q-69 0 -119.5 49.5t-50.5 118.5q0 71 50 120.5t120 49.5t119 -49t49 -121q0 -69 -49.5 -118.5t-118.5 -49.5zM930 1534q-69 0 -119.5 49.5t-50.5 118.5q0 71 50 120.5t120 49.5t119 -49t49 -121q0 -69 -49.5 -118.5t-118.5 -49.5zM864 1434l484 -1434h-295 l-101 313h-536l-101 -313h-295l484 1434h360zM498 567h372l-161 498h-50z" />
<glyph unicode="&#xc5;" horiz-adv-x="1368" d="M887 1368l461 -1368h-295l-101 313h-536l-101 -313h-295l459 1358q-47 62 -47 143q0 101 72.5 173.5t173.5 72.5q102 0 176 -72.5t74 -173.5q0 -77 -41 -133zM680 1567q-27 0 -45.5 -19.5t-18.5 -46.5t18.5 -46t45.5 -19q26 0 44.5 19.5t18.5 45.5q0 27 -18.5 46.5 t-44.5 19.5zM498 567h372l-161 498h-50z" />
<glyph unicode="&#xc6;" horiz-adv-x="2129" d="M1249 256h697v-256h-965v313h-457l-198 -313h-306l908 1434h309h688v-256h-676v-324h615v-256h-615v-342zM686 567h295v412h-33z" />
<glyph unicode="&#xc7;" horiz-adv-x="1419" d="M756 260q194 0 272 170h309q-53 -180 -183.5 -293.5t-307.5 -140.5l-37 -64q74 16 134.5 -29t60.5 -128q0 -81 -62 -138t-170 -57q-50 0 -93 13.5t-69.5 33t-45.5 38.5t-26 33l-8 13l129 70q1 -2 4 -6.5t13 -14.5t21 -18t29 -14.5t38 -6.5q31 0 48 15.5t17 34.5 q0 21 -16 37t-49 16q-18 0 -35 -6t-25 -12l-8 -5l-96 101l64 94q-164 21 -291.5 118.5t-199 254.5t-71.5 348q0 155 48.5 290t133.5 231t205 151t259 55q207 0 367.5 -118t221.5 -322h-309q-78 170 -276 170q-171 0 -269 -126.5t-98 -330.5t99 -330.5t272 -126.5z" />
<glyph unicode="&#xc8;" horiz-adv-x="1251" d="M668 1823l155 -277h-217l-291 277h353zM412 256h696v-256h-965v1434h944v-256h-675v-324h614v-256h-614v-342z" />
<glyph unicode="&#xc9;" horiz-adv-x="1251" d="M641 1823h352l-291 -277h-217zM412 256h696v-256h-965v1434h944v-256h-675v-324h614v-256h-614v-342z" />
<glyph unicode="&#xca;" horiz-adv-x="1251" d="M604 1686l-106 -140h-265l269 316h246l268 -316h-264l-107 140h-41zM412 256h696v-256h-965v1434h944v-256h-675v-324h614v-256h-614v-342z" />
<glyph unicode="&#xcb;" horiz-adv-x="1251" d="M362 1534q-69 0 -119 49.5t-50 118.5q0 71 49.5 120.5t119.5 49.5t119 -49t49 -121q0 -69 -49.5 -118.5t-118.5 -49.5zM854 1534q-69 0 -119.5 49.5t-50.5 118.5q0 71 50 120.5t120 49.5t119 -49t49 -121q0 -69 -49.5 -118.5t-118.5 -49.5zM412 256h696v-256h-965v1434 h944v-256h-675v-324h614v-256h-614v-342z" />
<glyph unicode="&#xcc;" horiz-adv-x="571" d="M344 1823l156 -277h-217l-291 277h352zM428 1434v-1434h-285v1434h285z" />
<glyph unicode="&#xcd;" horiz-adv-x="571" d="M279 1823h352l-291 -277h-217zM428 1434v-1434h-285v1434h285z" />
<glyph unicode="&#xce;" horiz-adv-x="571" d="M264 1686l-106 -140h-264l268 316h246l268 -316h-264l-107 140h-41zM143 0v1434h285v-1434h-285z" />
<glyph unicode="&#xcf;" horiz-adv-x="571" d="M31 1534q-69 0 -119.5 49.5t-50.5 118.5q0 71 50 120.5t120 49.5q69 0 118.5 -49t49.5 -121q0 -69 -49.5 -118.5t-118.5 -49.5zM522 1534q-69 0 -119.5 49.5t-50.5 118.5q0 71 50 120.5t120 49.5t119 -49t49 -121q0 -69 -49.5 -118.5t-118.5 -49.5zM428 1434v-1434h-285 v1434h285z" />
<glyph unicode="&#xd0;" horiz-adv-x="1560" d="M700 1434q143 0 271.5 -47.5t228 -135.5t158.5 -226.5t59 -307.5t-59 -307.5t-158.5 -226.5t-228 -135.5t-271.5 -47.5h-454v637h-185v217h185v580h454zM700 270q192 0 314.5 122t122.5 331q0 208 -121.5 324t-315.5 116h-176v-309h336v-217h-336v-367h176z" />
<glyph unicode="&#xd1;" horiz-adv-x="1417" d="M1130 1700q-4 -10 -11.5 -26.5t-36 -57.5t-62 -70t-89 -47.5t-116.5 -7.5q-47 8 -96 34t-88 48t-70 24q-22 2 -43 -6.5t-34.5 -22.5t-24 -28t-15.5 -24l-4 -11l-155 101q4 10 11.5 27t36 58t61.5 71t88 49t116 8q47 -8 95 -34.5t87 -49.5t68 -25q22 -2 43.5 7t36 23.5 t25.5 28.5t17 25l5 10zM1006 1434h268v-1434h-268l-568 926h-26v-926h-269v1434h271l567 -902h25v902z" />
<glyph unicode="&#xd2;" horiz-adv-x="1564" d="M854 1823l156 -277h-217l-291 277h352zM784 -10q-140 0 -268.5 55t-224 150.5t-152.5 231.5t-57 290t57 290.5t152.5 231.5t223.5 150t267 55t267.5 -55t224 -150t152.5 -231.5t57 -290.5t-56.5 -290t-152 -231.5t-223.5 -150.5t-267 -55zM784 260q185 0 300.5 128 t115.5 329q0 200 -116.5 328.5t-301.5 128.5q-184 0 -299.5 -128.5t-115.5 -328.5q0 -201 116 -329t301 -128z" />
<glyph unicode="&#xd3;" horiz-adv-x="1564" d="M838 1823h352l-291 -277h-217zM784 -10q-140 0 -268.5 55t-224 150.5t-152.5 231.5t-57 290t57 290.5t152.5 231.5t223.5 150t267 55t267.5 -55t224 -150t152.5 -231.5t57 -290.5t-56.5 -290t-152 -231.5t-223.5 -150.5t-267 -55zM784 260q185 0 300.5 128t115.5 329 q0 200 -116.5 328.5t-301.5 128.5q-184 0 -299.5 -128.5t-115.5 -328.5q0 -201 116 -329t301 -128z" />
<glyph unicode="&#xd4;" horiz-adv-x="1564" d="M780 1686l-106 -140h-264l268 316h246l268 -316h-264l-107 140h-41zM782 1444q139 0 267.5 -55t224 -150t152.5 -231.5t57 -290.5t-56.5 -290t-152 -231.5t-223.5 -150.5t-267 -55q-140 0 -268.5 55t-224 150.5t-152.5 231.5t-57 290t57 290.5t152.5 231.5t223.5 150 t267 55zM784 260q185 0 300.5 128t115.5 329q0 200 -116.5 328.5t-301.5 128.5q-184 0 -299.5 -128.5t-115.5 -328.5q0 -201 116 -329t301 -128z" />
<glyph unicode="&#xd5;" horiz-adv-x="1564" d="M1227 1700q-4 -10 -12 -26.5t-36.5 -57.5t-61.5 -70t-89 -47.5t-117 -7.5q-47 8 -96 34t-88 48t-70 24q-22 2 -43 -6.5t-34 -22.5t-23.5 -28t-14.5 -24l-5 -11l-156 101q4 10 11.5 27t36 58t61.5 71t88 49t116 8q47 -8 95 -34.5t87 -49.5t68 -25q22 -2 43.5 7t36 23.5 t25.5 28.5t17 25l5 10zM784 -10q-140 0 -268.5 55t-224 150.5t-152.5 231.5t-57 290t57 290.5t152.5 231.5t223.5 150t267 55t267.5 -55t224 -150t152.5 -231.5t57 -290.5t-56.5 -290t-152 -231.5t-223.5 -150.5t-267 -55zM784 260q185 0 300.5 128t115.5 329 q0 200 -116.5 328.5t-301.5 128.5q-184 0 -299.5 -128.5t-115.5 -328.5q0 -201 116 -329t301 -128z" />
<glyph unicode="&#xd6;" horiz-adv-x="1564" d="M545 1534q-69 0 -119.5 49.5t-50.5 118.5q0 71 50 120.5t120 49.5q69 0 118.5 -49t49.5 -121q0 -69 -49.5 -118.5t-118.5 -49.5zM1036 1534q-69 0 -119.5 49.5t-50.5 118.5q0 71 50 120.5t120 49.5t119 -49t49 -121q0 -69 -49.5 -118.5t-118.5 -49.5zM784 -10 q-140 0 -268.5 55t-224 150.5t-152.5 231.5t-57 290t57 290.5t152.5 231.5t223.5 150t267 55t267.5 -55t224 -150t152.5 -231.5t57 -290.5t-56.5 -290t-152 -231.5t-223.5 -150.5t-267 -55zM784 260q185 0 300.5 128t115.5 329q0 200 -116.5 328.5t-301.5 128.5 q-184 0 -299.5 -128.5t-115.5 -328.5q0 -201 116 -329t301 -128z" />
<glyph unicode="&#xd7;" horiz-adv-x="1241" d="M1118 940l-334 -334l334 -334l-164 -163l-333 333l-334 -333l-164 163l334 334l-334 334l164 164l334 -334l333 334z" />
<glyph unicode="&#xd8;" horiz-adv-x="1605" d="M1292 1217q90 -98 140.5 -226t50.5 -274q0 -154 -56.5 -290t-152 -231.5t-223.5 -150.5t-267 -55q-162 0 -303 69l-84 -118l-182 133l82 116q-101 99 -158 235t-57 292q0 154 57 290.5t152.5 231.5t223.5 150t267 55q175 0 330 -84l92 131l187 -135zM367 717 q0 -174 90 -297l499 717q-75 37 -174 37q-184 0 -299.5 -128.5t-115.5 -328.5zM784 260q185 0 300.5 128t115.5 329q0 153 -70 268l-491 -700q70 -25 145 -25z" />
<glyph unicode="&#xd9;" horiz-adv-x="1400" d="M752 1823l155 -277h-217l-291 277h353zM1278 1434v-820q0 -129 -30 -233.5t-82 -176.5t-125 -120.5t-158 -71t-181 -22.5t-181 22.5t-158.5 71t-126.5 120.5t-83 176.5t-30 233.5v820h285v-799q0 -178 74.5 -276.5t219.5 -98.5t218 98t73 277v799h285z" />
<glyph unicode="&#xda;" horiz-adv-x="1400" d="M711 1823h352l-291 -277h-217zM1278 1434v-820q0 -129 -30 -233.5t-82 -176.5t-125 -120.5t-158 -71t-181 -22.5t-181 22.5t-158.5 71t-126.5 120.5t-83 176.5t-30 233.5v820h285v-799q0 -178 74.5 -276.5t219.5 -98.5t218 98t73 277v799h285z" />
<glyph unicode="&#xdb;" horiz-adv-x="1400" d="M678 1686l-107 -140h-264l268 316h246l269 -316h-265l-106 140h-41zM993 1434h285v-820q0 -129 -30 -233.5t-82 -176.5t-125 -120.5t-158 -71t-181 -22.5t-181 22.5t-158.5 71t-126.5 120.5t-83 176.5t-30 233.5v820h285v-799q0 -178 74.5 -276.5t219.5 -98.5t218 98 t73 277v799z" />
<glyph unicode="&#xdc;" horiz-adv-x="1400" d="M444 1534q-69 0 -119.5 49.5t-50.5 118.5q0 71 50 120.5t120 49.5t119 -49t49 -121q0 -69 -49.5 -118.5t-118.5 -49.5zM936 1534q-69 0 -119.5 49.5t-50.5 118.5q0 71 50 120.5t120 49.5t119 -49t49 -121q0 -69 -49.5 -118.5t-118.5 -49.5zM1278 1434v-820 q0 -129 -30 -233.5t-82 -176.5t-125 -120.5t-158 -71t-181 -22.5t-181 22.5t-158.5 71t-126.5 120.5t-83 176.5t-30 233.5v820h285v-799q0 -178 74.5 -276.5t219.5 -98.5t218 98t73 277v799h285z" />
<glyph unicode="&#xdd;" horiz-adv-x="1308" d="M1020 1823l-291 -277h-217l156 277h352zM922 1434h325l-450 -715v-719h-285v719l-451 715h324l256 -439h25z" />
<glyph unicode="&#xde;" horiz-adv-x="1216" d="M690 1202q120 0 220 -49.5t162.5 -151.5t62.5 -239t-62.5 -244t-163 -162t-219.5 -55h-287v-301h-260v1202v232h260v-232h287zM670 553q87 0 140.5 59t53.5 150q0 89 -53 138.5t-141 49.5h-267v-397h267z" />
<glyph unicode="&#xdf;" horiz-adv-x="1241" d="M866 756q117 -26 195 -113t78 -233q0 -184 -120 -302t-292 -118q-84 0 -152.5 26.5t-107.5 59.5l108 155q49 -26 119 -26q84 0 140.5 51.5t56.5 151.5q0 109 -69.5 162t-192.5 53h-107v237h66q84 0 135 53.5t51 130.5q0 75 -50 120.5t-126 45.5q-79 0 -137 -48.5 t-58 -137.5v-1024h-260v1024q0 71 15.5 132.5t50 115t86 91.5t127.5 59.5t170 21.5q207 0 321.5 -97.5t114.5 -256.5q0 -103 -45 -187t-117 -121v-26z" />
<glyph unicode="&#xe0;" horiz-adv-x="1165" d="M711 1137h-181l-243 276h295zM983 344q0 -85 29 -116t92 -31v-197h-62q-185 0 -237 131q-102 -141 -324 -141q-173 0 -276 82.5t-103 220.5q0 52 16 96t41 76.5t64 59.5t77.5 45t90 32.5t92 22.5t93.5 13.5t84.5 8t74.5 4.5q-5 162 -174 162q-41 0 -71.5 -9t-46 -22 t-24.5 -26t-11 -22l-2 -9h-256q14 140 123.5 224.5t293.5 84.5q193 0 304.5 -102t111.5 -316v-272zM360 301q0 -63 67 -89q72 -28 157 6q98 39 133 138q12 34 14 74v21q-48 -5 -79.5 -9t-74.5 -11t-70.5 -14t-58 -18.5t-48 -25t-29 -32t-11.5 -40.5z" />
<glyph unicode="&#xe1;" horiz-adv-x="1165" d="M879 1413l-244 -276h-180l129 276h295zM983 344q0 -85 29 -116t92 -31v-197h-62q-185 0 -237 131q-102 -141 -324 -141q-173 0 -276 82.5t-103 220.5q0 52 16 96t41 76.5t64 59.5t77.5 45t90 32.5t92 22.5t93.5 13.5t84.5 8t74.5 4.5q-5 162 -174 162q-41 0 -71.5 -9 t-46 -22t-24.5 -26t-11 -22l-2 -9h-256q14 140 123.5 224.5t293.5 84.5q193 0 304.5 -102t111.5 -316v-272zM360 301q0 -63 67 -89q72 -28 157 6q98 39 133 138q12 34 14 74v21q-48 -5 -79.5 -9t-74.5 -11t-70.5 -14t-58 -18.5t-48 -25t-29 -32t-11.5 -40.5z" />
<glyph unicode="&#xe2;" horiz-adv-x="1165" d="M547 1278l-98 -139h-240l244 315h223l244 -315h-240l-98 139h-35zM983 344q0 -85 29 -116t92 -31v-197h-62q-185 0 -237 131q-102 -141 -324 -141q-173 0 -276 82.5t-103 220.5q0 52 16 96t41 76.5t64 59.5t77.5 45t90 32.5t92 22.5t93.5 13.5t84.5 8t74.5 4.5 q-5 162 -174 162q-41 0 -71.5 -9t-46 -22t-24.5 -26t-11 -22l-2 -9h-256q14 140 123.5 224.5t293.5 84.5q193 0 304.5 -102t111.5 -316v-272zM360 301q0 -63 67 -89q72 -28 157 6q98 39 133 138q12 34 14 74v21q-48 -5 -79.5 -9t-74.5 -11t-70.5 -14t-58 -18.5t-48 -25 t-29 -32t-11.5 -40.5z" />
<glyph unicode="&#xe3;" horiz-adv-x="1165" d="M438 1196q-21 2 -40 -6t-31 -21t-21.5 -26t-13.5 -22l-4 -9l-142 90q4 9 11 24.5t32.5 53t56 65t80.5 45t105 7.5q52 -9 124.5 -53t102.5 -46q20 -2 39.5 6t32.5 21t23 26t15 22l5 9l141 -94q-3 -9 -10 -24t-32.5 -52.5t-56 -64t-81 -43t-106.5 -6.5q-43 8 -87 31.5 t-80 44t-63 22.5zM983 344q0 -85 29 -116t92 -31v-197h-62q-185 0 -237 131q-102 -141 -324 -141q-173 0 -276 82.5t-103 220.5q0 52 16 96t41 76.5t64 59.5t77.5 45t90 32.5t92 22.5t93.5 13.5t84.5 8t74.5 4.5q-5 162 -174 162q-41 0 -71.5 -9t-46 -22t-24.5 -26t-11 -22 l-2 -9h-256q14 140 123.5 224.5t293.5 84.5q193 0 304.5 -102t111.5 -316v-272zM360 301q0 -63 67 -89q72 -28 157 6q98 39 133 138q12 34 14 74v21q-48 -5 -79.5 -9t-74.5 -11t-70.5 -14t-58 -18.5t-48 -25t-29 -32t-11.5 -40.5z" />
<glyph unicode="&#xe4;" horiz-adv-x="1165" d="M369 1128q-61 0 -105.5 44t-44.5 106t44 104.5t106 42.5q61 0 104 -42.5t43 -104.5q0 -61 -43.5 -105.5t-103.5 -44.5zM766 1128q-60 0 -104 44.5t-44 105.5q0 62 43.5 104.5t104.5 42.5q62 0 105.5 -42.5t43.5 -104.5t-44 -106t-105 -44zM983 344q0 -85 29 -116t92 -31 v-197h-62q-185 0 -237 131q-102 -141 -324 -141q-173 0 -276 82.5t-103 220.5q0 52 16 96t41 76.5t64 59.5t77.5 45t90 32.5t92 22.5t93.5 13.5t84.5 8t74.5 4.5q-5 162 -174 162q-41 0 -71.5 -9t-46 -22t-24.5 -26t-11 -22l-2 -9h-256q14 140 123.5 224.5t293.5 84.5 q193 0 304.5 -102t111.5 -316v-272zM360 301q0 -63 67 -89q72 -28 157 6q98 39 133 138q12 34 14 74v21q-48 -5 -79.5 -9t-74.5 -11t-70.5 -14t-58 -18.5t-48 -25t-29 -32t-11.5 -40.5z" />
<glyph unicode="&#xe5;" horiz-adv-x="1165" d="M563 1085q-85 0 -145 60t-60 145t60 145t145 60t147 -60.5t62 -144.5t-62 -144.5t-147 -60.5zM565 1346q-23 0 -38 -17t-15 -39t15 -38.5t38 -16.5q22 0 37.5 16.5t15.5 38.5t-16 39t-37 17zM983 344q0 -85 29 -116t92 -31v-197h-62q-185 0 -237 131q-102 -141 -324 -141 q-173 0 -276 82.5t-103 220.5q0 52 16 96t41 76.5t64 59.5t77.5 45t90 32.5t92 22.5t93.5 13.5t84.5 8t74.5 4.5q-5 162 -174 162q-41 0 -71.5 -9t-46 -22t-24.5 -26t-11 -22l-2 -9h-256q14 140 123.5 224.5t293.5 84.5q193 0 304.5 -102t111.5 -316v-272zM360 301 q0 -63 67 -89q72 -28 157 6q98 39 133 138q12 34 14 74v21q-48 -5 -79.5 -9t-74.5 -11t-70.5 -14t-58 -18.5t-48 -25t-29 -32t-11.5 -40.5z" />
<glyph unicode="&#xe6;" horiz-adv-x="1843" d="M1243 1034q81 0 155.5 -22t141.5 -69.5t114.5 -116t71 -170t13.5 -222.5h-748q22 -108 98.5 -160.5t170.5 -52.5q39 0 73.5 9t56.5 21.5t38 25t23 21.5l7 9h258q-57 -150 -183.5 -233.5t-281.5 -83.5q-119 0 -224 49t-179 139q-45 -86 -138.5 -137t-228.5 -51 q-173 0 -276 82.5t-103 220.5q0 52 16 96t41 76.5t64 59.5t77.5 45t90 32.5t92 22.5t93.5 13.5t84.5 8t74.5 4.5q-5 162 -174 162q-41 0 -71.5 -9t-46 -22t-24.5 -26t-11 -22l-2 -9h-256q14 140 123.5 224.5t293.5 84.5q224 0 330 -129q141 129 346 129zM1251 811 q-84 0 -148 -45t-95 -125h460q-44 170 -217 170zM360 301q0 -63 67 -89q72 -28 157 6q98 39 133 138q12 34 14 74v21q-48 -5 -79.5 -9t-74.5 -11t-70.5 -14t-58 -18.5t-48 -25t-29 -32t-11.5 -40.5z" />
<glyph unicode="&#xe7;" horiz-adv-x="1202" d="M625 238q137 0 209 122h280q-40 -147 -144.5 -240t-242.5 -120l-49 -84q70 16 128 -27t58 -122q0 -77 -60 -132t-161 -55q-48 0 -89 13t-65.5 31t-42.5 36.5t-25 31.5l-7 13l123 68q4 -6 11 -16t32.5 -26t54.5 -16q30 0 46.5 14t16.5 33q0 20 -16 36t-47 16q-17 0 -33 -6 t-24 -12l-7 -5l-92 96l74 107q-194 25 -322.5 168.5t-128.5 347.5q0 149 72.5 270t193 187.5t263.5 66.5q177 0 312 -104t177 -281h-278q-33 64 -89 100.5t-128 36.5q-109 0 -183.5 -77.5t-74.5 -196.5t74.5 -196.5t183.5 -77.5z" />
<glyph unicode="&#xe8;" horiz-adv-x="1212" d="M745 1137h-180l-243 276h294zM612 1034q81 0 155.5 -22t141.5 -69.5t114.5 -116t71 -170t13.5 -222.5h-748q22 -108 98.5 -160.5t170.5 -52.5q39 0 73.5 9t56.5 21.5t38 25t23 21.5l7 9h258q-57 -150 -183 -233.5t-281 -83.5q-138 0 -256 65t-190.5 187.5t-72.5 277.5 q0 116 41.5 213.5t112 162.5t163 101.5t193.5 36.5zM621 811q-84 0 -148.5 -45t-95.5 -125h461q-44 170 -217 170z" />
<glyph unicode="&#xe9;" horiz-adv-x="1212" d="M930 1413l-244 -276h-180l129 276h295zM612 1034q81 0 155.5 -22t141.5 -69.5t114.5 -116t71 -170t13.5 -222.5h-748q22 -108 98.5 -160.5t170.5 -52.5q39 0 73.5 9t56.5 21.5t38 25t23 21.5l7 9h258q-57 -150 -183 -233.5t-281 -83.5q-138 0 -256 65t-190.5 187.5 t-72.5 277.5q0 116 41.5 213.5t112 162.5t163 101.5t193.5 36.5zM621 811q-84 0 -148.5 -45t-95.5 -125h461q-44 170 -217 170z" />
<glyph unicode="&#xea;" horiz-adv-x="1212" d="M590 1278l-98 -139h-240l244 315h223l244 -315h-240l-98 139h-35zM612 1034q81 0 155.5 -22t141.5 -69.5t114.5 -116t71 -170t13.5 -222.5h-748q22 -108 98.5 -160.5t170.5 -52.5q39 0 73.5 9t56.5 21.5t38 25t23 21.5l7 9h258q-57 -150 -183 -233.5t-281 -83.5 q-138 0 -256 65t-190.5 187.5t-72.5 277.5q0 116 41.5 213.5t112 162.5t163 101.5t193.5 36.5zM621 811q-84 0 -148.5 -45t-95.5 -125h461q-44 170 -217 170z" />
<glyph unicode="&#xeb;" horiz-adv-x="1212" d="M408 1128q-62 0 -106 44t-44 106t44 104.5t106 42.5q61 0 104 -42.5t43 -104.5q0 -61 -43.5 -105.5t-103.5 -44.5zM805 1128q-60 0 -104 44.5t-44 105.5q0 62 43.5 104.5t104.5 42.5q62 0 105.5 -42.5t43.5 -104.5t-44 -106t-105 -44zM612 1034q81 0 155.5 -22 t141.5 -69.5t114.5 -116t71 -170t13.5 -222.5h-748q22 -108 98.5 -160.5t170.5 -52.5q39 0 73.5 9t56.5 21.5t38 25t23 21.5l7 9h258q-57 -150 -183 -233.5t-281 -83.5q-138 0 -256 65t-190.5 187.5t-72.5 277.5q0 116 41.5 213.5t112 162.5t163 101.5t193.5 36.5zM621 811 q-84 0 -148.5 -45t-95.5 -125h461q-44 170 -217 170z" />
<glyph unicode="&#xec;" horiz-adv-x="507" d="M299 1413l129 -276h-180l-244 276h295zM406 1024v-1024h-263v1024h263z" />
<glyph unicode="&#xed;" horiz-adv-x="507" d="M231 1413h295l-243 -276h-181zM406 1024v-1024h-263v1024h263z" />
<glyph unicode="&#xee;" horiz-adv-x="507" d="M272 1278h-34l-99 -139h-239l243 315h224l243 -315h-239zM143 0v1024h263v-1024h-263z" />
<glyph unicode="&#xef;" horiz-adv-x="507" d="M57 1128q-61 0 -105 44t-44 106t43.5 104.5t105.5 42.5q61 0 104.5 -42.5t43.5 -104.5q0 -61 -44 -105.5t-104 -44.5zM455 1128q-60 0 -104 44.5t-44 105.5q0 62 43.5 104.5t104.5 42.5q62 0 105.5 -42.5t43.5 -104.5t-44 -106t-105 -44zM406 1024v-1024h-263v1024h263z " />
<glyph unicode="&#xf0;" horiz-adv-x="1228" d="M889 1251q237 -213 237 -635q0 -171 -39 -295.5t-109.5 -195t-157.5 -103t-195 -32.5q-95 0 -186 39.5t-161 107.5t-112.5 166.5t-42.5 208.5t42.5 208.5t112.5 166.5t161 107.5t186 39.5q40 0 77.5 -10.5t62.5 -25.5t44 -30t28 -26l9 -10q-51 129 -184 213l-267 -125 l-67 145l145 68q-80 28 -158 43l101 199q181 -41 321 -117l236 110l67 -145zM631 227q113 0 175 80t62 205t-62 205t-175 80q-114 0 -181 -80.5t-67 -204.5t67 -204.5t181 -80.5z" />
<glyph unicode="&#xf1;" horiz-adv-x="1249" d="M504 1196q-33 3 -60.5 -18t-39.5 -44l-11 -22l-141 90q4 9 11 24.5t32.5 53t56 65t80.5 45t105 7.5q52 -9 124.5 -53t102.5 -46q20 -2 39.5 6t32.5 21t23 26t15 22l5 9l141 -94q-4 -9 -10.5 -24t-32.5 -52.5t-56 -64t-81 -43t-107 -6.5q-43 8 -87 31.5t-79.5 44 t-62.5 22.5zM733 1034q192 0 292.5 -129.5t100.5 -349.5v-555h-272v494q0 1 0.5 19t0.5 32.5t-1.5 40t-6.5 46.5t-12.5 46t-20.5 44t-30.5 36.5t-43.5 27t-58 11.5t-65 -4.5t-70.5 -27.5t-66 -55t-47.5 -93t-19 -136v-481h-271v1024h209l35 -125h35q114 135 311 135z" />
<glyph unicode="&#xf2;" horiz-adv-x="1251" d="M643 1413l129 -276h-180l-244 276h295zM623 -10q-105 0 -199.5 36.5t-166 102t-113.5 164.5t-42 217q0 119 44 219.5t118 166t169 102t198 36.5q139 0 256 -61.5t189.5 -182t72.5 -276.5q0 -119 -43.5 -219t-116 -166t-167.5 -102.5t-199 -36.5zM631 227q114 0 182 81 t68 204t-68 204t-182 81q-115 0 -187.5 -81.5t-72.5 -203.5t72.5 -203.5t187.5 -81.5z" />
<glyph unicode="&#xf3;" horiz-adv-x="1251" d="M614 1413h295l-243 -276h-181zM623 -10q-105 0 -199.5 36.5t-166 102t-113.5 164.5t-42 217q0 119 44 219.5t118 166t169 102t198 36.5q139 0 256 -61.5t189.5 -182t72.5 -276.5q0 -119 -43.5 -219t-116 -166t-167.5 -102.5t-199 -36.5zM631 227q114 0 182 81t68 204 t-68 204t-182 81q-115 0 -187.5 -81.5t-72.5 -203.5t72.5 -203.5t187.5 -81.5z" />
<glyph unicode="&#xf4;" horiz-adv-x="1251" d="M608 1278l-98 -139h-240l244 315h223l244 -315h-240l-98 139h-35zM631 1034q139 0 256 -61.5t189.5 -182t72.5 -276.5q0 -119 -43.5 -219t-116 -166t-167.5 -102.5t-199 -36.5q-105 0 -199.5 36.5t-166 102t-113.5 164.5t-42 217q0 119 44 219.5t118 166t169 102 t198 36.5zM631 227q114 0 182 81t68 204t-68 204t-182 81q-115 0 -187.5 -81.5t-72.5 -203.5t72.5 -203.5t187.5 -81.5z" />
<glyph unicode="&#xf5;" horiz-adv-x="1251" d="M1010 1288q-4 -9 -10.5 -24t-32.5 -52.5t-56 -64t-81 -43t-107 -6.5q-43 8 -87 31.5t-79.5 44t-62.5 22.5q-33 3 -60.5 -18t-39.5 -44l-11 -22l-141 90q4 9 11 24.5t32.5 53t55.5 65t80 45t105 7.5q52 -9 125 -53t103 -46q32 -3 60.5 18t41.5 44l12 22zM623 -10 q-105 0 -199.5 36.5t-166 102t-113.5 164.5t-42 217q0 119 44 219.5t118 166t169 102t198 36.5q139 0 256 -61.5t189.5 -182t72.5 -276.5q0 -119 -43.5 -219t-116 -166t-167.5 -102.5t-199 -36.5zM631 227q114 0 182 81t68 204t-68 204t-182 81q-115 0 -187.5 -81.5 t-72.5 -203.5t72.5 -203.5t187.5 -81.5z" />
<glyph unicode="&#xf6;" horiz-adv-x="1251" d="M428 1128q-61 0 -105 44t-44 106t43.5 104.5t105.5 42.5q61 0 104 -42.5t43 -104.5q0 -61 -43.5 -105.5t-103.5 -44.5zM825 1128q-60 0 -103.5 44.5t-43.5 105.5q0 62 43 104.5t104 42.5q62 0 106 -42.5t44 -104.5t-44.5 -106t-105.5 -44zM623 -10q-105 0 -199.5 36.5 t-166 102t-113.5 164.5t-42 217q0 119 44 219.5t118 166t169 102t198 36.5q139 0 256 -61.5t189.5 -182t72.5 -276.5q0 -119 -43.5 -219t-116 -166t-167.5 -102.5t-199 -36.5zM631 227q114 0 182 81t68 204t-68 204t-182 81q-115 0 -187.5 -81.5t-72.5 -203.5t72.5 -203.5 t187.5 -81.5z" />
<glyph unicode="&#xf7;" horiz-adv-x="1177" d="M590 834q-68 0 -116 48t-48 115q0 69 48 116.5t116 47.5t116 -47.5t48 -116.5q0 -67 -48 -115t-116 -48zM102 725h973v-233h-973v233zM590 55q-68 0 -116 48.5t-48 115.5q0 69 48 116.5t116 47.5t116 -47.5t48 -116.5q0 -67 -48 -115.5t-116 -48.5z" />
<glyph unicode="&#xf8;" horiz-adv-x="1251" d="M999 889q150 -143 150 -375q0 -119 -43.5 -219t-116 -166t-167.5 -102.5t-199 -36.5q-116 0 -222 45l-61 -86l-145 100l59 84q-152 149 -152 377q0 119 44 219.5t118 166t169 102t198 36.5q113 0 219 -45l61 88l148 -102zM371 512q0 -86 39 -156l299 428q-41 13 -78 13 q-115 0 -187.5 -81.5t-72.5 -203.5zM631 227q114 0 182 81t68 204q0 91 -37 158l-299 -428q41 -15 86 -15z" />
<glyph unicode="&#xf9;" horiz-adv-x="1265" d="M793 1137h-181l-243 276h295zM846 1024h276v-1024h-204l-37 115h-27q-40 -50 -113.5 -87.5t-185.5 -37.5q-200 0 -306 129t-106 350v555h279v-494q0 -39 1.5 -67.5t7 -67t18.5 -65.5t32.5 -52t52 -38t74.5 -13q31 0 60 7t62.5 27.5t58 54t41 92t16.5 135.5v481z" />
<glyph unicode="&#xfa;" horiz-adv-x="1265" d="M922 1413l-244 -276h-180l129 276h295zM846 1024h276v-1024h-204l-37 115h-27q-40 -50 -113.5 -87.5t-185.5 -37.5q-200 0 -306 129t-106 350v555h279v-494q0 -39 1.5 -67.5t7 -67t18.5 -65.5t32.5 -52t52 -38t74.5 -13q31 0 60 7t62.5 27.5t58 54t41 92t16.5 135.5v481z " />
<glyph unicode="&#xfb;" horiz-adv-x="1265" d="M616 1278l-98 -139h-239l243 315h223l244 -315h-239l-99 139h-35zM846 1024h276v-1024h-204l-37 115h-27q-40 -50 -113.5 -87.5t-185.5 -37.5q-200 0 -306 129t-106 350v555h279v-494q0 -39 1.5 -67.5t7 -67t18.5 -65.5t32.5 -52t52 -38t74.5 -13q31 0 60 7t62.5 27.5 t58 54t41 92t16.5 135.5v481z" />
<glyph unicode="&#xfc;" horiz-adv-x="1265" d="M434 1128q-61 0 -105 44t-44 106t43.5 104.5t105.5 42.5q61 0 104.5 -42.5t43.5 -104.5q0 -61 -44 -105.5t-104 -44.5zM831 1128q-60 0 -103.5 44.5t-43.5 105.5q0 62 43 104.5t104 42.5q62 0 106 -42.5t44 -104.5t-44.5 -106t-105.5 -44zM846 1024h276v-1024h-204 l-37 115h-27q-40 -50 -113.5 -87.5t-185.5 -37.5q-200 0 -306 129t-106 350v555h279v-494q0 -39 1.5 -67.5t7 -67t18.5 -65.5t32.5 -52t52 -38t74.5 -13q31 0 60 7t62.5 27.5t58 54t41 92t16.5 135.5v481z" />
<glyph unicode="&#xfd;" horiz-adv-x="1271" d="M936 1413l-244 -276h-180l129 276h295zM915 1024h275l-356 -1063v-1l-1 -2q-48 -144 -91 -209q-109 -169 -343 -169q-122 0 -200 36t-111 77l129 182q9 -9 26.5 -21.5t56 -27t77.5 -14.5q132 0 166 104l28 84h-137l-352 1024h285l258 -745h41z" />
<glyph unicode="&#xfe;" d="M664 1034q97 0 184 -38.5t152 -106t103 -166t38 -211.5t-38 -211.5t-103 -166t-152 -106t-184 -38.5q-167 0 -265 110v-510h-256v1434v430h256v-500h35q93 80 230 80zM625 242q101 0 175 71t74 199t-74 199t-175 71t-163.5 -72t-62.5 -198t62.5 -198t163.5 -72z" />
<glyph unicode="&#xff;" horiz-adv-x="1271" d="M440 1128q-61 0 -105 44t-44 106t43.5 104.5t105.5 42.5q61 0 104.5 -42.5t43.5 -104.5q0 -61 -44 -105.5t-104 -44.5zM838 1128q-60 0 -104 44.5t-44 105.5q0 62 43.5 104.5t104.5 42.5q62 0 105.5 -42.5t43.5 -104.5t-44 -106t-105 -44zM915 1024h275l-356 -1063v-1 l-1 -2q-48 -144 -91 -209q-109 -169 -343 -169q-122 0 -200 36t-111 77l129 182q9 -9 26.5 -21.5t56 -27t77.5 -14.5q132 0 166 104l28 84h-137l-352 1024h285l258 -745h41z" />
<glyph unicode="&#x13f;" horiz-adv-x="1230" d="M430 268h698v-268h-985v1434h287v-1166zM770 575q-72 0 -124 52t-52 121q0 73 51.5 123.5t124.5 50.5q71 0 121.5 -50.5t50.5 -123.5q0 -69 -51 -121t-121 -52z" />
<glyph unicode="&#x140;" horiz-adv-x="552" d="M143 0v1454h267v-1454h-267zM690 922q71 0 121.5 -50.5t50.5 -123.5q0 -69 -51 -121t-121 -52q-72 0 -124 52t-52 121q0 73 51.5 123.5t124.5 50.5z" />
<glyph unicode="&#x152;" horiz-adv-x="2328" d="M1489 256h696v-256h-964v129q-178 -139 -416 -139q-140 0 -268.5 55t-224.5 150t-153 231.5t-57 290.5t57 290.5t152.5 231.5t224 150t267.5 55q240 0 418 -139v129h944v-256h-676v-324h614v-256h-614v-342zM805 260q185 0 300.5 128t115.5 329q0 200 -116.5 328.5 t-301.5 128.5q-184 0 -300 -128.5t-116 -328.5t116.5 -328.5t301.5 -128.5z" />
<glyph unicode="&#x153;" horiz-adv-x="1990" d="M1391 1034q81 0 155.5 -22t141 -69.5t114 -116t71 -170t13.5 -222.5h-747q22 -109 98 -161t170 -52q39 0 74 9t56.5 21.5t38 25t23.5 21.5l7 9h258q-57 -150 -183.5 -233.5t-281.5 -83.5q-113 0 -213 44t-172 126q-72 -82 -173.5 -126t-217.5 -44q-105 0 -199.5 36.5 t-166 102t-113.5 164.5t-42 217q0 119 44 219.5t118 166t169 102t198 36.5q113 0 211.5 -42t167.5 -120q72 78 171 120t210 42zM1399 811q-84 0 -148.5 -45t-95.5 -125h461q-44 170 -217 170zM631 227q114 0 182 81t68 204t-68 204t-182 81q-115 0 -187.5 -81.5 t-72.5 -203.5t72.5 -203.5t187.5 -81.5z" />
<glyph unicode="&#x178;" horiz-adv-x="1308" d="M391 1534q-69 0 -119.5 49.5t-50.5 118.5q0 71 50 120.5t120 49.5q69 0 118.5 -49t49.5 -121q0 -69 -49.5 -118.5t-118.5 -49.5zM883 1534q-69 0 -119.5 49.5t-50.5 118.5q0 71 50 120.5t120 49.5q69 0 118.5 -49t49.5 -121q0 -69 -49.5 -118.5t-118.5 -49.5zM922 1434 h325l-450 -715v-719h-285v719l-451 715h324l256 -439h25z" />
<glyph unicode="&#x2c6;" horiz-adv-x="997" d="M614 1139l-98 139h-35l-98 -139h-240l244 315h223l244 -315h-240z" />
<glyph unicode="&#x2dc;" horiz-adv-x="1054" d="M911 1288q-3 -9 -10 -24t-32.5 -52.5t-56 -64t-81 -43t-106.5 -6.5q-43 8 -87 31.5t-80 44t-63 22.5q-21 2 -40 -6t-31 -21t-21.5 -26t-13.5 -22l-4 -9l-142 90q4 9 11 24.5t32.5 53t56 65t80.5 45t105 7.5q52 -9 124.5 -53t102.5 -46q32 -3 60.5 18t41.5 44l13 22z" />
<glyph unicode="&#x2013;" horiz-adv-x="1095" d="M102 754h891v-234h-891v234z" />
<glyph unicode="&#x2014;" horiz-adv-x="1761" d="M1659 754v-234h-1557v234h1557z" />
<glyph unicode="&#x2018;" horiz-adv-x="512" d="M256 1014q-73 0 -113.5 56.5t-40.5 154.5q0 73 22.5 137.5t54 104.5t63.5 69t54 41l23 12l58 -63q-62 -57 -88.5 -104.5t-34.5 -100.5q60 -4 108 -41t48 -111q0 -70 -44.5 -112.5t-109.5 -42.5z" />
<glyph unicode="&#x2019;" horiz-adv-x="512" d="M256 1589q73 0 113.5 -56.5t40.5 -154.5q0 -73 -22.5 -137.5t-54 -104.5t-63.5 -69t-54 -41l-23 -12l-58 63q62 57 88.5 104.5t34.5 100.5q-60 4 -108 41t-48 111q0 70 44.5 112.5t109.5 42.5z" />
<glyph unicode="&#x201a;" horiz-adv-x="512" d="M256 297q73 0 113.5 -56.5t40.5 -154.5q0 -73 -22.5 -138t-54 -104.5t-63.5 -69t-54 -41.5l-23 -12l-58 64q62 57 88.5 104.5t34.5 100.5q-61 4 -108.5 40.5t-47.5 110.5q0 70 44.5 113t109.5 43z" />
<glyph unicode="&#x201c;" horiz-adv-x="911" d="M256 1014q-73 0 -113.5 56.5t-40.5 154.5q0 73 22.5 137.5t54 104.5t63.5 69t54 41l23 12l58 -63q-62 -57 -88.5 -104.5t-34.5 -100.5q60 -4 108 -41t48 -111q0 -70 -44.5 -112.5t-109.5 -42.5zM655 1014q-73 0 -113 56.5t-40 154.5q0 73 22.5 137.5t54 104.5t63.5 69 t54 41l23 12l57 -63q-62 -57 -88.5 -104.5t-34.5 -100.5q60 -4 108 -41t48 -111q0 -70 -44.5 -112.5t-109.5 -42.5z" />
<glyph unicode="&#x201d;" horiz-adv-x="911" d="M256 1589q73 0 113.5 -56.5t40.5 -154.5q0 -73 -22.5 -137.5t-54 -104.5t-63.5 -69t-54 -41l-23 -12l-58 63q62 57 88.5 104.5t34.5 100.5q-60 4 -108 41t-48 111q0 70 44.5 112.5t109.5 42.5zM655 1589q73 0 113.5 -56.5t40.5 -154.5q0 -73 -22.5 -137.5t-54.5 -104.5 t-63.5 -69t-54.5 -41l-22 -12l-57 63q61 57 87.5 104.5t34.5 100.5q-60 4 -107.5 41t-47.5 111q0 70 44 112.5t109 42.5z" />
<glyph unicode="&#x201e;" horiz-adv-x="911" d="M256 297q73 0 113.5 -56.5t40.5 -154.5q0 -73 -22.5 -138t-54 -104.5t-63.5 -69t-54 -41.5l-23 -12l-58 64q62 57 88.5 104.5t34.5 100.5q-61 4 -108.5 40.5t-47.5 110.5q0 70 44.5 113t109.5 43zM655 297q73 0 113.5 -56.5t40.5 -154.5q0 -53 -12 -102.5t-31 -85 t-42.5 -66t-46.5 -50.5t-42 -34t-31 -20l-12 -7l-57 64q61 57 87.5 104.5t34.5 100.5q-60 4 -107.5 40.5t-47.5 110.5q0 70 44 113t109 43z" />
<glyph unicode="&#x2022;" horiz-adv-x="593" d="M266 514q-68 0 -116 48t-48 116q0 69 48 116.5t116 47.5t116 -47.5t48 -116.5q0 -68 -48 -116t-116 -48z" />
<glyph unicode="&#x2026;" horiz-adv-x="1761" d="M266 -10q-68 0 -116 48t-48 116q0 69 48 116t116 47t116 -47t48 -116q0 -68 -48 -116t-116 -48zM881 -10q-67 0 -115.5 48t-48.5 116q0 69 48 116t116 47t115.5 -47t47.5 -116q0 -68 -48 -116t-115 -48zM1495 -10q-67 0 -115.5 48t-48.5 116q0 69 48 116t116 47t116 -47 t48 -116q0 -68 -48.5 -116t-115.5 -48z" />
<glyph unicode="&#x2039;" horiz-adv-x="821" d="M432 199l-330 413l330 414h287l-334 -414l334 -413h-287z" />
<glyph unicode="&#x203a;" horiz-adv-x="821" d="M389 199h-287l334 413l-334 414h287l330 -414z" />
<glyph unicode="&#x2044;" horiz-adv-x="600" d="M928 1311h-236l-1020 -1311h236z" />
<glyph unicode="&#x2070;" horiz-adv-x="827" d="M416 690q-133 0 -223.5 100.5t-90.5 274.5q0 173 90 274t222 101t221.5 -101t89.5 -276q0 -172 -89 -272.5t-220 -100.5zM416 889q57 0 81.5 51t24.5 123q0 45 -8.5 81.5t-34 64.5t-65.5 28q-58 0 -82.5 -50.5t-24.5 -121.5q0 -46 8 -82.5t34 -65t67 -28.5z" />
<glyph unicode="&#x2074;" horiz-adv-x="823" d="M731 1024v-162h-123v-166h-174v166h-342v103l281 469h235v-410h123zM330 1024h104v143h-18z" />
<glyph unicode="&#x2075;" horiz-adv-x="796" d="M436 1204q113 0 185.5 -69t72.5 -181q0 -117 -82 -190.5t-211 -73.5q-132 0 -215.5 76.5t-83.5 179.5h197q8 -37 35 -61.5t67 -24.5q45 0 73 30t28 66q0 37 -26.5 66t-76.5 29q-59 0 -98 -56l-168 33l45 406h473v-164h-313l-14 -88q52 22 112 22z" />
<glyph unicode="&#x2076;" horiz-adv-x="749" d="M391 1161q114 6 185 -60.5t71 -166.5q0 -103 -81.5 -173.5t-190.5 -70.5q-110 0 -191.5 73t-81.5 181q0 62 22 112t75 132l168 246h225zM375 860q40 0 64 22t24 54t-24.5 55t-63.5 23t-63.5 -23t-24.5 -55t24.5 -54t63.5 -22z" />
<glyph unicode="&#x2077;" horiz-adv-x="745" d="M102 1434h551v-127q-146 -177 -194 -300.5t-53 -310.5h-203q7 182 51.5 305t136.5 252h-289v181z" />
<glyph unicode="&#x2078;" horiz-adv-x="765" d="M559 1098q46 -16 75.5 -60t29.5 -108q0 -99 -77.5 -169.5t-205.5 -70.5q-127 0 -203 70.5t-76 171.5q0 64 28 107t73 59v14q-33 17 -51.5 52.5t-18.5 82.5q0 89 74.5 141t175.5 52q102 0 175 -52.5t73 -140.5q0 -95 -72 -135v-14zM383 1288q-37 0 -54.5 -20t-17.5 -45 q0 -26 18 -45t52 -19q35 0 54.5 19.5t19.5 46.5q0 24 -18 43.5t-54 19.5zM381 842q45 0 72.5 29.5t27.5 66.5q0 35 -26.5 64.5t-73.5 29.5t-71.5 -29t-24.5 -65q0 -37 26 -66.5t70 -29.5z" />
<glyph unicode="&#x2079;" horiz-adv-x="749" d="M358 969q-114 -6 -185 60.5t-71 166.5q0 103 82 173.5t191 70.5q110 0 191 -73t81 -181q0 -62 -21.5 -112.5t-74.5 -131.5l-168 -246h-225zM375 1270q-40 0 -64 -22t-24 -54t24.5 -55t63.5 -23t63.5 23t24.5 55t-24.5 54t-63.5 22z" />
<glyph unicode="&#x2080;" horiz-adv-x="827" d="M416 -211q-133 0 -223.5 100.5t-90.5 274.5q0 173 90 274t222 101t221.5 -101t89.5 -276q0 -172 -89 -272.5t-220 -100.5zM416 -12q57 0 81.5 51t24.5 123q0 45 -8.5 81.5t-34 64.5t-65.5 28q-58 0 -82.5 -50.5t-24.5 -121.5q0 -46 8 -82.5t34 -65t67 -28.5z" />
<glyph unicode="&#x2081;" horiz-adv-x="585" d="M285 -205v438h-193v166h117q38 0 61 23t23 63v47h188l2 -737h-198z" />
<glyph unicode="&#x2082;" horiz-adv-x="761" d="M502 82q-23 -14 -53 -31.5t-46 -27t-32 -22t-25 -24.5h307v-182h-551v74q0 85 48 159t131 119q108 59 146 88t38 60q0 25 -21.5 41t-60.5 16q-43 0 -67.5 -23t-24.5 -65h-187q0 47 16 93t49 88t91.5 68t134.5 26q121 0 192.5 -62t71.5 -168q0 -76 -38.5 -127t-118.5 -100 z" />
<glyph unicode="&#x2083;" horiz-adv-x="774" d="M559 174q36 -8 74.5 -53t38.5 -109q0 -90 -77 -156.5t-200 -66.5q-129 0 -211 74.5t-82 187.5h189q2 -37 29.5 -62.5t76.5 -25.5q38 0 59 17t21 47q0 31 -24.5 50t-73.5 19h-49v152h47q86 0 86 59q0 30 -21 46t-51 16t-51.5 -17t-26.5 -43h-186q0 94 73.5 162t198.5 68 q114 0 180 -57.5t66 -147.5q0 -63 -27.5 -98.5t-58.5 -49.5v-12z" />
<glyph unicode="&#x2084;" horiz-adv-x="823" d="M731 123v-162h-123v-166h-174v166h-342v102l281 469h235v-409h123zM330 123h104v143h-18z" />
<glyph unicode="&#x2085;" horiz-adv-x="796" d="M436 303q113 0 185.5 -69t72.5 -181q0 -117 -82 -190.5t-211 -73.5q-132 0 -215.5 76.5t-83.5 179.5h197q8 -37 35 -61.5t67 -24.5q45 0 73 30t28 66q0 37 -26.5 66t-76.5 29q-59 0 -98 -56l-168 33l45 405h473v-163h-313l-14 -88q52 22 112 22z" />
<glyph unicode="&#x2086;" horiz-adv-x="749" d="M391 260q114 6 185 -60.5t71 -166.5q0 -103 -81.5 -173.5t-190.5 -70.5q-110 0 -191.5 73t-81.5 181q0 62 22 112t75 132q27 42 69 103t70 102l29 40h225zM375 -41q40 0 64 22t24 54t-24.5 55t-63.5 23t-63.5 -23t-24.5 -55t24.5 -54t63.5 -22z" />
<glyph unicode="&#x2087;" horiz-adv-x="745" d="M102 532h551v-126q-146 -177 -194 -300.5t-53 -310.5h-203q7 182 51.5 305t136.5 252h-289v180z" />
<glyph unicode="&#x2088;" horiz-adv-x="765" d="M559 197q46 -16 75.5 -60t29.5 -108q0 -99 -77.5 -169.5t-205.5 -70.5q-127 0 -203 70.5t-76 171.5q0 64 28 107t73 59v14q-33 17 -51.5 52.5t-18.5 82.5q0 89 74.5 141t175.5 52q102 0 175 -52.5t73 -140.5q0 -95 -72 -135v-14zM383 387q-37 0 -54.5 -20t-17.5 -45 q0 -26 18 -45t52 -19q35 0 54.5 19.5t19.5 46.5q0 24 -18 43.5t-54 19.5zM381 -59q45 0 72.5 29.5t27.5 66.5q0 35 -26.5 64.5t-73.5 29.5t-71.5 -29t-24.5 -65q0 -37 26 -66.5t70 -29.5z" />
<glyph unicode="&#x2089;" horiz-adv-x="749" d="M358 68q-114 -6 -185 60.5t-71 166.5q0 103 82 173.5t191 70.5q110 0 191 -73t81 -181q0 -62 -21.5 -112.5t-74.5 -131.5l-168 -246h-225zM375 369q-40 0 -64 -22t-24 -54t24.5 -55t63.5 -23t63.5 23t24.5 55t-24.5 54t-63.5 22z" />
<glyph unicode="&#x20ac;" horiz-adv-x="1331" d="M877 242q89 0 161 33.5t103 66.5l108 -225q-67 -59 -180.5 -93t-216.5 -34q-191 0 -355 120t-231 316h-164v207h127v22v37h-127v207h170q70 190 231 306t349 116q103 0 216.5 -34t180.5 -93l-108 -225q-28 32 -107 66t-168 34q-93 0 -173 -43.5t-128 -126.5h541l-90 -207 h-508q-2 -12 -2 -37v-22h487l-92 -207h-342q49 -90 134.5 -137t183.5 -47z" />
<glyph unicode="&#x2122;" horiz-adv-x="1525" d="M606 1434v-160h-180v-557h-184v557h-181v160h545zM1464 1434v-717h-178v401l-121 -350h-159l-123 356v-407h-176v717h235l141 -420h4l142 420h235z" />
<glyph unicode="&#x25fc;" horiz-adv-x="1024" d="M0 1024h1024v-1024h-1024v1024z" />
<glyph unicode="&#xfb03;" horiz-adv-x="2183" d="M1909 1139q-72 0 -124 51.5t-52 120.5q0 73 51.5 123.5t124.5 50.5q71 0 121.5 -50.5t50.5 -123.5q0 -69 -51 -120.5t-121 -51.5zM2040 1024v-1024h-262v809h-500v-809h-258v809h-213h-295v-809h-258v809h-172v215h172v80q0 151 107 245.5t260 94.5q44 0 85.5 -9 t69 -21.5t48.5 -25t30 -21.5l10 -9l-98 -182q-58 38 -119 38q-56 0 -95.5 -37.5t-39.5 -89.5v-63h336h172v80q0 151 107 245.5t259 94.5q70 0 131 -21.5t87 -42.5l26 -22l-98 -182q-58 38 -119 38q-56 0 -95.5 -37.5t-39.5 -89.5v-63h762z" />
<glyph unicode="&#xfb04;" horiz-adv-x="2166" d="M1507 1444q101 0 191 -22t147 -54t99.5 -63.5t60.5 -53.5l18 -22v-1229h-266v1135q-3 3 -9.5 7.5t-29 17t-48 22t-67 17t-85.5 7.5q-111 0 -186 -43t-75 -108v-31h295v-215h-295v-809h-258v809h-172h-315v-809h-258v809h-172v215h172v80q0 151 107 245.5t260 94.5 q44 0 85.5 -9t69 -21.5t48.5 -25t30 -21.5l10 -9l-98 -182q-58 38 -119 38q-56 0 -95.5 -37.5t-39.5 -89.5v-63h315h172v47q0 163 139 268t369 105z" />
<glyph horiz-adv-x="1286" d="M1118 240l148 -78q-2 -7 -6.5 -18.5t-23 -41t-42.5 -52.5t-67.5 -41.5t-96.5 -18.5q-78 0 -137.5 39t-91.5 112q-93 -151 -320 -151q-174 0 -276.5 84.5t-102.5 228.5q0 68 25.5 123t63 90.5t97 62t111.5 40.5t122 22.5t113 10.5t101 3q-6 162 -174 162q-41 0 -72 -9.5 t-47 -23t-26 -27t-12 -23.5l-3 -9h-251q14 140 124.5 224.5t286.5 84.5q90 0 164 -24t131 -73t89 -131t32 -190v-272q0 -149 76 -149q23 0 39 11t21 22zM360 313q0 -69 70 -97q72 -30 156 4q97 38 131 136q12 34 14 74v31q-67 -4 -111 -8t-98.5 -14t-86 -24.5t-53.5 -40.5 t-22 -61z" />
<glyph horiz-adv-x="1286" d="M881 1413l-244 -276h-180l129 276h295zM1118 240l148 -78q-2 -7 -6.5 -18.5t-23 -41t-42.5 -52.5t-67.5 -41.5t-96.5 -18.5q-78 0 -137.5 39t-91.5 112q-93 -151 -320 -151q-174 0 -276.5 84.5t-102.5 228.5q0 68 25.5 123t63 90.5t97 62t111.5 40.5t122 22.5t113 10.5 t101 3q-6 162 -174 162q-41 0 -72 -9.5t-47 -23t-26 -27t-12 -23.5l-3 -9h-251q14 140 124.5 224.5t286.5 84.5q90 0 164 -24t131 -73t89 -131t32 -190v-272q0 -149 76 -149q23 0 39 11t21 22zM360 313q0 -69 70 -97q72 -30 156 4q97 38 131 136q12 34 14 74v31 q-67 -4 -111 -8t-98.5 -14t-86 -24.5t-53.5 -40.5t-22 -61z" />
<glyph horiz-adv-x="1286" d="M539 1278l-99 -139h-239l243 315h224l243 -315h-239l-99 139h-34zM1118 240l148 -78q-2 -7 -6.5 -18.5t-23 -41t-42.5 -52.5t-67.5 -41.5t-96.5 -18.5q-78 0 -137.5 39t-91.5 112q-93 -151 -320 -151q-174 0 -276.5 84.5t-102.5 228.5q0 68 25.5 123t63 90.5t97 62 t111.5 40.5t122 22.5t113 10.5t101 3q-6 162 -174 162q-41 0 -72 -9.5t-47 -23t-26 -27t-12 -23.5l-3 -9h-251q14 140 124.5 224.5t286.5 84.5q90 0 164 -24t131 -73t89 -131t32 -190v-272q0 -149 76 -149q23 0 39 11t21 22zM360 313q0 -69 70 -97q72 -30 156 4 q97 38 131 136q12 34 14 74v31q-67 -4 -111 -8t-98.5 -14t-86 -24.5t-53.5 -40.5t-22 -61z" />
<glyph horiz-adv-x="1286" d="M356 1128q-61 0 -105 44t-44 106t43.5 104.5t105.5 42.5q61 0 104.5 -42.5t43.5 -104.5q0 -61 -44 -105.5t-104 -44.5zM754 1128q-60 0 -104 44.5t-44 105.5q0 62 43.5 104.5t104.5 42.5q62 0 105.5 -42.5t43.5 -104.5t-44 -106t-105 -44zM1118 240l148 -78 q-2 -7 -6.5 -18.5t-23 -41t-42.5 -52.5t-67.5 -41.5t-96.5 -18.5q-78 0 -137.5 39t-91.5 112q-93 -151 -320 -151q-174 0 -276.5 84.5t-102.5 228.5q0 68 25.5 123t63 90.5t97 62t111.5 40.5t122 22.5t113 10.5t101 3q-6 162 -174 162q-41 0 -72 -9.5t-47 -23t-26 -27 t-12 -23.5l-3 -9h-251q14 140 124.5 224.5t286.5 84.5q90 0 164 -24t131 -73t89 -131t32 -190v-272q0 -149 76 -149q23 0 39 11t21 22zM360 313q0 -69 70 -97q72 -30 156 4q97 38 131 136q12 34 14 74v31q-67 -4 -111 -8t-98.5 -14t-86 -24.5t-53.5 -40.5t-22 -61z" />
<glyph horiz-adv-x="1286" d="M707 1137h-181l-243 276h295zM1118 240l148 -78q-2 -7 -6.5 -18.5t-23 -41t-42.5 -52.5t-67.5 -41.5t-96.5 -18.5q-78 0 -137.5 39t-91.5 112q-93 -151 -320 -151q-174 0 -276.5 84.5t-102.5 228.5q0 68 25.5 123t63 90.5t97 62t111.5 40.5t122 22.5t113 10.5t101 3 q-6 162 -174 162q-41 0 -72 -9.5t-47 -23t-26 -27t-12 -23.5l-3 -9h-251q14 140 124.5 224.5t286.5 84.5q90 0 164 -24t131 -73t89 -131t32 -190v-272q0 -149 76 -149q23 0 39 11t21 22zM360 313q0 -69 70 -97q72 -30 156 4q97 38 131 136q12 34 14 74v31q-67 -4 -111 -8 t-98.5 -14t-86 -24.5t-53.5 -40.5t-22 -61z" />
<glyph horiz-adv-x="1286" d="M567 1085q-85 0 -145 60t-60 145t60 145t145 60t147 -60.5t62 -144.5t-62 -144.5t-147 -60.5zM569 1346q-23 0 -38 -17t-15 -39t15 -38.5t38 -16.5q22 0 38 16.5t16 38.5t-16 39t-38 17zM1118 240l148 -78q-2 -7 -6.5 -18.5t-23 -41t-42.5 -52.5t-67.5 -41.5t-96.5 -18.5 q-78 0 -137.5 39t-91.5 112q-93 -151 -320 -151q-174 0 -276.5 84.5t-102.5 228.5q0 68 25.5 123t63 90.5t97 62t111.5 40.5t122 22.5t113 10.5t101 3q-6 162 -174 162q-41 0 -72 -9.5t-47 -23t-26 -27t-12 -23.5l-3 -9h-251q14 140 124.5 224.5t286.5 84.5q90 0 164 -24 t131 -73t89 -131t32 -190v-272q0 -149 76 -149q23 0 39 11t21 22zM360 313q0 -69 70 -97q72 -30 156 4q97 38 131 136q12 34 14 74v31q-67 -4 -111 -8t-98.5 -14t-86 -24.5t-53.5 -40.5t-22 -61z" />
<glyph horiz-adv-x="1286" d="M432 1196q-21 2 -40 -6t-31 -21t-21.5 -26t-13.5 -22l-4 -9l-142 90q4 9 11 24.5t32.5 53t56 65t80.5 45t105 7.5q52 -9 124.5 -53t102.5 -46q20 -2 39.5 6t32.5 21t23 26t15 22l5 9l141 -94q-3 -9 -10 -24t-32.5 -52.5t-56 -64t-81 -43t-106.5 -6.5q-43 8 -87 31.5 t-80 44t-63 22.5zM1118 240l148 -78q-2 -7 -6.5 -18.5t-23 -41t-42.5 -52.5t-67.5 -41.5t-96.5 -18.5q-78 0 -137.5 39t-91.5 112q-93 -151 -320 -151q-174 0 -276.5 84.5t-102.5 228.5q0 68 25.5 123t63 90.5t97 62t111.5 40.5t122 22.5t113 10.5t101 3q-6 162 -174 162 q-41 0 -72 -9.5t-47 -23t-26 -27t-12 -23.5l-3 -9h-251q14 140 124.5 224.5t286.5 84.5q90 0 164 -24t131 -73t89 -131t32 -190v-272q0 -149 76 -149q23 0 39 11t21 22zM360 313q0 -69 70 -97q72 -30 156 4q97 38 131 136q12 34 14 74v31q-67 -4 -111 -8t-98.5 -14 t-86 -24.5t-53.5 -40.5t-22 -61z" />
<glyph d="M844 1024h256v-1024h-201l-29 98h-30q-97 -108 -260 -108q-199 0 -338.5 147.5t-139.5 374.5t139.5 374.5t338.5 147.5q166 0 264 -110v100zM618 242q101 0 163.5 72t62.5 198t-62.5 198t-163.5 72t-175 -71t-74 -199t74 -199t175 -71z" />
<glyph d="M901 1413l-244 -276h-180l129 276h295zM844 1024h256v-1024h-201l-29 98h-30q-97 -108 -260 -108q-199 0 -338.5 147.5t-139.5 374.5t139.5 374.5t338.5 147.5q166 0 264 -110v100zM618 242q101 0 163.5 72t62.5 198t-62.5 198t-163.5 72t-175 -71t-74 -199t74 -199 t175 -71z" />
<glyph d="M584 1278l-99 -139h-239l243 315h224l243 -315h-239l-99 139h-34zM844 1024h256v-1024h-201l-29 98h-30q-97 -108 -260 -108q-199 0 -338.5 147.5t-139.5 374.5t139.5 374.5t338.5 147.5q166 0 264 -110v100zM618 242q101 0 163.5 72t62.5 198t-62.5 198t-163.5 72 t-175 -71t-74 -199t74 -199t175 -71z" />
<glyph d="M410 1128q-62 0 -106 44t-44 106t44 104.5t106 42.5q61 0 104 -42.5t43 -104.5q0 -61 -43.5 -105.5t-103.5 -44.5zM807 1128q-60 0 -104 44.5t-44 105.5q0 62 43.5 104.5t104.5 42.5q62 0 105.5 -42.5t43.5 -104.5t-44 -106t-105 -44zM844 1024h256v-1024h-201l-29 98 h-30q-97 -108 -260 -108q-199 0 -338.5 147.5t-139.5 374.5t139.5 374.5t338.5 147.5q166 0 264 -110v100zM618 242q101 0 163.5 72t62.5 198t-62.5 198t-163.5 72t-175 -71t-74 -199t74 -199t175 -71z" />
<glyph d="M739 1137h-180l-244 276h295zM844 1024h256v-1024h-201l-29 98h-30q-97 -108 -260 -108q-199 0 -338.5 147.5t-139.5 374.5t139.5 374.5t338.5 147.5q166 0 264 -110v100zM618 242q101 0 163.5 72t62.5 198t-62.5 198t-163.5 72t-175 -71t-74 -199t74 -199t175 -71z" />
<glyph d="M600 1085q-85 0 -145 60t-60 145t60 145t145 60t147 -60.5t62 -144.5t-62 -144.5t-147 -60.5zM602 1346q-23 0 -38 -17t-15 -39t15 -38.5t38 -16.5q22 0 37.5 16.5t15.5 38.5t-16 39t-37 17zM844 1024h256v-1024h-201l-29 98h-30q-97 -108 -260 -108q-199 0 -338.5 147.5 t-139.5 374.5t139.5 374.5t338.5 147.5q166 0 264 -110v100zM618 242q101 0 163.5 72t62.5 198t-62.5 198t-163.5 72t-175 -71t-74 -199t74 -199t175 -71z" />
<glyph d="M469 1196q-33 3 -60.5 -18t-38.5 -44l-12 -22l-141 90q4 9 11 24.5t32.5 53t56 65t80.5 45t105 7.5q52 -9 124.5 -53t102.5 -46q32 -3 60.5 18t41.5 44l13 22l141 -94q-4 -9 -10.5 -24t-32.5 -52.5t-56 -64t-81 -43t-107 -6.5q-43 8 -87 31.5t-79.5 44t-62.5 22.5z M844 1024h256v-1024h-201l-29 98h-30q-97 -108 -260 -108q-199 0 -338.5 147.5t-139.5 374.5t139.5 374.5t338.5 147.5q166 0 264 -110v100zM618 242q101 0 163.5 72t62.5 198t-62.5 198t-163.5 72t-175 -71t-74 -199t74 -199t175 -71z" />
<glyph d="M899 1024h201v-922q0 -85 -17 -160.5t-55.5 -142.5t-95 -115t-139.5 -76t-185 -28q-117 0 -216.5 36t-160.5 92t-95 121.5t-34 127.5h256q2 -5 5.5 -14t21.5 -32t42 -40.5t70 -32t103 -14.5q125 0 184.5 62.5t59.5 174.5v39q-98 -110 -264 -110q-199 0 -338.5 147.5 t-139.5 374.5t139.5 374.5t338.5 147.5q163 0 260 -108h30zM618 242q101 0 163.5 72t62.5 198t-62.5 198t-163.5 72t-175 -71t-74 -199t74 -199t175 -71z" />
<glyph horiz-adv-x="593" d="M317 1139q-72 0 -124 51.5t-52 120.5q0 73 51.5 123.5t124.5 50.5q71 0 121.5 -50.5t50.5 -123.5q0 -69 -51 -120.5t-121 -51.5zM449 1024v-1024h-263v1024h263z" />
<glyph d="M860 1024h260v-901v-21q0 -107 -28 -198.5t-85.5 -165.5t-154 -116t-223.5 -42q-117 0 -216.5 36t-160.5 92t-95 121.5t-34 127.5h256q2 -6 5.5 -15t21.5 -32.5t42 -41.5t70 -33t103 -15q124 0 183.5 64t59.5 177v43q-101 -114 -284 -114q-200 0 -318.5 132t-118.5 347 l-2 555h267v-494q0 -56 11 -106.5t34.5 -96.5t68 -73t105.5 -27q30 0 58.5 6.5t61.5 27t57 53.5t40 92t16 137v481z" />
<glyph d="M942 1413l-244 -276h-180l129 276h295zM860 1024h260v-901v-21q0 -107 -28 -198.5t-85.5 -165.5t-154 -116t-223.5 -42q-117 0 -216.5 36t-160.5 92t-95 121.5t-34 127.5h256q2 -6 5.5 -15t21.5 -32.5t42 -41.5t70 -33t103 -15q124 0 183.5 64t59.5 177v43 q-101 -114 -284 -114q-200 0 -318.5 132t-118.5 347l-2 555h267v-494q0 -56 11 -106.5t34.5 -96.5t68 -73t105.5 -27q30 0 58.5 6.5t61.5 27t57 53.5t40 92t16 137v481z" />
<glyph d="M428 1128q-61 0 -105 44t-44 106t43.5 104.5t105.5 42.5q61 0 104 -42.5t43 -104.5q0 -61 -43.5 -105.5t-103.5 -44.5zM825 1128q-60 0 -103.5 44.5t-43.5 105.5q0 62 43 104.5t104 42.5q62 0 106 -42.5t44 -104.5t-44.5 -106t-105.5 -44zM860 1024h260v-901v-21 q0 -107 -28 -198.5t-85.5 -165.5t-154 -116t-223.5 -42q-117 0 -216.5 36t-160.5 92t-95 121.5t-34 127.5h256q2 -6 5.5 -15t21.5 -32.5t42 -41.5t70 -33t103 -15q124 0 183.5 64t59.5 177v43q-101 -114 -284 -114q-200 0 -318.5 132t-118.5 347l-2 555h267v-494 q0 -56 11 -106.5t34.5 -96.5t68 -73t105.5 -27q30 0 58.5 6.5t61.5 27t57 53.5t40 92t16 137v481z" />
<glyph horiz-adv-x="1236" d="M621 -10q-168 0 -287 95.5t-175.5 257.5t-56.5 376q0 159 32.5 290.5t96 229t162.5 151.5t225 54q168 0 286 -94.5t174.5 -256.5t56.5 -376q0 -159 -32.5 -291t-95 -229.5t-161.5 -152t-225 -54.5zM618 262q48 0 86 21.5t62 59.5t40.5 82t24.5 98.5t11.5 99t3.5 92.5 q0 77 -8.5 146.5t-31 144.5t-70.5 120t-118 45q-56 0 -98 -31.5t-65.5 -78t-38 -111t-19 -119.5t-4.5 -114q0 -49 3.5 -94.5t11.5 -100t24.5 -98.5t40.5 -82t61 -59t84 -21z" />
<glyph horiz-adv-x="835" d="M410 0v1010h-297v217h155q72 0 113 41t41 114v52h258l2 -1434h-272z" />
<glyph horiz-adv-x="1198" d="M690 535q-131 -95 -183 -154.5t-52 -122.5h589v-258h-901v104q0 75 10.5 141.5t27.5 117t44.5 96.5t53.5 78.5t63.5 65t67 53t69.5 46.5q17 11 61 38.5t61.5 40t52 37t50.5 42.5t35.5 43t28 51.5t10.5 55.5q4 79 -45.5 129.5t-126.5 50.5q-89 0 -138.5 -64.5 t-49.5 -152.5h-273q0 56 15.5 117.5t52 125t87.5 114t130 82.5t172 32q191 0 322 -119t131 -299q0 -38 -7.5 -74t-16.5 -65t-30 -62t-34.5 -53.5t-45 -51t-45.5 -44.5t-52 -43t-49.5 -37.5t-52.5 -37.5q-7 -5 -11 -8t-10 -7t-11 -8z" />
<glyph horiz-adv-x="1155" d="M819 758q89 -32 146 -126.5t57 -211.5q0 -88 -34 -167t-93.5 -137t-144.5 -92t-183 -34q-102 0 -192.5 37t-151 96t-96 134t-35.5 151h264q6 -65 60.5 -113.5t134.5 -48.5q81 0 141 50t60 140q0 88 -58 150.5t-166 62.5h-88v215h80q99 0 147 54.5t48 125.5 q0 72 -47.5 117t-116.5 45q-62 0 -103.5 -39.5t-50.5 -113.5h-258q0 169 126.5 280t299.5 111q170 0 289 -105.5t119 -261.5q0 -94 -44 -179t-110 -124v-16z" />
<glyph horiz-adv-x="1261" d="M1159 530v-243h-225v-287h-264v287h-598v166l497 981h289h76v-904h225zM412 530h258v480h-21z" />
<glyph horiz-adv-x="1181" d="M582 965q205 0 336 -144t131 -354q0 -213 -134.5 -345t-341.5 -132q-107 0 -197 38.5t-146 99.5t-86.5 131.5t-30.5 139.5h266q1 -6 3.5 -16.5t15 -37t31.5 -46.5t57 -36.5t87 -16.5q57 0 99 20.5t65 55.5t34 75t11 84q0 107 -57.5 172.5t-153.5 65.5q-41 0 -75 -12.5 t-53.5 -30.5t-33.5 -36.5t-19 -31.5l-5 -12l-248 68l64 770h790v-258h-565l-20 -250q73 39 176 39z" />
<glyph horiz-adv-x="1142" d="M526 877q131 19 245 -32t181.5 -159.5t67.5 -247.5q0 -137 -65 -240.5t-168.5 -155.5t-227.5 -52q-122 0 -224.5 51t-167.5 155.5t-65 243.5q0 106 39 234q42 133 416 762h297zM563 242q77 0 135 51t58 145q0 97 -60.5 146t-132.5 49q-33 0 -65.5 -11t-63 -32.5t-49 -61 t-18.5 -90.5q0 -94 59.5 -145t136.5 -51z" />
<glyph horiz-adv-x="1030" d="M82 1434h866v-195q-190 -198 -311 -528.5t-121 -710.5h-272q0 186 24.5 359t59.5 296t83 231.5t86.5 172t77.5 112.5h-493v263z" />
<glyph horiz-adv-x="1224" d="M870 768q92 -33 157 -127t65 -221q0 -182 -133 -306t-349 -124t-346.5 123.5t-130.5 304.5q0 131 67 225t154 125v18q-65 36 -108 111.5t-43 173.5q0 165 119.5 269t293.5 104q170 0 288 -99.5t118 -263.5q0 -99 -43.5 -178t-108.5 -115v-20zM612 1202 q-66 0 -111.5 -39.5t-45.5 -113.5q0 -77 48 -114.5t109 -37.5t108.5 37.5t47.5 114.5q0 74 -45 113.5t-111 39.5zM614 238q92 0 145.5 57.5t53.5 136.5q0 80 -55.5 137.5t-145.5 57.5q-91 0 -145.5 -58.5t-54.5 -136.5q0 -79 54.5 -136.5t147.5 -57.5z" />
<glyph horiz-adv-x="1101" d="M596 559q-98 -14 -189 12.5t-158 84.5t-107 147t-40 194q0 137 65 241t168.5 156t227.5 52q91 0 173 -30.5t145.5 -86t101 -142.5t37.5 -192t-39 -233q-42 -133 -416 -762h-297zM559 1194q-77 0 -134.5 -51t-57.5 -146q0 -97 60 -145.5t132 -48.5q74 0 135.5 48.5 t61.5 145.5q0 94 -60 145.5t-137 51.5z" />
<glyph horiz-adv-x="1177" d="M590 -10q-217 0 -352.5 155.5t-135.5 417.5t135.5 418t350.5 156q216 0 351.5 -156.5t135.5 -419.5q0 -262 -135 -416.5t-350 -154.5zM590 246q111 0 167 85.5t56 227.5q0 144 -56.5 233t-168.5 89q-110 0 -164.5 -88t-54.5 -232q0 -143 54.5 -229t166.5 -86z" />
<glyph horiz-adv-x="774" d="M362 0v690h-249v230h137q59 0 92 33.5t33 93.5v79h243l3 -1126h-259z" />
<glyph horiz-adv-x="1124" d="M729 434q-160 -80 -205.5 -112t-64.5 -82h514v-240h-830v104q0 79 21 146.5t54 116t86 93t103 74.5t119 64q55 26 81 40.5t57.5 37.5t44 48t12.5 58q0 54 -38.5 84.5t-107.5 30.5q-79 0 -127.5 -41t-48.5 -113h-254q0 53 14.5 106t48.5 105.5t83.5 92.5t125.5 65t169 25 q182 0 288.5 -91t106.5 -253q0 -128 -67 -213.5t-185 -145.5z" />
<glyph horiz-adv-x="1058" d="M768 582q57 -24 107.5 -88.5t50.5 -167.5q0 -102 -56 -180t-146.5 -117t-199.5 -39q-191 0 -311.5 116.5t-120.5 286.5h242q9 -77 57.5 -122.5t128.5 -45.5q71 0 113.5 36t42.5 97q0 138 -209 138h-47v192h39q103 0 145.5 26.5t42.5 80.5q0 104 -137 104t-145 -96h-238 q0 136 110 235t285 99q156 0 259.5 -81.5t103.5 -224.5q0 -148 -117 -229v-20z" />
<glyph horiz-adv-x="1122" d="M1020 465v-227h-170v-238h-252v238h-526v145l485 743h229h64v-661h170zM422 465h176v260h-33z" />
<glyph horiz-adv-x="1132" d="M602 768q98 0 175.5 -30.5t125 -83.5t72 -120.5t24.5 -144.5q0 -172 -115 -285.5t-311 -113.5q-103 0 -192 33.5t-146.5 87t-89.5 118t-32 129.5h260q5 -56 61 -94.5t135 -38.5q78 0 126 41.5t48 118.5q0 73 -46 115.5t-142 42.5q-110 0 -172 -80l-227 47l67 616h695 v-239h-472l-26 -162q66 43 182 43z" />
<glyph horiz-adv-x="1060" d="M586 745q56 0 115.5 -23.5t113.5 -67.5t88.5 -118t34.5 -165q0 -176 -120.5 -278.5t-295.5 -102.5q-178 0 -299 105t-121 282q0 89 35 173t111 200q43 65 109 159t111 155l44 62h303l-289 -393q20 12 60 12zM520 213q72 0 117 43t45 115q0 74 -45 116.5t-117 42.5 t-117 -42.5t-45 -116.5q0 -72 45 -115t117 -43z" />
<glyph horiz-adv-x="993" d="M82 1126h829v-159q-98 -90 -170 -185.5t-115.5 -183t-71.5 -192t-39.5 -195.5t-18.5 -211h-260q14 341 94 566t190 323h-438v237z" />
<glyph horiz-adv-x="1101" d="M803 604q24 -13 47.5 -32t53 -51.5t47.5 -82t18 -106.5q0 -146 -113.5 -244t-306.5 -98t-304.5 97.5t-111.5 244.5q0 58 18 107.5t47.5 82t52 50.5t46.5 32v21q-119 70 -119 211q0 94 56 164.5t139.5 103.5t177.5 33q68 0 133.5 -19t119.5 -55t87 -94.5t33 -130.5 q0 -45 -13 -83t-34 -63.5t-38 -40.5t-36 -26v-21zM551 920q-54 0 -86.5 -27.5t-32.5 -73.5q0 -50 34.5 -77t82.5 -27q49 0 85 27t36 77q0 45 -32 73t-87 28zM553 209q78 0 119 41.5t41 97.5q0 58 -44.5 98.5t-119.5 40.5q-76 0 -118 -39.5t-42 -97.5q0 -60 43 -100.5 t121 -40.5z" />
<glyph horiz-adv-x="1019" d="M518 1139q178 0 299 -105t121 -282q0 -89 -34.5 -173.5t-110.5 -199.5q-43 -65 -109 -159.5t-111 -155.5l-45 -62h-303l289 393q-20 -12 -59 -12q-56 0 -116 23.5t-114 68t-88.5 118.5t-34.5 165q0 176 120.5 278.5t295.5 102.5zM520 598q72 0 117 43t45 117 q0 72 -45 114.5t-117 42.5t-117 -42.5t-45 -114.5q0 -74 45 -117t117 -43z" />
<glyph horiz-adv-x="1228" d="M614 1323q241 0 368.5 -174.5t127.5 -493.5q0 -318 -126.5 -491.5t-367.5 -173.5q-242 0 -369.5 174.5t-127.5 492.5t127 492t368 174zM614 1051q-204 0 -204 -396q0 -93 10 -159l311 510q-48 45 -117 45zM614 262q207 0 207 391q0 37 -4 111l-291 -477q39 -25 88 -25z " />
<glyph horiz-adv-x="1228" d="M805 240h278v-240h-551h-311v240h311v647h-270v217h150q57 0 95 38.5t38 96.5v72h258z" />
<glyph horiz-adv-x="1230" d="M696 514q-134 -68 -182.5 -126.5t-48.5 -129.5h565v-258h-870v104q0 116 26.5 211t75.5 163.5t102 115.5t121 88q36 22 85 46.5t77.5 39.5t57.5 36t43 47.5t16 63.5q4 75 -41 114.5t-113 39.5q-77 0 -126.5 -49.5t-49.5 -128.5h-272q0 56 15.5 113.5t51 115.5t86 102.5 t127 72.5t168.5 28q185 0 307.5 -103t122.5 -282q0 -51 -12 -97t-29 -81t-47 -68.5t-56 -56t-66 -47.5t-66.5 -39t-67.5 -35z" />
<glyph horiz-adv-x="1236" d="M866 696q85 -31 134 -116t49 -187q0 -167 -127 -285t-316 -118q-99 0 -186 36.5t-145 96t-91.5 134.5t-33.5 151h264q7 -66 55.5 -114t132.5 -48q76 0 126 42t50 120q0 74 -49 127t-154 53h-88v215h80q51 0 87.5 15t54 39.5t25 47.5t7.5 47q0 63 -42.5 98t-102.5 35 q-21 0 -41.5 -5t-42.5 -17.5t-37.5 -38t-19.5 -61.5h-258q0 159 121 259.5t288 100.5q106 0 195 -42.5t143.5 -122.5t54.5 -181q0 -84 -35.5 -156.5t-97.5 -107.5v-17z" />
<glyph horiz-adv-x="1228" d="M1133 510v-244h-213v-266h-265v266h-577v166l477 881h262h103v-803h213zM391 510h264v459h-20z" />
<glyph horiz-adv-x="1228" d="M627 881q203 0 326.5 -127.5t123.5 -325.5q0 -137 -62.5 -238t-164.5 -150.5t-229 -49.5q-108 0 -197 38.5t-143 99.5t-82.5 131.5t-28.5 139.5h266q1 -6 2.5 -16.5t13 -37t29 -46.5t53.5 -36.5t84 -16.5q98 0 143.5 58.5t45.5 137.5q0 90 -54 143.5t-141 53.5 q-51 0 -93 -18.5t-59 -36.5l-16 -19l-247 68l61 680h758v-258h-533l-18 -203q73 29 162 29z" />
<glyph horiz-adv-x="1228" d="M602 834q189 0 313.5 -114.5t124.5 -301.5q0 -98 -36.5 -180t-98 -135.5t-140.5 -83t-165 -29.5q-85 0 -163.5 29t-140.5 82t-99 136t-37 183q0 85 39 213q19 62 84 178.5t183 308.5l118 193h297zM600 242q71 0 123.5 44t52.5 132q0 47 -17 82.5t-44.5 54.5t-56.5 28 t-58 9t-58 -9t-56.5 -28t-44.5 -54.5t-17 -82.5q0 -88 53 -132t123 -44z" />
<glyph horiz-adv-x="1228" d="M201 1313h829v-195q-181 -190 -288 -478.5t-107 -639.5h-273q0 174 22.5 332.5t54 267.5t75 206t76 149t67.5 96h-456v262z" />
<glyph horiz-adv-x="1228" d="M864 709q88 -32 150.5 -120.5t62.5 -197.5q0 -77 -34.5 -150t-94.5 -128.5t-148 -89t-188 -33.5q-133 0 -240 57.5t-163.5 148.5t-56.5 195q0 112 64.5 200t148.5 118v18q-62 33 -103 103.5t-41 152.5q0 144 116 242t281 98q105 0 194 -42.5t142.5 -118.5t53.5 -169 q0 -83 -41.5 -157t-102.5 -107v-20zM614 1081q-62 0 -101.5 -34t-39.5 -89q0 -58 42.5 -89t98.5 -31t98 31t42 89q0 55 -39 89t-101 34zM616 238q85 0 134 51t49 112q0 64 -50.5 115t-134.5 51t-134 -52t-50 -114q0 -61 49.5 -112t136.5 -51z" />
<glyph horiz-adv-x="1228" d="M618 479q-189 0 -313.5 114.5t-124.5 301.5q0 98 36.5 180t98 135.5t140 83t163.5 29.5q115 0 215 -49.5t164 -147.5t64 -223q0 -117 -60 -244q-45 -96 -161 -304.5t-203 -354.5h-297zM621 1071q-72 0 -124.5 -44t-52.5 -132q0 -47 17 -82.5t45 -54.5t57 -28t58 -9t58 9 t56.5 28t44.5 54.5t17 82.5q0 88 -53 132t-123 44z" />
<glyph horiz-adv-x="847" d="M426 -6q-144 0 -234 109t-90 290t90 291.5t232 110.5t231.5 -110.5t89.5 -293.5q0 -180 -88.5 -288.5t-230.5 -108.5zM426 193q42 0 69 29t37.5 71t10.5 98t-10.5 99t-38 72.5t-70.5 29.5q-61 0 -89 -56.5t-28 -142.5q0 -87 28 -143.5t91 -56.5z" />
<glyph horiz-adv-x="595" d="M295 0v477h-193v166h117q38 0 61 23t23 63v59h189l2 -788h-199z" />
<glyph horiz-adv-x="794" d="M512 301q-17 -11 -44 -26t-43 -24.5t-33 -21.5t-25.5 -23.5t-10.5 -23.5h318v-182h-572v74q0 63 14 112.5t42 84t55.5 57t67.5 45.5q22 12 59.5 32t57.5 31.5t43.5 28.5t33.5 35.5t10 40.5q0 32 -23 49.5t-61 17.5q-52 0 -81 -31.5t-29 -76.5h-187q0 54 18 104.5t52.5 94 t95 70t136.5 26.5q123 0 198.5 -65.5t75.5 -176.5q0 -84 -44.5 -144t-123.5 -108z" />
<glyph horiz-adv-x="794" d="M578 401q39 -8 76.5 -49t37.5 -114q0 -103 -80.5 -173.5t-205.5 -70.5q-131 0 -217.5 75t-86.5 187h189q2 -36 34.5 -62t77.5 -26q40 0 67.5 21t27.5 59q0 76 -119 76h-55v151h49q56 0 83 21t27 55q0 31 -23 52.5t-59 21.5q-35 0 -59 -21t-29 -49h-186q0 94 79 167 t204 73q115 0 185.5 -63t70.5 -157q0 -63 -29.5 -106t-58.5 -55v-13z" />
<glyph horiz-adv-x="864" d="M762 328v-162h-133v-166h-174v166h-353v102l291 520h236v-460h133zM336 328h119v194h-19z" />
<glyph horiz-adv-x="817" d="M449 551q111 0 188.5 -79t77.5 -196q0 -123 -86 -199.5t-217 -76.5q-133 0 -221.5 77t-88.5 179h197q8 -37 39.5 -61.5t75.5 -24.5q47 0 77.5 29.5t30.5 76.5q0 45 -27.5 78t-84.5 33q-63 0 -109 -55l-168 33l47 430h492v-164h-322l-16 -105q59 25 115 25z" />
<glyph horiz-adv-x="782" d="M442 520q95 0 166.5 -73t71.5 -189q0 -85 -43 -146.5t-107 -89.5t-139 -28q-118 0 -203.5 71.5t-85.5 202.5q0 60 22 121t75 143q27 42 73 106t78 107l33 43h229l-213 -274q18 6 43 6zM391 164q46 0 74.5 26.5t28.5 69.5t-29.5 70.5t-73.5 27.5t-73 -27.5t-29 -70.5 q0 -42 28.5 -69t73.5 -27z" />
<glyph horiz-adv-x="755" d="M102 788h572v-126q-107 -130 -162 -233t-74 -195.5t-22 -233.5h-203q7 205 48.5 336.5t139.5 271.5h-299v180z" />
<glyph horiz-adv-x="794" d="M580 424q54 -19 83 -71t29 -113q0 -102 -81 -174t-216 -72q-134 0 -213.5 71.5t-79.5 174.5q0 61 28.5 113t82.5 71v14q-80 42 -80 148q0 99 79.5 154t184.5 55t183.5 -55t78.5 -154q0 -105 -79 -148v-14zM397 643q-35 0 -55 -21t-20 -53q0 -33 20 -52t53 -19 q34 0 56 19.5t22 53.5q0 31 -20.5 51.5t-55.5 20.5zM395 145q52 0 80.5 31t28.5 76q0 44 -27 75t-82 31q-54 0 -79 -30.5t-25 -75.5t26 -76t78 -31z" />
<glyph horiz-adv-x="782" d="M391 795q118 0 203.5 -72t85.5 -203q0 -116 -96 -264q-27 -42 -73.5 -106t-78.5 -107l-33 -43h-223l217 283q-21 -7 -43 -7q-98 0 -173 69.5t-75 186.5q0 124 86 193.5t203 69.5zM391 430q44 0 73.5 27.5t29.5 70.5q0 42 -29 69.5t-74 27.5q-46 0 -74 -27t-28 -70 t29 -70.5t73 -27.5z" />
<glyph horiz-adv-x="847" d="M426 516q-144 0 -234 109t-90 290t90 291.5t232 110.5t231.5 -110.5t89.5 -293.5q0 -180 -88.5 -288.5t-230.5 -108.5zM426 715q42 0 69 29t37.5 71t10.5 98t-10.5 99t-38 72.5t-70.5 29.5q-61 0 -89 -56.5t-28 -142.5q0 -87 28 -143.5t91 -56.5z" />
<glyph horiz-adv-x="595" d="M295 522v477h-193v166h117q38 0 61 23t23 63v60h189l2 -789h-199z" />
<glyph horiz-adv-x="794" d="M512 823q-19 -12 -54 -31.5t-52 -30t-32.5 -26t-17.5 -30.5h318v-183h-572v74q0 63 14 112.5t42 84t55.5 57t67.5 45.5q22 12 59.5 32t57.5 31.5t43.5 28.5t33.5 35.5t10 40.5q0 32 -23 49.5t-61 17.5q-52 0 -81 -31.5t-29 -76.5h-187q0 54 18 104.5t52.5 94t95 70 t136.5 26.5q123 0 198.5 -65.5t75.5 -176.5q0 -84 -44.5 -144t-123.5 -108z" />
<glyph horiz-adv-x="794" d="M578 924q39 -8 76.5 -49.5t37.5 -114.5q0 -103 -80.5 -173.5t-205.5 -70.5q-131 0 -217.5 75t-86.5 187h189q2 -36 34.5 -62t77.5 -26q40 0 67.5 21t27.5 59q0 76 -119 76h-55v151h49q56 0 83 21t27 55q0 31 -23 52.5t-59 21.5q-35 0 -59 -21t-29 -49h-186q0 94 79 167 t204 73q115 0 185.5 -62.5t70.5 -156.5q0 -63 -29.5 -106.5t-58.5 -55.5v-12z" />
<glyph horiz-adv-x="864" d="M762 850v-162h-133v-166h-174v166h-353v103l291 520h236v-461h133zM336 850h119v194h-19z" />
<glyph horiz-adv-x="817" d="M449 1067q111 0 188.5 -78.5t77.5 -195.5q0 -123 -86 -200t-217 -77q-133 0 -221.5 77t-88.5 179h197q8 -37 39.5 -61.5t75.5 -24.5q47 0 77.5 30t30.5 77q0 45 -27.5 77.5t-84.5 32.5q-63 0 -109 -55l-168 33l47 430h492v-164h-322l-16 -105q59 25 115 25z" />
<glyph horiz-adv-x="782" d="M442 1042q95 0 166.5 -73t71.5 -189q0 -85 -43 -146.5t-107 -89.5t-139 -28q-118 0 -203.5 72t-85.5 203q0 60 22 121t75 143q27 42 73 106t78 107l33 43h229l-213 -275q18 6 43 6zM391 686q46 0 74.5 26.5t28.5 69.5t-29.5 71t-73.5 28t-73 -28t-29 -71q0 -42 28.5 -69 t73.5 -27z" />
<glyph horiz-adv-x="755" d="M102 1311h572v-127q-107 -130 -162 -233t-74 -195.5t-22 -233.5h-203q7 205 48.5 336.5t139.5 271.5h-299v181z" />
<glyph horiz-adv-x="794" d="M580 946q54 -19 83 -71t29 -113q0 -102 -81 -174t-216 -72q-134 0 -213.5 71.5t-79.5 174.5q0 61 28.5 113t82.5 71v15q-80 42 -80 147q0 99 79.5 154t184.5 55t183.5 -55t78.5 -154q0 -104 -79 -147v-15zM397 1165q-36 0 -55.5 -20.5t-19.5 -52.5q0 -33 20 -52.5 t53 -19.5t55.5 20t22.5 54q0 31 -20.5 51t-55.5 20zM395 668q53 0 81 31t28 75t-27 75.5t-82 31.5q-54 0 -79 -31t-25 -76t26 -75.5t78 -30.5z" />
<glyph horiz-adv-x="782" d="M391 1317q118 0 203.5 -72t85.5 -203q0 -116 -96 -264q-27 -42 -73.5 -106t-78.5 -107l-33 -43h-223l217 283q-18 -6 -43 -6q-98 0 -173 69.5t-75 186.5q0 124 86 193t203 69zM391 952q44 0 73.5 28t29.5 71q0 42 -29 69t-74 27q-46 0 -74 -26.5t-28 -69.5t29 -71t73 -28 z" />
<glyph horiz-adv-x="573" d="M287 1116q-68 0 -116 47.5t-48 116.5q0 68 48.5 116t115.5 48t115.5 -48t48.5 -116q0 -69 -48 -116.5t-116 -47.5zM188 1024h195l41 -1024h-274z" />
<glyph horiz-adv-x="944" d="M522 1444q68 0 116 -48t48 -116q0 -69 -48 -116.5t-116 -47.5t-116 47.5t-48 116.5q0 68 48 116t116 48zM649 928q0 -52 -3.5 -88t-16.5 -85t-42.5 -96t-76.5 -94q-29 -29 -88 -76.5t-82 -78t-23 -72.5q0 -52 37 -87.5t109 -35.5q143 0 164 154h250q0 -57 -13 -110.5 t-43 -104.5t-75.5 -88.5t-116 -60.5t-158.5 -23q-190 0 -296.5 95.5t-106.5 241.5q0 56 16 104.5t45.5 87.5t57 67.5t66.5 63.5t58 56q32 34 51 69t26.5 74t9 62t1.5 64v14v43h250v-96z" />
<glyph horiz-adv-x="722" d="M485 956q0 -151 -86 -231v-16q86 -80 86 -232v-430q0 -26 0.5 -38t4 -29t11 -24.5t21.5 -13t35 -5.5h23v-185h-101q-106 0 -167.5 65t-61.5 177v463q0 87 -34 130.5t-114 43.5v168v4q80 0 114 43.5t34 130.5v463q0 112 61.5 176.5t167.5 64.5h101v-184h-23 q-21 0 -35 -5.5t-21.5 -13t-11 -24.5t-4 -29.5t-0.5 -38.5v-430z" />
<glyph horiz-adv-x="722" d="M473 979q0 -87 34 -130.5t114 -43.5v-168v-4q-80 0 -114 -43.5t-34 -130.5v-463q0 -112 -61.5 -177t-167.5 -65h-101v185h23q21 0 35 5.5t21.5 13t11 24.5t4 29t0.5 38v430q0 152 86 232v16q-86 80 -86 231v431q0 26 -0.5 38t-4 29t-11 24.5t-21.5 13t-35 5.5h-23v184 h101q106 0 167.5 -64.5t61.5 -176.5v-463z" />
<glyph horiz-adv-x="737" d="M123 1681h450v-223h-211v-1483h211v-223h-450v1929z" />
<glyph horiz-adv-x="737" d="M594 1681v-1929h-451v223h211v1483h-211v223h451z" />
<glyph horiz-adv-x="755" d="M674 -121l-174 -153q-377 409 -377 991q0 307 102 556t275 437l174 -156q-142 -155 -219.5 -369t-77.5 -468q0 -253 78 -467.5t219 -370.5z" />
<glyph horiz-adv-x="755" d="M61 -121q141 156 219 370.5t78 467.5q0 254 -77.5 468t-219.5 369l175 156q173 -187 274.5 -436t101.5 -557q0 -583 -376 -991z" />
<glyph horiz-adv-x="1761" d="M1659 836v-234h-1557v234h1557z" />
<glyph horiz-adv-x="1095" d="M102 836h891v-234h-891v234z" />
<glyph horiz-adv-x="942" d="M102 836h738v-234h-738v234z" />
<glyph horiz-adv-x="942" d="M102 836h738v-234h-738v234z" />
<glyph horiz-adv-x="1271" d="M412 301l-330 414l330 413h286l-333 -413l333 -414h-286zM862 301l-330 414l330 413h287l-334 -413l334 -414h-287z" />
<glyph horiz-adv-x="1269" d="M369 301h-287l334 414l-334 413h287l329 -413zM817 301h-287l334 414l-334 413h287l330 -413z" />
<glyph horiz-adv-x="821" d="M432 301l-330 414l330 413h287l-334 -413l334 -414h-287z" />
<glyph horiz-adv-x="821" d="M389 301h-287l334 414l-334 413h287l330 -413z" />
<glyph horiz-adv-x="538" d="M395 1638v-1863h-252v1863h252z" />
<glyph horiz-adv-x="538" d="M143 1638h252v-727h-252v727zM143 -225v727h252v-727h-252z" />
<glyph horiz-adv-x="2007" d="M1012 1628q171 0 331.5 -62t285.5 -172.5t200.5 -277t75.5 -360.5q0 -228 -98.5 -373.5t-258.5 -167.5q-86 -11 -170 14.5t-137 85.5q-43 -49 -116 -74.5t-156 -25.5q-196 0 -325.5 132.5t-129.5 350.5q0 221 129 360.5t313 139.5q147 0 240 -96h29l45 86h139v-635 q0 -53 38 -79.5t85 -16.5q117 24 117 274q0 161 -51.5 290t-139.5 209.5t-201 122.5t-241 42q-136 0 -256.5 -47.5t-211 -134t-143.5 -219t-53 -292.5q0 -205 84.5 -362.5t236.5 -242.5t349 -85q89 0 166.5 20t165.5 70l166 -168q-112 -70 -244.5 -107.5t-263.5 -37.5 q-134 0 -265 38.5t-247.5 117t-205 187t-140.5 258.5t-52 321q0 140 35.5 267t98.5 226.5t149 180t187 133.5t213 81.5t227 28.5zM973 451q95 0 146.5 67t51.5 180q0 50 -10.5 94.5t-32.5 84t-62.5 63t-94.5 23.5t-95.5 -23t-65.5 -61t-36 -81.5t-12 -90.5t12 -90.5 t36 -81.5t66 -61t97 -23z" />
<glyph horiz-adv-x="1775" d="M295 522v477h-193v166h117q38 0 61 23t23 63v60h189l2 -789h-199zM1432 1311l-1020 -1311h-123l1020 1311h123zM1493 301q-17 -11 -44 -26t-43 -24.5t-33 -21.5t-25.5 -23.5t-10.5 -23.5h318v-182h-572v74q0 63 14 112.5t42 84t55.5 57t67.5 45.5q22 12 59.5 32 t57.5 31.5t43.5 28.5t33.5 35.5t10 40.5q0 32 -23 49.5t-61 17.5q-52 0 -81 -31.5t-29 -76.5h-187q0 54 17.5 104.5t52.5 94t95 70t136 26.5q123 0 199 -65.5t76 -176.5q0 -84 -44.5 -144t-123.5 -108z" />
<glyph horiz-adv-x="1681" d="M295 522v477h-193v166h117q38 0 61 23t23 63v60h189l2 -789h-199zM1432 1311l-1020 -1311h-123l1020 1311h123zM1579 328v-162h-133v-166h-174v166h-352v102l290 520h236v-460h133zM1153 328h119v194h-19z" />
<glyph horiz-adv-x="1757" d="M578 924q39 -8 76.5 -49.5t37.5 -114.5q0 -103 -80.5 -173.5t-205.5 -70.5q-131 0 -217.5 75t-86.5 187h189q2 -36 34.5 -62t77.5 -26q40 0 67.5 21t27.5 59q0 76 -119 76h-55v151h49q56 0 83 21t27 55q0 31 -23 52.5t-59 21.5q-35 0 -59 -21t-29 -49h-186q0 94 79 167 t204 73q115 0 185.5 -62.5t70.5 -156.5q0 -63 -29.5 -106.5t-58.5 -55.5v-12zM1507 1311l-1020 -1311h-122l1019 1311h123zM1655 328v-162h-133v-166h-174v166h-353v102l291 520h236v-460h133zM1229 328h119v194h-19z" />
<glyph horiz-adv-x="886" d="M846 1536l-692 -1638h-113l692 1638h113z" />
<glyph horiz-adv-x="948" d="M102 1536h113l692 -1638h-112z" />
<glyph horiz-adv-x="573" d="M229 1434h113l-12 -1024h-88zM287 -10q-67 0 -115.5 48t-48.5 116q0 69 48 116t116 47t116 -47t48 -116q0 -68 -48.5 -116t-115.5 -48z" />
<glyph horiz-adv-x="573" d="M287 1034q67 0 115.5 -48t48.5 -116q0 -69 -48 -116t-116 -47t-116 47t-48 116q0 68 48.5 116t115.5 48zM229 -410l13 1024h88l12 -1024h-113z" />
<glyph horiz-adv-x="829" d="M317 526q0 116 46 197.5t133 161.5q4 3 22 19.5t23 21.5t21.5 21t22.5 23.5t19 23t18.5 26t14.5 26.5t12.5 30t6.5 31t3 34q0 87 -60.5 149t-178.5 62q-58 0 -102.5 -18t-70 -43t-43 -62t-24 -65t-10.5 -62h-102q0 45 10.5 90.5t36.5 93t65 84t101 59.5t139 23 q159 0 250.5 -87.5t91.5 -217.5q0 -57 -17.5 -107.5t-52 -94t-58 -66.5t-62.5 -57q-10 -9 -15 -13q-75 -68 -106 -134.5t-31 -152.5v-112h-103v116zM377 -10q-67 0 -115.5 48t-48.5 116q0 69 48 116t116 47t116 -47t48 -116q0 -68 -48.5 -116t-115.5 -48z" />
<glyph horiz-adv-x="829" d="M453 1034q67 0 115 -48t48 -116q0 -69 -47.5 -116t-115.5 -47t-116 47t-48 116q0 68 48.5 116t115.5 48zM512 498q0 -116 -45.5 -197.5t-132.5 -161.5q-3 -3 -24 -22t-26.5 -24t-23.5 -23t-24.5 -27t-20.5 -26.5t-19 -30.5t-13 -30.5t-10.5 -35.5t-2.5 -37 q0 -86 61 -148.5t179 -62.5q58 0 102.5 18t69.5 43t42.5 62.5t23.5 64.5t11 62h103q0 -45 -10.5 -90.5t-36.5 -93t-65 -84t-101 -59.5t-139 -23q-159 0 -250.5 87.5t-91.5 217.5q0 57 17.5 108t51.5 93.5t58.5 67t62.5 57.5q10 8 14 12q75 68 106.5 134.5t31.5 152.5v112 h102v-116z" />
<glyph horiz-adv-x="638" d="M342 858q0 -174 -106 -231v-17q106 -57 106 -231v-488q0 -70 27.5 -104.5t93.5 -34.5h33v-98h-70q-86 0 -135 54t-49 126v524q0 90 -36 150.5t-104 60.5v99q68 0 103 60.5t35 150.5v524q0 71 50 125.5t136 54.5h70v-98h-33q-66 0 -93.5 -34.5t-27.5 -104.5v-488z" />
<glyph horiz-adv-x="638" d="M399 879q0 -90 35 -150.5t103 -60.5v-99q-68 0 -104 -60.5t-36 -150.5v-524q0 -72 -49 -126t-135 -54h-70v98h33q66 0 93.5 34.5t27.5 104.5v488q0 174 106 231v17q-106 57 -106 231v488q0 70 -27.5 104.5t-93.5 34.5h-33v98h70q86 0 136 -54.5t50 -125.5v-524z" />
<glyph horiz-adv-x="649" d="M123 1583h342v-98h-240v-1733h260v-98h-362v1929z" />
<glyph horiz-adv-x="649" d="M506 1583v-1929h-363v98h260v1733h-239v98h342z" />
<glyph horiz-adv-x="604" d="M522 -297l-76 -70q-149 179 -236 439.5t-87 562.5t87 563t236 440l76 -71q-140 -167 -217.5 -412.5t-77.5 -519.5t77.5 -519.5t217.5 -412.5z" />
<glyph horiz-adv-x="604" d="M61 -297q140 167 217.5 412.5t77.5 519.5t-77.5 519.5t-217.5 412.5l76 71q149 -179 236.5 -440t87.5 -563t-87 -562.5t-237 -439.5z" />
<glyph horiz-adv-x="1095" d="M102 0h891v-98h-891v98z" />
<glyph horiz-adv-x="1761" d="M1659 686v-98h-1557v98h1557z" />
<glyph horiz-adv-x="1095" d="M102 686h891v-98h-891v98z" />
<glyph horiz-adv-x="942" d="M102 686h738v-98h-738v98z" />
<glyph horiz-adv-x="942" d="M102 686h738v-98h-738v98z" />
<glyph horiz-adv-x="1052" d="M453 197l-330 413l330 414h139l-334 -414l334 -413h-139zM831 197l-329 413l329 414h140l-334 -414l334 -413h-140z" />
<glyph horiz-adv-x="1052" d="M242 197h-140l334 413l-334 414h140l329 -414zM621 197h-140l334 413l-334 414h140l329 -414z" />
<glyph horiz-adv-x="673" d="M432 197l-330 413l330 414h139l-333 -414l333 -413h-139z" />
<glyph horiz-adv-x="673" d="M242 197h-140l334 413l-334 414h140l329 -414z" />
<glyph horiz-adv-x="659" d="M227 963h-82l-32 385q-4 49 18.5 70.5t54.5 21.5t55 -21.5t19 -70.5zM504 963h-82l-33 385q-4 49 19 70.5t55 21.5t55 -21.5t19 -70.5z" />
<glyph horiz-adv-x="393" d="M238 963h-82l-33 385q-4 49 19 70.5t55 21.5t54.5 -21.5t18.5 -70.5z" />
<glyph horiz-adv-x="391" d="M248 1577v-1864h-105v1864h105z" />
<glyph horiz-adv-x="391" d="M143 1577h105v-727h-105v727zM143 -287v727h105v-727h-105z" />
<glyph horiz-adv-x="1306" d="M1008 1024h196v-98h-217l-90 -447h221v-98h-241l-74 -381h-109l74 381h-354l-76 -381h-109l76 381h-213v98h234l90 447h-238v98h258l80 410h109l-80 -410h354l82 410h109zM788 479l91 447h-355l-90 -447h354z" />
<glyph horiz-adv-x="1368" d="M1276 0h-135l-215 211q-147 -221 -410 -221q-180 0 -297 100.5t-117 255.5q0 54 17 103.5t42 87t66.5 77t78.5 66.5t91 63q-93 101 -148.5 192t-55.5 187q0 59 23 115.5t65.5 103t110 75t147.5 28.5q77 0 139 -26.5t99.5 -70.5t57 -97t19.5 -109q0 -55 -15 -103.5 t-38 -86.5t-65.5 -79t-82.5 -72.5t-104 -76.5l350 -348l152 301h112l-186 -377zM539 1343q-99 0 -171.5 -62t-72.5 -157q0 -59 33.5 -127t66.5 -109.5t82 -94.5q275 176 275 337q0 88 -58 150.5t-155 62.5zM516 90q116 0 201 53t137 138l-389 389q-40 -26 -52 -34.5 t-46 -32.5t-46 -35.5t-37 -35t-34.5 -41t-22.5 -42t-17.5 -50.5t-4.5 -55q0 -120 90.5 -187t220.5 -67z" />
<glyph horiz-adv-x="2007" d="M1020 1444q134 0 261.5 -35t241 -108.5t198.5 -177t134.5 -250t49.5 -318.5q0 -142 -35 -258t-111.5 -191t-183.5 -75q-88 0 -154.5 44.5t-89.5 137.5q-52 -90 -149.5 -136t-212.5 -46q-92 0 -175 34t-145 95.5t-98.5 154t-36.5 201.5q0 218 132.5 358t324.5 140 q117 0 206 -44t140 -126l24 160h80v-676q0 -87 36.5 -142t117.5 -55q95 0 160 120.5t65 301.5q0 149 -42 278t-115.5 222t-171 159t-210 98.5t-231.5 32.5q-128 0 -249 -36.5t-225 -108.5t-182 -170.5t-122.5 -230t-44.5 -279.5q0 -149 45 -279.5t123.5 -227t183 -166 t227 -105t252.5 -35.5q252 0 422 139l60 -73q-91 -82 -220.5 -124t-273.5 -42q-141 0 -275.5 39t-251.5 117t-206 186.5t-140 257.5t-51 319q0 169 50 317t137.5 257t203.5 188t250.5 118.5t276.5 39.5zM983 131q148 0 243 97t95 282q0 187 -96.5 295t-245.5 108 q-96 0 -177.5 -48.5t-132.5 -140.5t-51 -208q0 -175 106 -280t259 -105z" />
<glyph horiz-adv-x="1658" d="M829 -10q-197 0 -364.5 97.5t-265 265t-97.5 364.5t97.5 364.5t265 265t364.5 97.5q196 0 363.5 -97.5t265.5 -265t98 -364.5t-98 -364.5t-265.5 -265t-363.5 -97.5zM829 90q169 0 312.5 84t227 228.5t83.5 314.5q0 127 -49.5 243t-133 200t-198.5 133.5t-242 49.5 q-170 0 -313.5 -84t-226 -228t-82.5 -314q0 -128 49 -244t132 -200t198.5 -133.5t242.5 -49.5zM1186 625q-25 -134 -123.5 -210.5t-222.5 -76.5q-149 0 -259 107.5t-110 271.5t110 271.5t257 107.5q127 0 229 -80t123 -217h-213q-11 44 -53.5 69t-85.5 25q-62 0 -108 -49 t-46 -127t46.5 -127t115.5 -49q89 0 127 84h213z" />
<glyph horiz-adv-x="1658" d="M829 -10q-197 0 -364.5 97.5t-265 265t-97.5 364.5t97.5 364.5t265 265t364.5 97.5q196 0 363.5 -97.5t265.5 -265t98 -364.5t-98 -364.5t-265.5 -265t-363.5 -97.5zM829 90q169 0 312.5 84t227 228.5t83.5 314.5q0 127 -49.5 243t-133 200t-198.5 133.5t-242 49.5 q-170 0 -313.5 -84t-226 -228t-82.5 -314q0 -128 49 -244t132 -200t198.5 -133.5t242.5 -49.5zM958 348l-151 270h-37v-270h-182v737h250q126 0 199 -62t73 -169q0 -44 -12.5 -80.5t-31 -58t-36.5 -36.5t-30 -21l-13 -5l172 -305h-201zM770 788h64q45 0 65.5 14.5t20.5 47.5 q0 65 -89 65h-61v-127z" />
<glyph horiz-adv-x="1085" d="M727 205q92 -21 145.5 -97.5t53.5 -179.5q0 -152 -110 -245t-271 -93q-91 0 -166.5 33t-122 86t-71.5 117t-25 129h98q0 -30 8 -62.5t28.5 -69.5t51.5 -66.5t83 -48.5t116 -19q126 0 203 66t77 177q0 57 -21 98.5t-63 67.5t-86 41t-108 27q-42 8 -70.5 14t-77 21t-82 32 t-73 46.5t-64 64t-41 85t-16.5 110.5q0 129 65 218t158 105q-88 31 -138 103.5t-50 173.5q0 152 110.5 245t270.5 93q91 0 166.5 -33t122 -86t71.5 -117t25 -129h-99q0 38 -15 80.5t-45.5 85.5t-89 71.5t-134.5 28.5q-120 0 -201.5 -66.5t-81.5 -181.5q0 -37 10 -67 t25 -51.5t42.5 -39.5t50 -29t61.5 -21.5t64 -15.5t69 -13q60 -11 110 -26.5t102.5 -44t88.5 -66t59 -95t23 -129.5q0 -128 -66.5 -217t-169.5 -110zM567 268q127 0 211 66.5t84 183.5q0 129 -101 205t-241 76q-129 0 -213 -66t-84 -182q0 -87 50.5 -153t128 -98t165.5 -32z " />
<glyph horiz-adv-x="1468" d="M61 1335v99h504v-99h-200v-618h-103v618h-201zM1317 1434h90v-717h-102v434h-27l-199 -383h-82l-200 383h-25v-434h-102v717h90l264 -508h29z" />
<glyph horiz-adv-x="1310" d="M852 88q55 0 108 12.5t89.5 31t65.5 36.5t43 30l13 13l58 -74q-165 -147 -379 -147q-205 0 -370.5 131t-223.5 342h-154v100h134q-7 54 -7 92q0 55 9 107h-136v100h158q61 205 225.5 332t364.5 127q214 0 379 -147l-58 -74q-5 5 -14.5 13.5t-41 29.5t-66 37t-88.5 29.5 t-109 13.5q-162 0 -295 -100t-190 -261h696l-39 -100h-686q-8 -70 -8 -107q0 -45 6 -92h622l-40 -100h-558q56 -167 191.5 -271t300.5 -104z" />
<glyph horiz-adv-x="1064" d="M942 299q0 -75 -29.5 -134t-80 -94t-108.5 -54.5t-124 -24.5v-176h-102v178q-112 12 -198 69t-131.5 143t-45.5 187h100q0 -99 70 -190.5t205 -110.5v535q-46 24 -75 40t-68.5 41t-64 46t-52 50.5t-43 59t-25.5 67t-10 79.5q0 75 30 134t80.5 95t107.5 55.5t120 24.5v176 h102v-178q150 -19 239 -122.5t89 -231.5h-101q0 87 -61.5 162.5t-165.5 93.5v-531q47 -24 75 -40t69 -41.5t65.5 -46t52.5 -51t43.5 -60.5t26 -68.5t10.5 -81.5zM264 1006q0 -78 55 -136t179 -127v478q-96 -12 -165 -67t-69 -148zM600 90q103 10 171.5 62.5t68.5 144.5 q0 87 -60.5 149t-179.5 127v-483z" />
<glyph horiz-adv-x="1124" d="M360 117v-17h668v-100h-924v82q13 4 34.5 12.5t76 39.5t96.5 67t76.5 97t34.5 128q0 86 -60 170h-260v98h187q-33 45 -52 76.5t-36 82.5t-17 105q0 90 39.5 161.5t103 114t136.5 65t147 22.5q66 0 125 -18t101.5 -46.5t78.5 -63t58.5 -69t38.5 -63t23 -46.5l7 -18 l-96 -22q-11 24 -24 48t-44 63t-66.5 67t-91.5 49t-120 21q-127 0 -221 -73.5t-94 -191.5q0 -26 6 -52.5t13 -44.5t24 -45t25.5 -39t32 -43t30.5 -40h450v-98h-387q43 -84 43 -176q0 -60 -16.5 -113t-43 -89.5t-51.5 -60.5t-51 -40z" />
<glyph horiz-adv-x="1202" d="M1120 1311l-426 -535h289v-98h-334v-131h334v-98h-334v-449h-102v449h-328v98h328v131h-328v98h283l-420 535h123l379 -473h28l385 473h123z" />
<glyph horiz-adv-x="1169" d="M643 238q125 12 207.5 83.5t116.5 182.5h98q-30 -148 -147 -248t-275 -119v-137h-102v137q-189 27 -314 171t-125 347t125 347.5t314 171.5v137h102v-137q160 -19 279 -123.5t145 -257.5h-98q-28 111 -116 188t-210 92v-835zM203 655q0 -165 96.5 -280.5t241.5 -134.5 v831q-145 -19 -241.5 -134.5t-96.5 -281.5z" />
<glyph horiz-adv-x="1261" d="M1075 512q0 -151 -92 -274l145 -146l-75 -76l-146 146q-121 -94 -276 -94q-156 0 -277 94l-145 -146l-76 76l146 146q-95 122 -95 274q0 153 95 272l-146 146l76 76l145 -146q120 96 277 96q152 0 276 -96l146 146l75 -76l-145 -146q92 -123 92 -272zM631 166 q146 0 246 101.5t100 244.5t-100 244.5t-246 101.5t-246 -101.5t-100 -244.5t100 -244.5t246 -101.5z" />
<glyph horiz-adv-x="1554" d="M410 707q-126 0 -217 90.5t-91 216.5t91 216.5t217 90.5q125 0 216 -90.5t91 -216.5t-91 -216.5t-216 -90.5zM1280 1311h-115l-913 -1311h115zM410 807q89 0 146.5 58.5t57.5 148.5t-57.5 148.5t-146.5 58.5t-147 -59t-58 -148t58 -148t147 -59zM1145 -10 q-126 0 -216.5 90.5t-90.5 216.5t90.5 216.5t216.5 90.5q125 0 216 -90.5t91 -216.5t-91 -216.5t-216 -90.5zM1145 90q89 0 147 59t58 148t-58 148t-147 59t-147 -59t-58 -148t58 -148t147 -59z" />
<glyph horiz-adv-x="1302" d="M1200 672q-3 -5 -8 -14.5t-23 -35t-38.5 -48.5t-54 -50t-69 -44.5t-83.5 -26t-99 -0.5q-47 8 -98.5 33t-89.5 50.5t-87 49.5t-91 30q-44 6 -86.5 -6.5t-71 -35t-51 -46t-32.5 -40.5l-11 -17l-105 37q5 10 14.5 27t43.5 58.5t73.5 71.5t105.5 49.5t138 8.5 q50 -8 102.5 -32.5t89.5 -49.5t85 -48.5t90 -29.5q45 -6 87.5 6.5t71 35t50.5 46t33 41.5l10 17z" />
<glyph horiz-adv-x="1177" d="M590 834q-68 0 -116 48t-48 115q0 69 48 116.5t116 47.5t116 -47.5t48 -116.5q0 -67 -48 -115t-116 -48zM102 657h973v-98h-973v98zM590 55q-68 0 -116 48.5t-48 115.5q0 69 48 116.5t116 47.5t116 -47.5t48 -116.5q0 -67 -48 -115.5t-116 -48.5z" />
<glyph horiz-adv-x="1218" d="M102 842h1014v-101h-1014v101zM102 446h1014v-100h-1014v100z" />
<glyph horiz-adv-x="1085" d="M123 1239l881 -563v-115l-881 -561v135l737 465v37l-737 467v135z" />
<glyph horiz-adv-x="1085" d="M983 1239v-135l-737 -467v-37l737 -465v-135l-881 561v115z" />
<glyph horiz-adv-x="1189" d="M1077 367h-102v385h-873v98h975v-483z" />
<glyph horiz-adv-x="1144" d="M899 1024h102v-1024h-79l-15 129h-26q-114 -139 -310 -139q-217 0 -333 180v-580h-95v1024v410h103v-494q0 -211 91 -325.5t238 -114.5q63 0 118.5 22.5t103 69t75 129t27.5 191.5v522z" />
<glyph horiz-adv-x="1208" d="M1055 987l-381 -381l381 -381l-70 -69l-381 381l-381 -381l-69 69l381 381l-381 381l69 70l381 -381l381 381z" />
<glyph horiz-adv-x="1218" d="M1116 686v-98h-454v-459h-103v459h-457v98h457v457h103v-457h454z" />
<glyph horiz-adv-x="1054" d="M580 743h372v-98h-372v-401h-103v401h-375v98h375v400h103v-400zM102 0v98h850v-98h-850z" />
<glyph horiz-adv-x="708" d="M354 823q-104 0 -178 74t-74 178t74 178t178 74q103 0 177.5 -74t74.5 -178t-74.5 -178t-177.5 -74zM354 924q66 0 108 42.5t42 108.5t-42 109t-108 43t-107.5 -43t-41.5 -109t41.5 -108.5t107.5 -42.5z" />
<glyph horiz-adv-x="1095" d="M862 737l-297 512h-33l-299 -512h-131l406 697h82l403 -697h-131z" />
<glyph horiz-adv-x="782" d="M700 1225l-225 -117l225 -121l-51 -90l-215 137l8 -256h-102l12 258l-219 -139l-51 90l225 121l-225 117l51 90l217 -137l-10 256h102l-8 -254l215 135z" />
</font>
</defs>
</svg>
