<?xml version="1.0" encoding="UTF-8"?>
<svg width="625px" height="338px" viewBox="0 0 625 338" version="1.1" xmlns="http://www.w3.org/2000/svg" xmlns:xlink="http://www.w3.org/1999/xlink">
    <!-- Generator: Sketch 51.3 (57544) - http://www.bohemiancoding.com/sketch -->
    <title>Artboard</title>
    <desc>Created with Sketch.</desc>
    <defs></defs>
    <g id="Artboard" stroke="none" stroke-width="1" fill="none" fill-rule="evenodd">
        <rect fill="#FFFFFF" x="0" y="0" width="625" height="338"></rect>
        <g id="Group" transform="translate(10.000000, 1.000000)" fill="#000000">
            <circle id="Oval" cx="15.5" cy="24.5" r="15.5"></circle>
            <circle id="Oval-Copy-6" cx="265.5" cy="18.5" r="15.5"></circle>
            <circle id="Oval-Copy-3" cx="140.5" cy="26.5" r="15.5"></circle>
            <circle id="Oval-Copy-7" cx="366.5" cy="35.5" r="15.5"></circle>
            <circle id="Oval-Copy-12" cx="484.5" cy="17.5" r="15.5"></circle>
            <circle id="Oval-Copy-2" cx="97.5" cy="24.5" r="15.5"></circle>
            <circle id="Oval-Copy-8" cx="333.5" cy="16.5" r="15.5"></circle>
            <circle id="Oval-Copy-4" cx="217.5" cy="22.5" r="15.5"></circle>
            <circle id="Oval-Copy-9" cx="472.5" cy="52.5" r="15.5"></circle>
            <circle id="Oval-Copy-13" cx="592.5" cy="18.5" r="15.5"></circle>
            <circle id="Oval-Copy" cx="56.5" cy="24.5" r="15.5"></circle>
            <circle id="Oval-Copy-10" cx="300.5" cy="17.5" r="15.5"></circle>
            <circle id="Oval-Copy-5" cx="179.5" cy="30.5" r="15.5"></circle>
            <circle id="Oval-Copy-11" cx="403.5" cy="20.5" r="15.5"></circle>
            <circle id="Oval-Copy-14" cx="534.5" cy="15.5" r="15.5"></circle>
            <circle id="Oval-Copy-29" cx="15.5" cy="65.5" r="15.5"></circle>
            <circle id="Oval-Copy-28" cx="264.5" cy="57.5" r="15.5"></circle>
            <circle id="Oval-Copy-27" cx="138.5" cy="64.5" r="15.5"></circle>
            <circle id="Oval-Copy-26" cx="402.5" cy="59.5" r="15.5"></circle>
            <circle id="Oval-Copy-25" cx="517.5" cy="44.5" r="15.5"></circle>
            <circle id="Oval-Copy-24" cx="98.5" cy="64.5" r="15.5"></circle>
            <circle id="Oval-Copy-23" cx="352.5" cy="73.5" r="15.5"></circle>
            <circle id="Oval-Copy-22" cx="223.5" cy="61.5" r="15.5"></circle>
            <circle id="Oval-Copy-21" cx="482.5" cy="89.5" r="15.5"></circle>
            <circle id="Oval-Copy-20" cx="589.5" cy="73.5" r="15.5"></circle>
            <circle id="Oval-Copy-19" cx="56.5" cy="65.5" r="15.5"></circle>
            <circle id="Oval-Copy-18" cx="301.5" cy="66.5" r="15.5"></circle>
            <circle id="Oval-Copy-17" cx="181.5" cy="63.5" r="15.5"></circle>
            <circle id="Oval-Copy-16" cx="435.5" cy="45.5" r="15.5"></circle>
            <circle id="Oval-Copy-15" cx="547.5" cy="65.5" r="15.5"></circle>
            <circle id="Oval-Copy-44" cx="15.5" cy="106.5" r="15.5"></circle>
            <circle id="Oval-Copy-43" cx="263.5" cy="112.5" r="15.5"></circle>
            <circle id="Oval-Copy-42" cx="141.5" cy="106.5" r="15.5"></circle>
            <circle id="Oval-Copy-41" cx="377.5" cy="98.5" r="15.5"></circle>
            <circle id="Oval-Copy-40" cx="511.5" cy="110.5" r="15.5"></circle>
            <circle id="Oval-Copy-39" cx="96.5" cy="107.5" r="15.5"></circle>
            <circle id="Oval-Copy-38" cx="350.5" cy="118.5" r="15.5"></circle>
            <circle id="Oval-Copy-37" cx="221.5" cy="103.5" r="15.5"></circle>
            <circle id="Oval-Copy-36" cx="454.5" cy="112.5" r="15.5"></circle>
            <circle id="Oval-Copy-35" cx="581.5" cy="113.5" r="15.5"></circle>
            <circle id="Oval-Copy-34" cx="56.5" cy="106.5" r="15.5"></circle>
            <circle id="Oval-Copy-33" cx="300.5" cy="98.5" r="15.5"></circle>
            <circle id="Oval-Copy-32" cx="180.5" cy="110.5" r="15.5"></circle>
            <circle id="Oval-Copy-31" cx="416.5" cy="111.5" r="15.5"></circle>
            <circle id="Oval-Copy-30" cx="548.5" cy="99.5" r="15.5"></circle>
            <circle id="Oval-Copy-59" cx="15.5" cy="147.5" r="15.5"></circle>
            <circle id="Oval-Copy-58" cx="262.5" cy="153.5" r="15.5"></circle>
            <circle id="Oval-Copy-57" cx="142.5" cy="143.5" r="15.5"></circle>
            <circle id="Oval-Copy-56" cx="386.5" cy="137.5" r="15.5"></circle>
            <circle id="Oval-Copy-55" cx="484.5" cy="136.5" r="15.5"></circle>
            <circle id="Oval-Copy-54" cx="97.5" cy="148.5" r="15.5"></circle>
            <circle id="Oval-Copy-53" cx="352.5" cy="158.5" r="15.5"></circle>
            <circle id="Oval-Copy-52" cx="225.5" cy="143.5" r="15.5"></circle>
            <circle id="Oval-Copy-51" cx="456.5" cy="158.5" r="15.5"></circle>
            <circle id="Oval-Copy-50" cx="563.5" cy="147.5" r="15.5"></circle>
            <circle id="Oval-Copy-49" cx="56.5" cy="147.5" r="15.5"></circle>
            <circle id="Oval-Copy-48" cx="299.5" cy="138.5" r="15.5"></circle>
            <circle id="Oval-Copy-47" cx="182.5" cy="151.5" r="15.5"></circle>
            <circle id="Oval-Copy-46" cx="420.5" cy="154.5" r="15.5"></circle>
            <circle id="Oval-Copy-45" cx="529.5" cy="147.5" r="15.5"></circle>
            <circle id="Oval-Copy-74" cx="15.5" cy="188.5" r="15.5"></circle>
            <circle id="Oval-Copy-91" cx="15.5" cy="270.5" r="15.5"></circle>
            <circle id="Oval-Copy-73" cx="266.5" cy="195.5" r="15.5"></circle>
            <circle id="Oval-Copy-92" cx="259.5" cy="278.5" r="15.5"></circle>
            <circle id="Oval-Copy-72" cx="134.5" cy="185.5" r="15.5"></circle>
            <circle id="Oval-Copy-93" cx="138.5" cy="267.5" r="15.5"></circle>
            <circle id="Oval-Copy-71" cx="395.5" cy="184.5" r="15.5"></circle>
            <circle id="Oval-Copy-94" cx="397.5" cy="270.5" r="15.5"></circle>
            <circle id="Oval-Copy-70" cx="497.5" cy="180.5" r="15.5"></circle>
            <circle id="Oval-Copy-95" cx="507.5" cy="279.5" r="15.5"></circle>
            <circle id="Oval-Copy-69" cx="97.5" cy="186.5" r="15.5"></circle>
            <circle id="Oval-Copy-96" cx="98.5" cy="272.5" r="15.5"></circle>
            <circle id="Oval-Copy-68" cx="349.5" cy="197.5" r="15.5"></circle>
            <circle id="Oval-Copy-97" cx="334.5" cy="256.5" r="15.5"></circle>
            <circle id="Oval-Copy-67" cx="223.5" cy="183.5" r="15.5"></circle>
            <circle id="Oval-Copy-98" cx="223.5" cy="277.5" r="15.5"></circle>
            <circle id="Oval-Copy-66" cx="466.5" cy="198.5" r="15.5"></circle>
            <circle id="Oval-Copy-99" cx="472.5" cy="286.5" r="15.5"></circle>
            <circle id="Oval-Copy-65" cx="578.5" cy="188.5" r="15.5"></circle>
            <circle id="Oval-Copy-100" cx="581.5" cy="270.5" r="15.5"></circle>
            <circle id="Oval-Copy-64" cx="56.5" cy="188.5" r="15.5"></circle>
            <circle id="Oval-Copy-101" cx="56.5" cy="270.5" r="15.5"></circle>
            <circle id="Oval-Copy-63" cx="309.5" cy="180.5" r="15.5"></circle>
            <circle id="Oval-Copy-102" cx="298.5" cy="264.5" r="15.5"></circle>
            <circle id="Oval-Copy-62" cx="177.5" cy="190.5" r="15.5"></circle>
            <circle id="Oval-Copy-103" cx="180.5" cy="275.5" r="15.5"></circle>
            <circle id="Oval-Copy-61" cx="425.5" cy="201.5" r="15.5"></circle>
            <circle id="Oval-Copy-104" cx="435.5" cy="274.5" r="15.5"></circle>
            <circle id="Oval-Copy-60" cx="538.5" cy="200.5" r="15.5"></circle>
            <circle id="Oval-Copy-105" cx="518.5" cy="248.5" r="15.5"></circle>
            <circle id="Oval-Copy-89" cx="15.5" cy="229.5" r="15.5"></circle>
            <circle id="Oval-Copy-106" cx="15.5" cy="311.5" r="15.5"></circle>
            <circle id="Oval-Copy-88" cx="258.5" cy="236.5" r="15.5"></circle>
            <circle id="Oval-Copy-107" cx="263.5" cy="317.5" r="15.5"></circle>
            <circle id="Oval-Copy-87" cx="141.5" cy="229.5" r="15.5"></circle>
            <circle id="Oval-Copy-108" cx="140.5" cy="311.5" r="15.5"></circle>
            <circle id="Oval-Copy-86" cx="374.5" cy="222.5" r="15.5"></circle>
            <circle id="Oval-Copy-109" cx="369.5" cy="315.5" r="15.5"></circle>
            <circle id="Oval-Copy-85" cx="484.5" cy="243.5" r="15.5"></circle>
            <circle id="Oval-Copy-110" cx="486.5" cy="318.5" r="15.5"></circle>
            <circle id="Oval-Copy-84" cx="96.5" cy="230.5" r="15.5"></circle>
            <circle id="Oval-Copy-111" cx="97.5" cy="314.5" r="15.5"></circle>
            <circle id="Oval-Copy-83" cx="328.5" cy="223.5" r="15.5"></circle>
            <circle id="Oval-Copy-112" cx="343.5" cy="295.5" r="15.5"></circle>
            <circle id="Oval-Copy-82" cx="220.5" cy="225.5" r="15.5"></circle>
            <circle id="Oval-Copy-113" cx="221.5" cy="318.5" r="15.5"></circle>
            <circle id="Oval-Copy-81" cx="454.5" cy="232.5" r="15.5"></circle>
            <circle id="Oval-Copy-114" cx="441.5" cy="319.5" r="15.5"></circle>
            <circle id="Oval-Copy-115" cx="545.5" cy="277.5" r="15.5"></circle>
            <circle id="Oval-Copy-79" cx="56.5" cy="229.5" r="15.5"></circle>
            <circle id="Oval-Copy-116" cx="56.5" cy="311.5" r="15.5"></circle>
            <circle id="Oval-Copy-78" cx="295.5" cy="220.5" r="15.5"></circle>
            <circle id="Oval-Copy-117" cx="311.5" cy="306.5" r="15.5"></circle>
            <circle id="Oval-Copy-77" cx="176.5" cy="232.5" r="15.5"></circle>
            <circle id="Oval-Copy-118" cx="178.5" cy="315.5" r="15.5"></circle>
            <circle id="Oval-Copy-76" cx="404.5" cy="238.5" r="15.5"></circle>
            <circle id="Oval-Copy-119" cx="405.5" cy="312.5" r="15.5"></circle>
            <circle id="Oval-Copy-75" cx="553.5" cy="236.5" r="15.5"></circle>
            <circle id="Oval-Copy-120" cx="551.5" cy="314.5" r="15.5"></circle>
            <circle id="Oval-Copy-90" cx="583.5" cy="231.5" r="15.5"></circle>
            <circle id="Oval-Copy-121" cx="577.5" cy="305.5" r="15.5"></circle>
        </g>
    </g>
</svg>