<?xml version="1.0" encoding="UTF-8"?>
<svg width="480px" height="300px" viewBox="0 0 480 300" version="1.1" xmlns="http://www.w3.org/2000/svg" xmlns:xlink="http://www.w3.org/1999/xlink">
    <!-- Generator: Sketch 51.1 (57501) - http://www.bohemiancoding.com/sketch -->
    <title>Artboard</title>
    <desc>Created with Sketch.</desc>
    <defs>
        <rect id="path-1" x="0" y="0" width="480" height="300"></rect>
        <rect id="path-3" x="0" y="0" width="401" height="330" rx="6"></rect>
    </defs>
    <g id="Artboard" stroke="none" stroke-width="1" fill="none" fill-rule="evenodd">
        <g id="Group-3">
            <mask id="mask-2" fill="white">
                <use xlink:href="#path-1"></use>
            </mask>
            <use id="Rectangle-3" fill="#FFFFFF" xlink:href="#path-1"></use>
            <g id="Group-2" mask="url(#mask-2)">
                <g transform="translate(-715.000000, -110.000000)">
                    <path d="M125.274256,390.776945 C114.781826,398.471394 101.141872,406.624764 84.353984,415.2373 C67.5660963,423.849836 56.8115171,429.904752 52.0899237,433.402228 L47.4995087,429.992206 C47.7618194,429.729895 48.1115618,429.336435 48.5487464,428.811813 C50.2974847,427.150512 51.1718407,426.013849 51.1718407,425.40179 C51.1718407,424.177674 49.357552,421.838771 45.72892,418.385013 C42.100288,414.931255 36.4825505,410.275309 28.8755389,404.417036 C23.5418871,400.220064 19.8040151,397.553278 17.6618107,396.416598 C15.5196063,395.279918 13.5304463,394.711587 11.6942711,394.711587 C10.732465,394.711587 9.46464876,394.886458 7.89078429,395.236206 C6.31691983,395.585953 4.56820776,396.023131 2.64459564,396.547753 L0.677274889,390.776945 C30.5806998,382.208128 52.0679993,371.409831 65.139818,358.38173 C78.2116368,345.35363 84.7474481,328.478559 84.7474481,307.75601 C84.7474481,291.755054 81.0751528,279.055033 73.730452,269.655565 C66.3857511,260.256096 56.4618101,255.556433 43.9583313,255.556433 C33.6407754,255.556433 25.0283684,259.534753 18.1208522,267.491512 C11.2133359,275.448271 7.75962958,285.459648 7.75962958,297.525942 C7.75962958,309.592236 11.3007715,319.472459 18.3831616,327.166908 C25.4655517,334.861356 35.6080817,339.845186 48.8110558,342.118546 L46.9748898,347.758198 C32.1980512,345.572275 20.7002694,339.648513 12.4811994,329.986734 C4.26212938,320.324955 0.152656023,307.887241 0.152656023,292.673217 C0.152656023,275.273271 5.02719091,260.802679 14.7764069,249.261006 C24.5256229,237.719334 36.6573129,231.948584 51.1718407,231.948584 C66.6481746,231.948584 79.348196,238.025358 89.2722859,250.179089 C99.1963757,262.33282 104.158346,278.114947 104.158346,297.525942 C104.158346,315.275636 98.91221,331.123339 88.4197802,345.069527 C77.9273504,359.015715 61.8391994,371.540865 40.1548445,382.645353 L65.4677048,404.154726 C67.7410646,406.165775 69.7520835,407.564745 71.5008218,408.351677 C73.2495601,409.13861 75.0857077,409.53207 77.0093199,409.53207 C80.6816703,409.53207 86.911457,407.127591 95.698867,402.31856 C104.486277,397.50953 114.300923,391.039295 125.143101,382.907662 L125.143101,272.213082 C125.143101,267.841236 124.924512,263.688045 124.487327,259.753384 C124.050143,255.818722 123.350658,251.840402 122.388852,247.818304 L127.241576,246.244448 L131.831991,260.409157 C133.143545,252.539835 136.925135,245.785434 143.176874,240.145753 C149.428614,234.506072 155.833272,231.686274 162.39104,231.686274 C162.478477,231.686274 162.762643,231.642556 163.243546,231.55512 C163.724449,231.467683 164.183486,231.423965 164.62067,231.423965 L164.62067,236.538999 C158.325213,239.424417 153.691126,243.992927 150.718271,250.244667 C147.745415,256.496406 146.25901,264.824647 146.25901,275.22964 L146.25901,381.858425 C146.25901,389.465436 146.783624,394.230677 147.832867,396.154289 C148.88211,398.077901 150.805693,399.039692 153.603674,399.039692 C155.177539,399.039692 156.94811,398.536938 158.91544,397.531413 C160.882771,396.525889 163.134238,394.973907 165.669908,392.875421 L169.473395,396.678908 C163.0905,403.673861 157.385327,410.25339 152.357704,416.417692 C147.330082,422.581995 142.805289,428.505757 138.783191,434.189156 L133.930467,432.6153 C134.017904,432.352989 134.105339,432.046965 134.192776,431.697217 C134.717398,429.948479 134.979705,428.549509 134.979705,427.500266 C134.979705,426.975644 133.340287,423.959116 130.061403,418.45059 C126.782518,412.942065 125.143101,405.68491 125.143101,396.678908 C125.143101,395.105043 125.16496,393.902804 125.208678,393.072153 C125.252397,392.241502 125.274256,391.476441 125.274256,390.776945 Z M192.818934,332.413096 C192.818934,328.390998 192.381756,325.5712 191.507387,323.953617 C190.633018,322.336034 188.928024,320.609181 186.392353,318.773006 L180.228082,324.150349 L176.686904,320.609172 L182.326557,314.051436 C190.633064,304.258502 196.27266,297.657114 199.245516,294.247074 L203.573621,297.001323 C203.223874,297.788255 202.961567,298.531458 202.786693,299.230953 C202.611819,299.930449 202.524384,300.542498 202.524384,301.067119 C202.524384,302.203799 203.901494,304.302254 206.655757,307.362546 C209.41002,310.422838 210.787131,314.051415 210.787131,318.248387 L210.787131,325.986515 C213.93486,320.652864 218.066192,314.576089 223.181251,307.75601 C228.296311,300.93593 230.984956,296.476715 231.247266,294.378229 L235.837681,294.247074 C236.44974,297.657114 237.739415,300.957808 239.706746,304.149255 C241.674076,307.340702 244.406439,310.597679 247.903915,313.920281 L247.903915,320.871481 C245.805429,323.144841 243.925564,325.636756 242.264263,328.3473 C240.602961,331.057845 239.072838,334.030655 237.673848,337.265821 L232.558814,337.265821 C231.509571,334.205529 230.13246,331.21086 228.42744,328.281723 C226.72242,325.352586 224.514671,322.270481 221.804127,319.035315 L216.164474,327.560372 C214.153425,330.620664 212.754455,333.309309 211.967523,335.626387 C211.180591,337.943465 210.787131,341.375313 210.787131,345.922032 L210.787131,399.564311 C210.787131,400.875865 210.962002,401.925092 211.31175,402.712025 C211.661497,403.498957 212.186111,404.154724 212.885606,404.679345 L219.967961,409.794379 C220.754893,410.319001 221.476237,410.712461 222.132014,410.974772 C222.78779,411.237082 223.377981,411.368236 223.902602,411.368236 C224.602098,411.368236 225.214147,411.258941 225.738768,411.040349 C226.26339,410.821757 226.744286,410.493873 227.18147,410.056689 L240.821561,398.252764 L244.887357,402.31856 L213.54138,432.877609 L209.213274,431.041443 L210.262512,429.074123 C206.152977,425.489209 201.803056,422.319668 197.212617,419.565406 C192.622179,416.811143 187.922516,414.559676 183.113485,412.810938 L183.113485,407.958213 C186.610962,407.521029 189.102877,406.29693 190.589304,404.285881 C192.075732,402.274832 192.818934,399.083433 192.818934,394.711587 L192.818934,332.413096 Z M294.332685,432.877609 L291.053817,431.041443 L292.889983,427.762575 C283.009612,421.816865 276.298929,415.936821 272.757734,410.122266 C269.216539,404.307711 267.445968,395.97947 267.445968,385.137293 L267.445968,339.364296 C267.445968,333.855771 267.883146,330.030463 268.757515,327.888259 C269.631884,325.746054 271.336879,323.494588 273.872549,321.133791 L299.316564,297.525942 C300.365807,296.476699 301.349458,295.66792 302.267545,295.09958 C303.185633,294.53124 303.906977,294.247074 304.431598,294.247074 C306.879832,294.247074 310.246103,296.258093 314.530511,300.280191 C318.81492,304.302289 321.918884,306.313308 323.842496,306.313308 C324.716865,306.313308 326.159553,305.744976 328.170602,304.608297 L328.432911,304.477142 L331.842934,307.4937 L318.465153,320.084553 C317.503347,320.958922 316.672709,321.570972 315.973213,321.920719 C315.273718,322.270467 314.661669,322.445338 314.137047,322.445338 C313.699863,322.445338 312.934801,322.139313 311.84184,321.527255 C310.748878,320.915197 309.459203,320.084558 307.972776,319.035315 L295.119613,309.329866 L291.316127,312.608734 C289.130204,314.532346 287.600081,316.543365 286.725711,318.641851 C285.851342,320.740337 285.414164,323.888019 285.414164,328.084991 L285.414164,376.743391 C285.414164,381.989606 285.589036,385.902349 285.938783,388.481738 C286.288531,391.061127 286.813144,393.050287 287.51264,394.449277 C289.348815,397.859317 292.212331,400.963281 296.103274,403.761262 C299.994216,406.559244 303.338628,407.958213 306.13661,407.958213 C307.885348,407.958213 310.114956,407.061998 312.8255,405.269541 C315.536044,403.477085 319.99526,399.78293 326.203281,394.186968 L330.269077,397.465836 C321.175638,406.296964 314.027778,413.291813 308.825281,418.45059 C303.622785,423.609368 298.791968,428.418327 294.332685,432.877609 Z M346.401107,411.630545 C349.286526,411.280798 351.341262,410.297147 352.565379,408.679564 C353.789496,407.061981 354.401545,404.460772 354.401545,400.875858 L354.401545,268.27844 C354.401545,265.480459 354.029944,262.791814 353.28673,260.212425 C352.543516,257.633036 351.297559,254.944391 349.548821,252.14641 L353.352307,249.392161 C355.53823,251.578084 357.243225,253.807692 358.467341,256.081052 C359.691458,258.354411 360.565814,260.890044 361.090436,263.688025 C363.80098,255.119207 368.194619,248.627114 374.271485,244.21155 C380.34835,239.795985 387.977107,237.588236 397.157983,237.588236 L397.157983,243.227889 C388.151981,243.752511 381.769181,246.572309 378.009394,251.687369 C374.249607,256.802428 372.369741,265.436694 372.369741,277.590425 L372.369741,325.986515 L406.863432,294.247074 L410.011145,297.001323 C409.748834,297.700818 409.552104,298.312868 409.420949,298.837489 C409.289793,299.362111 409.224217,299.711853 409.224217,299.886727 C409.224217,301.285717 409.967419,302.815841 411.453847,304.477142 C411.803594,304.82689 412.065901,305.132914 412.240775,305.395225 C421.683962,317.199208 428.197914,327.451033 431.782828,336.151006 C435.367741,344.850979 437.160171,354.097294 437.160171,363.890228 C437.160171,378.929378 432.657238,396.176051 423.651235,415.630764 C414.645233,435.085478 401.223868,456.397906 383.386738,479.568688 L378.665168,476.420975 C392.392763,457.622038 402.885036,439.741458 410.1423,422.778696 C417.399564,405.815935 421.028141,390.820729 421.028141,377.792628 C421.028141,367.125325 418.689239,356.742347 414.011364,346.643383 C409.333489,336.54442 402.010757,326.248877 392.042949,315.756448 L372.369741,333.462334 L372.369741,396.416598 C372.369741,399.739201 372.610189,402.099962 373.091092,403.498953 C373.571995,404.897943 374.293339,405.903453 375.255145,406.515511 L379.714405,409.007451 L391.780639,398.777383 L395.321817,402.843179 C388.938922,409.138637 383.736504,414.909387 379.714405,420.155602 C375.692307,425.401817 373.156675,429.642443 372.107432,432.877609 L366.992398,432.877609 C366.292903,430.167065 363.910282,427.150537 359.844466,423.827934 C355.778649,420.505331 351.297575,418.057134 346.401107,416.48327 L346.401107,411.630545 Z M468.243839,273.918093 C468.50615,272.693976 468.812174,271.0327 469.161922,268.934214 C473.096583,246.462927 478.73618,235.227452 486.08088,235.227452 C488.966299,235.227452 491.195907,235.970654 492.769771,237.457082 C494.343635,238.943509 495.130556,241.041964 495.130556,243.752508 C495.130556,246.288179 493.884599,249.370284 491.392647,252.998916 C488.900694,256.627548 482.802061,263.600537 473.096564,273.918093 L468.243839,273.918093 Z M478.473907,432.877609 L474.276956,430.779134 L475.326194,428.287194 C470.866911,424.877155 467.959677,422.057356 466.604405,419.827715 C465.249133,417.598074 464.571507,414.69084 464.571507,411.105926 C464.571507,408.832567 464.658943,405.859756 464.833816,402.187406 C465.00869,398.515055 465.096126,396.023141 465.096126,394.711587 L465.096126,333.462334 C465.096126,329.003052 464.790101,325.964664 464.178043,324.347081 C463.565984,322.729499 462.516757,321.920719 461.03033,321.920719 C459.89365,321.920719 458.713269,322.270462 457.489152,322.969957 C456.265035,323.669452 454.603759,325.024704 452.505273,327.035753 L448.964096,323.62573 C453.423378,319.253885 457.7733,314.663516 462.01399,309.854485 C466.25468,305.045455 470.517166,299.843037 474.801575,294.247074 L478.473907,296.739014 C477.861849,297.875694 477.359094,298.968639 476.965628,300.017882 C476.572162,301.067125 476.375431,301.854045 476.375431,302.378666 C476.375431,304.039968 478.211579,306.203999 481.88393,308.870825 C485.55628,311.537651 487.829606,312.871044 488.703975,312.871044 C488.791412,312.871044 489.053719,312.958479 489.490903,313.133353 L490.80245,313.657972 L490.80245,319.559934 C487.829595,320.171993 485.796717,321.396091 484.703756,323.232266 C483.610795,325.068442 483.064322,328.565866 483.064322,333.724644 L483.064322,397.990455 C483.064322,400.875873 483.69823,403.302211 484.966065,405.269541 C486.233901,407.236872 487.654729,408.220523 489.228594,408.220523 C490.102963,408.220523 491.217767,407.717768 492.573039,406.712243 C493.928311,405.706719 495.698882,404.067301 497.884805,401.793941 L501.819446,405.728583 C497.709911,409.838118 493.687874,414.144321 489.753213,418.647323 C485.818551,423.150324 482.05882,427.893705 478.473907,432.877609 Z M519.131869,417.794817 L519.131869,412.810938 C522.017287,412.111442 523.984588,410.909203 525.033831,409.204183 C526.083074,407.499163 526.607688,404.023598 526.607688,398.777383 L526.607688,320.346863 L513.098752,320.346863 L513.098752,314.182591 C519.306773,309.985619 524.880793,304.083716 529.820978,296.476704 C534.761164,288.869693 539.766852,278.289985 544.838193,264.737263 L550.477846,264.737263 C548.554234,272.344274 547.089688,279.470276 546.084163,286.115482 C545.078639,292.760687 544.575884,298.968615 544.575884,304.739451 L568.446042,304.739451 L568.446042,320.346863 L544.575884,320.346863 L544.575884,404.417036 L550.740156,409.007451 C551.439651,409.532072 552.073559,409.925533 552.641899,410.187843 C553.210239,410.450154 553.756712,410.581307 554.281333,410.581307 C554.718518,410.581307 555.199413,410.472013 555.724035,410.253421 C556.248656,410.034828 556.816988,409.706945 557.429046,409.26976 L565.03602,403.367798 L568.183733,407.04013 C563.811887,411.062228 559.483825,415.259137 555.199416,419.630983 C550.915007,424.002829 546.67438,428.593198 542.477409,433.402228 L537.886993,431.566062 L538.936231,428.549504 C535.00157,425.838959 531.438569,423.609351 528.247122,421.860613 C525.055674,420.111875 522.017287,418.756623 519.131869,417.794817 Z M603.202042,329.527693 L603.202042,375.694153 L635.990721,349.069745 C636.340469,348.807435 636.646494,348.392116 636.908804,347.823776 C637.171115,347.255436 637.302269,346.708963 637.302269,346.184342 C637.302269,346.009468 637.236692,345.725302 637.105536,345.331836 C636.974381,344.93837 636.60278,344.129591 635.990721,342.905474 L616.842133,309.592176 C610.634112,314.138895 606.808804,317.570743 605.366095,319.887821 C603.923386,322.204899 603.202042,325.418158 603.202042,329.527693 Z M651.860442,394.973896 L655.008155,398.252764 L618.547144,432.877609 L615.005967,430.779134 L615.792895,428.549504 C604.863281,423.82791 597.037794,418.275749 592.316201,411.892855 C587.594607,405.50996 585.233846,397.291013 585.233846,387.235768 L585.233846,348.020508 C585.233846,345.922022 585.190128,343.517543 585.102691,340.806998 C585.015254,338.096454 584.971537,336.39146 584.971537,335.691964 C584.971537,332.719109 585.321279,330.533219 586.020774,329.134229 C586.72027,327.735238 588.250393,326.073961 590.61119,324.150349 L625.760654,294.247074 L631.662616,294.247074 L654.483536,334.249263 C654.920721,334.948758 655.248605,335.604525 655.467197,336.216583 C655.685789,336.828642 655.795084,337.440691 655.795084,338.052749 C655.795084,338.664808 655.685789,339.254998 655.467197,339.823338 C655.248605,340.391678 654.920721,340.894433 654.483536,341.331617 L603.726661,382.383043 C604.60103,389.815181 607.355252,395.935673 611.989408,400.744704 C616.623565,405.553734 621.913419,407.958213 627.859129,407.958213 C631.531479,407.958213 635.29121,406.908986 639.138435,404.8105 C642.985659,402.712014 647.226286,399.433179 651.860442,394.973896 Z M706.683114,432.877609 L703.404246,431.041443 L705.240412,427.762575 C695.36004,421.816865 688.649358,415.936821 685.108163,410.122266 C681.566968,404.307711 679.796397,395.97947 679.796397,385.137293 L679.796397,339.364296 C679.796397,333.855771 680.233575,330.030463 681.107944,327.888259 C681.982313,325.746054 683.687307,323.494588 686.222978,321.133791 L711.666993,297.525942 C712.716236,296.476699 713.699886,295.66792 714.617974,295.09958 C715.536062,294.53124 716.257405,294.247074 716.782027,294.247074 C719.23026,294.247074 722.596531,296.258093 726.88094,300.280191 C731.165349,304.302289 734.269313,306.313308 736.192925,306.313308 C737.067294,306.313308 738.509981,305.744976 740.52103,304.608297 L740.78334,304.477142 L744.193362,307.4937 L730.815581,320.084553 C729.853775,320.958922 729.023137,321.570972 728.323642,321.920719 C727.624146,322.270467 727.012097,322.445338 726.487476,322.445338 C726.050291,322.445338 725.28523,322.139313 724.192268,321.527255 C723.099307,320.915197 721.809632,320.084558 720.323204,319.035315 L707.470042,309.329866 L703.666555,312.608734 C701.480632,314.532346 699.950509,316.543365 699.07614,318.641851 C698.201771,320.740337 697.764593,323.888019 697.764593,328.084991 L697.764593,376.743391 C697.764593,381.989606 697.939464,385.902349 698.289212,388.481738 C698.638959,391.061127 699.163573,393.050287 699.863068,394.449277 C701.699244,397.859317 704.56276,400.963281 708.453702,403.761262 C712.344645,406.559244 715.689057,407.958213 718.487038,407.958213 C720.235776,407.958213 722.465384,407.061998 725.175929,405.269541 C727.886473,403.477085 732.345689,399.78293 738.55371,394.186968 L742.619506,397.465836 C733.526067,406.296964 726.378206,413.291813 721.17571,418.45059 C715.973213,423.609368 711.142396,428.418327 706.683114,432.877609 Z M763.079642,417.794817 L763.079642,412.810938 C765.96506,412.111442 767.932361,410.909203 768.981604,409.204183 C770.030847,407.499163 770.55546,404.023598 770.55546,398.777383 L770.55546,320.346863 L757.046525,320.346863 L757.046525,314.182591 C763.254546,309.985619 768.828565,304.083716 773.768751,296.476704 C778.708937,288.869693 783.714625,278.289985 788.785966,264.737263 L794.425619,264.737263 C792.502007,272.344274 791.03746,279.470276 790.031936,286.115482 C789.026411,292.760687 788.523657,298.968615 788.523657,304.739451 L812.393815,304.739451 L812.393815,320.346863 L788.523657,320.346863 L788.523657,404.417036 L794.687928,409.007451 C795.387424,409.532072 796.021332,409.925533 796.589672,410.187843 C797.158012,410.450154 797.704484,410.581307 798.229106,410.581307 C798.66629,410.581307 799.147186,410.472013 799.671808,410.253421 C800.196429,410.034828 800.76476,409.706945 801.376819,409.26976 L808.983792,403.367798 L812.131506,407.04013 C807.75966,411.062228 803.431597,415.259137 799.147189,419.630983 C794.86278,424.002829 790.622153,428.593198 786.425181,433.402228 L781.834766,431.566062 L782.884004,428.549504 C778.949343,425.838959 775.386342,423.609351 772.194894,421.860613 C769.003447,420.111875 765.96506,418.756623 763.079642,417.794817 Z M852.789468,432.877609 L848.985981,431.303753 C848.985981,431.041442 849.029699,430.713558 849.117136,430.320092 C849.204573,429.926626 849.24829,429.598743 849.24829,429.336432 C849.24829,427.937441 843.914719,424.78976 833.247415,419.893292 L829.443928,418.057126 L829.443928,412.417474 C831.717288,411.892852 833.26927,410.73433 834.099921,408.941874 C834.930571,407.149417 835.34589,403.149238 835.34589,396.941217 L835.34589,331.101549 C835.34589,327.604073 834.886853,324.937287 833.968766,323.101112 C833.050678,321.264936 831.367543,319.341353 828.919309,317.330304 L823.804275,321.920719 L819.47617,318.510697 L840.460924,294.247074 L844.395566,296.476704 C844.133255,297.001326 843.892807,297.50408 843.674215,297.984983 C843.455623,298.465886 843.346328,298.750052 843.346328,298.837489 C843.346328,299.799295 844.395555,301.198265 846.494041,303.03444 C848.592527,304.870615 850.166368,306.531892 851.215611,308.018319 C852.002543,309.067562 852.549016,310.357237 852.855045,311.887383 C853.161074,313.417529 853.314087,315.625278 853.314087,318.510697 L853.314087,396.678908 C853.314087,399.651763 853.510817,401.662782 853.904283,402.712025 C854.297749,403.761267 854.931657,404.50447 855.806026,404.941655 L862.494917,408.745141 C863.281849,409.182326 864.003193,409.51021 864.65897,409.728802 C865.314746,409.947394 865.904937,410.056689 866.429558,410.056689 C868.35317,410.056689 871.763159,408.198682 876.659626,404.482613 C881.556093,400.766544 886.845947,395.892009 892.529347,389.858862 L892.529347,328.3473 C892.529347,323.800581 891.786144,320.346874 890.299717,317.986078 C888.813289,315.625281 886.496246,314.182594 883.348517,313.657972 L883.348517,308.018319 C887.283178,307.231387 890.518295,305.701264 893.053966,303.427904 C895.589636,301.154544 897.469502,298.094298 898.693618,294.247074 L904.333271,294.247074 C905.644825,298.094298 907.568408,301.154544 910.104079,303.427904 C912.639749,305.701264 915.831149,307.231387 919.678373,308.018319 L919.678373,313.657972 C916.530644,314.182594 914.213601,315.625281 912.727173,317.986078 C911.240746,320.346874 910.497543,323.800581 910.497543,328.3473 L910.497543,399.564311 C910.497543,402.624603 910.803568,404.87607 911.415626,406.318779 C912.027684,407.761488 912.989476,408.482832 914.30103,408.482832 C915.262836,408.482832 916.399499,407.848924 917.711052,406.581089 C919.022606,405.313253 920.465294,403.498965 922.039158,401.138168 L926.367264,404.679345 C921.820544,410.275308 915.437745,417.925923 907.218675,427.631421 L902.759415,432.877609 L898.955928,430.779134 L900.660939,428.287194 C897.51321,426.276145 895.32732,424.068396 894.103203,421.663881 C892.879087,419.259366 892.267037,415.740083 892.267037,411.105926 C892.267037,410.056683 892.310755,408.111241 892.398192,405.269541 C892.485629,402.427842 892.529347,400.088939 892.529347,398.252764 C886.583637,403.848727 878.976739,410.362679 869.708426,417.794817 C860.440113,425.226955 854.800517,430.254502 852.789468,432.877609 Z M954.040909,332.413096 C954.040909,328.390998 953.603731,325.5712 952.729362,323.953617 C951.854992,322.336034 950.149998,320.609181 947.614328,318.773006 L941.450056,324.150349 L937.908879,320.609172 L943.548531,314.051436 C951.855038,304.258502 957.494635,297.657114 960.46749,294.247074 L964.795596,297.001323 C964.445848,297.788255 964.183541,298.531458 964.008667,299.230953 C963.833793,299.930449 963.746358,300.542498 963.746358,301.067119 C963.746358,302.203799 965.123469,304.302254 967.877731,307.362546 C970.631994,310.422838 972.009105,314.051415 972.009105,318.248387 L972.009105,325.986515 C975.156834,320.652864 979.288166,314.576089 984.403226,307.75601 C989.518285,300.93593 992.20693,296.476715 992.469241,294.378229 L997.059656,294.247074 C997.671714,297.657114 998.961389,300.957808 1000.92872,304.149255 C1002.89605,307.340702 1005.62841,310.597679 1009.12589,313.920281 L1009.12589,320.871481 C1007.0274,323.144841 1005.14754,325.636756 1003.48624,328.3473 C1001.82494,331.057845 1000.29481,334.030655 998.895822,337.265821 L993.780788,337.265821 C992.731545,334.205529 991.354434,331.21086 989.649414,328.281723 C987.944394,325.352586 985.736645,322.270481 983.026101,319.035315 L977.386448,327.560372 C975.375399,330.620664 973.97643,333.309309 973.189497,335.626387 C972.402565,337.943465 972.009105,341.375313 972.009105,345.922032 L972.009105,399.564311 C972.009105,400.875865 972.183976,401.925092 972.533724,402.712025 C972.883471,403.498957 973.408085,404.154724 974.10758,404.679345 L981.189935,409.794379 C981.976867,410.319001 982.698211,410.712461 983.353988,410.974772 C984.009765,411.237082 984.599955,411.368236 985.124577,411.368236 C985.824072,411.368236 986.436121,411.258941 986.960743,411.040349 C987.485364,410.821757 987.96626,410.493873 988.403445,410.056689 L1002.04354,398.252764 L1006.10933,402.31856 L974.763354,432.877609 L970.435248,431.041443 L971.484486,429.074123 C967.374951,425.489209 963.02503,422.319668 958.434592,419.565406 C953.844154,416.811143 949.14449,414.559676 944.33546,412.810938 L944.33546,407.958213 C947.832936,407.521029 950.324851,406.29693 951.811279,404.285881 C953.297706,402.274832 954.040909,399.083433 954.040909,394.711587 L954.040909,332.413096 Z M1046.63614,329.527693 L1046.63614,375.694153 L1079.42482,349.069745 C1079.77457,348.807435 1080.08059,348.392116 1080.3429,347.823776 C1080.60521,347.255436 1080.73636,346.708963 1080.73636,346.184342 C1080.73636,346.009468 1080.67079,345.725302 1080.53963,345.331836 C1080.40848,344.93837 1080.03688,344.129591 1079.42482,342.905474 L1060.27623,309.592176 C1054.06821,314.138895 1050.2429,317.570743 1048.80019,319.887821 C1047.35748,322.204899 1046.63614,325.418158 1046.63614,329.527693 Z M1095.29454,394.973896 L1098.44225,398.252764 L1061.98124,432.877609 L1058.44006,430.779134 L1059.22699,428.549504 C1048.29738,423.82791 1040.47189,418.275749 1035.7503,411.892855 C1031.0287,405.50996 1028.66794,397.291013 1028.66794,387.235768 L1028.66794,348.020508 C1028.66794,345.922022 1028.62422,343.517543 1028.53679,340.806998 C1028.44935,338.096454 1028.40563,336.39146 1028.40563,335.691964 C1028.40563,332.719109 1028.75538,330.533219 1029.45487,329.134229 C1030.15437,327.735238 1031.68449,326.073961 1034.04529,324.150349 L1069.19475,294.247074 L1075.09671,294.247074 L1097.91763,334.249263 C1098.35482,334.948758 1098.6827,335.604525 1098.90129,336.216583 C1099.11989,336.828642 1099.22918,337.440691 1099.22918,338.052749 C1099.22918,338.664808 1099.11989,339.254998 1098.90129,339.823338 C1098.6827,340.391678 1098.35482,340.894433 1097.91763,341.331617 L1047.16076,382.383043 C1048.03513,389.815181 1050.78935,395.935673 1055.4235,400.744704 C1060.05766,405.553734 1065.34752,407.958213 1071.29323,407.958213 C1074.96558,407.958213 1078.72531,406.908986 1082.57253,404.8105 C1086.41976,402.712014 1090.66038,399.433179 1095.29454,394.973896 Z" id="Architecture" fill="#000000"></path>
                    <g id="Group" stroke-width="1" fill="none" transform="translate(777.000000, 0.000000)">
                        <mask id="mask-4" fill="white">
                            <use xlink:href="#path-3"></use>
                        </mask>
                        <use id="Rectangle" fill="#FFFFFF" xlink:href="#path-3"></use>
                        <path d="M6,2 C3.790861,2 2,3.790861 2,6 L2,324 C2,326.209139 3.790861,328 6,328 L395,328 C397.209139,328 399,326.209139 399,324 L399,6 C399,3.790861 397.209139,2 395,2 L6,2 Z M6,0 L395,0 C398.313708,-6.08718376e-16 401,2.6862915 401,6 L401,324 C401,327.313708 398.313708,330 395,330 L6,330 C2.6862915,330 4.05812251e-16,327.313708 0,324 L0,6 C-4.05812251e-16,2.6862915 2.6862915,6.08718376e-16 6,0 Z" id="Rectangle" fill="#000000" fill-rule="nonzero" mask="url(#mask-4)"></path>
                        <polygon id="Line-3" fill="#000000" fill-rule="nonzero" mask="url(#mask-4)" points="266.5 283 268.5 283 268.5 331.5 266.5 331.5"></polygon>
                        <polygon id="Line-3" fill="#000000" fill-rule="nonzero" mask="url(#mask-4)" points="132.5 283 134.5 283 134.5 331.5 132.5 331.5"></polygon>
                        <polygon id="Line-3" fill="#000000" fill-rule="nonzero" mask="url(#mask-4)" points="154.5 95 156.5 95 156.5 143.5 154.5 143.5"></polygon>
                        <polygon id="Line-3" fill="#000000" fill-rule="nonzero" mask="url(#mask-4)" points="307.5 95 309.5 95 309.5 143.5 307.5 143.5"></polygon>
                        <polygon id="Line-2" fill="#000000" fill-rule="nonzero" mask="url(#mask-4)" points="0.5 283.5 0.5 281.5 400.5 281.5 400.5 283.5"></polygon>
                        <polygon id="Line-2" fill="#000000" fill-rule="nonzero" mask="url(#mask-4)" points="-0.5 236.5 -0.5 234.5 399.5 234.5 399.5 236.5"></polygon>
                        <polygon id="Line-2" fill="#000000" fill-rule="nonzero" mask="url(#mask-4)" points="-0.5 190.5 -0.5 188.5 399.5 188.5 399.5 190.5"></polygon>
                        <polygon id="Line-2" fill="#000000" fill-rule="nonzero" mask="url(#mask-4)" points="-0.5 143.5 -0.5 141.5 399.5 141.5 399.5 143.5"></polygon>
                        <path d="M55.2177734,312 L54.1557617,308.975098 L49.9516602,308.975098 L48.8896484,312 L47.5053711,312 L51.4018555,301.431152 L52.7055664,301.431152 L56.6020508,312 L55.2177734,312 Z M51.9951172,303.137695 L50.3398438,307.854492 L53.7675781,307.854492 L52.1123047,303.137695 L51.9951172,303.137695 Z M62.2197266,312.13916 C61.1210938,312.13916 60.1835938,311.619141 59.6855469,310.740234 L59.5683594,310.740234 L59.5683594,312 L58.3671875,312 L58.3671875,300.969727 L59.6269531,300.969727 L59.6269531,305.349609 L59.7441406,305.349609 C60.1762695,304.5 61.1357422,303.965332 62.2197266,303.965332 C64.2265625,303.965332 65.5302734,305.569336 65.5302734,308.052246 C65.5302734,310.520508 64.2192383,312.13916 62.2197266,312.13916 Z M61.9267578,305.100586 C60.4912109,305.100586 59.5976562,306.228516 59.5976562,308.052246 C59.5976562,309.875977 60.4912109,311.003906 61.9267578,311.003906 C63.3696289,311.003906 64.2265625,309.897949 64.2265625,308.052246 C64.2265625,306.206543 63.3696289,305.100586 61.9267578,305.100586 Z M70.7524414,312.13916 C68.5039062,312.13916 67.1123047,310.586426 67.1123047,308.052246 C67.1123047,305.510742 68.5039062,303.965332 70.7524414,303.965332 C73.0009766,303.965332 74.3925781,305.510742 74.3925781,308.052246 C74.3925781,310.586426 73.0009766,312.13916 70.7524414,312.13916 Z M70.7524414,311.003906 C72.246582,311.003906 73.0888672,309.919922 73.0888672,308.052246 C73.0888672,306.177246 72.246582,305.100586 70.7524414,305.100586 C69.2583008,305.100586 68.4160156,306.177246 68.4160156,308.052246 C68.4160156,309.919922 69.2583008,311.003906 70.7524414,311.003906 Z M82.7568359,304.104492 L82.7568359,312 L81.5556641,312 L81.5556641,310.762207 L81.4384766,310.762207 C81.0429688,311.641113 80.2006836,312.13916 78.9921875,312.13916 C77.2197266,312.13916 76.296875,311.084473 76.296875,309.216797 L76.296875,304.104492 L77.5566406,304.104492 L77.5566406,308.90918 C77.5566406,310.330078 78.0839844,310.989258 79.34375,310.989258 C80.7353516,310.989258 81.4970703,310.161621 81.4970703,308.777344 L81.4970703,304.104492 L82.7568359,304.104492 Z M85.6572266,302.061035 L86.9169922,302.061035 L86.9169922,304.104492 L88.6748047,304.104492 L88.6748047,305.15918 L86.9169922,305.15918 L86.9169922,309.626953 C86.9169922,310.557129 87.2685547,310.952637 88.0888672,310.952637 C88.315918,310.952637 88.4404297,310.945312 88.6748047,310.92334 L88.6748047,311.985352 C88.4257812,312.029297 88.184082,312.058594 87.9350586,312.058594 C86.309082,312.058594 85.6572266,311.458008 85.6572266,309.949219 L85.6572266,305.15918 L84.3828125,305.15918 L84.3828125,304.104492 L85.6572266,304.104492 L85.6572266,302.061035 Z" id="About" fill="#000000" mask="url(#mask-4)"></path>
                        <path d="M17.3476562,254.431152 L20.9731445,254.431152 C24.1079102,254.431152 25.9609375,256.386719 25.9609375,259.711914 C25.9609375,263.044434 24.1152344,265 20.9731445,265 L17.3476562,265 L17.3476562,254.431152 Z M18.6660156,255.617676 L18.6660156,263.813477 L20.8852539,263.813477 C23.2436523,263.813477 24.6132812,262.304688 24.6132812,259.726562 C24.6132812,257.141113 23.2290039,255.617676 20.8852539,255.617676 L18.6660156,255.617676 Z M30.5092773,264.033203 C31.8056641,264.033203 32.7651367,263.183594 32.7651367,262.055664 L32.7651367,261.330566 L30.6411133,261.469727 C29.4399414,261.550293 28.9125977,261.967773 28.9125977,262.758789 C28.9125977,263.564453 29.59375,264.033203 30.5092773,264.033203 Z M30.2749023,265.13916 C28.7441406,265.13916 27.6088867,264.230957 27.6088867,262.788086 C27.6088867,261.374512 28.6489258,260.561523 30.4873047,260.45166 L32.7651367,260.3125 L32.7651367,259.594727 C32.7651367,258.620605 32.1572266,258.085938 30.9780273,258.085938 C30.0332031,258.085938 29.3740234,258.444824 29.1982422,259.067383 L27.9238281,259.067383 C28.0922852,257.800293 29.3374023,256.965332 31.0219727,256.965332 C32.9482422,256.965332 34.0249023,257.954102 34.0249023,259.594727 L34.0249023,265 L32.8237305,265 L32.8237305,263.835449 L32.706543,263.835449 C32.1938477,264.677734 31.3295898,265.13916 30.2749023,265.13916 Z M36.8813477,255.061035 L38.1411133,255.061035 L38.1411133,257.104492 L39.8989258,257.104492 L39.8989258,258.15918 L38.1411133,258.15918 L38.1411133,262.626953 C38.1411133,263.557129 38.4926758,263.952637 39.3129883,263.952637 C39.5400391,263.952637 39.6645508,263.945312 39.8989258,263.92334 L39.8989258,264.985352 C39.6499023,265.029297 39.4082031,265.058594 39.1591797,265.058594 C37.5332031,265.058594 36.8813477,264.458008 36.8813477,262.949219 L36.8813477,258.15918 L35.6069336,258.15918 L35.6069336,257.104492 L36.8813477,257.104492 L36.8813477,255.061035 Z M44.2348633,264.033203 C45.53125,264.033203 46.4907227,263.183594 46.4907227,262.055664 L46.4907227,261.330566 L44.3666992,261.469727 C43.1655273,261.550293 42.6381836,261.967773 42.6381836,262.758789 C42.6381836,263.564453 43.3193359,264.033203 44.2348633,264.033203 Z M44.0004883,265.13916 C42.4697266,265.13916 41.3344727,264.230957 41.3344727,262.788086 C41.3344727,261.374512 42.3745117,260.561523 44.2128906,260.45166 L46.4907227,260.3125 L46.4907227,259.594727 C46.4907227,258.620605 45.8828125,258.085938 44.7036133,258.085938 C43.7587891,258.085938 43.0996094,258.444824 42.9238281,259.067383 L41.6494141,259.067383 C41.8178711,257.800293 43.0629883,256.965332 44.7475586,256.965332 C46.6738281,256.965332 47.7504883,257.954102 47.7504883,259.594727 L47.7504883,265 L46.5493164,265 L46.5493164,263.835449 L46.4321289,263.835449 C45.9194336,264.677734 45.0551758,265.13916 44.0004883,265.13916 Z M54.1298828,259.265137 C54.1298828,257.954102 55.3969727,256.965332 57.0742188,256.965332 C58.7294922,256.965332 59.8793945,257.785645 60.0478516,259.082031 L58.8027344,259.082031 C58.6342773,258.452148 58.019043,258.034668 57.0668945,258.034668 C56.1293945,258.034668 55.3969727,258.510742 55.3969727,259.213867 C55.3969727,259.755859 55.8364258,260.092773 56.7666016,260.319824 L57.9824219,260.612793 C59.4692383,260.97168 60.1870117,261.616211 60.1870117,262.751465 C60.1870117,264.165039 58.8173828,265.13916 57.0229492,265.13916 C55.2651367,265.13916 54.0566406,264.296875 53.9174805,262.98584 L55.2138672,262.98584 C55.4262695,263.652344 56.0561523,264.077148 57.0668945,264.077148 C58.1289062,264.077148 58.890625,263.571777 58.890625,262.84668 C58.890625,262.304688 58.4804688,261.938477 57.6381836,261.733398 L56.2832031,261.403809 C54.8037109,261.044922 54.1298828,260.407715 54.1298828,259.265137 Z M62.6186523,255.061035 L63.878418,255.061035 L63.878418,257.104492 L65.6362305,257.104492 L65.6362305,258.15918 L63.878418,258.15918 L63.878418,262.626953 C63.878418,263.557129 64.2299805,263.952637 65.050293,263.952637 C65.2773438,263.952637 65.4018555,263.945312 65.6362305,263.92334 L65.6362305,264.985352 C65.387207,265.029297 65.1455078,265.058594 64.8964844,265.058594 C63.2705078,265.058594 62.6186523,264.458008 62.6186523,262.949219 L62.6186523,258.15918 L61.3442383,258.15918 L61.3442383,257.104492 L62.6186523,257.104492 L62.6186523,255.061035 Z M70.675293,265.13916 C68.4267578,265.13916 67.0351562,263.586426 67.0351562,261.052246 C67.0351562,258.510742 68.4267578,256.965332 70.675293,256.965332 C72.9238281,256.965332 74.3154297,258.510742 74.3154297,261.052246 C74.3154297,263.586426 72.9238281,265.13916 70.675293,265.13916 Z M70.675293,264.003906 C72.1694336,264.003906 73.0117188,262.919922 73.0117188,261.052246 C73.0117188,259.177246 72.1694336,258.100586 70.675293,258.100586 C69.1811523,258.100586 68.3388672,259.177246 68.3388672,261.052246 C68.3388672,262.919922 69.1811523,264.003906 70.675293,264.003906 Z M76.2929688,265 L76.2929688,257.104492 L77.4941406,257.104492 L77.4941406,258.276367 L77.6113281,258.276367 C77.8457031,257.507324 78.7539062,256.965332 79.8012695,256.965332 C80.0063477,256.965332 80.2700195,256.97998 80.4311523,257.001953 L80.4311523,258.261719 C80.3286133,258.232422 79.8745117,258.188477 79.6254883,258.188477 C78.4243164,258.188477 77.5527344,258.994141 77.5527344,260.107422 L77.5527344,265 L76.2929688,265 Z M84.4375,264.033203 C85.7338867,264.033203 86.6933594,263.183594 86.6933594,262.055664 L86.6933594,261.330566 L84.5693359,261.469727 C83.3681641,261.550293 82.8408203,261.967773 82.8408203,262.758789 C82.8408203,263.564453 83.5219727,264.033203 84.4375,264.033203 Z M84.203125,265.13916 C82.6723633,265.13916 81.5371094,264.230957 81.5371094,262.788086 C81.5371094,261.374512 82.5771484,260.561523 84.4155273,260.45166 L86.6933594,260.3125 L86.6933594,259.594727 C86.6933594,258.620605 86.0854492,258.085938 84.90625,258.085938 C83.9614258,258.085938 83.3022461,258.444824 83.1264648,259.067383 L81.8520508,259.067383 C82.0205078,257.800293 83.265625,256.965332 84.9501953,256.965332 C86.8764648,256.965332 87.953125,257.954102 87.953125,259.594727 L87.953125,265 L86.7519531,265 L86.7519531,263.835449 L86.6347656,263.835449 C86.1220703,264.677734 85.2578125,265.13916 84.203125,265.13916 Z M93.4755859,263.769531 C94.9404297,263.769531 95.8193359,262.65625 95.8193359,260.935059 C95.8193359,259.213867 94.9331055,258.100586 93.4755859,258.100586 C92.0107422,258.100586 91.1904297,259.213867 91.1904297,260.935059 C91.1904297,262.65625 92.0107422,263.769531 93.4755859,263.769531 Z M93.5341797,268.032227 C91.6298828,268.032227 90.4140625,267.175293 90.2236328,265.871582 L91.5566406,265.871582 C91.6958008,266.516113 92.3989258,266.933594 93.5341797,266.933594 C94.9477539,266.933594 95.7900391,266.237793 95.7900391,265.073242 L95.7900391,263.520508 L95.6728516,263.520508 C95.1748047,264.39209 94.28125,264.882812 93.1972656,264.882812 C91.1538086,264.882812 89.8867188,263.300781 89.8867188,260.935059 C89.8867188,258.569336 91.168457,256.965332 93.1972656,256.965332 C94.3032227,256.965332 95.2773438,257.507324 95.7314453,258.356934 L95.8486328,258.356934 L95.8486328,257.104492 L97.0498047,257.104492 L97.0498047,265.13916 C97.0498047,266.904297 95.6875,268.032227 93.5341797,268.032227 Z M102.572266,258.078613 C101.3125,258.078613 100.433594,259.001465 100.338379,260.400391 L104.688965,260.400391 C104.659668,259.001465 103.824707,258.078613 102.572266,258.078613 Z M104.652344,262.956543 L105.912109,262.956543 C105.53125,264.311523 104.31543,265.13916 102.586914,265.13916 C100.396973,265.13916 99.0273438,263.557129 99.0273438,261.05957 C99.0273438,258.57666 100.418945,256.965332 102.586914,256.965332 C104.718262,256.965332 106.014648,258.481445 106.014648,260.935059 L106.014648,261.418457 L100.338379,261.418457 L100.338379,261.477051 C100.404297,263.037109 101.275879,264.025879 102.616211,264.025879 C103.634277,264.025879 104.322754,263.652344 104.652344,262.956543 Z" id="Data-storage" fill="#000000" mask="url(#mask-4)"></path>
                        <path d="M21.793457,208.182129 C24.7963867,208.182129 26.6274414,210.320801 26.6274414,213.711914 C26.6274414,217.088379 24.8110352,219.249023 21.793457,219.249023 C18.7612305,219.249023 16.9375,217.095703 16.9375,213.711914 C16.9375,210.313477 18.8051758,208.182129 21.793457,208.182129 Z M21.793457,209.397949 C19.6401367,209.397949 18.2924805,211.067871 18.2924805,213.711914 C18.2924805,216.333984 19.5961914,218.033203 21.793457,218.033203 C23.9614258,218.033203 25.2724609,216.333984 25.2724609,213.711914 C25.2724609,211.067871 23.9541016,209.397949 21.793457,209.397949 Z M32.5966797,210.965332 C34.6108398,210.965332 35.9145508,212.569336 35.9145508,215.052246 C35.9145508,217.520508 34.6035156,219.13916 32.5966797,219.13916 C31.46875,219.13916 30.5605469,218.648438 30.128418,217.813477 L30.0112305,217.813477 L30.0112305,221.636719 L28.7514648,221.636719 L28.7514648,211.104492 L29.9526367,211.104492 L29.9526367,212.422852 L30.0698242,212.422852 C30.5751953,211.514648 31.5200195,210.965332 32.5966797,210.965332 Z M32.2963867,218.003906 C33.746582,218.003906 34.6108398,216.897949 34.6108398,215.052246 C34.6108398,213.206543 33.746582,212.100586 32.3037109,212.100586 C30.8754883,212.100586 29.9746094,213.23584 29.9746094,215.052246 C29.9746094,216.861328 30.8754883,218.003906 32.2963867,218.003906 Z M41.0415039,212.078613 C39.7817383,212.078613 38.902832,213.001465 38.8076172,214.400391 L43.1582031,214.400391 C43.1289062,213.001465 42.2939453,212.078613 41.0415039,212.078613 Z M43.121582,216.956543 L44.3813477,216.956543 C44.0004883,218.311523 42.784668,219.13916 41.0561523,219.13916 C38.8662109,219.13916 37.496582,217.557129 37.496582,215.05957 C37.496582,212.57666 38.8881836,210.965332 41.0561523,210.965332 C43.1875,210.965332 44.4838867,212.481445 44.4838867,214.935059 L44.4838867,215.418457 L38.8076172,215.418457 L38.8076172,215.477051 C38.8735352,217.037109 39.7451172,218.025879 41.0854492,218.025879 C42.1035156,218.025879 42.7919922,217.652344 43.121582,216.956543 Z M46.4614258,219 L46.4614258,211.104492 L47.6625977,211.104492 L47.6625977,212.349609 L47.7797852,212.349609 C48.175293,211.478027 48.9443359,210.965332 50.152832,210.965332 C51.925293,210.965332 52.9140625,212.012695 52.9140625,213.887695 L52.9140625,219 L51.6542969,219 L51.6542969,214.195312 C51.6542969,212.774414 51.0537109,212.100586 49.7939453,212.100586 C48.5341797,212.100586 47.7211914,212.942871 47.7211914,214.327148 L47.7211914,219 L46.4614258,219 Z M59.5205078,219 L59.5205078,207.969727 L60.7802734,207.969727 L60.7802734,219 L59.5205078,219 Z M63.2558594,219 L63.2558594,211.104492 L64.515625,211.104492 L64.515625,219 L63.2558594,219 Z M63.8857422,209.500488 C63.4023438,209.500488 63.0068359,209.10498 63.0068359,208.621582 C63.0068359,208.138184 63.4023438,207.742676 63.8857422,207.742676 C64.3691406,207.742676 64.7646484,208.138184 64.7646484,208.621582 C64.7646484,209.10498 64.3691406,209.500488 63.8857422,209.500488 Z M66.9179688,219 L66.9179688,211.104492 L68.1191406,211.104492 L68.1191406,212.349609 L68.2363281,212.349609 C68.6318359,211.478027 69.4008789,210.965332 70.609375,210.965332 C72.3818359,210.965332 73.3706055,212.012695 73.3706055,213.887695 L73.3706055,219 L72.1108398,219 L72.1108398,214.195312 C72.1108398,212.774414 71.5102539,212.100586 70.2504883,212.100586 C68.9907227,212.100586 68.1777344,212.942871 68.1777344,214.327148 L68.1777344,219 L66.9179688,219 Z M77.1206055,214.554199 L80.5483398,211.104492 L82.09375,211.104492 L78.6953125,214.488281 L82.3208008,219 L80.7167969,219 L77.7578125,215.30127 L77.003418,216.004395 L77.003418,219 L75.7436523,219 L75.7436523,207.969727 L77.003418,207.969727 L77.003418,214.554199 L77.1206055,214.554199 Z M83.3388672,213.265137 C83.3388672,211.954102 84.605957,210.965332 86.2832031,210.965332 C87.9384766,210.965332 89.0883789,211.785645 89.2568359,213.082031 L88.0117188,213.082031 C87.8432617,212.452148 87.2280273,212.034668 86.2758789,212.034668 C85.3383789,212.034668 84.605957,212.510742 84.605957,213.213867 C84.605957,213.755859 85.0454102,214.092773 85.9755859,214.319824 L87.1914062,214.612793 C88.6782227,214.97168 89.3959961,215.616211 89.3959961,216.751465 C89.3959961,218.165039 88.0263672,219.13916 86.2319336,219.13916 C84.4741211,219.13916 83.265625,218.296875 83.1264648,216.98584 L84.4228516,216.98584 C84.6352539,217.652344 85.2651367,218.077148 86.2758789,218.077148 C87.3378906,218.077148 88.0996094,217.571777 88.0996094,216.84668 C88.0996094,216.304688 87.6894531,215.938477 86.847168,215.733398 L85.4921875,215.403809 C84.0126953,215.044922 83.3388672,214.407715 83.3388672,213.265137 Z M95.6362305,219 L95.6362305,211.104492 L96.8959961,211.104492 L96.8959961,219 L95.6362305,219 Z M96.2661133,209.500488 C95.7827148,209.500488 95.387207,209.10498 95.387207,208.621582 C95.387207,208.138184 95.7827148,207.742676 96.2661133,207.742676 C96.7495117,207.742676 97.1450195,208.138184 97.1450195,208.621582 C97.1450195,209.10498 96.7495117,209.500488 96.2661133,209.500488 Z M99.2983398,219 L99.2983398,211.104492 L100.499512,211.104492 L100.499512,212.349609 L100.616699,212.349609 C101.012207,211.478027 101.78125,210.965332 102.989746,210.965332 C104.762207,210.965332 105.750977,212.012695 105.750977,213.887695 L105.750977,219 L104.491211,219 L104.491211,214.195312 C104.491211,212.774414 103.890625,212.100586 102.630859,212.100586 C101.371094,212.100586 100.558105,212.942871 100.558105,214.327148 L100.558105,219 L99.2983398,219 Z M114.71582,218.033203 C116.012207,218.033203 116.97168,217.183594 116.97168,216.055664 L116.97168,215.330566 L114.847656,215.469727 C113.646484,215.550293 113.119141,215.967773 113.119141,216.758789 C113.119141,217.564453 113.800293,218.033203 114.71582,218.033203 Z M114.481445,219.13916 C112.950684,219.13916 111.81543,218.230957 111.81543,216.788086 C111.81543,215.374512 112.855469,214.561523 114.693848,214.45166 L116.97168,214.3125 L116.97168,213.594727 C116.97168,212.620605 116.36377,212.085938 115.18457,212.085938 C114.239746,212.085938 113.580566,212.444824 113.404785,213.067383 L112.130371,213.067383 C112.298828,211.800293 113.543945,210.965332 115.228516,210.965332 C117.154785,210.965332 118.231445,211.954102 118.231445,213.594727 L118.231445,219 L117.030273,219 L117.030273,217.835449 L116.913086,217.835449 C116.400391,218.677734 115.536133,219.13916 114.481445,219.13916 Z M124.793945,219 L124.793945,211.104492 L125.995117,211.104492 L125.995117,212.349609 L126.112305,212.349609 C126.507812,211.478027 127.276855,210.965332 128.485352,210.965332 C130.257812,210.965332 131.246582,212.012695 131.246582,213.887695 L131.246582,219 L129.986816,219 L129.986816,214.195312 C129.986816,212.774414 129.38623,212.100586 128.126465,212.100586 C126.866699,212.100586 126.053711,212.942871 126.053711,214.327148 L126.053711,219 L124.793945,219 Z M136.695801,212.078613 C135.436035,212.078613 134.557129,213.001465 134.461914,214.400391 L138.8125,214.400391 C138.783203,213.001465 137.948242,212.078613 136.695801,212.078613 Z M138.775879,216.956543 L140.035645,216.956543 C139.654785,218.311523 138.438965,219.13916 136.710449,219.13916 C134.520508,219.13916 133.150879,217.557129 133.150879,215.05957 C133.150879,212.57666 134.54248,210.965332 136.710449,210.965332 C138.841797,210.965332 140.138184,212.481445 140.138184,214.935059 L140.138184,215.418457 L134.461914,215.418457 L134.461914,215.477051 C134.527832,217.037109 135.399414,218.025879 136.739746,218.025879 C137.757812,218.025879 138.446289,217.652344 138.775879,216.956543 Z M152.047363,211.104492 L149.835449,219 L148.553711,219 L146.788574,212.891602 L146.671387,212.891602 L144.913574,219 L143.63916,219 L141.427246,211.104492 L142.70166,211.104492 L144.254395,217.417969 L144.371582,217.417969 L146.136719,211.104492 L147.345215,211.104492 L149.110352,217.417969 L149.227539,217.417969 L150.780273,211.104492 L152.047363,211.104492 Z M167.896973,211.104492 L165.685059,219 L164.40332,219 L162.638184,212.891602 L162.520996,212.891602 L160.763184,219 L159.48877,219 L157.276855,211.104492 L158.55127,211.104492 L160.104004,217.417969 L160.221191,217.417969 L161.986328,211.104492 L163.194824,211.104492 L164.959961,217.417969 L165.077148,217.417969 L166.629883,211.104492 L167.896973,211.104492 Z M169.61084,219 L169.61084,211.104492 L170.870605,211.104492 L170.870605,219 L169.61084,219 Z M170.240723,209.500488 C169.757324,209.500488 169.361816,209.10498 169.361816,208.621582 C169.361816,208.138184 169.757324,207.742676 170.240723,207.742676 C170.724121,207.742676 171.119629,208.138184 171.119629,208.621582 C171.119629,209.10498 170.724121,209.500488 170.240723,209.500488 Z M173.272949,219 L173.272949,211.104492 L174.474121,211.104492 L174.474121,212.349609 L174.591309,212.349609 C174.986816,211.478027 175.755859,210.965332 176.964355,210.965332 C178.736816,210.965332 179.725586,212.012695 179.725586,213.887695 L179.725586,219 L178.46582,219 L178.46582,214.195312 C178.46582,212.774414 177.865234,212.100586 176.605469,212.100586 C175.345703,212.100586 174.532715,212.942871 174.532715,214.327148 L174.532715,219 L173.272949,219 Z M184.947754,219.13916 C182.92627,219.13916 181.629883,217.535156 181.629883,215.052246 C181.629883,212.57666 182.940918,210.965332 184.947754,210.965332 C186.046387,210.965332 186.976562,211.485352 187.42334,212.349609 L187.533203,212.349609 L187.533203,207.969727 L188.792969,207.969727 L188.792969,219 L187.591797,219 L187.591797,217.740234 L187.474609,217.740234 C186.976562,218.619141 186.039062,219.13916 184.947754,219.13916 Z M185.240723,212.100586 C183.805176,212.100586 182.933594,213.213867 182.933594,215.052246 C182.933594,216.897949 183.797852,218.003906 185.240723,218.003906 C186.67627,218.003906 187.5625,216.875977 187.5625,215.052246 C187.5625,213.243164 186.668945,212.100586 185.240723,212.100586 Z M194.483887,219.13916 C192.235352,219.13916 190.84375,217.586426 190.84375,215.052246 C190.84375,212.510742 192.235352,210.965332 194.483887,210.965332 C196.732422,210.965332 198.124023,212.510742 198.124023,215.052246 C198.124023,217.586426 196.732422,219.13916 194.483887,219.13916 Z M194.483887,218.003906 C195.978027,218.003906 196.820312,216.919922 196.820312,215.052246 C196.820312,213.177246 195.978027,212.100586 194.483887,212.100586 C192.989746,212.100586 192.147461,213.177246 192.147461,215.052246 C192.147461,216.919922 192.989746,218.003906 194.483887,218.003906 Z M209.740234,211.104492 L207.52832,219 L206.246582,219 L204.481445,212.891602 L204.364258,212.891602 L202.606445,219 L201.332031,219 L199.120117,211.104492 L200.394531,211.104492 L201.947266,217.417969 L202.064453,217.417969 L203.82959,211.104492 L205.038086,211.104492 L206.803223,217.417969 L206.92041,217.417969 L208.473145,211.104492 L209.740234,211.104492 Z" id="Open-links-in-a-new" fill="#000000" mask="url(#mask-4)"></path>
                        <path d="M23.8955078,169.813477 L23.8955078,171 L17.3476562,171 L17.3476562,160.431152 L23.8955078,160.431152 L23.8955078,161.617676 L18.6660156,161.617676 L18.6660156,165.008789 L23.6245117,165.008789 L23.6245117,166.180664 L18.6660156,166.180664 L18.6660156,169.813477 L23.8955078,169.813477 Z M29.0444336,171.13916 C27.0229492,171.13916 25.7265625,169.535156 25.7265625,167.052246 C25.7265625,164.57666 27.0375977,162.965332 29.0444336,162.965332 C30.1430664,162.965332 31.0732422,163.485352 31.5200195,164.349609 L31.6298828,164.349609 L31.6298828,159.969727 L32.8896484,159.969727 L32.8896484,171 L31.6884766,171 L31.6884766,169.740234 L31.5712891,169.740234 C31.0732422,170.619141 30.1357422,171.13916 29.0444336,171.13916 Z M29.3374023,164.100586 C27.9018555,164.100586 27.0302734,165.213867 27.0302734,167.052246 C27.0302734,168.897949 27.8945312,170.003906 29.3374023,170.003906 C30.7729492,170.003906 31.6591797,168.875977 31.6591797,167.052246 C31.6591797,165.243164 30.765625,164.100586 29.3374023,164.100586 Z M35.3652344,171 L35.3652344,163.104492 L36.625,163.104492 L36.625,171 L35.3652344,171 Z M35.9951172,161.500488 C35.5117188,161.500488 35.1162109,161.10498 35.1162109,160.621582 C35.1162109,160.138184 35.5117188,159.742676 35.9951172,159.742676 C36.4785156,159.742676 36.8740234,160.138184 36.8740234,160.621582 C36.8740234,161.10498 36.4785156,161.500488 35.9951172,161.500488 Z M39.5546875,161.061035 L40.8144531,161.061035 L40.8144531,163.104492 L42.5722656,163.104492 L42.5722656,164.15918 L40.8144531,164.15918 L40.8144531,168.626953 C40.8144531,169.557129 41.1660156,169.952637 41.9863281,169.952637 C42.2133789,169.952637 42.3378906,169.945312 42.5722656,169.92334 L42.5722656,170.985352 C42.3232422,171.029297 42.081543,171.058594 41.8325195,171.058594 C40.206543,171.058594 39.5546875,170.458008 39.5546875,168.949219 L39.5546875,164.15918 L38.2802734,164.15918 L38.2802734,163.104492 L39.5546875,163.104492 L39.5546875,161.061035 Z M49.3837891,173.856445 C49.215332,173.856445 48.9956055,173.841797 48.8198242,173.8125 L48.8198242,172.73584 C48.9736328,172.765137 49.1713867,172.772461 49.347168,172.772461 C50.0722656,172.772461 50.4677734,172.428223 50.7973633,171.476074 L50.9438477,171.007324 L48.0214844,163.104492 L49.3837891,163.104492 L51.5517578,169.601074 L51.6689453,169.601074 L53.8295898,163.104492 L55.1699219,163.104492 L52.0864258,171.483398 C51.4125977,173.314453 50.7827148,173.856445 49.3837891,173.856445 Z M59.8061523,171.13916 C57.5576172,171.13916 56.1660156,169.586426 56.1660156,167.052246 C56.1660156,164.510742 57.5576172,162.965332 59.8061523,162.965332 C62.0546875,162.965332 63.4462891,164.510742 63.4462891,167.052246 C63.4462891,169.586426 62.0546875,171.13916 59.8061523,171.13916 Z M59.8061523,170.003906 C61.300293,170.003906 62.1425781,168.919922 62.1425781,167.052246 C62.1425781,165.177246 61.300293,164.100586 59.8061523,164.100586 C58.3120117,164.100586 57.4697266,165.177246 57.4697266,167.052246 C57.4697266,168.919922 58.3120117,170.003906 59.8061523,170.003906 Z M71.8105469,163.104492 L71.8105469,171 L70.609375,171 L70.609375,169.762207 L70.4921875,169.762207 C70.0966797,170.641113 69.2543945,171.13916 68.0458984,171.13916 C66.2734375,171.13916 65.3505859,170.084473 65.3505859,168.216797 L65.3505859,163.104492 L66.6103516,163.104492 L66.6103516,167.90918 C66.6103516,169.330078 67.1376953,169.989258 68.3974609,169.989258 C69.7890625,169.989258 70.5507812,169.161621 70.5507812,167.777344 L70.5507812,163.104492 L71.8105469,163.104492 Z M74.1835938,171 L74.1835938,163.104492 L75.3847656,163.104492 L75.3847656,164.276367 L75.5019531,164.276367 C75.7363281,163.507324 76.6445312,162.965332 77.6918945,162.965332 C77.8969727,162.965332 78.1606445,162.97998 78.3217773,163.001953 L78.3217773,164.261719 C78.2192383,164.232422 77.7651367,164.188477 77.5161133,164.188477 C76.3149414,164.188477 75.4433594,164.994141 75.4433594,166.107422 L75.4433594,171 L74.1835938,171 Z M90.6630859,165.521484 L89.3886719,165.521484 C89.1835938,164.737793 88.487793,164.100586 87.3525391,164.100586 C85.9316406,164.100586 85.0380859,165.23584 85.0380859,167.022949 C85.0380859,168.84668 85.9462891,170.003906 87.3525391,170.003906 C88.4145508,170.003906 89.1542969,169.513184 89.3886719,168.619629 L90.6630859,168.619629 C90.4360352,170.069824 89.2568359,171.13916 87.3598633,171.13916 C85.1479492,171.13916 83.734375,169.535156 83.734375,167.022949 C83.734375,164.562012 85.140625,162.965332 87.3525391,162.965332 C89.2714844,162.965332 90.4433594,164.115234 90.6630859,165.521484 Z M98.9101562,163.104492 L98.9101562,171 L97.7089844,171 L97.7089844,169.762207 L97.5917969,169.762207 C97.1962891,170.641113 96.3540039,171.13916 95.1455078,171.13916 C93.3730469,171.13916 92.4501953,170.084473 92.4501953,168.216797 L92.4501953,163.104492 L93.7099609,163.104492 L93.7099609,167.90918 C93.7099609,169.330078 94.2373047,169.989258 95.4970703,169.989258 C96.8886719,169.989258 97.6503906,169.161621 97.6503906,167.777344 L97.6503906,163.104492 L98.9101562,163.104492 Z M101.100098,165.265137 C101.100098,163.954102 102.367188,162.965332 104.044434,162.965332 C105.699707,162.965332 106.849609,163.785645 107.018066,165.082031 L105.772949,165.082031 C105.604492,164.452148 104.989258,164.034668 104.037109,164.034668 C103.099609,164.034668 102.367188,164.510742 102.367188,165.213867 C102.367188,165.755859 102.806641,166.092773 103.736816,166.319824 L104.952637,166.612793 C106.439453,166.97168 107.157227,167.616211 107.157227,168.751465 C107.157227,170.165039 105.787598,171.13916 103.993164,171.13916 C102.235352,171.13916 101.026855,170.296875 100.887695,168.98584 L102.184082,168.98584 C102.396484,169.652344 103.026367,170.077148 104.037109,170.077148 C105.099121,170.077148 105.86084,169.571777 105.86084,168.84668 C105.86084,168.304688 105.450684,167.938477 104.608398,167.733398 L103.253418,167.403809 C101.773926,167.044922 101.100098,166.407715 101.100098,165.265137 Z M109.588867,161.061035 L110.848633,161.061035 L110.848633,163.104492 L112.606445,163.104492 L112.606445,164.15918 L110.848633,164.15918 L110.848633,168.626953 C110.848633,169.557129 111.200195,169.952637 112.020508,169.952637 C112.247559,169.952637 112.37207,169.945312 112.606445,169.92334 L112.606445,170.985352 C112.357422,171.029297 112.115723,171.058594 111.866699,171.058594 C110.240723,171.058594 109.588867,170.458008 109.588867,168.949219 L109.588867,164.15918 L108.314453,164.15918 L108.314453,163.104492 L109.588867,163.104492 L109.588867,161.061035 Z M117.645508,171.13916 C115.396973,171.13916 114.005371,169.586426 114.005371,167.052246 C114.005371,164.510742 115.396973,162.965332 117.645508,162.965332 C119.894043,162.965332 121.285645,164.510742 121.285645,167.052246 C121.285645,169.586426 119.894043,171.13916 117.645508,171.13916 Z M117.645508,170.003906 C119.139648,170.003906 119.981934,168.919922 119.981934,167.052246 C119.981934,165.177246 119.139648,164.100586 117.645508,164.100586 C116.151367,164.100586 115.309082,165.177246 115.309082,167.052246 C115.309082,168.919922 116.151367,170.003906 117.645508,170.003906 Z M123.263184,171 L123.263184,163.104492 L124.464355,163.104492 L124.464355,164.349609 L124.581543,164.349609 C124.94043,163.470703 125.731445,162.965332 126.786133,162.965332 C127.855469,162.965332 128.602539,163.529297 128.96875,164.349609 L129.085938,164.349609 C129.510742,163.514648 130.411621,162.965332 131.50293,162.965332 C133.114258,162.965332 134.015137,163.888184 134.015137,165.543457 L134.015137,171 L132.755371,171 L132.755371,165.836426 C132.755371,164.671875 132.206055,164.100586 131.092773,164.100586 C129.994141,164.100586 129.261719,164.920898 129.261719,165.924316 L129.261719,171 L128.001953,171 L128.001953,165.638672 C128.001953,164.701172 127.350098,164.100586 126.354004,164.100586 C125.321289,164.100586 124.522949,164.994141 124.522949,166.107422 L124.522949,171 L123.263184,171 Z M144.964844,171.249023 C142.09375,171.249023 140.299316,169.125 140.299316,165.719238 C140.299316,162.306152 142.086426,160.182129 144.95752,160.182129 C147.184082,160.182129 148.919922,161.581055 149.234863,163.617188 L147.894531,163.617188 C147.542969,162.254883 146.415039,161.397949 144.95752,161.397949 C142.928711,161.397949 141.654297,163.067871 141.654297,165.719238 C141.654297,168.370605 142.928711,170.033203 144.964844,170.033203 C146.437012,170.033203 147.557617,169.278809 147.894531,168.055664 L149.234863,168.055664 C148.883301,169.996582 147.213379,171.249023 144.964844,171.249023 Z M150.941406,168.23877 L152.274414,168.23877 C152.435547,169.344727 153.490234,170.047852 154.991699,170.047852 C156.412598,170.047852 157.459961,169.278809 157.459961,168.231445 C157.459961,167.330566 156.800781,166.759277 155.343262,166.393066 L153.988281,166.041504 C152.07666,165.558105 151.249023,164.693848 151.249023,163.192383 C151.249023,161.397949 152.750488,160.182129 154.984375,160.182129 C157.027832,160.182129 158.55127,161.397949 158.661133,163.104492 L157.335449,163.104492 C157.152344,162.020508 156.258789,161.375977 154.94043,161.375977 C153.53418,161.375977 152.604004,162.079102 152.604004,163.148438 C152.604004,163.976074 153.182617,164.452148 154.640137,164.825684 L155.746094,165.118652 C157.936035,165.667969 158.814941,166.517578 158.814941,168.070312 C158.814941,170.01123 157.28418,171.249023 154.867188,171.249023 C152.625977,171.249023 151.080566,170.0625 150.941406,168.23877 Z M160.499512,168.23877 L161.83252,168.23877 C161.993652,169.344727 163.04834,170.047852 164.549805,170.047852 C165.970703,170.047852 167.018066,169.278809 167.018066,168.231445 C167.018066,167.330566 166.358887,166.759277 164.901367,166.393066 L163.546387,166.041504 C161.634766,165.558105 160.807129,164.693848 160.807129,163.192383 C160.807129,161.397949 162.308594,160.182129 164.54248,160.182129 C166.585938,160.182129 168.109375,161.397949 168.219238,163.104492 L166.893555,163.104492 C166.710449,162.020508 165.816895,161.375977 164.498535,161.375977 C163.092285,161.375977 162.162109,162.079102 162.162109,163.148438 C162.162109,163.976074 162.740723,164.452148 164.198242,164.825684 L165.304199,165.118652 C167.494141,165.667969 168.373047,166.517578 168.373047,168.070312 C168.373047,170.01123 166.842285,171.249023 164.425293,171.249023 C162.184082,171.249023 160.638672,170.0625 160.499512,168.23877 Z" id="Edit-your-custom-CSS" fill="#000000" mask="url(#mask-4)"></path>
                        <path d="M21.4711914,125 L17.3476562,125 L17.3476562,114.431152 L21.390625,114.431152 C23.331543,114.431152 24.5180664,115.449219 24.5180664,117.067871 C24.5180664,118.166504 23.7124023,119.162598 22.6943359,119.345703 L22.6943359,119.462891 C24.137207,119.645996 25.0527344,120.634766 25.0527344,122.033691 C25.0527344,123.894043 23.7197266,125 21.4711914,125 Z M18.6660156,115.595703 L18.6660156,118.986816 L20.7753906,118.986816 C22.3720703,118.986816 23.1850586,118.415527 23.1850586,117.294922 C23.1850586,116.218262 22.4233398,115.595703 21.1123047,115.595703 L18.6660156,115.595703 Z M18.6660156,123.835449 L21.2734375,123.835449 C22.862793,123.835449 23.6977539,123.190918 23.6977539,121.967773 C23.6977539,120.744629 22.8334961,120.12207 21.1489258,120.12207 L18.6660156,120.12207 L18.6660156,123.835449 Z M29.4765625,124.033203 C30.7729492,124.033203 31.7324219,123.183594 31.7324219,122.055664 L31.7324219,121.330566 L29.6083984,121.469727 C28.4072266,121.550293 27.8798828,121.967773 27.8798828,122.758789 C27.8798828,123.564453 28.5610352,124.033203 29.4765625,124.033203 Z M29.2421875,125.13916 C27.7114258,125.13916 26.5761719,124.230957 26.5761719,122.788086 C26.5761719,121.374512 27.6162109,120.561523 29.4545898,120.45166 L31.7324219,120.3125 L31.7324219,119.594727 C31.7324219,118.620605 31.1245117,118.085938 29.9453125,118.085938 C29.0004883,118.085938 28.3413086,118.444824 28.1655273,119.067383 L26.8911133,119.067383 C27.0595703,117.800293 28.3046875,116.965332 29.9892578,116.965332 C31.9155273,116.965332 32.9921875,117.954102 32.9921875,119.594727 L32.9921875,125 L31.7910156,125 L31.7910156,123.835449 L31.6738281,123.835449 C31.1611328,124.677734 30.296875,125.13916 29.2421875,125.13916 Z M41.8544922,119.521484 L40.5800781,119.521484 C40.375,118.737793 39.6791992,118.100586 38.5439453,118.100586 C37.1230469,118.100586 36.2294922,119.23584 36.2294922,121.022949 C36.2294922,122.84668 37.1376953,124.003906 38.5439453,124.003906 C39.605957,124.003906 40.3457031,123.513184 40.5800781,122.619629 L41.8544922,122.619629 C41.6274414,124.069824 40.4482422,125.13916 38.5512695,125.13916 C36.3393555,125.13916 34.9257812,123.535156 34.9257812,121.022949 C34.9257812,118.562012 36.3320312,116.965332 38.5439453,116.965332 C40.4628906,116.965332 41.6347656,118.115234 41.8544922,119.521484 Z M45.1650391,120.554199 L48.5927734,117.104492 L50.1381836,117.104492 L46.7397461,120.488281 L50.3652344,125 L48.7612305,125 L45.8022461,121.30127 L45.0478516,122.004395 L45.0478516,125 L43.7880859,125 L43.7880859,113.969727 L45.0478516,113.969727 L45.0478516,120.554199 L45.1650391,120.554199 Z M54.6865234,123.769531 C56.1513672,123.769531 57.0302734,122.65625 57.0302734,120.935059 C57.0302734,119.213867 56.144043,118.100586 54.6865234,118.100586 C53.2216797,118.100586 52.4013672,119.213867 52.4013672,120.935059 C52.4013672,122.65625 53.2216797,123.769531 54.6865234,123.769531 Z M54.7451172,128.032227 C52.8408203,128.032227 51.625,127.175293 51.4345703,125.871582 L52.7675781,125.871582 C52.9067383,126.516113 53.6098633,126.933594 54.7451172,126.933594 C56.1586914,126.933594 57.0009766,126.237793 57.0009766,125.073242 L57.0009766,123.520508 L56.8837891,123.520508 C56.3857422,124.39209 55.4921875,124.882812 54.4082031,124.882812 C52.3647461,124.882812 51.0976562,123.300781 51.0976562,120.935059 C51.0976562,118.569336 52.3793945,116.965332 54.4082031,116.965332 C55.5141602,116.965332 56.4882812,117.507324 56.9423828,118.356934 L57.0595703,118.356934 L57.0595703,117.104492 L58.2607422,117.104492 L58.2607422,125.13916 C58.2607422,126.904297 56.8984375,128.032227 54.7451172,128.032227 Z M60.6337891,125 L60.6337891,117.104492 L61.8349609,117.104492 L61.8349609,118.276367 L61.9521484,118.276367 C62.1865234,117.507324 63.0947266,116.965332 64.1420898,116.965332 C64.347168,116.965332 64.6108398,116.97998 64.7719727,117.001953 L64.7719727,118.261719 C64.6694336,118.232422 64.215332,118.188477 63.9663086,118.188477 C62.7651367,118.188477 61.8935547,118.994141 61.8935547,120.107422 L61.8935547,125 L60.6337891,125 Z M69.371582,125.13916 C67.1230469,125.13916 65.7314453,123.586426 65.7314453,121.052246 C65.7314453,118.510742 67.1230469,116.965332 69.371582,116.965332 C71.6201172,116.965332 73.0117188,118.510742 73.0117188,121.052246 C73.0117188,123.586426 71.6201172,125.13916 69.371582,125.13916 Z M69.371582,124.003906 C70.8657227,124.003906 71.7080078,122.919922 71.7080078,121.052246 C71.7080078,119.177246 70.8657227,118.100586 69.371582,118.100586 C67.8774414,118.100586 67.0351562,119.177246 67.0351562,121.052246 C67.0351562,122.919922 67.8774414,124.003906 69.371582,124.003906 Z M81.3759766,117.104492 L81.3759766,125 L80.1748047,125 L80.1748047,123.762207 L80.0576172,123.762207 C79.6621094,124.641113 78.8198242,125.13916 77.6113281,125.13916 C75.8388672,125.13916 74.9160156,124.084473 74.9160156,122.216797 L74.9160156,117.104492 L76.1757812,117.104492 L76.1757812,121.90918 C76.1757812,123.330078 76.703125,123.989258 77.9628906,123.989258 C79.3544922,123.989258 80.1162109,123.161621 80.1162109,121.777344 L80.1162109,117.104492 L81.3759766,117.104492 Z M83.7490234,125 L83.7490234,117.104492 L84.9501953,117.104492 L84.9501953,118.349609 L85.0673828,118.349609 C85.4628906,117.478027 86.2319336,116.965332 87.4404297,116.965332 C89.2128906,116.965332 90.2016602,118.012695 90.2016602,119.887695 L90.2016602,125 L88.9418945,125 L88.9418945,120.195312 C88.9418945,118.774414 88.3413086,118.100586 87.081543,118.100586 C85.8217773,118.100586 85.0087891,118.942871 85.0087891,120.327148 L85.0087891,125 L83.7490234,125 Z M95.4238281,125.13916 C93.4023438,125.13916 92.105957,123.535156 92.105957,121.052246 C92.105957,118.57666 93.4169922,116.965332 95.4238281,116.965332 C96.5224609,116.965332 97.4526367,117.485352 97.8994141,118.349609 L98.0092773,118.349609 L98.0092773,113.969727 L99.269043,113.969727 L99.269043,125 L98.0678711,125 L98.0678711,123.740234 L97.9506836,123.740234 C97.4526367,124.619141 96.5151367,125.13916 95.4238281,125.13916 Z M95.7167969,118.100586 C94.28125,118.100586 93.409668,119.213867 93.409668,121.052246 C93.409668,122.897949 94.2739258,124.003906 95.7167969,124.003906 C97.1523438,124.003906 98.0385742,122.875977 98.0385742,121.052246 C98.0385742,119.243164 97.1450195,118.100586 95.7167969,118.100586 Z" id="Background" fill="#000000" mask="url(#mask-4)"></path>
                        <path d="M336.666016,125 L335.347656,125 L335.347656,114.431152 L336.666016,114.431152 L336.666016,125 Z M339.200195,125 L339.200195,117.104492 L340.401367,117.104492 L340.401367,118.349609 L340.518555,118.349609 C340.914062,117.478027 341.683105,116.965332 342.891602,116.965332 C344.664062,116.965332 345.652832,118.012695 345.652832,119.887695 L345.652832,125 L344.393066,125 L344.393066,120.195312 C344.393066,118.774414 343.79248,118.100586 342.532715,118.100586 C341.272949,118.100586 340.459961,118.942871 340.459961,120.327148 L340.459961,125 L339.200195,125 Z M354.10498,117.104492 L351.182617,125 L349.893555,125 L346.971191,117.104492 L348.318848,117.104492 L350.479492,123.608398 L350.59668,123.608398 L352.757324,117.104492 L354.10498,117.104492 Z M358.645996,118.078613 C357.38623,118.078613 356.507324,119.001465 356.412109,120.400391 L360.762695,120.400391 C360.733398,119.001465 359.898438,118.078613 358.645996,118.078613 Z M360.726074,122.956543 L361.98584,122.956543 C361.60498,124.311523 360.38916,125.13916 358.660645,125.13916 C356.470703,125.13916 355.101074,123.557129 355.101074,121.05957 C355.101074,118.57666 356.492676,116.965332 358.660645,116.965332 C360.791992,116.965332 362.088379,118.481445 362.088379,120.935059 L362.088379,121.418457 L356.412109,121.418457 L356.412109,121.477051 C356.478027,123.037109 357.349609,124.025879 358.689941,124.025879 C359.708008,124.025879 360.396484,123.652344 360.726074,122.956543 Z M364.065918,125 L364.065918,117.104492 L365.26709,117.104492 L365.26709,118.276367 L365.384277,118.276367 C365.618652,117.507324 366.526855,116.965332 367.574219,116.965332 C367.779297,116.965332 368.042969,116.97998 368.204102,117.001953 L368.204102,118.261719 C368.101562,118.232422 367.647461,118.188477 367.398438,118.188477 C366.197266,118.188477 365.325684,118.994141 365.325684,120.107422 L365.325684,125 L364.065918,125 Z M370.745605,115.061035 L372.005371,115.061035 L372.005371,117.104492 L373.763184,117.104492 L373.763184,118.15918 L372.005371,118.15918 L372.005371,122.626953 C372.005371,123.557129 372.356934,123.952637 373.177246,123.952637 C373.404297,123.952637 373.528809,123.945312 373.763184,123.92334 L373.763184,124.985352 C373.51416,125.029297 373.272461,125.058594 373.023438,125.058594 C371.397461,125.058594 370.745605,124.458008 370.745605,122.949219 L370.745605,118.15918 L369.471191,118.15918 L369.471191,117.104492 L370.745605,117.104492 L370.745605,115.061035 Z" id="Invert" fill="#000000" mask="url(#mask-4)"></path>
                        <path d="M173.412598,125 L172.094238,125 L172.094238,115.617676 L168.688477,115.617676 L168.688477,114.431152 L176.818359,114.431152 L176.818359,115.617676 L173.412598,115.617676 L173.412598,125 Z M180.670898,118.078613 C179.411133,118.078613 178.532227,119.001465 178.437012,120.400391 L182.787598,120.400391 C182.758301,119.001465 181.92334,118.078613 180.670898,118.078613 Z M182.750977,122.956543 L184.010742,122.956543 C183.629883,124.311523 182.414062,125.13916 180.685547,125.13916 C178.495605,125.13916 177.125977,123.557129 177.125977,121.05957 C177.125977,118.57666 178.517578,116.965332 180.685547,116.965332 C182.816895,116.965332 184.113281,118.481445 184.113281,120.935059 L184.113281,121.418457 L178.437012,121.418457 L178.437012,121.477051 C178.50293,123.037109 179.374512,124.025879 180.714844,124.025879 C181.73291,124.025879 182.421387,123.652344 182.750977,122.956543 Z M188.595703,122.019043 L188.478516,122.019043 L186.603516,125 L185.175293,125 L187.87793,121.052246 L185.145996,117.104492 L186.647461,117.104492 L188.522461,120.041504 L188.639648,120.041504 L190.492676,117.104492 L191.920898,117.104492 L189.240234,121.000977 L191.95752,125 L190.463379,125 L188.595703,122.019043 Z M194.206055,115.061035 L195.46582,115.061035 L195.46582,117.104492 L197.223633,117.104492 L197.223633,118.15918 L195.46582,118.15918 L195.46582,122.626953 C195.46582,123.557129 195.817383,123.952637 196.637695,123.952637 C196.864746,123.952637 196.989258,123.945312 197.223633,123.92334 L197.223633,124.985352 C196.974609,125.029297 196.73291,125.058594 196.483887,125.058594 C194.85791,125.058594 194.206055,124.458008 194.206055,122.949219 L194.206055,118.15918 L192.931641,118.15918 L192.931641,117.104492 L194.206055,117.104492 L194.206055,115.061035 Z" id="Text" fill="#000000" mask="url(#mask-4)"></path>
                        <path d="M131.5,131 C124.596441,131 119,125.403559 119,118.5 C119,111.596441 124.596441,106 131.5,106 C138.403559,106 144,111.596441 144,118.5 C144,125.403559 138.403559,131 131.5,131 Z M131.5,129 C137.29899,129 142,124.29899 142,118.5 C142,112.70101 137.29899,108 131.5,108 C125.70101,108 121,112.70101 121,118.5 C121,124.29899 125.70101,129 131.5,129 Z" id="Oval-2" fill="#000000" fill-rule="nonzero" mask="url(#mask-4)"></path>
                        <path d="M131.5,131 C124.596441,131 119,125.403559 119,118.5 C119,111.596441 124.596441,106 131.5,106 C138.403559,106 144,111.596441 144,118.5 C144,125.403559 138.403559,131 131.5,131 Z M131.5,129 C137.29899,129 142,124.29899 142,118.5 C142,112.70101 137.29899,108 131.5,108 C125.70101,108 121,112.70101 121,118.5 C121,124.29899 125.70101,129 131.5,129 Z" id="Oval-2" fill="#000000" fill-rule="nonzero" mask="url(#mask-4)"></path>
                        <path d="M285.5,131 C278.596441,131 273,125.403559 273,118.5 C273,111.596441 278.596441,106 285.5,106 C292.403559,106 298,111.596441 298,118.5 C298,125.403559 292.403559,131 285.5,131 Z M285.5,129 C291.29899,129 296,124.29899 296,118.5 C296,112.70101 291.29899,108 285.5,108 C279.70101,108 275,112.70101 275,118.5 C275,124.29899 279.70101,129 285.5,129 Z" id="Oval-2" fill="#000000" fill-rule="nonzero" mask="url(#mask-4)"></path>
                        <polygon id="" fill="#000000" mask="url(#mask-4)" transform="translate(374.632812, 167.201985) rotate(-270.000000) translate(-374.632812, -167.201985) " points="376.201985 173.834797 374.988937 172.621749 379.574035 168.058908 366.430828 168.058908 366.430828 166.345061 379.574035 166.345061 374.988937 161.78222 376.201985 160.569172 382.834797 167.201985"></polygon>
                        <circle id="Oval" fill="#000000" opacity="0.159999996" mask="url(#mask-4)" cx="375.5" cy="212.5" r="17.5"></circle>
                        <path d="M139.785156,265 L138.466797,265 L138.466797,260.187988 L132.666016,260.187988 L132.666016,265 L131.347656,265 L131.347656,254.431152 L132.666016,254.431152 L132.666016,259.001465 L138.466797,259.001465 L138.466797,254.431152 L139.785156,254.431152 L139.785156,265 Z M144.750977,264.033203 C146.047363,264.033203 147.006836,263.183594 147.006836,262.055664 L147.006836,261.330566 L144.882812,261.469727 C143.681641,261.550293 143.154297,261.967773 143.154297,262.758789 C143.154297,263.564453 143.835449,264.033203 144.750977,264.033203 Z M144.516602,265.13916 C142.98584,265.13916 141.850586,264.230957 141.850586,262.788086 C141.850586,261.374512 142.890625,260.561523 144.729004,260.45166 L147.006836,260.3125 L147.006836,259.594727 C147.006836,258.620605 146.398926,258.085938 145.219727,258.085938 C144.274902,258.085938 143.615723,258.444824 143.439941,259.067383 L142.165527,259.067383 C142.333984,257.800293 143.579102,256.965332 145.263672,256.965332 C147.189941,256.965332 148.266602,257.954102 148.266602,259.594727 L148.266602,265 L147.06543,265 L147.06543,263.835449 L146.948242,263.835449 C146.435547,264.677734 145.571289,265.13916 144.516602,265.13916 Z M150.595703,265 L150.595703,257.104492 L151.796875,257.104492 L151.796875,258.276367 L151.914062,258.276367 C152.148438,257.507324 153.056641,256.965332 154.104004,256.965332 C154.309082,256.965332 154.572754,256.97998 154.733887,257.001953 L154.733887,258.261719 C154.631348,258.232422 154.177246,258.188477 153.928223,258.188477 C152.727051,258.188477 151.855469,258.994141 151.855469,260.107422 L151.855469,265 L150.595703,265 Z M159.01123,265.13916 C156.989746,265.13916 155.693359,263.535156 155.693359,261.052246 C155.693359,258.57666 157.004395,256.965332 159.01123,256.965332 C160.109863,256.965332 161.040039,257.485352 161.486816,258.349609 L161.59668,258.349609 L161.59668,253.969727 L162.856445,253.969727 L162.856445,265 L161.655273,265 L161.655273,263.740234 L161.538086,263.740234 C161.040039,264.619141 160.102539,265.13916 159.01123,265.13916 Z M159.304199,258.100586 C157.868652,258.100586 156.99707,259.213867 156.99707,261.052246 C156.99707,262.897949 157.861328,264.003906 159.304199,264.003906 C160.739746,264.003906 161.625977,262.875977 161.625977,261.052246 C161.625977,259.243164 160.732422,258.100586 159.304199,258.100586 Z M165.375977,265 L165.375977,253.969727 L166.635742,253.969727 L166.635742,265 L165.375977,265 Z M169.755859,267.856445 C169.587402,267.856445 169.367676,267.841797 169.191895,267.8125 L169.191895,266.73584 C169.345703,266.765137 169.543457,266.772461 169.719238,266.772461 C170.444336,266.772461 170.839844,266.428223 171.169434,265.476074 L171.315918,265.007324 L168.393555,257.104492 L169.755859,257.104492 L171.923828,263.601074 L172.041016,263.601074 L174.20166,257.104492 L175.541992,257.104492 L172.458496,265.483398 C171.784668,267.314453 171.154785,267.856445 169.755859,267.856445 Z M181.621094,254.431152 L185.612793,254.431152 C187.612305,254.431152 188.996582,255.837402 188.996582,257.851562 C188.996582,259.829102 187.583008,261.228027 185.598145,261.228027 L182.939453,261.228027 L182.939453,265 L181.621094,265 L181.621094,254.431152 Z M182.939453,255.603027 L182.939453,260.056152 L185.268555,260.056152 C186.77002,260.056152 187.641602,259.250488 187.641602,257.851562 C187.641602,256.401367 186.799316,255.603027 185.268555,255.603027 L182.939453,255.603027 Z M190.98877,265 L190.98877,257.104492 L192.189941,257.104492 L192.189941,258.276367 L192.307129,258.276367 C192.541504,257.507324 193.449707,256.965332 194.49707,256.965332 C194.702148,256.965332 194.96582,256.97998 195.126953,257.001953 L195.126953,258.261719 C195.024414,258.232422 194.570312,258.188477 194.321289,258.188477 C193.120117,258.188477 192.248535,258.994141 192.248535,260.107422 L192.248535,265 L190.98877,265 Z M199.726562,265.13916 C197.478027,265.13916 196.086426,263.586426 196.086426,261.052246 C196.086426,258.510742 197.478027,256.965332 199.726562,256.965332 C201.975098,256.965332 203.366699,258.510742 203.366699,261.052246 C203.366699,263.586426 201.975098,265.13916 199.726562,265.13916 Z M199.726562,264.003906 C201.220703,264.003906 202.062988,262.919922 202.062988,261.052246 C202.062988,259.177246 201.220703,258.100586 199.726562,258.100586 C198.232422,258.100586 197.390137,259.177246 197.390137,261.052246 C197.390137,262.919922 198.232422,264.003906 199.726562,264.003906 Z M205.871582,265 L205.871582,258.15918 L204.560547,258.15918 L204.560547,257.104492 L205.871582,257.104492 L205.871582,256.335449 C205.871582,254.716797 206.713867,254.042969 208.237305,254.042969 C208.486328,254.042969 208.706055,254.064941 209.013672,254.116211 L209.013672,255.170898 C208.845215,255.134277 208.55957,255.10498 208.310547,255.10498 C207.556152,255.10498 207.131348,255.48584 207.131348,256.37207 L207.131348,257.104492 L208.94043,257.104492 L208.94043,258.15918 L207.131348,258.15918 L207.131348,265 L205.871582,265 Z M210.800781,265 L210.800781,257.104492 L212.060547,257.104492 L212.060547,265 L210.800781,265 Z M211.430664,255.500488 C210.947266,255.500488 210.551758,255.10498 210.551758,254.621582 C210.551758,254.138184 210.947266,253.742676 211.430664,253.742676 C211.914062,253.742676 212.30957,254.138184 212.30957,254.621582 C212.30957,255.10498 211.914062,255.500488 211.430664,255.500488 Z M214.536133,265 L214.536133,253.969727 L215.795898,253.969727 L215.795898,265 L214.536133,265 Z M221.391602,258.078613 C220.131836,258.078613 219.25293,259.001465 219.157715,260.400391 L223.508301,260.400391 C223.479004,259.001465 222.644043,258.078613 221.391602,258.078613 Z M223.47168,262.956543 L224.731445,262.956543 C224.350586,264.311523 223.134766,265.13916 221.40625,265.13916 C219.216309,265.13916 217.84668,263.557129 217.84668,261.05957 C217.84668,258.57666 219.238281,256.965332 221.40625,256.965332 C223.537598,256.965332 224.833984,258.481445 224.833984,260.935059 L224.833984,261.418457 L219.157715,261.418457 L219.157715,261.477051 C219.223633,263.037109 220.095215,264.025879 221.435547,264.025879 C222.453613,264.025879 223.14209,263.652344 223.47168,262.956543 Z" id="Hardly-Profile" fill="#000000" mask="url(#mask-4)"></path>
                        <path d="M358.705566,265 L357.401855,265 L353.505371,254.431152 L354.889648,254.431152 L357.995117,263.293457 L358.112305,263.293457 L361.217773,254.431152 L362.602051,254.431152 L358.705566,265 Z M364.323242,265 L364.323242,257.104492 L365.583008,257.104492 L365.583008,265 L364.323242,265 Z M364.953125,255.500488 C364.469727,255.500488 364.074219,255.10498 364.074219,254.621582 C364.074219,254.138184 364.469727,253.742676 364.953125,253.742676 C365.436523,253.742676 365.832031,254.138184 365.832031,254.621582 C365.832031,255.10498 365.436523,255.500488 364.953125,255.500488 Z M371.134766,258.078613 C369.875,258.078613 368.996094,259.001465 368.900879,260.400391 L373.251465,260.400391 C373.222168,259.001465 372.387207,258.078613 371.134766,258.078613 Z M373.214844,262.956543 L374.474609,262.956543 C374.09375,264.311523 372.87793,265.13916 371.149414,265.13916 C368.959473,265.13916 367.589844,263.557129 367.589844,261.05957 C367.589844,258.57666 368.981445,256.965332 371.149414,256.965332 C373.280762,256.965332 374.577148,258.481445 374.577148,260.935059 L374.577148,261.418457 L368.900879,261.418457 L368.900879,261.477051 C368.966797,263.037109 369.838379,264.025879 371.178711,264.025879 C372.196777,264.025879 372.885254,263.652344 373.214844,262.956543 Z M386.486328,257.104492 L384.274414,265 L382.992676,265 L381.227539,258.891602 L381.110352,258.891602 L379.352539,265 L378.078125,265 L375.866211,257.104492 L377.140625,257.104492 L378.693359,263.417969 L378.810547,263.417969 L380.575684,257.104492 L381.78418,257.104492 L383.549316,263.417969 L383.666504,263.417969 L385.219238,257.104492 L386.486328,257.104492 Z" id="View" fill="#000000" opacity="0.329999983" mask="url(#mask-4)"></path>
                        <text id="" mask="url(#mask-4)" font-family="SFMono-Regular, SF Mono" font-size="15" font-weight="normal" fill="#000000">
                            <tspan x="115" y="265"></tspan>
                        </text>
                        <path d="M190.471191,312 L186.347656,312 L186.347656,301.431152 L190.390625,301.431152 C192.331543,301.431152 193.518066,302.449219 193.518066,304.067871 C193.518066,305.166504 192.712402,306.162598 191.694336,306.345703 L191.694336,306.462891 C193.137207,306.645996 194.052734,307.634766 194.052734,309.033691 C194.052734,310.894043 192.719727,312 190.471191,312 Z M187.666016,302.595703 L187.666016,305.986816 L189.775391,305.986816 C191.37207,305.986816 192.185059,305.415527 192.185059,304.294922 C192.185059,303.218262 191.42334,302.595703 190.112305,302.595703 L187.666016,302.595703 Z M187.666016,310.835449 L190.273438,310.835449 C191.862793,310.835449 192.697754,310.190918 192.697754,308.967773 C192.697754,307.744629 191.833496,307.12207 190.148926,307.12207 L187.666016,307.12207 L187.666016,310.835449 Z M196.118164,312 L196.118164,300.969727 L197.37793,300.969727 L197.37793,312 L196.118164,312 Z M203.068848,312.13916 C200.820312,312.13916 199.428711,310.586426 199.428711,308.052246 C199.428711,305.510742 200.820312,303.965332 203.068848,303.965332 C205.317383,303.965332 206.708984,305.510742 206.708984,308.052246 C206.708984,310.586426 205.317383,312.13916 203.068848,312.13916 Z M203.068848,311.003906 C204.562988,311.003906 205.405273,309.919922 205.405273,308.052246 C205.405273,306.177246 204.562988,305.100586 203.068848,305.100586 C201.574707,305.100586 200.732422,306.177246 200.732422,308.052246 C200.732422,309.919922 201.574707,311.003906 203.068848,311.003906 Z M211.879883,310.769531 C213.344727,310.769531 214.223633,309.65625 214.223633,307.935059 C214.223633,306.213867 213.337402,305.100586 211.879883,305.100586 C210.415039,305.100586 209.594727,306.213867 209.594727,307.935059 C209.594727,309.65625 210.415039,310.769531 211.879883,310.769531 Z M211.938477,315.032227 C210.03418,315.032227 208.818359,314.175293 208.62793,312.871582 L209.960938,312.871582 C210.100098,313.516113 210.803223,313.933594 211.938477,313.933594 C213.352051,313.933594 214.194336,313.237793 214.194336,312.073242 L214.194336,310.520508 L214.077148,310.520508 C213.579102,311.39209 212.685547,311.882812 211.601562,311.882812 C209.558105,311.882812 208.291016,310.300781 208.291016,307.935059 C208.291016,305.569336 209.572754,303.965332 211.601562,303.965332 C212.70752,303.965332 213.681641,304.507324 214.135742,305.356934 L214.25293,305.356934 L214.25293,304.104492 L215.454102,304.104492 L215.454102,312.13916 C215.454102,313.904297 214.091797,315.032227 211.938477,315.032227 Z" id="Blog" fill="#000000" mask="url(#mask-4)"></path>
                        <path d="M321.666016,312 L320.347656,312 L320.347656,301.431152 L326.763672,301.431152 L326.763672,302.617676 L321.666016,302.617676 L321.666016,306.250488 L326.346191,306.250488 L326.346191,307.422363 L321.666016,307.422363 L321.666016,312 Z M335.289062,312 L334.227051,308.975098 L330.022949,308.975098 L328.960938,312 L327.57666,312 L331.473145,301.431152 L332.776855,301.431152 L336.67334,312 L335.289062,312 Z M332.066406,303.137695 L330.411133,307.854492 L333.838867,307.854492 L332.183594,303.137695 L332.066406,303.137695 Z M342.459473,312.249023 C339.449219,312.249023 337.603516,310.146973 337.603516,306.719238 C337.603516,303.306152 339.471191,301.182129 342.459473,301.182129 C345.433105,301.182129 347.293457,303.313477 347.293457,306.719238 C347.293457,308.821289 346.619629,310.469238 345.418457,311.333496 L346.758789,313.193848 L345.279297,313.193848 L344.349121,311.926758 C343.785156,312.13916 343.140625,312.249023 342.459473,312.249023 Z M342.466797,311.033203 C342.85498,311.033203 343.228516,310.981934 343.594727,310.87207 L342.195801,308.975098 L343.689941,308.975098 L344.649414,310.249512 C345.477051,309.590332 345.938477,308.330566 345.938477,306.719238 C345.938477,304.067871 344.598145,302.397949 342.459473,302.397949 C340.306152,302.397949 338.958496,304.060547 338.958496,306.719238 C338.958496,309.385254 340.298828,311.033203 342.466797,311.033203 Z" id="FAQ" fill="#000000" mask="url(#mask-4)"></path>
                    </g>
                </g>
            </g>
            <path d="M0,0 L480,0 L480,300 L0,300 L0,0 Z M64,126 L64,172 L461,172 L461,126 L64,126 Z" id="Combined-Shape" fill="#000000" opacity="0.5" mask="url(#mask-2)"></path>
        </g>
        <circle id="Oval-3" fill="#000000" cx="347.5" cy="8.5" r="11.5"></circle>
    </g>
</svg>