<?xml version="1.0" encoding="UTF-8"?>
<svg width="800px" height="400px" viewBox="0 0 800 400" version="1.1" xmlns="http://www.w3.org/2000/svg" xmlns:xlink="http://www.w3.org/1999/xlink">
    <!-- Generator: Sketch 50.2 (55047) - http://www.bohemiancoding.com/sketch -->
    <title>Artboard Copy</title>
    <desc>Created with Sketch.</desc>
    <defs>
        <rect id="path-1" x="0" y="0" width="423" height="423"></rect>
        <rect id="path-3" x="0" y="0" width="423" height="423"></rect>
    </defs>
    <g id="Artboard-Copy" stroke="none" stroke-width="1" fill="none" fill-rule="evenodd">
        <g id="Group-2" transform="translate(-23.000000, -12.000000)">
            <g id="Group" transform="translate(423.000000, 0.000000)">
                <mask id="mask-2" fill="white">
                    <use xlink:href="#path-1"></use>
                </mask>
                <use id="Rectangle" fill="#00FF00" xlink:href="#path-1"></use>
                <path d="M-405.677125,-23.2159822 L-405.677125,-15.1397241 L-434.643971,-15.1397241 L-434.643971,51.408642 L-445.089264,51.408642 L-445.089264,-15.1397241 L-474.05611,-15.1397241 L-474.05611,-23.2159822 L-405.677125,-23.2159822 Z M-388.770825,-23.2159822 L-388.770825,5.42781296 C-386.688935,3.05876543 -383.907141,1.12048288 -380.425359,-0.387092818 C-376.943577,-1.89466852 -373.228535,-2.64844506 -369.280122,-2.64844506 C-365.259921,-2.64844506 -361.634614,-2.28950385 -358.404095,-1.57161066 C-355.173576,-0.85371747 -352.427675,0.276947346 -350.166312,1.82041771 C-347.904948,3.36388807 -346.18203,5.33806473 -344.997507,7.74300692 C-343.812983,10.1479491 -343.22073,13.0374259 -343.22073,16.4115239 L-343.22073,51.408642 L-353.450657,51.408642 L-353.450657,17.7037251 C-353.450657,15.6218349 -353.899333,13.7732877 -354.7967,12.158028 C-355.694066,10.5427683 -356.95036,9.16084463 -358.56562,8.01221552 C-360.18088,6.86358642 -362.065321,6.00212751 -364.219001,5.42781296 C-366.37268,4.8534984 -368.669904,4.56634543 -371.110741,4.56634543 C-376.351361,4.56634543 -380.604815,5.8585338 -383.871229,8.44294928 C-387.137643,11.0273648 -388.770825,14.5808828 -388.770825,19.1036099 L-388.770825,51.408642 L-399.000752,51.408642 L-399.000752,-23.2159822 L-388.770825,-23.2159822 Z M-322.007092,20.0727608 L-284.533255,20.0727608 C-284.676834,17.9908706 -285.197298,15.9987469 -286.094665,14.0963299 C-286.992031,12.1939129 -288.194484,10.5427834 -289.70206,9.14289165 C-291.209636,7.74299992 -293.022289,6.63028217 -295.140074,5.804705 C-297.257859,4.97912783 -299.644818,4.56634543 -302.301023,4.56634543 C-305.029017,4.56634543 -307.541605,4.97912783 -309.838863,5.804705 C-312.136122,6.63028217 -314.164139,7.74299992 -315.922978,9.14289165 C-317.681816,10.5427834 -319.099634,12.1759659 -320.176474,14.0424882 C-321.253313,15.9090105 -321.863514,17.9190813 -322.007092,20.0727608 Z M-273.549544,33.8562412 C-275.272488,40.6762265 -278.592694,45.5039858 -283.510262,48.3396639 C-288.427831,51.175342 -294.619567,52.5931598 -302.085656,52.5931598 C-307.398065,52.5931598 -311.956619,51.8932244 -315.761453,50.4933327 C-319.566287,49.093441 -322.707022,47.1731055 -325.183754,44.7322687 C-327.660485,42.2914318 -329.491085,39.384008 -330.675609,36.00991 C-331.860133,32.635812 -332.452386,28.9746116 -332.452386,25.0261991 C-332.452386,20.3598933 -331.734503,16.2859106 -330.298717,12.8041286 C-328.862931,9.32234664 -326.816966,6.45081695 -324.160761,4.18945339 C-321.504556,1.92808984 -318.327926,0.241066147 -314.630777,-0.8716683 C-310.933627,-1.98440275 -306.82375,-2.54076162 -302.301023,-2.54076162 C-297.993663,-2.54076162 -294.099151,-1.96645569 -290.617369,-0.817826579 C-287.135587,0.330802527 -284.138428,2.03577328 -281.625802,4.29713683 C-279.113176,6.55850039 -277.174893,9.39413596 -275.810896,12.8041286 C-274.446899,16.2141213 -273.764911,20.2163158 -273.764911,24.8108322 L-273.764911,26.7491341 L-322.007092,26.7491341 C-321.863514,29.2617603 -321.378943,31.6487194 -320.553366,33.9100829 C-319.727789,36.1714465 -318.507388,38.1635702 -316.892129,39.8865138 C-315.276869,41.6094575 -313.248851,42.9734341 -310.808014,43.9784846 C-308.367178,44.983535 -305.459754,45.4860527 -302.085656,45.4860527 C-297.491139,45.4860527 -293.70431,44.5886997 -290.725053,42.7939667 C-287.745796,40.9992338 -285.538308,38.0200217 -284.102521,33.8562412 L-273.549544,33.8562412 Z M-153.051774,51.408642 L-166.512204,51.408642 L-211.200832,-10.0786024 L-211.200832,51.408642 L-221.861493,51.408642 L-221.861493,-23.2159822 L-208.401063,-23.2159822 L-163.712435,38.2712622 L-163.712435,-23.2159822 L-153.051774,-23.2159822 L-153.051774,51.408642 Z M-129.684468,20.0727608 L-92.2106306,20.0727608 C-92.3542093,17.9908706 -92.874674,15.9987469 -93.7720405,14.0963299 C-94.669407,12.1939129 -95.8718601,10.5427834 -97.3794358,9.14289165 C-98.8870115,7.74299992 -100.699665,6.63028217 -102.817449,5.804705 C-104.935234,4.97912783 -107.322193,4.56634543 -109.978398,4.56634543 C-112.706392,4.56634543 -115.218981,4.97912783 -117.516239,5.804705 C-119.813497,6.63028217 -121.841515,7.74299992 -123.600353,9.14289165 C-125.359192,10.5427834 -126.77701,12.1759659 -127.853849,14.0424882 C-128.930689,15.9090105 -129.540889,17.9190813 -129.684468,20.0727608 Z M-81.2269197,33.8562412 C-82.9498634,40.6762265 -86.2700696,45.5039858 -91.1876379,48.3396639 C-96.1052063,51.175342 -102.296942,52.5931598 -109.763031,52.5931598 C-115.075441,52.5931598 -119.633994,51.8932244 -123.438828,50.4933327 C-127.243662,49.093441 -130.384398,47.1731055 -132.861129,44.7322687 C-135.337861,42.2914318 -137.168461,39.384008 -138.352985,36.00991 C-139.537509,32.635812 -140.129762,28.9746116 -140.129762,25.0261991 C-140.129762,20.3598933 -139.411879,16.2859106 -137.976093,12.8041286 C-136.540306,9.32234664 -134.494341,6.45081695 -131.838137,4.18945339 C-129.181932,1.92808984 -126.005302,0.241066147 -122.308152,-0.8716683 C-118.611002,-1.98440275 -114.501125,-2.54076162 -109.978398,-2.54076162 C-105.671039,-2.54076162 -101.776527,-1.96645569 -98.294745,-0.817826579 C-94.812963,0.330802527 -91.8158039,2.03577328 -89.3031777,4.29713683 C-86.7905516,6.55850039 -84.852269,9.39413596 -83.488272,12.8041286 C-82.1242749,16.2141213 -81.4422866,20.2163158 -81.4422866,24.8108322 L-81.4422866,26.7491341 L-129.684468,26.7491341 C-129.540889,29.2617603 -129.056319,31.6487194 -128.230741,33.9100829 C-127.405164,36.1714465 -126.184764,38.1635702 -124.569504,39.8865138 C-122.954245,41.6094575 -120.926227,42.9734341 -118.48539,43.9784846 C-116.044553,44.983535 -113.137129,45.4860527 -109.763031,45.4860527 C-105.168515,45.4860527 -101.381685,44.5886997 -98.4024284,42.7939667 C-95.4231717,40.9992338 -93.2156832,38.0200217 -91.7798969,33.8562412 L-81.2269197,33.8562412 Z M-49.8910386,40.1018807 L-33.0924219,-1.46392722 L-23.1855454,-1.46392722 L-6.38692873,40.1018807 L8.79643635,-1.46392722 L19.4570969,-1.46392722 L-0.895073272,51.408642 L-11.4480504,51.408642 L-28.2466671,9.51978369 L-44.8299169,51.408642 L-55.3828941,51.408642 L-75.7350643,-1.46392722 L-65.0744037,-1.46392722 L-49.8910386,40.1018807 Z M79.5444566,-23.2159822 L79.5444566,51.408642 L68.7761126,51.408642 L68.7761126,-23.2159822 L79.5444566,-23.2159822 Z M105.173115,-1.46392722 L105.173115,5.42781296 C107.255006,3.05876543 110.108588,1.12048288 113.733949,-0.387092818 C117.35931,-1.89466852 121.146139,-2.64844506 125.094552,-2.64844506 C129.114754,-2.64844506 132.74006,-2.28950385 135.970579,-1.57161066 C139.201099,-0.85371747 141.946999,0.276947346 144.208363,1.82041771 C146.469726,3.36388807 148.192644,5.33806473 149.377168,7.74300692 C150.561691,10.1479491 151.153944,13.0374259 151.153944,16.4115239 L151.153944,51.408642 L140.924018,51.408642 L140.924018,17.7037251 C140.924018,15.6218349 140.475341,13.7732877 139.577975,12.158028 C138.680608,10.5427683 137.424314,9.16084463 135.809054,8.01221552 C134.193794,6.86358642 132.309353,6.00212751 130.155674,5.42781296 C128.001994,4.8534984 125.70477,4.56634543 123.263933,4.56634543 C118.023313,4.56634543 113.76986,5.8585338 110.503446,8.44294928 C107.237032,11.0273648 105.603849,14.5808828 105.603849,19.1036099 L105.603849,51.408642 L95.3739223,51.408642 L95.3739223,-1.46392722 L105.173115,-1.46392722 Z M211.241304,44.1938515 C210.379832,45.3424806 209.267114,46.4193042 207.903117,47.4243547 C206.53912,48.4294051 205.01362,49.3088111 203.326571,50.062599 C201.639522,50.8163868 199.826869,51.4086398 197.888557,51.8393757 C195.950246,52.2701116 193.940175,52.4854764 191.858285,52.4854764 C182.382095,52.4854764 175.077641,50.0985173 169.944705,45.3245276 C164.811768,40.5505379 162.245339,33.7486019 162.245339,24.9185156 C162.245339,20.8265245 162.837592,17.1114829 164.022116,13.7732796 C165.206639,10.4350762 167.037239,7.54559949 169.513971,5.10476264 C171.990702,2.66392579 175.113491,0.779484425 178.88243,-0.548617979 C182.65137,-1.87672038 187.120188,-2.54076162 192.289019,-2.54076162 C196.524588,-2.54076162 200.185789,-1.9126145 203.272729,-0.656301419 C206.35967,0.600011666 208.872259,2.37677066 210.81057,4.67402887 L210.81057,-1.46392722 L220.932814,-1.46392722 L220.932814,73.2683803 L211.241304,73.2683803 L211.241304,44.1938515 Z M192.289019,4.45866199 C188.843131,4.45866199 185.881866,5.01502087 183.405135,6.12775532 C180.928403,7.24048976 178.900385,8.74804285 177.32102,10.6504598 C175.741655,12.5528768 174.575096,14.7424182 173.821309,17.2191497 C173.067521,19.6958812 172.690632,22.298205 172.690632,25.0261991 C172.690632,27.7541932 173.067521,30.3385699 173.821309,32.7794068 C174.575096,35.2202436 175.741655,37.3738909 177.32102,39.2404132 C178.900385,41.1069355 180.928403,42.5785945 183.405135,43.6554343 C185.881866,44.732274 188.843131,45.2706859 192.289019,45.2706859 C195.519538,45.2706859 198.319279,44.732274 200.688327,43.6554343 C203.057374,42.5785945 205.013604,41.1428296 206.557074,39.3480966 C208.100545,37.5533637 209.249157,35.5432929 210.002945,33.317824 C210.756732,31.0923551 211.133621,28.8310255 211.133621,26.5337673 L211.133621,24.0570481 C211.061831,21.4008433 210.631102,18.8882548 209.841419,16.5192073 C209.051737,14.1501598 207.867231,12.0683007 206.287866,10.2735678 C204.708501,8.47883479 202.752271,7.06101701 200.419118,6.02007188 C198.085965,4.97912675 195.375959,4.45866199 192.289019,4.45866199 Z M280.051022,51.408642 L280.051022,44.1938515 C277.969132,46.562899 275.11555,48.5550227 271.490189,50.1702824 C267.864828,51.7855421 264.077999,52.5931598 260.129586,52.5931598 C256.109384,52.5931598 252.484078,52.2342186 249.253558,51.5163254 C246.023039,50.7984322 243.277139,49.6677674 241.015775,48.124297 C238.754412,46.5808267 237.031494,44.60665 235.84697,42.2017078 C234.662446,39.7967656 234.070193,36.9072889 234.070193,33.5331909 L234.070193,-1.46392722 L244.30012,-1.46392722 L244.30012,32.2409896 C244.30012,34.3228798 244.748797,36.1714271 245.646163,37.7866868 C246.54353,39.4019464 247.799824,40.7838701 249.415084,41.9324992 C251.030343,43.0811283 252.896838,43.9425872 255.014623,44.5169018 C257.132407,45.0912163 259.447578,45.3783693 261.960204,45.3783693 C267.200825,45.3783693 271.454278,44.0861809 274.720692,41.5017654 C277.987106,38.91735 279.620289,35.363832 279.620289,30.8411049 L279.620289,-1.46392722 L289.850215,-1.46392722 L289.850215,51.408642 L280.051022,51.408642 Z M303.310646,51.408642 L303.310646,-1.46392722 L313.540572,-1.46392722 L313.540572,51.408642 L303.310646,51.408642 Z M302.987595,-14.8166738 L302.987595,-24.4005 L313.971306,-24.4005 L313.971306,-14.8166738 L302.987595,-14.8166738 Z M355.644797,4.88939576 C349.614495,4.88939576 345.055941,6.25337236 341.969001,8.98136649 C338.88206,11.7093606 337.338613,16.267914 337.338613,22.6571634 L337.338613,51.408642 L327.108686,51.408642 L327.108686,-1.46392722 L336.907879,-1.46392722 L336.907879,5.96623016 C338.487244,3.66897195 340.945991,1.65890116 344.284195,-0.0640424975 C347.622398,-1.78698616 351.409228,-2.64844506 355.644797,-2.64844506 C356.865216,-2.64844506 358.103563,-2.57665682 359.359876,-2.43307818 C360.616189,-2.28949955 361.675066,-2.14592306 362.536538,-2.00234442 L362.536538,5.64317984 C361.531487,5.35602256 360.400822,5.15860489 359.144509,5.05092092 C357.888196,4.94323694 356.721637,4.88939576 355.644797,4.88939576 Z M368.889861,-1.46392722 L379.658205,-1.46392722 L399.364274,41.394082 L419.501078,-1.46392722 L430.377105,-1.46392722 L399.795008,60.1310006 C399.005325,61.782155 398.12592,63.3256022 397.156764,64.7613885 C396.187608,66.1971749 395.092837,67.4534692 393.872419,68.530309 C392.652,69.6071487 391.234183,70.4506606 389.618923,71.0608698 C388.003663,71.671079 386.119222,71.976179 383.965542,71.976179 C382.09902,71.976179 380.501732,71.8864437 379.173629,71.7069704 C377.845527,71.5274971 376.571285,71.2582912 375.350867,70.8993446 L375.350867,63.899921 C375.853392,64.0434997 376.427698,64.151182 377.073802,64.2229713 C377.648117,64.2947607 378.276264,64.3486018 378.958262,64.3844965 C379.640261,64.4203912 380.447879,64.4383382 381.38114,64.4383382 C383.534819,64.4383382 385.293631,64.0076088 386.657628,63.1461369 C388.021625,62.2846651 389.15229,61.2078415 390.049657,59.9156337 C390.947023,58.623426 391.682853,57.2235553 392.257167,55.7159796 C392.831482,54.2084039 393.405788,52.8085331 393.980102,51.5163254 L368.889861,-1.46392722 Z M-95.3872921,180.62877 L-104.325018,161.030384 L-144.490941,161.030384 L-153.2133,180.62877 L-164.19701,180.62877 L-129.307576,106.004146 L-119.185332,106.004146 L-83.9728474,180.62877 L-95.3872921,180.62877 Z M-124.354138,116.664807 L-140.829704,153.38486 L-107.770888,153.38486 L-124.354138,116.664807 Z M-69.3278996,149.292889 L-31.8540624,149.292889 C-31.997641,147.210999 -32.5181057,145.218875 -33.4154722,143.316458 C-34.3128387,141.414041 -35.5152918,139.762912 -37.0228675,138.36302 C-38.5304432,136.963128 -40.3430963,135.85041 -42.4608812,135.024833 C-44.5786661,134.199256 -46.9656252,133.786474 -49.62183,133.786474 C-52.3498241,133.786474 -54.8624126,134.199256 -57.1596708,135.024833 C-59.456929,135.85041 -61.4849469,136.963128 -63.2437852,138.36302 C-65.0026235,139.762912 -66.4204413,141.396094 -67.4972811,143.262617 C-68.5741209,145.129139 -69.1843209,147.13921 -69.3278996,149.292889 Z M-20.8703514,163.07637 C-22.5932951,169.896355 -25.9135013,174.724114 -30.8310697,177.559792 C-35.748638,180.39547 -41.9403739,181.813288 -49.4064631,181.813288 C-54.7188727,181.813288 -59.2774261,181.113353 -63.08226,179.713461 C-66.8870939,178.313569 -70.0278295,176.393234 -72.5045611,173.952397 C-74.9812926,171.51156 -76.8118927,168.604136 -77.9964165,165.230038 C-79.1809403,161.85594 -79.7731933,158.19474 -79.7731933,154.246327 C-79.7731933,149.580022 -79.0553109,145.506039 -77.6195245,142.024257 C-76.1837381,138.542475 -74.1377732,135.670945 -71.4815684,133.409582 C-68.8253636,131.148218 -65.6487338,129.461194 -61.9515839,128.34846 C-58.254434,127.235726 -54.1445571,126.679367 -49.62183,126.679367 C-45.3144708,126.679367 -41.4199587,127.253673 -37.9381767,128.402302 C-34.4563947,129.550931 -31.4592356,131.255902 -28.9466095,133.517265 C-26.4339833,135.778629 -24.4957008,138.614264 -23.1317037,142.024257 C-21.7677066,145.43425 -21.0857183,149.436444 -21.0857183,154.030961 L-21.0857183,155.969262 L-69.3278996,155.969262 C-69.1843209,158.481889 -68.6997503,160.868848 -67.8741731,163.130211 C-67.048596,165.391575 -65.8281958,167.383699 -64.2129362,169.106642 C-62.5976765,170.829586 -60.5696586,172.193562 -58.1288218,173.198613 C-55.6879849,174.203663 -52.7805611,174.706181 -49.4064631,174.706181 C-44.8119467,174.706181 -41.0251169,173.808828 -38.0458602,172.014095 C-35.0666034,170.219362 -32.859115,167.24015 -31.4233286,163.07637 L-20.8703514,163.07637 Z M17.8956871,126.679367 C23.064518,126.679367 27.5333361,127.343408 31.3022754,128.67151 C35.0712146,129.999613 38.1760561,131.884054 40.616893,134.324891 C43.0577298,136.765728 44.8703829,139.655205 46.0549067,142.993408 C47.2394305,146.331611 47.8316835,150.046653 47.8316835,154.138644 C47.8316835,162.96873 45.319095,169.788613 40.2938426,174.598498 C35.2685903,179.408382 27.8026131,181.813288 17.8956871,181.813288 C7.9169717,181.813288 0.415100377,179.408382 -4.61015196,174.598498 C-9.6354043,169.788613 -12.1479928,162.96873 -12.1479928,154.138644 C-12.1479928,150.046653 -11.5557398,146.331611 -10.371216,142.993408 C-9.18669225,139.655205 -7.35609207,136.765728 -4.87936056,134.324891 C-2.40262905,131.884054 0.720159487,129.999613 4.48909874,128.67151 C8.258038,127.343408 12.7268561,126.679367 17.8956871,126.679367 Z M17.8956871,133.67879 C14.4497997,133.67879 11.4885347,134.235149 9.01180323,135.347884 C6.53507172,136.460618 4.50705388,137.968171 2.92768886,139.870588 C1.34832384,141.773005 0.181764899,143.962546 -0.572022952,146.439278 C-1.3258108,148.91601 -1.70269907,151.518333 -1.70269907,154.246327 C-1.70269907,156.974322 -1.3258108,159.558698 -0.572022952,161.999535 C0.181764899,164.440372 1.34832384,166.594019 2.92768886,168.460542 C4.50705388,170.327064 6.53507172,171.798723 9.01180323,172.875563 C11.4885347,173.952402 14.4497997,174.490814 17.8956871,174.490814 C21.3415744,174.490814 24.3028394,173.952402 26.7795709,172.875563 C29.2563024,171.798723 31.2663732,170.327064 32.8098435,168.460542 C34.3533139,166.594019 35.5019258,164.440372 36.2557136,161.999535 C37.0095015,159.558698 37.3863897,156.974322 37.3863897,154.246327 C37.3863897,151.518333 37.0095015,148.91601 36.2557136,146.439278 C35.5019258,143.962546 34.3533139,141.773005 32.8098435,139.870588 C31.2663732,137.968171 29.2563024,136.460618 26.7795709,135.347884 C24.3028394,134.235149 21.3415744,133.67879 17.8956871,133.67879 Z M68.7222709,127.756201 L68.7222709,134.647941 C70.8041611,132.278894 73.6577438,130.340611 77.2831044,128.833036 C80.908465,127.32546 84.6952948,126.571683 88.6437073,126.571683 C92.6639092,126.571683 96.2892154,126.930624 99.5197348,127.648518 C102.750254,128.366411 105.496154,129.497076 107.757518,131.040546 C110.018882,132.584016 111.741799,134.558193 112.926323,136.963135 C114.110847,139.368077 114.7031,142.257554 114.7031,145.631652 L114.7031,180.62877 L104.473173,180.62877 L104.473173,146.923853 C104.473173,144.841963 104.024497,142.993416 103.12713,141.378156 C102.229764,139.762897 100.973469,138.380973 99.3582096,137.232344 C97.7429499,136.083715 95.8585086,135.222256 93.704829,134.647941 C91.5511494,134.073627 89.2539257,133.786474 86.8130888,133.786474 C81.5724685,133.786474 77.3190152,135.078662 74.0526012,137.663078 C70.7861871,140.247493 69.1530046,143.801011 69.1530046,148.323738 L69.1530046,180.62877 L58.9230778,180.62877 L58.9230778,127.756201 L68.7222709,127.756201 Z M-522.621341,296.819202 L-494.40828,235.224275 L-480.301749,235.224275 L-480.301749,309.848899 L-490.747043,309.848899 L-490.747043,248.038604 L-518.852421,309.848899 L-526.282578,309.848899 L-554.387956,248.038604 L-554.387956,309.848899 L-564.83325,309.848899 L-564.83325,235.224275 L-550.726719,235.224275 L-522.621341,296.819202 Z M-465.118384,309.848899 L-465.118384,256.976329 L-454.888457,256.976329 L-454.888457,309.848899 L-465.118384,309.848899 Z M-465.441435,243.623583 L-465.441435,234.039757 L-454.457724,234.039757 L-454.457724,243.623583 L-465.441435,243.623583 Z M-405.892492,271.40591 C-406.179649,268.534338 -407.57952,266.398637 -410.092146,264.998746 C-412.604772,263.598854 -415.871138,262.898919 -419.891339,262.898919 C-421.542494,262.898919 -423.157729,263.042495 -424.737094,263.329652 C-426.316459,263.61681 -427.71633,264.065486 -428.936748,264.675695 C-430.157167,265.285905 -431.126308,266.057628 -431.844201,266.990889 C-432.562094,267.924151 -432.921036,269.036868 -432.921036,270.329076 C-432.921036,272.841702 -431.969841,274.690249 -430.067424,275.874773 C-428.165008,277.059297 -425.760101,277.938703 -422.852634,278.513017 C-419.945167,279.087332 -416.822378,279.571903 -413.484175,279.966744 C-410.145971,280.361585 -407.023183,281.061521 -404.115715,282.066571 C-401.208248,283.071621 -398.803342,284.579175 -396.900925,286.589276 C-394.998508,288.599376 -394.047314,291.5068 -394.047314,295.311634 C-394.047314,298.254996 -394.80109,300.731691 -396.308666,302.741792 C-397.816242,304.751892 -399.772471,306.367128 -402.177413,307.587546 C-404.582356,308.807965 -407.238521,309.687371 -410.145988,310.225791 C-413.053455,310.764211 -415.907038,311.033416 -418.706822,311.033416 C-422.439866,311.033416 -425.885702,310.674475 -429.044432,309.956582 C-432.203162,309.238689 -434.913168,308.197759 -437.174532,306.833762 C-439.435895,305.469765 -441.194707,303.782742 -442.45102,301.772641 C-443.707333,299.76254 -444.33548,297.50121 -444.33548,294.988584 L-433.99787,294.988584 C-433.064609,301.018887 -427.967644,304.033993 -418.706822,304.033993 C-417.127457,304.033993 -415.476327,303.908363 -413.753383,303.657101 C-412.03044,303.405838 -410.451098,302.957162 -409.015312,302.311058 C-407.579526,301.664954 -406.412967,300.767601 -405.5156,299.618972 C-404.618234,298.470343 -404.169557,296.998684 -404.169557,295.203951 C-404.169557,293.409218 -404.725916,292.009347 -405.83865,291.004297 C-406.951385,289.999246 -408.423044,289.191628 -410.253671,288.581419 C-412.084299,287.97121 -414.148211,287.504586 -416.445469,287.181534 C-418.742728,286.858483 -421.11174,286.517488 -423.552576,286.158542 C-425.993413,285.799595 -428.362425,285.332972 -430.659683,284.758657 C-432.956942,284.184342 -435.020854,283.358778 -436.851481,282.281938 C-438.682109,281.205098 -440.153768,279.805227 -441.266502,278.082284 C-442.379237,276.35934 -442.935596,274.133905 -442.935596,271.40591 C-442.935596,268.677916 -442.307448,266.344798 -441.051135,264.406487 C-439.794822,262.468175 -438.107799,260.870887 -435.990014,259.614574 C-433.872229,258.358261 -431.413481,257.425013 -428.613698,256.814804 C-425.813915,256.204595 -422.870597,255.899495 -419.783656,255.899495 C-416.265979,255.899495 -413.071403,256.258436 -410.19983,256.976329 C-407.328257,257.694223 -404.851563,258.717205 -402.769672,260.045307 C-400.687782,261.37341 -399.072547,262.988645 -397.923918,264.891062 C-396.775288,266.793479 -396.200983,268.965074 -396.200983,271.40591 L-405.892492,271.40591 Z M-387.801674,256.976329 L-376.602596,256.976329 L-376.602596,247.28482 C-376.602596,243.04925 -375.274514,239.675203 -372.618309,237.162576 C-369.962104,234.64995 -366.013751,233.393656 -360.773131,233.393656 C-359.193766,233.393656 -357.327271,233.447497 -355.173592,233.555181 C-353.019912,233.662865 -351.189312,233.824389 -349.681736,234.039757 L-349.681736,240.823813 C-350.32784,240.752024 -351.06367,240.698183 -351.889247,240.662288 C-352.714824,240.626394 -353.522442,240.590499 -354.312124,240.554605 C-355.101807,240.51871 -355.819689,240.500763 -356.465793,240.500763 L-357.757994,240.500763 C-363.429351,240.500763 -366.264986,243.372293 -366.264986,249.115438 L-366.264986,256.976329 L-349.681736,256.976329 L-349.681736,263.975753 L-366.264986,263.975753 L-366.264986,309.848899 L-376.602596,309.848899 L-376.602596,263.975753 L-387.801674,263.975753 L-387.801674,256.976329 Z M-340.636327,309.848899 L-340.636327,256.976329 L-330.406401,256.976329 L-330.406401,309.848899 L-340.636327,309.848899 Z M-340.959378,243.623583 L-340.959378,234.039757 L-329.975667,234.039757 L-329.975667,243.623583 L-340.959378,243.623583 Z M-311.346432,263.975753 L-321.253308,263.975753 L-321.253308,256.976329 L-311.346432,256.976329 L-311.346432,241.469914 L-301.116505,241.469914 L-301.116505,256.976329 L-285.502406,256.976329 L-285.502406,263.975753 L-301.116505,263.975753 L-301.116505,295.850051 C-301.116505,298.434467 -300.488358,300.336855 -299.232045,301.557274 C-297.975731,302.777692 -295.768243,303.387892 -292.609513,303.387892 C-291.963409,303.387892 -291.22758,303.369945 -290.402002,303.33405 C-289.576425,303.298156 -288.804702,303.244315 -288.086808,303.172525 C-287.297126,303.100736 -286.471561,302.993054 -285.610089,302.849475 L-285.610089,309.848899 C-286.327983,309.992477 -287.153547,310.10016 -288.086808,310.171949 L-290.886578,310.387316 C-291.819839,310.459105 -292.681298,310.494999 -293.470981,310.494999 L-295.409282,310.494999 C-300.793481,310.494999 -304.795676,309.238705 -307.415986,306.726079 C-310.036296,304.213453 -311.346432,300.839405 -311.346432,296.603835 L-311.346432,263.975753 Z M-240.813778,271.40591 C-241.100935,268.534338 -242.500806,266.398637 -245.013432,264.998746 C-247.526059,263.598854 -250.792424,262.898919 -254.812625,262.898919 C-256.46378,262.898919 -258.079015,263.042495 -259.65838,263.329652 C-261.237745,263.61681 -262.637616,264.065486 -263.858034,264.675695 C-265.078453,265.285905 -266.047594,266.057628 -266.765487,266.990889 C-267.483381,267.924151 -267.842322,269.036868 -267.842322,270.329076 C-267.842322,272.841702 -266.891128,274.690249 -264.988711,275.874773 C-263.086294,277.059297 -260.681387,277.938703 -257.77392,278.513017 C-254.866453,279.087332 -251.743664,279.571903 -248.405461,279.966744 C-245.067257,280.361585 -241.944469,281.061521 -239.037001,282.066571 C-236.129534,283.071621 -233.724628,284.579175 -231.822211,286.589276 C-229.919794,288.599376 -228.9686,291.5068 -228.9686,295.311634 C-228.9686,298.254996 -229.722376,300.731691 -231.229952,302.741792 C-232.737528,304.751892 -234.693757,306.367128 -237.0987,307.587546 C-239.503642,308.807965 -242.159807,309.687371 -245.067274,310.225791 C-247.974742,310.764211 -250.828324,311.033416 -253.628108,311.033416 C-257.361152,311.033416 -260.806988,310.674475 -263.965718,309.956582 C-267.124448,309.238689 -269.834454,308.197759 -272.095818,306.833762 C-274.357181,305.469765 -276.115993,303.782742 -277.372306,301.772641 C-278.628619,299.76254 -279.256766,297.50121 -279.256766,294.988584 L-268.919156,294.988584 C-267.985895,301.018887 -262.88893,304.033993 -253.628108,304.033993 C-252.048743,304.033993 -250.397613,303.908363 -248.674669,303.657101 C-246.951726,303.405838 -245.372384,302.957162 -243.936598,302.311058 C-242.500812,301.664954 -241.334253,300.767601 -240.436886,299.618972 C-239.53952,298.470343 -239.090843,296.998684 -239.090843,295.203951 C-239.090843,293.409218 -239.647202,292.009347 -240.759936,291.004297 C-241.872671,289.999246 -243.34433,289.191628 -245.174958,288.581419 C-247.005585,287.97121 -249.069497,287.504586 -251.366755,287.181534 C-253.664014,286.858483 -256.033026,286.517488 -258.473862,286.158542 C-260.914699,285.799595 -263.283711,285.332972 -265.580969,284.758657 C-267.878228,284.184342 -269.94214,283.358778 -271.772767,282.281938 C-273.603395,281.205098 -275.075054,279.805227 -276.187788,278.082284 C-277.300523,276.35934 -277.856882,274.133905 -277.856882,271.40591 C-277.856882,268.677916 -277.228735,266.344798 -275.972421,264.406487 C-274.716108,262.468175 -273.029085,260.870887 -270.9113,259.614574 C-268.793515,258.358261 -266.334768,257.425013 -263.534984,256.814804 C-260.735201,256.204595 -257.791883,255.899495 -254.704942,255.899495 C-251.187265,255.899495 -247.992689,256.258436 -245.121116,256.976329 C-242.249543,257.694223 -239.772849,258.717205 -237.690958,260.045307 C-235.609068,261.37341 -233.993833,262.988645 -232.845204,264.891062 C-231.696575,266.793479 -231.122269,268.965074 -231.122269,271.40591 L-240.813778,271.40591 Z M-206.032027,256.976329 L-214.108285,256.976329 L-208.185696,235.224275 L-195.586733,235.224275 L-206.032027,256.976329 Z M-76.7042152,309.848899 L-85.6419408,290.250512 L-125.807864,290.250512 L-134.530223,309.848899 L-145.513934,309.848899 L-110.624499,235.224275 L-100.502256,235.224275 L-65.2897706,309.848899 L-76.7042152,309.848899 Z M-105.671061,245.884935 L-122.146627,282.604988 L-89.0878109,282.604988 L-105.671061,245.884935 Z M-30.184969,263.329652 C-36.2152718,263.329652 -40.7738252,264.693629 -43.8607659,267.421623 C-46.9477067,270.149617 -48.4911539,274.708171 -48.4911539,281.09742 L-48.4911539,309.848899 L-58.7210807,309.848899 L-58.7210807,256.976329 L-48.9218876,256.976329 L-48.9218876,264.406487 C-47.3425226,262.109229 -44.8837753,260.099158 -41.545572,258.376214 C-38.2073686,256.653271 -34.4205389,255.791812 -30.184969,255.791812 C-28.9645506,255.791812 -27.7262034,255.8636 -26.4698903,256.007178 C-25.2135773,256.150757 -24.1547007,256.294334 -23.2932288,256.437912 L-23.2932288,264.083437 C-24.2982793,263.796279 -25.4289441,263.598862 -26.6852572,263.491178 C-27.9415703,263.383494 -29.1081292,263.329652 -30.184969,263.329652 Z M27.9640887,274.20568 C26.8154596,270.472635 24.7515476,267.654947 21.7722909,265.75253 C18.7930342,263.850113 15.1497809,262.898919 10.8424217,262.898919 C7.3965344,262.898919 4.4352694,263.455278 1.95853789,264.568012 C-0.518193615,265.680746 -2.54621146,267.1883 -4.12557648,269.090716 C-5.7049415,270.993133 -6.87150044,273.182675 -7.62528829,275.659406 C-8.37907614,278.136138 -8.75596441,280.738462 -8.75596441,283.466456 C-8.75596441,286.19445 -8.37907614,288.778827 -7.62528829,291.219663 C-6.87150044,293.6605 -5.7049415,295.814148 -4.12557648,297.68067 C-2.54621146,299.547192 -0.518193615,301.018851 1.95853789,302.095691 C4.4352694,303.172531 7.3965344,303.710943 10.8424217,303.710943 C16.3701993,303.710943 20.4980232,302.526437 23.2260173,300.157389 C25.9540115,297.788341 27.7128234,294.593765 28.5025059,290.573563 L39.4862168,290.573563 C38.409377,297.321759 35.3583767,302.418724 30.3331244,305.864611 C25.3078721,309.310499 18.8110361,311.033416 10.8424217,311.033416 C0.863706359,311.033416 -6.63816496,308.62851 -11.6634173,303.818626 C-16.6886696,299.008742 -19.2012581,292.188859 -19.2012581,283.358772 C-19.2012581,279.266781 -18.6090051,275.55174 -17.4244814,272.213536 C-16.2399576,268.875333 -14.4093574,265.985856 -11.9326259,263.545019 C-9.45589439,261.104182 -6.33310585,259.219741 -2.5641666,257.891639 C1.20477266,256.563536 5.67359074,255.899495 10.8424217,255.899495 C14.503677,255.899495 17.9136185,256.330224 21.0723485,257.191696 C24.2310786,258.053168 27.0487671,259.273568 29.5254986,260.852933 C32.0022301,262.432298 34.0661421,264.352634 35.7172964,266.613997 C37.3684508,268.875361 38.4811685,271.405896 39.0554831,274.20568 L27.9640887,274.20568 Z M60.3768042,235.224275 L60.3768042,263.86807 C62.4586945,261.499022 65.2404889,259.56074 68.7222709,258.053164 C72.2040528,256.545588 75.9190944,255.791812 79.8675069,255.791812 C83.8877088,255.791812 87.513015,256.150753 90.7435344,256.868646 C93.9740538,257.586539 96.719954,258.717204 98.9813176,260.260674 C101.242681,261.804145 102.965599,263.778321 104.150123,266.183264 C105.334646,268.588206 105.926899,271.477683 105.926899,274.851781 L105.926899,309.848899 L95.6969727,309.848899 L95.6969727,276.143982 C95.6969727,274.062092 95.2482961,272.213544 94.3509297,270.598285 C93.4535632,268.983025 92.1972689,267.601101 90.5820092,266.452472 C88.9667496,265.303843 87.0823082,264.442384 84.9286286,263.86807 C82.7749491,263.293755 80.4777253,263.006602 78.0368885,263.006602 C72.7962682,263.006602 68.5428148,264.29879 65.2764008,266.883206 C62.0099868,269.467621 60.3768042,273.021139 60.3768042,277.543867 L60.3768042,309.848899 L50.1468774,309.848899 L50.1468774,235.224275 L60.3768042,235.224275 Z M119.38733,309.848899 L119.38733,256.976329 L129.617256,256.976329 L129.617256,309.848899 L119.38733,309.848899 Z M119.064279,243.623583 L119.064279,234.039757 L130.04799,234.039757 L130.04799,243.623583 L119.064279,243.623583 Z M148.677225,263.975753 L138.770349,263.975753 L138.770349,256.976329 L148.677225,256.976329 L148.677225,241.469914 L158.907152,241.469914 L158.907152,256.976329 L174.521251,256.976329 L174.521251,263.975753 L158.907152,263.975753 L158.907152,295.850051 C158.907152,298.434467 159.535299,300.336855 160.791612,301.557274 C162.047925,302.777692 164.255414,303.387892 167.414144,303.387892 C168.060248,303.387892 168.796077,303.369945 169.621654,303.33405 C170.447232,303.298156 171.218955,303.244315 171.936848,303.172525 C172.726531,303.100736 173.552096,302.993054 174.413567,302.849475 L174.413567,309.848899 C173.695674,309.992477 172.87011,310.10016 171.936848,310.171949 L169.137079,310.387316 C168.203818,310.459105 167.342359,310.494999 166.552676,310.494999 L164.614374,310.494999 C159.230175,310.494999 155.227981,309.238705 152.607671,306.726079 C149.987361,304.213453 148.677225,300.839405 148.677225,296.603835 L148.677225,263.975753 Z M191.858285,278.513017 L229.332122,278.513017 C229.188543,276.431127 228.668079,274.439004 227.770712,272.536587 C226.873346,270.63417 225.670893,268.98304 224.163317,267.583148 C222.655741,266.183257 220.843088,265.070539 218.725303,264.244962 C216.607518,263.419384 214.220559,263.006602 211.564354,263.006602 C208.83636,263.006602 206.323772,263.419384 204.026514,264.244962 C201.729255,265.070539 199.701238,266.183257 197.942399,267.583148 C196.183561,268.98304 194.765743,270.616223 193.688903,272.482745 C192.612064,274.349267 192.001863,276.359338 191.858285,278.513017 Z M240.315833,292.296498 C238.592889,299.116483 235.272683,303.944242 230.355115,306.779921 C225.437546,309.615599 219.24581,311.033416 211.779721,311.033416 C206.467312,311.033416 201.908758,310.333481 198.103924,308.933589 C194.29909,307.533698 191.158355,305.613362 188.681623,303.172525 C186.204892,300.731688 184.374292,297.824265 183.189768,294.450167 C182.005244,291.076069 181.412991,287.414868 181.412991,283.466456 C181.412991,278.80015 182.130874,274.726167 183.56666,271.244385 C185.002446,267.762603 187.048411,264.891074 189.704616,262.62971 C192.360821,260.368347 195.537451,258.681323 199.2346,257.568588 C202.93175,256.455854 207.041627,255.899495 211.564354,255.899495 C215.871714,255.899495 219.766226,256.473801 223.248008,257.62243 C226.72979,258.771059 229.726949,260.47603 232.239575,262.737393 C234.752201,264.998757 236.690484,267.834393 238.054481,271.244385 C239.418478,274.654378 240.100466,278.656572 240.100466,283.251089 L240.100466,285.189391 L191.858285,285.189391 C192.001863,287.702017 192.486434,290.088976 193.312011,292.35034 C194.137588,294.611703 195.357989,296.603827 196.973248,298.326771 C198.588508,300.049714 200.616526,301.413691 203.057363,302.418741 C205.498199,303.423792 208.405623,303.926309 211.779721,303.926309 C216.374238,303.926309 220.161067,303.028956 223.140324,301.234223 C226.119581,299.43949 228.327069,296.460278 229.762856,292.296498 L240.315833,292.296498 Z M295.880488,274.20568 C294.731859,270.472635 292.667947,267.654947 289.68869,265.75253 C286.709434,263.850113 283.06618,262.898919 278.758821,262.898919 C275.312934,262.898919 272.351669,263.455278 269.874937,264.568012 C267.398206,265.680746 265.370188,267.1883 263.790823,269.090716 C262.211458,270.993133 261.044899,273.182675 260.291111,275.659406 C259.537323,278.136138 259.160435,280.738462 259.160435,283.466456 C259.160435,286.19445 259.537323,288.778827 260.291111,291.219663 C261.044899,293.6605 262.211458,295.814148 263.790823,297.68067 C265.370188,299.547192 267.398206,301.018851 269.874937,302.095691 C272.351669,303.172531 275.312934,303.710943 278.758821,303.710943 C284.286599,303.710943 288.414423,302.526437 291.142417,300.157389 C293.870411,297.788341 295.629223,294.593765 296.418905,290.573563 L307.402616,290.573563 C306.325776,297.321759 303.274776,302.418724 298.249524,305.864611 C293.224271,309.310499 286.727436,311.033416 278.758821,311.033416 C268.780106,311.033416 261.278234,308.62851 256.252982,303.818626 C251.22773,299.008742 248.715141,292.188859 248.715141,283.358772 C248.715141,279.266781 249.307394,275.55174 250.491918,272.213536 C251.676442,268.875333 253.507042,265.985856 255.983774,263.545019 C258.460505,261.104182 261.583294,259.219741 265.352233,257.891639 C269.121172,256.563536 273.58999,255.899495 278.758821,255.899495 C282.420076,255.899495 285.830018,256.330224 288.988748,257.191696 C292.147478,258.053168 294.965167,259.273568 297.441898,260.852933 C299.91863,262.432298 301.982541,264.352634 303.633696,266.613997 C305.28485,268.875361 306.397568,271.405896 306.971882,274.20568 L295.880488,274.20568 Z M323.555132,263.975753 L313.648256,263.975753 L313.648256,256.976329 L323.555132,256.976329 L323.555132,241.469914 L333.785059,241.469914 L333.785059,256.976329 L349.399158,256.976329 L349.399158,263.975753 L333.785059,263.975753 L333.785059,295.850051 C333.785059,298.434467 334.413206,300.336855 335.669519,301.557274 C336.925832,302.777692 339.133321,303.387892 342.292051,303.387892 C342.938155,303.387892 343.673984,303.369945 344.499561,303.33405 C345.325139,303.298156 346.096862,303.244315 346.814755,303.172525 C347.604438,303.100736 348.430003,302.993054 349.291475,302.849475 L349.291475,309.848899 C348.573581,309.992477 347.748017,310.10016 346.814755,310.171949 L344.014986,310.387316 C343.081725,310.459105 342.220266,310.494999 341.430583,310.494999 L339.492281,310.494999 C334.108083,310.494999 330.105888,309.238705 327.485578,306.726079 C324.865268,304.213453 323.555132,300.839405 323.555132,296.603835 L323.555132,263.975753 Z M404.640763,309.848899 L404.640763,302.634108 C402.558873,305.003156 399.70529,306.995279 396.079929,308.610539 C392.454569,310.225799 388.667739,311.033416 384.719326,311.033416 C380.699124,311.033416 377.073818,310.674475 373.843299,309.956582 C370.61278,309.238689 367.866879,308.108024 365.605516,306.564554 C363.344152,305.021083 361.621234,303.046907 360.436711,300.641964 C359.252187,298.237022 358.659934,295.347546 358.659934,291.973448 L358.659934,256.976329 L368.889861,256.976329 L368.889861,290.681246 C368.889861,292.763137 369.338537,294.611684 370.235904,296.226943 C371.13327,297.842203 372.389564,299.224127 374.004824,300.372756 C375.620084,301.521385 377.486578,302.382844 379.604363,302.957158 C381.722148,303.531473 384.037319,303.818626 386.549945,303.818626 C391.790565,303.818626 396.044018,302.526438 399.310433,299.942022 C402.576847,297.357607 404.210029,293.804089 404.210029,289.281362 L404.210029,256.976329 L414.439956,256.976329 L414.439956,309.848899 L404.640763,309.848899 Z M456.113447,263.329652 C450.083144,263.329652 445.524591,264.693629 442.43765,267.421623 C439.35071,270.149617 437.807262,274.708171 437.807262,281.09742 L437.807262,309.848899 L427.577336,309.848899 L427.577336,256.976329 L437.376529,256.976329 L437.376529,264.406487 C438.955894,262.109229 441.414641,260.099158 444.752844,258.376214 C448.091048,256.653271 451.877877,255.791812 456.113447,255.791812 C457.333866,255.791812 458.572213,255.8636 459.828526,256.007178 C461.084839,256.150757 462.143716,256.294334 463.005187,256.437912 L463.005187,264.083437 C462.000137,263.796279 460.869472,263.598862 459.613159,263.491178 C458.356846,263.383494 457.190287,263.329652 456.113447,263.329652 Z M477.542452,278.513017 L515.016289,278.513017 C514.87271,276.431127 514.352246,274.439004 513.454879,272.536587 C512.557513,270.63417 511.35506,268.98304 509.847484,267.583148 C508.339908,266.183257 506.527255,265.070539 504.40947,264.244962 C502.291685,263.419384 499.904726,263.006602 497.248521,263.006602 C494.520527,263.006602 492.007939,263.419384 489.710681,264.244962 C487.413422,265.070539 485.385405,266.183257 483.626566,267.583148 C481.867728,268.98304 480.44991,270.616223 479.37307,272.482745 C478.296231,274.349267 477.686031,276.359338 477.542452,278.513017 Z M526,292.296498 C524.277056,299.116483 520.95685,303.944242 516.039282,306.779921 C511.121713,309.615599 504.929978,311.033416 497.463888,311.033416 C492.151479,311.033416 487.592925,310.333481 483.788091,308.933589 C479.983257,307.533698 476.842522,305.613362 474.36579,303.172525 C471.889059,300.731688 470.058459,297.824265 468.873935,294.450167 C467.689411,291.076069 467.097158,287.414868 467.097158,283.466456 C467.097158,278.80015 467.815041,274.726167 469.250827,271.244385 C470.686613,267.762603 472.732578,264.891074 475.388783,262.62971 C478.044988,260.368347 481.221618,258.681323 484.918768,257.568588 C488.615917,256.455854 492.725794,255.899495 497.248521,255.899495 C501.555881,255.899495 505.450393,256.473801 508.932175,257.62243 C512.413957,258.771059 515.411116,260.47603 517.923742,262.737393 C520.436368,264.998757 522.374651,267.834393 523.738648,271.244385 C525.102645,274.654378 525.784633,278.656572 525.784633,283.251089 L525.784633,285.189391 L477.542452,285.189391 C477.686031,287.702017 478.170601,290.088976 478.996178,292.35034 C479.821755,294.611703 481.042156,296.603827 482.657415,298.326771 C484.272675,300.049714 486.300693,301.413691 488.74153,302.418741 C491.182367,303.423792 494.08979,303.926309 497.463888,303.926309 C502.058405,303.926309 505.845235,303.028956 508.824491,301.234223 C511.803748,299.43949 514.011236,296.460278 515.447023,292.296498 L526,292.296498 Z M-270.965141,439.069027 L-279.902867,419.470641 L-320.06879,419.470641 L-328.791149,439.069027 L-339.77486,439.069027 L-304.885425,364.444403 L-294.763182,364.444403 L-259.550697,439.069027 L-270.965141,439.069027 Z M-299.931987,375.105063 L-316.407553,411.825117 L-283.348737,411.825117 L-299.931987,375.105063 Z M-224.445895,392.549781 C-230.476198,392.549781 -235.034751,393.913757 -238.121692,396.641751 C-241.208633,399.369746 -242.75208,403.928299 -242.75208,410.317548 L-242.75208,439.069027 L-252.982007,439.069027 L-252.982007,386.196458 L-243.182814,386.196458 L-243.182814,393.626615 C-241.603449,391.329357 -239.144702,389.319286 -235.806498,387.596342 C-232.468295,385.873399 -228.681465,385.01194 -224.445895,385.01194 C-223.225477,385.01194 -221.98713,385.083728 -220.730817,385.227307 C-219.474504,385.370885 -218.415627,385.514462 -217.554155,385.658041 L-217.554155,393.303565 C-218.559206,393.016408 -219.68987,392.81899 -220.946183,392.711306 C-222.202497,392.603622 -223.369055,392.549781 -224.445895,392.549781 Z M-203.016891,407.733146 L-165.543053,407.733146 C-165.686632,405.651256 -166.207097,403.659132 -167.104463,401.756715 C-168.00183,399.854298 -169.204283,398.203168 -170.711859,396.803277 C-172.219434,395.403385 -174.032087,394.290667 -176.149872,393.46509 C-178.267657,392.639513 -180.654616,392.22673 -183.310821,392.22673 C-186.038815,392.22673 -188.551404,392.639513 -190.848662,393.46509 C-193.14592,394.290667 -195.173938,395.403385 -196.932776,396.803277 C-198.691615,398.203168 -200.109432,399.836351 -201.186272,401.702873 C-202.263112,403.569395 -202.873312,405.579466 -203.016891,407.733146 Z M-154.559343,421.516626 C-156.282286,428.336612 -159.602492,433.164371 -164.520061,436.000049 C-169.437629,438.835727 -175.629365,440.253545 -183.095454,440.253545 C-188.407864,440.253545 -192.966417,439.553609 -196.771251,438.153718 C-200.576085,436.753826 -203.716821,434.833491 -206.193552,432.392654 C-208.670284,429.951817 -210.500884,427.044393 -211.685408,423.670295 C-212.869931,420.296197 -213.462184,416.634997 -213.462184,412.686584 C-213.462184,408.020278 -212.744302,403.946296 -211.308516,400.464514 C-209.872729,396.982732 -207.826764,394.111202 -205.170559,391.849838 C-202.514355,389.588475 -199.337725,387.901451 -195.640575,386.788717 C-191.943425,385.675982 -187.833548,385.119623 -183.310821,385.119623 C-179.003462,385.119623 -175.10895,385.693929 -171.627168,386.842558 C-168.145386,387.991188 -165.148227,389.696158 -162.635601,391.957522 C-160.122974,394.218885 -158.184692,397.054521 -156.820695,400.464514 C-155.456698,403.874506 -154.774709,407.876701 -154.774709,412.471217 L-154.774709,414.409519 L-203.016891,414.409519 C-202.873312,416.922145 -202.388741,419.309104 -201.563164,421.570468 C-200.737587,423.831831 -199.517187,425.823955 -197.901927,427.546899 C-196.286668,429.269842 -194.25865,430.633819 -191.817813,431.63887 C-189.376976,432.64392 -186.469552,433.146438 -183.095454,433.146438 C-178.500938,433.146438 -174.714108,432.249085 -171.734851,430.454352 C-168.755595,428.659619 -166.548106,425.680407 -165.11232,421.516626 L-154.559343,421.516626 Z M-125.807864,439.069027 L-139.052927,439.069027 L-139.052927,427.977633 L-125.807864,427.977633 L-125.807864,439.069027 Z M-98.1332198,386.196458 L-98.1332198,393.088198 C-96.0513296,390.71915 -93.197747,388.780868 -89.5723863,387.273292 C-85.9470257,385.765716 -82.1601959,385.01194 -78.2117834,385.01194 C-74.1915815,385.01194 -70.5662753,385.370881 -67.3357559,386.088774 C-64.1052366,386.806668 -61.3593363,387.937332 -59.0979727,389.480803 C-56.8366092,391.024273 -55.1136914,392.99845 -53.9291676,395.403392 C-52.7446438,397.808334 -52.1523908,400.697811 -52.1523908,404.071909 L-52.1523908,439.069027 L-62.3823177,439.069027 L-62.3823177,405.36411 C-62.3823177,403.28222 -62.8309942,401.433673 -63.7283607,399.818413 C-64.6257272,398.203153 -65.8820214,396.82123 -67.4972811,395.672601 C-69.1125408,394.523971 -70.9969821,393.662513 -73.1506617,393.088198 C-75.3043413,392.513883 -77.601565,392.22673 -80.0424019,392.22673 C-85.2830222,392.22673 -89.5364755,393.518919 -92.8028895,396.103334 C-96.0693036,398.68775 -97.7024861,402.241268 -97.7024861,406.763995 L-97.7024861,439.069027 L-107.932413,439.069027 L-107.932413,386.196458 L-98.1332198,386.196458 Z M2.98153058,417.963073 L2.98153058,414.840253 L-16.4014887,415.37867 C-20.9960051,415.522249 -24.4777348,416.311919 -26.8467824,417.747706 C-29.2158299,419.183492 -30.4003359,421.408928 -30.4003359,424.424079 C-30.4003359,426.936705 -29.0722534,428.98267 -26.4160486,430.562035 C-23.7598438,432.1414 -20.3857964,432.931071 -16.2938052,432.931071 C-13.4222325,432.931071 -10.8019616,432.536236 -8.43291409,431.746553 C-6.06386656,430.956871 -4.03584872,429.880047 -2.34879972,428.51605 C-0.661750717,427.152053 0.648384705,425.572711 1.58164585,423.777978 C2.514907,421.983245 2.98153058,420.044963 2.98153058,417.963073 Z M4.16604842,439.069027 C4.02246978,438.638291 3.91478742,438.063985 3.8429981,437.346092 C3.62763014,436.197463 3.51994778,434.25918 3.51994778,431.531186 C1.79700412,433.900234 -0.823266724,435.928252 -4.34094336,437.615301 C-7.85862,439.30235 -12.0223381,440.145861 -16.8322224,440.145861 C-19.7755845,440.145861 -22.6650613,439.858708 -25.5007394,439.284394 C-28.3364175,438.710079 -30.8849001,437.794779 -33.1462636,436.538466 C-35.4076272,435.282153 -37.2382274,433.666918 -38.6381191,431.692711 C-40.0380108,429.718505 -40.7379462,427.295652 -40.7379462,424.424079 C-40.7379462,421.767874 -40.0200638,419.452703 -38.5842774,417.478497 C-37.148491,415.504291 -35.2999437,413.871108 -33.0385802,412.578901 C-30.7772166,411.286693 -28.228734,410.299605 -25.3930559,409.617606 C-22.5573778,408.935608 -19.7755834,408.558719 -17.0475893,408.48693 L2.87384714,407.948513 L2.87384714,403.425808 C2.87384714,399.333817 1.58165878,396.44434 -1.00275671,394.757291 C-3.5871722,393.070242 -7.21247844,392.22673 -11.8787842,392.22673 C-16.6886686,392.22673 -20.2242395,392.998454 -22.485603,394.541924 C-24.7469666,396.085395 -26.344255,398.400566 -27.2775161,401.487506 L-37.8304933,401.487506 C-37.758704,399.477405 -37.166451,397.485282 -36.0537165,395.511075 C-34.9409821,393.536869 -33.3077996,391.76011 -31.15412,390.180745 C-29.0004404,388.60138 -26.3263284,387.345086 -23.1317037,386.411825 C-19.937079,385.478564 -16.1861433,385.01194 -11.8787842,385.01194 C-7.14068912,385.01194 -3.19233579,385.532405 -0.0336057502,386.57335 C3.12512429,387.614295 5.65565983,389.085954 7.55807679,390.988371 C9.46049375,392.890788 10.8244703,395.188012 11.6500475,397.880111 C12.4756247,400.572211 12.8884071,403.533476 12.8884071,406.763995 L12.8884071,431.63887 C12.8884071,434.295074 12.9960894,436.197463 13.2114574,437.346092 C13.2832467,438.063985 13.3909291,438.638291 13.5345077,439.069027 L4.16604842,439.069027 Z M99.2505262,372.628344 L76.6370037,372.628344 L76.6370037,397.503219 L99.2505262,397.503219 C105.352618,397.503219 109.875278,396.569972 112.81864,394.70345 C115.762002,392.836927 117.233661,389.64235 117.233661,385.119623 C117.233661,380.955843 115.654319,377.833054 112.495589,375.751164 C109.336859,373.669274 104.921882,372.628344 99.2505262,372.628344 Z M101.834929,405.579477 L76.6370037,405.579477 L76.6370037,430.992769 L101.834929,430.992769 C107.721653,430.992769 112.208418,430.023628 115.295359,428.085316 C118.3823,426.147004 119.925747,422.880639 119.925747,418.286123 C119.925747,414.194132 118.274617,411.053396 114.972308,408.863822 C111.67,406.674248 107.290917,405.579477 101.834929,405.579477 Z M130.909458,418.286123 C130.909458,425.536844 128.360975,430.81328 123.263933,434.115589 C118.166892,437.417897 110.48555,439.069027 100.219677,439.069027 L65.9763431,439.069027 L65.9763431,364.444403 L96.1277064,364.444403 C106.752526,364.444403 114.738968,366.059638 120.087272,369.290158 C125.435576,372.520677 128.109688,377.797113 128.109688,385.119623 C128.109688,388.996247 127.140547,392.316453 125.202235,395.080342 C123.263924,397.84423 120.823123,399.908142 117.879761,401.272139 C121.541017,402.779715 124.592017,404.879521 127.032854,407.571621 C129.473691,410.26372 130.765879,413.835185 130.909458,418.286123 Z M153.415297,364.444403 L153.415297,439.069027 L143.18537,439.069027 L143.18537,364.444403 L153.415297,364.444403 Z M194.550371,385.119623 C199.719202,385.119623 204.18802,385.783665 207.956959,387.111767 C211.725898,388.439869 214.83074,390.324311 217.271577,392.765148 C219.712414,395.205984 221.525067,398.095461 222.70959,401.433665 C223.894114,404.771868 224.486367,408.486909 224.486367,412.578901 C224.486367,421.408987 221.973779,428.22887 216.948526,433.038754 C211.923274,437.848639 204.457297,440.253545 194.550371,440.253545 C184.571655,440.253545 177.069784,437.848639 172.044532,433.038754 C167.019279,428.22887 164.506691,421.408987 164.506691,412.578901 C164.506691,408.486909 165.098944,404.771868 166.283468,401.433665 C167.467992,398.095461 169.298592,395.205984 171.775323,392.765148 C174.252055,390.324311 177.374843,388.439869 181.143783,387.111767 C184.912722,385.783665 189.38154,385.119623 194.550371,385.119623 Z M194.550371,392.119047 C191.104484,392.119047 188.143219,392.675406 185.666487,393.78814 C183.189755,394.900875 181.161738,396.408428 179.582373,398.310845 C178.003008,400.213262 176.836449,402.402803 176.082661,404.879535 C175.328873,407.356266 174.951985,409.95859 174.951985,412.686584 C174.951985,415.414578 175.328873,417.998955 176.082661,420.439792 C176.836449,422.880629 178.003008,425.034276 179.582373,426.900798 C181.161738,428.76732 183.189755,430.238979 185.666487,431.315819 C188.143219,432.392659 191.104484,432.931071 194.550371,432.931071 C197.996258,432.931071 200.957523,432.392659 203.434255,431.315819 C205.910986,430.238979 207.921057,428.76732 209.464527,426.900798 C211.007998,425.034276 212.15661,422.880629 212.910397,420.439792 C213.664185,417.998955 214.041074,415.414578 214.041074,412.686584 C214.041074,409.95859 213.664185,407.356266 212.910397,404.879535 C212.15661,402.402803 211.007998,400.213262 209.464527,398.310845 C207.921057,396.408428 205.910986,394.900875 203.434255,393.78814 C200.957523,392.675406 197.996258,392.119047 194.550371,392.119047 Z M282.097008,440.038178 L282.097008,432.931071 C280.517643,434.510436 278.848566,435.784677 277.089728,436.753833 C275.330889,437.722989 273.607972,438.458818 271.920923,438.961344 C270.233874,439.463869 268.636585,439.786916 267.12901,439.930494 C265.621434,440.074073 264.36514,440.145861 263.360089,440.145861 C258.263048,440.145861 253.848071,439.463873 250.115026,438.099876 C246.381981,436.735879 243.295087,434.833491 240.85425,432.392654 C238.413413,429.951817 236.582813,427.026446 235.362395,423.616453 C234.141976,420.206461 233.531776,416.491419 233.531776,412.471217 C233.531776,403.78471 236.116153,397.054562 241.284984,392.280572 C246.453815,387.506582 253.81211,385.119623 263.360089,385.119623 C267.52387,385.119623 271.203017,385.711876 274.397642,386.8964 C277.592266,388.080924 280.230484,389.893577 282.312375,392.334414 L282.312375,386.196458 L292.326935,386.196458 L292.326935,440.361228 C292.326935,443.735326 291.644946,446.732485 290.280949,449.352795 C288.916952,451.973106 286.996617,454.198541 284.519885,456.029169 C282.043154,457.859796 279.117783,459.259667 275.743685,460.228823 C272.369587,461.197979 268.672492,461.682549 264.65229,461.682549 C255.750415,461.682549 248.984373,460.426255 244.353962,457.913629 C239.723551,455.401003 236.905862,451.057814 235.900812,444.883933 L246.561472,444.883933 C247.351155,447.899084 249.038179,450.250149 251.622594,451.937198 C254.20701,453.624247 258.083575,454.467759 263.252406,454.467759 C265.836821,454.467759 268.277621,454.162659 270.57488,453.55245 C272.872138,452.94224 274.882209,452.02694 276.605152,450.806522 C278.328096,449.586104 279.674126,448.07855 280.643281,446.283817 C281.612437,444.489084 282.097008,442.407225 282.097008,440.038178 Z M263.683139,392.119047 C260.45262,392.119047 257.616985,392.621565 255.176148,393.626615 C252.735311,394.631666 250.707293,396.049483 249.092033,397.880111 C247.476774,399.710739 246.256374,401.864386 245.430796,404.341117 C244.605219,406.817849 244.192437,409.563749 244.192437,412.578901 C244.192437,415.594052 244.605219,418.339952 245.430796,420.816684 C246.256374,423.293415 247.476774,425.429116 249.092033,427.223849 C250.707293,429.018581 252.753258,430.418452 255.229989,431.423503 C257.706721,432.428553 260.560304,432.931071 263.790823,432.931071 C267.164921,432.931071 270.036451,432.338818 272.405498,431.154294 C274.774546,429.96977 276.712828,428.426323 278.220404,426.523906 C279.72798,424.621489 280.82275,422.449895 281.504749,420.009058 C282.186747,417.568221 282.527742,415.091527 282.527742,412.578901 C282.527742,410.066274 282.186747,407.58958 281.504749,405.148743 C280.82275,402.707906 279.72798,400.518365 278.220404,398.580053 C276.712828,396.641742 274.756599,395.080348 272.351656,393.895824 C269.946714,392.7113 267.057237,392.119047 263.683139,392.119047 Z" id="The-New-Inquiry-Aeon" fill="#EBFFEB" mask="url(#mask-2)"></path>
            </g>
            <g id="Group">
                <mask id="mask-4" fill="white">
                    <use xlink:href="#path-3"></use>
                </mask>
                <use id="Rectangle" fill="#EBFFEB" xlink:href="#path-3"></use>
                <path d="M-29.29275,-10.839375 L-29.29275,-18.453375 L18.29475,-18.453375 L18.29475,-10.839375 L-1.50165,-10.839375 L-1.50165,48.645 L-9.49635,48.645 L-9.49635,-10.839375 L-29.29275,-10.839375 Z M35.902125,-23.212125 L43.992,-23.212125 L43.992,6.95835 C45.609975,2.865825 49.607325,-1.79775 58.26825,-1.79775 C74.733525,-1.79775 75.875625,11.431575 75.875625,17.332425 L75.875625,48.645 L67.78575,48.645 L67.78575,17.332425 C67.78575,11.52675 65.216025,5.81625 57.3165,5.81625 C47.4183,5.81625 43.992,13.906125 43.992,22.94775 L43.992,48.645 L35.902125,48.645 L35.902125,-23.212125 Z M101.001825,25.898175 C101.001825,32.6556 106.141275,41.697225 117.181575,41.697225 C123.463125,41.697225 128.983275,38.461275 132.409575,33.60735 L138.21525,37.224 C134.5986,43.981425 126.6039,49.120875 117.181575,49.120875 C102.81015,49.120875 93.29265,39.8889 93.29265,23.70915 C93.29265,8.005275 103.57155,-1.79775 117.562275,-1.79775 C130.98195,-1.79775 138.881475,8.2908 138.881475,21.6153 C138.881475,24.756075 138.500775,25.898175 138.500775,25.898175 L101.001825,25.898175 Z M101.572875,19.045575 L131.267475,19.045575 C131.267475,11.90745 126.03285,5.721075 117.0864,5.721075 C106.99785,5.721075 101.572875,13.43025 101.572875,19.045575 Z M252.42525,48.645 L224.348625,-2.7495 L223.87275,-2.7495 L223.87275,48.645 L215.782875,48.645 L215.782875,-18.453375 L223.87275,-18.453375 L251.949375,32.941125 L252.42525,32.941125 L252.42525,-18.453375 L260.515125,-18.453375 L260.515125,48.645 L252.42525,48.645 Z M283.737825,25.898175 C283.737825,32.6556 288.877275,41.697225 299.917575,41.697225 C306.199125,41.697225 311.719275,38.461275 315.145575,33.60735 L320.95125,37.224 C317.3346,43.981425 309.3399,49.120875 299.917575,49.120875 C285.54615,49.120875 276.02865,39.8889 276.02865,23.70915 C276.02865,8.005275 286.30755,-1.79775 300.298275,-1.79775 C313.71795,-1.79775 321.617475,8.2908 321.617475,21.6153 C321.617475,24.756075 321.236775,25.898175 321.236775,25.898175 L283.737825,25.898175 Z M284.308875,19.045575 L314.003475,19.045575 C314.003475,11.90745 308.76885,5.721075 299.8224,5.721075 C289.73385,5.721075 284.308875,13.43025 284.308875,19.045575 Z M334.0854,-1.321875 L342.0801,-1.321875 L347.885775,36.8433 L348.456825,36.8433 L356.5467,8.6715 L363.3993,8.6715 L371.489175,36.8433 L372.060225,36.8433 L377.8659,-1.321875 L385.8606,-1.321875 L377.4852,48.645 L369.1098,48.645 L360.258525,19.90215 L359.687475,19.90215 L350.8362,48.645 L342.4608,48.645 L334.0854,-1.321875 Z M460.8585,-11.791125 L460.8585,-18.453375 L502.7355,-18.453375 L502.7355,-11.791125 L485.9847,-11.791125 L485.9847,41.98275 L502.7355,41.98275 L502.7355,48.645 L460.8585,48.645 L460.8585,41.98275 L477.6093,41.98275 L477.6093,-11.791125 L460.8585,-11.791125 Z M523.198125,-1.321875 L530.33625,-1.321875 L531.288,6.95835 C532.905975,2.865825 536.80815,-1.79775 545.56425,-1.79775 C562.029525,-1.79775 563.171625,11.431575 563.171625,17.332425 L563.171625,48.645 L555.08175,48.645 L555.08175,17.332425 C555.08175,11.52675 552.512025,5.81625 544.6125,5.81625 C534.7143,5.81625 531.288,13.906125 531.288,22.94775 L531.288,48.645 L523.198125,48.645 L523.198125,-1.321875 Z M625.035375,67.68 L616.9455,67.68 L616.9455,41.506875 C613.995075,45.9801 609.236325,49.120875 601.7175,49.120875 C587.917125,49.120875 579.351375,39.413025 579.351375,23.70915 C579.351375,8.005275 587.6316,-1.79775 601.7175,-1.79775 C609.236325,-1.79775 613.995075,1.24785 616.9455,5.81625 L617.89725,-1.321875 L625.035375,-1.321875 L625.035375,67.68 Z M617.89725,23.70915 C617.89725,13.2399 612.18675,5.81625 603.145125,5.81625 C593.3421,5.81625 587.44125,12.764025 587.44125,23.70915 C587.44125,34.654275 593.3421,41.506875 603.145125,41.506875 C612.18675,41.506875 617.89725,34.1784 617.89725,23.70915 Z M684.995625,48.645 L677.8575,48.645 L676.90575,40.364775 C675.287775,44.4573 671.3856,49.120875 662.6295,49.120875 C646.164225,49.120875 645.022125,35.89155 645.022125,29.9907 L645.022125,-1.321875 L653.112,-1.321875 L653.112,29.9907 C653.112,35.796375 655.681725,41.506875 663.58125,41.506875 C673.47945,41.506875 676.90575,33.417 676.90575,24.375375 L676.90575,-1.321875 L684.995625,-1.321875 L684.995625,48.645 Z M703.840275,48.645 L703.840275,41.98275 L723.5415,41.98275 L723.5415,5.340375 L710.217,5.340375 L710.217,-1.321875 L731.1555,-1.321875 L731.1555,41.98275 L748.953225,41.98275 L748.953225,48.645 L703.840275,48.645 Z M718.02135,-18.263025 C718.02135,-22.450725 721.2573,-25.877025 725.445,-25.877025 C729.6327,-25.877025 733.059,-22.450725 733.059,-18.263025 C733.059,-14.075325 729.6327,-10.839375 725.445,-10.839375 C721.2573,-10.839375 718.02135,-14.075325 718.02135,-18.263025 Z M770.462775,-1.321875 L777.6009,-1.321875 L778.55265,10.099125 C781.122375,3.436875 787.213575,-1.9881 794.637225,-1.9881 C802.441575,-1.9881 808.723125,0.962325 812.05425,8.005275 L804.154725,11.812275 C803.1078,9.8136 801.01395,5.530725 794.637225,5.530725 C786.16665,5.530725 778.55265,13.6206 778.55265,26.659575 L778.55265,48.645 L770.462775,48.645 L770.462775,-1.321875 Z M822.809025,-1.321875 L831.565125,-1.321875 L847.269,38.93715 L862.972875,-1.321875 L871.728975,-1.321875 L849.1725,54.16515 C845.93655,62.15985 840.98745,67.68 829.280925,67.68 L826.52085,67.68 L826.52085,60.732225 L829.280925,60.732225 C836.323875,60.732225 840.321225,56.83005 842.12955,52.166475 L843.462,48.930525 L822.809025,-1.321875 Z M356.832225,178.7175 L348.1713,178.7175 L342.4608,160.63425 L316.5732,160.63425 L310.8627,178.7175 L302.201775,178.7175 L324.37755,111.619125 L334.65645,111.619125 L356.832225,178.7175 Z M329.517,119.3283 L318.952575,153.02025 L340.081425,153.02025 L329.517,119.3283 Z M375.105825,155.970675 C375.105825,162.7281 380.245275,171.769725 391.285575,171.769725 C397.567125,171.769725 403.087275,168.533775 406.513575,163.67985 L412.31925,167.2965 C408.7026,174.053925 400.7079,179.193375 391.285575,179.193375 C376.91415,179.193375 367.39665,169.9614 367.39665,153.78165 C367.39665,138.077775 377.67555,128.27475 391.666275,128.27475 C405.08595,128.27475 412.985475,138.3633 412.985475,151.6878 C412.985475,154.828575 412.604775,155.970675 412.604775,155.970675 L375.105825,155.970675 Z M375.676875,149.118075 L405.371475,149.118075 C405.371475,141.97995 400.13685,135.793575 391.1904,135.793575 C381.10185,135.793575 375.676875,143.50275 375.676875,149.118075 Z M427.54725,153.78165 C427.54725,138.077775 437.540625,128.27475 451.341,128.27475 C465.141375,128.27475 475.13475,138.077775 475.13475,153.78165 C475.13475,169.485525 465.141375,179.193375 451.341,179.193375 C437.540625,179.193375 427.54725,169.485525 427.54725,153.78165 Z M435.637125,153.78165 C435.637125,164.726775 442.01385,171.579375 451.341,171.579375 C460.66815,171.579375 467.044875,164.726775 467.044875,153.78165 C467.044875,142.836525 460.66815,135.88875 451.341,135.88875 C442.01385,135.88875 435.637125,142.836525 435.637125,153.78165 Z M492.742125,128.750625 L499.88025,128.750625 L500.832,137.03085 C502.449975,132.938325 506.35215,128.27475 515.10825,128.27475 C531.573525,128.27475 532.715625,141.504075 532.715625,147.404925 L532.715625,178.7175 L524.62575,178.7175 L524.62575,147.404925 C524.62575,141.59925 522.056025,135.88875 514.1565,135.88875 C504.2583,135.88875 500.832,143.978625 500.832,153.02025 L500.832,178.7175 L492.742125,178.7175 L492.742125,128.750625 Z M-191.946825,283.09275 L-202.035375,259.299 L-202.51125,259.299 L-202.51125,308.79 L-210.601125,308.79 L-210.601125,241.691625 L-202.51125,241.691625 L-188.520525,274.9077 L-187.949475,274.9077 L-173.95875,241.691625 L-165.868875,241.691625 L-165.868875,308.79 L-173.95875,308.79 L-173.95875,259.299 L-174.434625,259.299 L-184.523175,283.09275 L-191.946825,283.09275 Z M-148.927725,308.79 L-148.927725,302.12775 L-129.2265,302.12775 L-129.2265,265.485375 L-142.551,265.485375 L-142.551,258.823125 L-121.6125,258.823125 L-121.6125,302.12775 L-103.814775,302.12775 L-103.814775,308.79 L-148.927725,308.79 Z M-134.74665,241.881975 C-134.74665,237.694275 -131.5107,234.267975 -127.323,234.267975 C-123.1353,234.267975 -119.709,237.694275 -119.709,241.881975 C-119.709,246.069675 -123.1353,249.305625 -127.323,249.305625 C-131.5107,249.305625 -134.74665,246.069675 -134.74665,241.881975 Z M-70.313175,278.52435 L-62.318475,280.42785 C-49.6602,283.47345 -44.90145,286.51905 -44.90145,294.51375 C-44.90145,303.745725 -53.943075,309.265875 -66.411,309.265875 C-78.78375,309.265875 -86.39775,301.842225 -88.015725,299.177325 L-82.305225,294.51375 C-80.021025,297.55935 -74.025,301.651875 -66.411,301.651875 C-58.321125,301.651875 -52.89615,298.986975 -52.89615,294.51375 C-52.89615,290.8971 -56.32245,289.18395 -63.650925,287.4708 C-63.650925,287.4708 -68.028975,286.423875 -70.78905,285.852825 C-81.734175,282.997575 -85.731525,278.90505 -85.731525,272.43315 C-85.731525,264.43845 -79.259625,258.34725 -66.411,258.34725 C-57.46455,258.34725 -50.99265,262.439775 -48.5181,264.914325 L-53.27685,270.14895 C-55.656225,268.150275 -60.7005,265.866075 -66.411,265.866075 C-74.500875,265.866075 -77.736825,268.340625 -77.736825,272.43315 C-77.736825,275.2884 -74.4057,277.5726 -70.313175,278.52435 Z M-14.2551,267.388875 L-26.913375,267.388875 L-26.913375,260.726625 L-14.2551,260.726625 L-14.2551,257.58585 C-14.2551,244.4517 -7.7832,236.932875 4.7799,236.932875 C13.34565,236.932875 18.4851,242.1675 19.81755,243.595125 L15.344325,248.06835 C13.536,246.640725 10.395225,244.26135 4.7799,244.26135 C-2.64375,244.26135 -6.165225,248.82975 -6.165225,257.58585 L-6.165225,260.726625 L16.2009,260.726625 L16.2009,267.388875 L-6.165225,267.388875 L-6.165225,308.79 L-14.2551,308.79 L-14.2551,267.388875 Z M33.808275,308.79 L33.808275,302.12775 L53.5095,302.12775 L53.5095,265.485375 L40.185,265.485375 L40.185,258.823125 L61.1235,258.823125 L61.1235,302.12775 L78.921225,302.12775 L78.921225,308.79 L33.808275,308.79 Z M47.98935,241.881975 C47.98935,237.694275 51.2253,234.267975 55.413,234.267975 C59.6007,234.267975 63.027,237.694275 63.027,241.881975 C63.027,246.069675 59.6007,249.305625 55.413,249.305625 C51.2253,249.305625 47.98935,246.069675 47.98935,241.881975 Z M92.816775,258.823125 L104.237775,258.823125 L104.237775,244.546875 L112.32765,244.546875 L112.32765,258.823125 L133.26615,258.823125 L133.26615,265.485375 L112.32765,265.485375 L112.32765,288.6129 C112.32765,297.369 115.849125,301.9374 123.272775,301.9374 C129.173625,301.9374 132.12405,298.796625 134.2179,296.322075 L139.5477,299.84355 C136.69245,304.79265 129.935025,309.265875 123.272775,309.265875 C110.42415,309.265875 104.237775,302.032575 104.237775,288.6129 L104.237775,265.485375 L92.816775,265.485375 L92.816775,258.823125 Z M173.334825,278.52435 L181.329525,280.42785 C193.9878,283.47345 198.74655,286.51905 198.74655,294.51375 C198.74655,303.745725 189.704925,309.265875 177.237,309.265875 C164.86425,309.265875 157.25025,301.842225 155.632275,299.177325 L161.342775,294.51375 C163.626975,297.55935 169.623,301.651875 177.237,301.651875 C185.326875,301.651875 190.75185,298.986975 190.75185,294.51375 C190.75185,290.8971 187.32555,289.18395 179.997075,287.4708 C179.997075,287.4708 175.619025,286.423875 172.85895,285.852825 C161.913825,282.997575 157.916475,278.90505 157.916475,272.43315 C157.916475,264.43845 164.388375,258.34725 177.237,258.34725 C186.18345,258.34725 192.65535,262.439775 195.1299,264.914325 L190.37115,270.14895 C187.991775,268.150275 182.9475,265.866075 177.237,265.866075 C169.147125,265.866075 165.911175,268.340625 165.911175,272.43315 C165.911175,275.2884 169.2423,277.5726 173.334825,278.52435 Z M238.33935,245.9745 C233.5806,245.9745 230.820525,242.73855 230.820525,239.217075 C230.820525,235.790775 233.675775,232.2693 238.149,232.2693 C243.28845,232.2693 246.048525,236.64735 246.048525,242.73855 C246.048525,253.39815 237.3876,260.4411 232.24815,263.391525 L229.3929,258.9183 C233.1999,256.348575 237.57795,251.11395 238.33935,245.9745 Z M387.288225,308.79 L378.6273,308.79 L372.9168,290.70675 L347.0292,290.70675 L341.3187,308.79 L332.657775,308.79 L354.83355,241.691625 L365.11245,241.691625 L387.288225,308.79 Z M359.973,249.4008 L349.408575,283.09275 L370.537425,283.09275 L359.973,249.4008 Z M404.990775,258.823125 L412.1289,258.823125 L413.08065,270.244125 C415.650375,263.581875 421.741575,258.1569 429.165225,258.1569 C436.969575,258.1569 443.251125,261.107325 446.58225,268.150275 L438.682725,271.957275 C437.6358,269.9586 435.54195,265.675725 429.165225,265.675725 C420.69465,265.675725 413.08065,273.7656 413.08065,286.804575 L413.08065,308.79 L404.990775,308.79 L404.990775,258.823125 Z M467.52075,283.85415 C467.52075,294.799275 473.8023,301.651875 483.12945,301.651875 C490.1724,301.651875 493.5987,298.5111 496.739475,294.7041 L502.3548,298.32075 C499.88025,302.222925 493.693875,309.265875 483.12945,309.265875 C469.329075,309.265875 459.240525,299.558025 459.240525,283.85415 C459.240525,268.150275 469.329075,258.442425 483.12945,258.442425 C493.693875,258.442425 499.88025,265.485375 502.3548,269.38755 L496.739475,273.0042 C493.5987,269.1972 490.1724,266.056425 483.12945,266.056425 C473.8023,266.056425 467.52075,272.909025 467.52075,283.85415 Z M523.198125,236.932875 L531.288,236.932875 L531.288,267.10335 C532.905975,263.010825 536.903325,258.34725 545.56425,258.34725 C562.029525,258.34725 563.171625,271.576575 563.171625,277.477425 L563.171625,308.79 L555.08175,308.79 L555.08175,277.477425 C555.08175,271.67175 552.512025,265.96125 544.6125,265.96125 C534.7143,265.96125 531.288,274.051125 531.288,283.09275 L531.288,308.79 L523.198125,308.79 L523.198125,236.932875 Z M582.016275,308.79 L582.016275,302.12775 L601.7175,302.12775 L601.7175,265.485375 L588.393,265.485375 L588.393,258.823125 L609.3315,258.823125 L609.3315,302.12775 L627.129225,302.12775 L627.129225,308.79 L582.016275,308.79 Z M596.19735,241.881975 C596.19735,237.694275 599.4333,234.267975 603.621,234.267975 C607.8087,234.267975 611.235,237.694275 611.235,241.881975 C611.235,246.069675 607.8087,249.305625 603.621,249.305625 C599.4333,249.305625 596.19735,246.069675 596.19735,241.881975 Z M641.024775,258.823125 L652.445775,258.823125 L652.445775,244.546875 L660.53565,244.546875 L660.53565,258.823125 L681.47415,258.823125 L681.47415,265.485375 L660.53565,265.485375 L660.53565,288.6129 C660.53565,297.369 664.057125,301.9374 671.480775,301.9374 C677.381625,301.9374 680.33205,298.796625 682.4259,296.322075 L687.7557,299.84355 C684.90045,304.79265 678.143025,309.265875 671.480775,309.265875 C658.63215,309.265875 652.445775,302.032575 652.445775,288.6129 L652.445775,265.485375 L641.024775,265.485375 L641.024775,258.823125 Z M710.121825,286.043175 C710.121825,292.8006 715.261275,301.842225 726.301575,301.842225 C732.583125,301.842225 738.103275,298.606275 741.529575,293.75235 L747.33525,297.369 C743.7186,304.126425 735.7239,309.265875 726.301575,309.265875 C711.93015,309.265875 702.41265,300.0339 702.41265,283.85415 C702.41265,268.150275 712.69155,258.34725 726.682275,258.34725 C740.10195,258.34725 748.001475,268.4358 748.001475,281.7603 C748.001475,284.901075 747.620775,286.043175 747.620775,286.043175 L710.121825,286.043175 Z M710.692875,279.190575 L740.387475,279.190575 C740.387475,272.05245 735.15285,265.866075 726.2064,265.866075 C716.11785,265.866075 710.692875,273.57525 710.692875,279.190575 Z M772.08075,283.85415 C772.08075,294.799275 778.3623,301.651875 787.68945,301.651875 C794.7324,301.651875 798.1587,298.5111 801.299475,294.7041 L806.9148,298.32075 C804.44025,302.222925 798.253875,309.265875 787.68945,309.265875 C773.889075,309.265875 763.800525,299.558025 763.800525,283.85415 C763.800525,268.150275 773.889075,258.442425 787.68945,258.442425 C798.253875,258.442425 804.44025,265.485375 806.9148,269.38755 L801.299475,273.0042 C798.1587,269.1972 794.7324,266.056425 787.68945,266.056425 C778.3623,266.056425 772.08075,272.909025 772.08075,283.85415 Z M823.760775,258.823125 L835.181775,258.823125 L835.181775,244.546875 L843.27165,244.546875 L843.27165,258.823125 L864.21015,258.823125 L864.21015,265.485375 L843.27165,265.485375 L843.27165,288.6129 C843.27165,297.369 846.793125,301.9374 854.216775,301.9374 C860.117625,301.9374 863.06805,298.796625 865.1619,296.322075 L870.4917,299.84355 C867.63645,304.79265 860.879025,309.265875 854.216775,309.265875 C841.36815,309.265875 835.181775,302.032575 835.181775,288.6129 L835.181775,265.485375 L823.760775,265.485375 L823.760775,258.823125 Z M928.643625,308.79 L921.5055,308.79 L920.55375,300.509775 C918.935775,304.6023 915.0336,309.265875 906.2775,309.265875 C889.812225,309.265875 888.670125,296.03655 888.670125,290.1357 L888.670125,258.823125 L896.76,258.823125 L896.76,290.1357 C896.76,295.941375 899.329725,301.651875 907.22925,301.651875 C917.12745,301.651875 920.55375,293.562 920.55375,284.520375 L920.55375,258.823125 L928.643625,258.823125 L928.643625,308.79 Z M953.198775,258.823125 L960.3369,258.823125 L961.28865,270.244125 C963.858375,263.581875 969.949575,258.1569 977.373225,258.1569 C985.177575,258.1569 991.459125,261.107325 994.79025,268.150275 L986.890725,271.957275 C985.8438,269.9586 983.74995,265.675725 977.373225,265.675725 C968.90265,265.675725 961.28865,273.7656 961.28865,286.804575 L961.28865,308.79 L953.198775,308.79 L953.198775,258.823125 Z M1014.68182,286.043175 C1014.68182,292.8006 1019.82127,301.842225 1030.86157,301.842225 C1037.14312,301.842225 1042.66327,298.606275 1046.08957,293.75235 L1051.89525,297.369 C1048.2786,304.126425 1040.2839,309.265875 1030.86157,309.265875 C1016.49015,309.265875 1006.97265,300.0339 1006.97265,283.85415 C1006.97265,268.150275 1017.25155,258.34725 1031.24227,258.34725 C1044.66195,258.34725 1052.56147,268.4358 1052.56147,281.7603 C1052.56147,284.901075 1052.18077,286.043175 1052.18077,286.043175 L1014.68182,286.043175 Z M1015.25287,279.190575 L1044.94747,279.190575 C1044.94747,272.05245 1039.71285,265.866075 1030.7664,265.866075 C1020.67785,265.866075 1015.25287,273.57525 1015.25287,279.190575 Z M143.640225,438.8625 L134.9793,438.8625 L129.2688,420.77925 L103.3812,420.77925 L97.6707,438.8625 L89.009775,438.8625 L111.18555,371.764125 L121.46445,371.764125 L143.640225,438.8625 Z M116.325,379.4733 L105.760575,413.16525 L126.889425,413.16525 L116.325,379.4733 Z M161.342775,388.895625 L168.4809,388.895625 L169.43265,400.316625 C172.002375,393.654375 178.093575,388.2294 185.517225,388.2294 C193.321575,388.2294 199.603125,391.179825 202.93425,398.222775 L195.034725,402.029775 C193.9878,400.0311 191.89395,395.748225 185.517225,395.748225 C177.04665,395.748225 169.43265,403.8381 169.43265,416.877075 L169.43265,438.8625 L161.342775,438.8625 L161.342775,388.895625 Z M222.825825,416.115675 C222.825825,422.8731 227.965275,431.914725 239.005575,431.914725 C245.287125,431.914725 250.807275,428.678775 254.233575,423.82485 L260.03925,427.4415 C256.4226,434.198925 248.4279,439.338375 239.005575,439.338375 C224.63415,439.338375 215.11665,430.1064 215.11665,413.92665 C215.11665,398.222775 225.39555,388.41975 239.386275,388.41975 C252.80595,388.41975 260.705475,398.5083 260.705475,411.8328 C260.705475,414.973575 260.324775,416.115675 260.324775,416.115675 L222.825825,416.115675 Z M223.396875,409.263075 L253.091475,409.263075 C253.091475,402.12495 247.85685,395.938575 238.9104,395.938575 C228.82185,395.938575 223.396875,403.64775 223.396875,409.263075 Z M290.971125,431.2485 C290.971125,426.775275 294.587775,423.158625 299.061,423.158625 C303.534225,423.158625 307.150875,426.775275 307.150875,431.2485 C307.150875,435.721725 303.534225,439.338375 299.061,439.338375 C294.587775,439.338375 290.971125,435.721725 290.971125,431.2485 Z M340.462125,388.895625 L347.60025,388.895625 L348.552,397.17585 C350.169975,393.083325 354.07215,388.41975 362.82825,388.41975 C379.293525,388.41975 380.435625,401.649075 380.435625,407.549925 L380.435625,438.8625 L372.34575,438.8625 L372.34575,407.549925 C372.34575,401.74425 369.776025,396.03375 361.8765,396.03375 C351.9783,396.03375 348.552,404.123625 348.552,413.16525 L348.552,438.8625 L340.462125,438.8625 L340.462125,388.895625 Z M433.4481,408.311325 C432.972225,401.9346 430.116975,396.03375 420.69465,396.03375 C412.985475,396.03375 409.0833,399.84075 406.98945,401.5539 L402.325875,396.699975 C404.1342,394.796475 410.41575,388.41975 420.69465,388.41975 C437.921325,388.41975 441.157275,400.0311 441.157275,410.31 L441.157275,438.8625 L434.495025,438.8625 L433.543275,430.8678 C430.97355,435.531375 424.692,439.338375 417.8394,439.338375 C406.98945,439.338375 398.8044,433.437525 398.8044,423.158625 C398.8044,413.16525 405.561825,408.311325 415.1745,408.311325 L433.4481,408.311325 Z M433.543275,418.209525 L433.543275,415.06875 L415.1745,415.06875 C408.797775,415.06875 406.4184,418.6854 406.4184,423.158625 C406.4184,427.63185 410.41575,432.20025 417.8394,432.20025 C427.642425,432.20025 433.543275,425.72835 433.543275,418.209525 Z M521.7705,438.8625 L521.7705,371.764125 L540.329625,371.764125 C553.17825,371.764125 561.744,377.76015 561.744,389.847375 C561.744,395.65305 559.0791,399.935925 554.70105,402.600825 C562.219875,404.9802 566.50275,410.50035 566.50275,419.0661 C566.50275,431.534025 558.222525,438.8625 545.088375,438.8625 L521.7705,438.8625 Z M529.860375,379.378125 L529.860375,400.316625 L540.329625,400.316625 C549.37125,400.316625 553.654125,396.6048 553.654125,389.847375 C553.654125,382.8996 549.37125,379.378125 540.329625,379.378125 L529.860375,379.378125 Z M529.860375,406.978875 L529.860375,431.2485 L545.088375,431.2485 C554.32035,431.2485 558.412875,426.48975 558.412875,419.0661 C558.412875,411.927975 554.13,406.978875 545.088375,406.978875 L529.860375,406.978875 Z M599.62365,367.005375 L599.62365,418.11435 C599.62365,426.584925 602.574075,431.81955 610.28325,431.81955 C616.5648,431.81955 618.944175,429.249825 621.799425,425.823525 L627.03405,429.630525 C623.702925,435.24585 617.13585,439.338375 610.4736,439.338375 C599.24295,439.338375 591.533775,433.72305 591.533775,418.11435 L591.533775,373.667625 L578.68515,373.667625 L578.68515,367.005375 L599.62365,367.005375 Z M640.73925,413.92665 C640.73925,398.222775 650.732625,388.41975 664.533,388.41975 C678.333375,388.41975 688.32675,398.222775 688.32675,413.92665 C688.32675,429.630525 678.333375,439.338375 664.533,439.338375 C650.732625,439.338375 640.73925,429.630525 640.73925,413.92665 Z M648.829125,413.92665 C648.829125,424.871775 655.20585,431.724375 664.533,431.724375 C673.86015,431.724375 680.236875,424.871775 680.236875,413.92665 C680.236875,402.981525 673.86015,396.03375 664.533,396.03375 C655.20585,396.03375 648.829125,402.981525 648.829125,413.92665 Z M708.12315,404.5995 C708.12315,394.7013 716.213025,388.41975 725.920875,388.41975 C730.298925,388.41975 734.39145,389.7522 737.532225,392.0364 L744.67035,386.89695 L748.572525,392.22675 L742.00545,397.080675 C743.14755,399.2697 743.7186,401.74425 743.7186,404.5995 C743.7186,414.4977 735.628725,420.77925 725.920875,420.77925 C723.255975,420.77925 720.68625,420.303375 718.40205,419.4468 L717.25995,420.01785 C715.261275,421.064775 714.499875,422.30205 714.499875,424.110375 C714.499875,426.204225 716.11785,427.727025 718.497225,427.727025 L734.5818,427.727025 C744.67035,427.727025 749.8098,432.676125 749.8098,441.051525 C749.8098,451.23525 739.245375,457.992675 725.920875,457.992675 C711.073575,457.992675 703.269225,451.520775 703.269225,442.003275 C703.269225,436.5783 705.743775,433.056825 708.979725,430.8678 C707.74245,429.15465 707.1714,426.965625 707.1714,424.20555 C707.1714,420.113025 709.360425,417.067425 712.215675,415.354275 C709.64595,412.5942 708.12315,408.97755 708.12315,404.5995 Z M715.451625,404.5995 C715.451625,410.31 720.30555,413.641125 725.920875,413.641125 C731.5362,413.641125 736.390125,410.31 736.390125,404.5995 C736.390125,398.889 731.5362,395.557875 725.920875,395.557875 C720.30555,395.557875 715.451625,398.889 715.451625,404.5995 Z M717.25995,434.86515 C713.2626,434.86515 710.692875,437.91075 710.692875,442.003275 C710.692875,447.2379 717.25995,450.85455 725.920875,450.85455 C736.1046,450.85455 742.38615,446.0958 742.38615,440.95635 C742.38615,437.14935 739.9116,434.86515 734.5818,434.86515 L717.25995,434.86515 Z" id="The-New-Inquiry-Aeon" fill="#00FF00" mask="url(#mask-4)"></path>
            </g>
        </g>
    </g>
</svg>