<?xml version="1.0" encoding="UTF-8" standalone="no"?>
<svg height="100" width="100" viewBox="0 0 100 100"  version="1.1" xmlns="http://www.w3.org/2000/svg" xmlns:xlink="http://www.w3.org/1999/xlink">
  <path d="M50 100C22.386 100 0 77.614 0 50S22.386 0 50 0s50 22.386 50 50-22.386 50-50 50zM20 50.105C20 66.615 33.43 80 50 80s30-13.384 30-29.895c0-.14-60-.14-60 0zM35 41c5.523 0 10-4.477 10-10s-4.477-10-10-10-10 4.477-10 10 4.477 10 10 10zm30 0c5.523 0 10-4.477 10-10s-4.477-10-10-10-10 4.477-10 10 4.477 10 10 10z" fill="#000" fill-rule="evenodd" />
</svg>