<?xml version="1.0" standalone="no"?>
<!DOCTYPE svg PUBLIC "-//W3C//DTD SVG 1.1//EN" "http://www.w3.org/Graphics/SVG/1.1/DTD/svg11.dtd" >
<svg xmlns="http://www.w3.org/2000/svg">
<metadata></metadata>
<defs>
<font id="moderatregular" horiz-adv-x="1126" >
<font-face units-per-em="2048" ascent="1638" descent="-410" />
<missing-glyph horiz-adv-x="552" />
<glyph unicode="&#x31;&#x2044;&#x34;" horiz-adv-x="1636" d="M285 522v529h-183v114h113q34 0 56 22.5t22 57.5v66h135l2 -789h-145zM1411 1311l-1020 -1311h-166l1020 1311h166zM1413 287h121v-121h-121v-166h-131v166h-383v96l326 526h188v-501zM1067 287h215v319h-18z" />
<glyph unicode="&#x31;&#x2044;&#x32;" horiz-adv-x="1734" d="M285 522v529h-183v114h113q34 0 56 22.5t22 57.5v66h135l2 -789h-145zM1411 1311l-1020 -1311h-166l1020 1311h166zM1395 301q-92 -55 -132 -90t-40 -76h391v-135h-551v74q0 49 15 92t35.5 72.5t55.5 60t60 47t65 39.5q11 6 37.5 21.5t38.5 23t33 22t31.5 25t22.5 25 t17 29.5t5 32q0 44 -34.5 71.5t-90.5 27.5q-67 0 -106.5 -38.5t-39.5 -103.5h-143q0 46 16.5 92.5t49 88.5t89 68t128.5 26q116 0 194 -63.5t78 -164.5q0 -28 -7.5 -54t-16.5 -45.5t-30.5 -41.5t-34.5 -34.5t-43.5 -33t-44 -28.5t-48.5 -29z" />
<glyph unicode="&#x33;&#x2044;&#x34;" horiz-adv-x="1744" d="M530 938q58 -18 95 -67t37 -117q0 -100 -76.5 -169t-200.5 -69q-128 0 -205.5 73.5t-77.5 188.5h138q5 -58 42.5 -96.5t104.5 -38.5q63 0 98 33t35 84q0 53 -37.5 86t-115.5 33h-54v116h47q75 0 106.5 30t31.5 73t-30.5 66.5t-84.5 23.5t-85 -22t-36 -60h-135 q0 90 74 150.5t186 60.5q105 0 176.5 -55.5t71.5 -145.5q0 -112 -105 -166v-12zM1520 1311l-1020 -1311h-166l1020 1311h166zM1522 287h120v-121h-120v-166h-131v166h-383v96l325 526h189v-501zM1176 287h215v319h-19z" />
<glyph unicode="&#x31;&#x2044;&#x33;" horiz-adv-x="1724" d="M285 522v529h-183v114h113q34 0 56 22.5t22 57.5v66h135l2 -789h-145zM1411 1311l-1020 -1311h-166l1020 1311h166zM1491 416q58 -18 94.5 -67.5t36.5 -117.5q0 -100 -76 -168.5t-200 -68.5q-128 0 -205.5 73.5t-77.5 188.5h137q5 -58 43 -96.5t105 -38.5q63 0 98 33 t35 84q0 53 -38 85.5t-116 32.5h-53v117h47q75 0 106 29.5t31 72.5q0 44 -31 67.5t-84 23.5q-54 0 -84.5 -22t-35.5 -60h-136q0 90 74.5 150.5t186.5 60.5q105 0 176 -55.5t71 -145.5q0 -112 -104 -166v-12z" />
<glyph unicode="&#x32;&#x2044;&#x33;" horiz-adv-x="1904" d="M434 823q-92 -55 -132 -90t-40 -76h391v-135h-551v74q0 49 15 92t35.5 72.5t56 60t60.5 47t65 39.5q10 6 37 22t38.5 23t33 21.5t31.5 25t22 25t17 29.5t5 32q0 44 -34.5 71.5t-90.5 27.5q-67 0 -106 -38.5t-39 -103.5h-144q0 46 16.5 92.5t49 88.5t89 68t128.5 26 q116 0 194 -63t78 -164q0 -33 -8 -61.5t-27 -54t-35 -43.5t-48.5 -40.5t-50 -33.5t-56.5 -34zM1591 1311l-1020 -1311h-165l1019 1311h166zM1671 416q58 -18 94.5 -67.5t36.5 -117.5q0 -100 -76 -168.5t-200 -68.5q-128 0 -205.5 73.5t-77.5 188.5h137q5 -58 43 -96.5 t105 -38.5q63 0 98 33t35 84q0 53 -38 85.5t-116 32.5h-53v117h47q75 0 106 29.5t31 72.5q0 44 -30.5 67.5t-83.5 23.5q-54 0 -85 -22t-36 -60h-135q0 90 74 150.5t186 60.5q105 0 176.5 -55.5t71.5 -145.5q0 -112 -105 -166v-12z" />
<glyph unicode="&#x3c;&#x2014;" horiz-adv-x="1767" d="M1645 717v-162h-1274l413 -410l-118 -118l-584 583v54l584 583l118 -119l-415 -411h1276z" />
<glyph unicode="&#x2d;&#x3e;" horiz-adv-x="1767" d="M1102 1247l584 -583v-54l-584 -583l-119 118l414 410h-1274v162h1276l-416 411z" />
<glyph unicode="&#x3a;&#x29;" horiz-adv-x="1699" d="M1364 1231q103 -103 158 -235.5t55 -278.5t-55 -278.5t-158 -235.5t-236 -158t-278 -55q-146 0 -278.5 55t-235.5 158t-158 235.5t-55 278.5t55 278.5t158 235.5t235.5 158t278.5 55q145 0 278 -55t236 -158zM1323 244q95 95 146 217.5t51 255.5q0 135 -51 257.5 t-146 217.5t-217.5 146t-255.5 51q-135 0 -257.5 -51t-217.5 -146t-146 -217.5t-51 -257.5q0 -133 51 -255.5t146 -217.5t217.5 -146t257.5 -51q133 0 255.5 51t217.5 146zM594 784v195h-62v55h179v-55h-62v-195h-55zM1049 784v195h-62v55h178v-55h-59v-195h-57zM1210 596 l11 29l53 -19l-8 -26q-44 -133 -158 -218q-115 -83 -258 -83q-145 0 -260 83q-115 86 -156 218l-10 26l55 19l8 -29q36 -110 136 -188q104 -74 227 -74q121 0 225 74q98 76 135 188z" />
<glyph unicode="&#xfb01;" horiz-adv-x="1222" d="M969 1464q54 0 92.5 -38t38.5 -93q0 -54 -38.5 -92.5t-92.5 -38.5q-55 0 -94 38.5t-39 92.5q0 55 38.5 93t94.5 38zM1057 1024v-1024h-180v881h-451v-881h-172v881h-152v143h152v100q0 144 72 232t202 88q105 0 181 -66l-78 -127q-36 29 -82 29q-123 0 -123 -172v-84h631 z" />
<glyph unicode="&#xfb02;" horiz-adv-x="1239" d="M670 1444q82 0 154 -18t116 -43.5t76 -51t46 -43.5l13 -18v-1270h-178v1208q-18 28 -70.5 53t-152.5 25q-110 0 -179 -53.5t-69 -177.5v-31h246v-143h-246v-881h-172v881h-152v143h152v47q0 173 109 273t307 100zM901 1198v4v-4z" />
<glyph unicode="ffj" horiz-adv-x="1835" d="M1581 1464q54 0 92.5 -38t38.5 -93q0 -54 -38.5 -92.5t-92.5 -38.5q-55 0 -94 38.5t-39 92.5q0 55 38.5 93t94.5 38zM1665 1024v-1124q0 -142 -77.5 -231t-209.5 -89q-104 0 -180 66l78 125q37 -29 82 -29q58 0 93.5 41t35.5 133v965h-451v-881h-172v881h-192h-246v-881 h-172v881h-152v143h152v100q0 144 72 232t202 88q105 0 181 -66l-78 -127q-36 29 -82 29q-123 0 -123 -172v-84h287h151v100q0 143 72.5 231.5t202.5 88.5q104 0 180 -66l-78 -127q-36 29 -82 29q-123 0 -123 -172v-84h629z" />
<glyph unicode="fj" horiz-adv-x="1224" d="M971 1464q54 0 92.5 -38t38.5 -93q0 -54 -38.5 -92.5t-92.5 -38.5q-55 0 -94 38.5t-39 92.5q0 55 38.5 93t94.5 38zM1055 1024v-1124q0 -142 -77.5 -231t-209.5 -89q-104 0 -180 66l78 125q37 -29 82 -29q58 0 93.5 41t35.5 133v965h-451v-881h-172v881h-152v143h152v100 q0 144 72 232t202 88q105 0 181 -66l-78 -127q-36 29 -82 29q-123 0 -123 -172v-84h629z" />
<glyph horiz-adv-x="0" />
<glyph horiz-adv-x="682" />
<glyph unicode=" "  horiz-adv-x="552" />
<glyph unicode="&#x09;" horiz-adv-x="552" />
<glyph unicode="&#xa0;" horiz-adv-x="552" />
<glyph unicode="!" horiz-adv-x="532" d="M160 1434h215l-41 -1043h-133zM266 -10q-51 0 -87 36t-36 87q0 52 36 87.5t87 35.5t87 -35.5t36 -87.5q0 -51 -36 -87t-87 -36z" />
<glyph unicode="&#x22;" horiz-adv-x="819" d="M338 1239l-51 -276h-82l-51 276q-15 73 -15 82q0 54 28.5 86.5t78.5 32.5t78 -32.5t28 -86.5q0 -14 -14 -82zM666 1239l-52 -276h-82l-51 276q-14 68 -14 82q0 54 28 86.5t78 32.5t78.5 -32.5t28.5 -86.5q0 -14 -14 -82z" />
<glyph unicode="#" horiz-adv-x="1347" d="M1225 872h-207l-68 -340h189v-151h-219l-76 -381h-166l76 381h-283l-76 -381h-166l76 381h-192v151h223l67 340h-204v152h235l82 410h166l-82 -410h283l82 410h165l-81 -410h176v-152zM784 532l68 340h-283l-67 -340h282z" />
<glyph unicode="$" horiz-adv-x="1181" d="M1059 340q0 -152 -110.5 -243.5t-280.5 -104.5v-176h-154v182q-118 19 -208 78.5t-136.5 142t-46.5 174.5h184q0 -72 57.5 -132.5t149.5 -86.5v436q-67 27 -112.5 48.5t-95 54t-79 67t-48.5 83.5t-19 108q0 143 99.5 234.5t254.5 111.5v178h154v-180q163 -22 258.5 -126 t95.5 -226h-184q0 55 -45.5 106t-124.5 72v-400q63 -24 109.5 -44.5t103 -57t92.5 -76t61 -97.5t25 -126zM342 985q0 -63 46.5 -107.5t125.5 -78.5v346q-77 -12 -124.5 -54.5t-47.5 -105.5zM668 162q40 4 74 15t65 31.5t49 54.5t18 79q0 74 -49 119t-157 90v-389z" />
<glyph unicode="%" horiz-adv-x="1595" d="M430 707q-126 0 -216.5 90.5t-90.5 216.5t90.5 216.5t216.5 90.5q125 0 216 -90.5t91 -216.5t-91 -216.5t-216 -90.5zM1346 1311h-193l-913 -1311h192zM430 870q61 0 102 41t41 103t-40.5 102.5t-102.5 40.5t-102.5 -40.5t-40.5 -102.5t41 -103t102 -41zM1165 -10 q-126 0 -216.5 90.5t-90.5 216.5t90.5 216.5t216.5 90.5q125 0 216.5 -90.5t91.5 -216.5t-91.5 -216.5t-216.5 -90.5zM1165 154q62 0 103 41t41 102t-41 102t-103 41q-61 0 -102 -41t-41 -102t41 -102t102 -41z" />
<glyph unicode="&#x26;" horiz-adv-x="1398" d="M1296 0h-237l-148 164q-147 -174 -358 -174q-184 0 -307 110t-123 273q0 62 19 117t57 102.5t79 85t99 80.5q-78 86 -121 166.5t-43 173.5q0 91 40 168.5t124.5 127.5t197.5 50q88 0 158 -30.5t111 -80.5t62.5 -107t21.5 -116q0 -60 -22 -114t-65 -102t-89 -85.5 t-111 -81.5l244 -268l106 217h193l-176 -354zM571 1270q-76 0 -125 -49t-49 -117q0 -98 125 -246q118 78 152 109q69 64 69 135q0 67 -48 117.5t-124 50.5zM549 164q142 0 242 135l-297 332q-95 -65 -141 -120.5t-46 -129.5q0 -93 68.5 -155t173.5 -62z" />
<glyph unicode="'" horiz-adv-x="491" d="M338 1239l-51 -276h-82l-51 276q-15 73 -15 82q0 54 28.5 86.5t78.5 32.5t78 -32.5t28 -86.5q0 -14 -14 -82z" />
<glyph unicode="(" horiz-adv-x="671" d="M559 -233l-113 -113q-344 373 -344 981q0 610 344 983l113 -115q-140 -152 -212.5 -373.5t-72.5 -494.5q0 -272 73 -493.5t212 -374.5z" />
<glyph unicode=")" horiz-adv-x="671" d="M82 -233q139 153 212 374.5t73 493.5q0 273 -72.5 494.5t-212.5 373.5l113 115q344 -373 344 -983q0 -608 -344 -981z" />
<glyph unicode="*" horiz-adv-x="837" d="M735 999l-67 -114l-189 116l6 -223h-135l6 221l-188 -114l-66 114l197 107l-197 106l68 115l186 -117l-6 224h135l-6 -224l189 115l65 -115l-194 -104z" />
<glyph unicode="+" horiz-adv-x="1136" d="M1014 717v-156h-365v-368h-160v368h-366v156h366v366h160v-366h365z" />
<glyph unicode="," horiz-adv-x="491" d="M244 231q60 0 92.5 -44.5t32.5 -118.5q0 -56 -18.5 -109t-45 -89t-53.5 -64t-46 -41l-18 -13l-55 58q80 70 100 184q-46 3 -78 37.5t-32 81.5q0 51 34.5 84.5t86.5 33.5z" />
<glyph unicode="-" horiz-adv-x="983" d="M123 715h737v-156h-737v156z" />
<glyph unicode="." horiz-adv-x="491" d="M246 -10q-51 0 -87 36t-36 87q0 52 36 87.5t87 35.5t87 -35.5t36 -87.5q0 -51 -36 -87t-87 -36z" />
<glyph unicode="/" horiz-adv-x="1038" d="M977 1536l-733 -1638h-183l734 1638h182z" />
<glyph unicode="0" horiz-adv-x="1236" d="M621 -10q-214 0 -348 184.5t-134 482.5t133 482t346 184q214 0 352 -185t138 -483q0 -297 -136.5 -481t-350.5 -184zM618 166q97 0 169 66t108.5 175.5t36.5 245.5q0 213 -85 353.5t-229 140.5q-95 0 -164 -66.5t-103 -176.5t-34 -249q0 -140 34 -249.5t103 -174.5 t164 -65z" />
<glyph unicode="1" horiz-adv-x="739" d="M383 0v958h-250v146h150q50 0 81 32t31 83v92h168l2 -1311h-182z" />
<glyph unicode="2" horiz-adv-x="1167" d="M659 487q-66 -41 -102 -65t-81 -59t-67 -61.5t-37.5 -60.5t-15.5 -69h637v-172h-829v104q0 85 21.5 156.5t46 114.5t80 89.5t84.5 64.5t97 57q11 7 17 10q52 30 81.5 47.5t71.5 45.5t65 51.5t46.5 54t34 65t10.5 72.5q0 93 -59 154t-158 61q-61 0 -111 -25t-80 -63.5 t-46.5 -82.5t-16.5 -85h-182q0 71 25.5 143.5t75.5 138.5t137 108t196 42q176 0 290 -102.5t114 -278.5q0 -50 -11 -95.5t-26.5 -80t-44 -69.5t-51 -58t-61.5 -52t-61 -43t-63 -40q-6 -4 -9.5 -6t-8.5 -5t-9 -6z" />
<glyph unicode="3" horiz-adv-x="1124" d="M778 694q85 -34 139 -119t54 -192q0 -77 -30 -148t-84 -125.5t-137 -87t-181 -32.5q-190 0 -308 110t-118 267h174q7 -80 72 -144.5t178 -64.5q117 0 181 70t64 167q0 92 -61 157.5t-182 65.5h-68v154h59q94 0 154.5 53.5t60.5 139.5q0 80 -54 134t-150 54 q-83 0 -141.5 -40.5t-67.5 -108.5h-170q0 138 113 228.5t270 90.5q163 0 270 -95.5t107 -240.5q0 -87 -40.5 -158t-103.5 -110v-25z" />
<glyph unicode="4" horiz-adv-x="1187" d="M846 428h219v-162h-219v-266h-176v266h-578v125l477 922h277v-885zM303 428h367v690h-19z" />
<glyph unicode="5" horiz-adv-x="1153" d="M569 874q193 0 311.5 -119t118.5 -325q0 -208 -120.5 -324t-311.5 -116q-107 0 -193 38.5t-137 100t-77.5 131t-26.5 139.5h178q0 -41 18 -82.5t50 -77.5t83 -58.5t111 -22.5q111 0 180.5 73t69.5 201q0 123 -67.5 204t-204.5 81q-54 0 -99 -13t-73.5 -35t-45.5 -42 t-28 -41l-145 47l61 680h717v-172h-569l-37 -336q84 69 237 69z" />
<glyph unicode="6" d="M578 838q75 0 147.5 -30.5t130 -84t92.5 -135t35 -176.5q0 -127 -60.5 -224.5t-157.5 -147.5t-212 -50q-85 0 -162 29t-137 82.5t-95.5 135.5t-35.5 181q0 112 49 215q67 145 385 680h215l-321 -506q41 31 127 31zM553 158q110 0 180 70t70 184t-70.5 185t-179.5 71 t-179.5 -71t-70.5 -185t70.5 -184t179.5 -70z" />
<glyph unicode="7" horiz-adv-x="1034" d="M102 1313h830v-105q-111 -102 -192.5 -213.5t-132.5 -221t-83.5 -240.5t-47.5 -253.5t-21 -279.5h-183q7 221 42.5 410.5t92 327.5t122 237t141.5 166h-568v172z" />
<glyph unicode="8" horiz-adv-x="1191" d="M805 711q101 -30 167 -120.5t66 -215.5q0 -171 -122.5 -278t-321.5 -107q-198 0 -319 106.5t-121 276.5q0 128 67 217.5t166 120.5v16q-78 33 -126 107t-48 165q0 141 112.5 232.5t270.5 91.5t270.5 -91.5t112.5 -232.5q0 -91 -48 -165t-126 -107v-16zM596 1174 q-90 0 -148.5 -51.5t-58.5 -135.5q0 -88 62.5 -141t142.5 -53t144.5 53t64.5 141q0 84 -58.5 135.5t-148.5 51.5zM592 141q80 0 141.5 38t90 91t28.5 109q0 40 -16 80t-46.5 75.5t-81.5 57.5t-114 22q-64 0 -114.5 -22.5t-80 -58t-44.5 -76t-15 -80.5q0 -55 26 -107.5 t85.5 -90.5t140.5 -38z" />
<glyph unicode="9" horiz-adv-x="1085" d="M528 475q-75 0 -147.5 30.5t-130 84t-92.5 135t-35 176.5q0 127 60.5 224.5t157.5 147.5t212 50q85 0 162 -29t137 -82.5t95.5 -135.5t35.5 -181q0 -112 -49 -215q-67 -145 -385 -680h-215l321 506q-41 -31 -127 -31zM553 1155q-110 0 -180 -70t-70 -184t70.5 -185 t179.5 -71t179.5 71t70.5 185t-70.5 184t-179.5 70z" />
<glyph unicode=":" horiz-adv-x="491" d="M246 788q-51 0 -87 36t-36 87q0 52 36 87.5t87 35.5t87 -35.5t36 -87.5q0 -51 -36 -87t-87 -36zM246 -10q-51 0 -87 36t-36 87q0 52 36 87.5t87 35.5t87 -35.5t36 -87.5q0 -51 -36 -87t-87 -36z" />
<glyph unicode=";" horiz-adv-x="491" d="M246 788q-51 0 -87 36t-36 87q0 52 36 87.5t87 35.5t87 -35.5t36 -87.5q0 -51 -36 -87t-87 -36zM244 231q60 0 92.5 -44.5t32.5 -118.5q0 -56 -18.5 -109t-45 -89t-53.5 -64t-46 -41l-18 -13l-55 58q80 70 100 184q-46 3 -78 37.5t-32 81.5q0 51 34.5 84.5t86.5 33.5z " />
<glyph unicode="&#x3c;" d="M983 1239v-215l-629 -387v-37l629 -385v-215l-881 557v123z" />
<glyph unicode="=" horiz-adv-x="1218" d="M123 850h973v-156h-973v156zM123 522h973v-155h-973v155z" />
<glyph unicode="&#x3e;" d="M143 1239l881 -559v-123l-881 -557v215l629 385v37l-629 387v215z" />
<glyph unicode="?" horiz-adv-x="882" d="M305 526q0 61 14.5 114t33 88t51.5 69.5t54.5 51.5t57.5 42q30 21 50 38t40.5 41.5t30.5 54.5t10 67q0 35 -9.5 68t-30.5 66t-63.5 53.5t-101.5 20.5q-178 0 -206 -198h-168q0 45 10.5 90.5t38 93t68 84t106 59.5t147.5 23q182 0 279.5 -102.5t97.5 -259.5q0 -52 -12 -97 t-28 -75.5t-42 -59.5t-45 -44.5t-45 -33.5q-48 -34 -70 -52t-50 -50t-39 -69.5t-11 -86.5v-127h-168v131zM403 -10q-51 0 -86.5 36t-35.5 87q0 52 35.5 87.5t86.5 35.5t87 -35.5t36 -87.5q0 -51 -36 -87t-87 -36z" />
<glyph unicode="@" horiz-adv-x="2048" d="M1024 1444q141 0 272 -35t245.5 -107.5t199.5 -176t134 -250.5t50 -320q0 -141 -39.5 -257.5t-124.5 -191.5t-202 -75q-48 0 -98.5 13.5t-103.5 50.5t-81 93q-90 -157 -311 -157q-89 0 -168.5 34t-140.5 95.5t-96.5 155t-35.5 206.5q0 212 130 352t311 140 q171 0 268 -125h33l34 115h119v-676q0 -57 41 -97.5t103 -40.5q54 0 92 33t57 89.5t27 115.5t8 127q0 177 -57.5 319t-157 232t-229.5 138t-279 48q-141 0 -271 -54.5t-231 -152t-161 -245.5t-60 -322t60.5 -320t162 -241.5t233 -148t275.5 -52.5q101 0 208.5 26t195.5 75 l104 -107q-112 -70 -244.5 -107.5t-263.5 -37.5q-134 0 -265 39t-247 117t-204.5 186.5t-140.5 257.5t-52 319q0 141 36 268.5t98.5 227t148.5 180.5t186 134t210 81.5t222 28.5zM975 199q116 0 193 76.5t77 226.5q0 165 -77 254.5t-193 89.5q-100 0 -185 -91t-85 -233 q0 -79 24.5 -143t64.5 -102t86.5 -58t94.5 -20z" />
<glyph unicode="A" horiz-adv-x="1306" d="M1067 0l-121 375h-586l-120 -375h-199l483 1434h258l484 -1434h-199zM641 1241l-223 -692h471l-223 692h-25z" />
<glyph unicode="B" horiz-adv-x="1257" d="M895 745q102 -37 171 -129t69 -221q0 -169 -124.5 -282t-351.5 -113h-495v1434h452q196 0 323.5 -99t127.5 -264q0 -101 -48 -182t-124 -119v-25zM338 1266v-441h268q140 0 208.5 61t68.5 163q0 110 -75.5 163.5t-211.5 53.5h-258zM639 168q149 0 229 60.5t80 185.5 q0 126 -82.5 187t-226.5 61h-301v-494h301z" />
<glyph unicode="C" horiz-adv-x="1460" d="M1358 410q-66 -185 -226.5 -302.5t-359.5 -117.5q-130 0 -248.5 54t-207 148t-141 231t-52.5 294t52.5 294t141 231t206.5 148t247 54q196 0 358 -116t230 -304h-211q-51 113 -150.5 175.5t-226.5 62.5q-202 0 -327.5 -150.5t-125.5 -394.5t126 -394.5t329 -150.5 q128 0 226.5 63.5t148.5 174.5h211z" />
<glyph unicode="D" horiz-adv-x="1406" d="M618 1434q139 0 262 -53t212 -146t140.5 -227.5t51.5 -290.5t-51 -290.5t-139.5 -227.5t-211.5 -146t-264 -53h-454v1434h454zM618 180q221 0 344 147.5t123 389.5q0 241 -123.5 388.5t-343.5 147.5h-264v-1073h264z" />
<glyph unicode="E" horiz-adv-x="1251" d="M354 180h733v-180h-923v1255v179h903v-179h-713v-440h652v-178h-652v-457z" />
<glyph unicode="F" horiz-adv-x="1087" d="M1026 1260h-674v-447h572v-174h-572v-639h-188v1434h862v-174z" />
<glyph unicode="G" horiz-adv-x="1497" d="M766 573v168h588v-446v-295h-113l-37 133h-26q-162 -143 -390 -143q-190 0 -342 93.5t-237.5 260t-85.5 373.5q0 155 50.5 290.5t137.5 231t210 150.5t263 55q106 0 199.5 -32t156.5 -80t111 -107t72 -110t31 -91h-201q-16 41 -47 81.5t-77 79.5t-114 63t-145 24 q-205 0 -329 -157t-124 -398q0 -158 53.5 -282.5t159.5 -198.5t248 -74q121 0 228.5 51.5t167.5 138.5v221h-408z" />
<glyph unicode="H" horiz-adv-x="1392" d="M1038 1434h191v-1434h-191v635h-684v-635h-190v1434h190v-621h684v621z" />
<glyph unicode="I" horiz-adv-x="518" d="M354 1434v-1434h-190v1434h190z" />
<glyph unicode="J" horiz-adv-x="1161" d="M307 410q0 -116 77.5 -180t184.5 -64q106 0 171 72t65 233v963h192v-942q0 -129 -33.5 -227t-93 -157t-135.5 -88.5t-168 -29.5q-91 0 -171 28t-141 79.5t-96.5 132.5t-35.5 180h184z" />
<glyph unicode="K" horiz-adv-x="1282" d="M1200 0h-225l-508 649h-121v-649h-182v1434h182v-609h121l448 609h224l-508 -697z" />
<glyph unicode="L" horiz-adv-x="1210" d="M352 180h735v-180h-923v1434h188v-1254z" />
<glyph unicode="M" horiz-adv-x="1720" d="M1278 1434h278v-1434h-178v1161h-22l-383 -1059h-228l-380 1059h-23v-1161h-178v1434h278l406 -1125h24z" />
<glyph unicode="N" horiz-adv-x="1458" d="M1114 1434h180v-1434h-256l-673 1141h-23v-1141h-178v1434h229l697 -1168h24v1168z" />
<glyph unicode="O" horiz-adv-x="1646" d="M825 -10q-140 0 -268.5 55t-224 150.5t-152.5 231.5t-57 290t57 290.5t152.5 231.5t223.5 150t267 55t267.5 -55t224 -150t152.5 -231.5t57 -290.5t-56.5 -290t-152 -231.5t-223.5 -150.5t-267 -55zM825 170q223 0 364.5 154.5t141.5 392.5q0 237 -142.5 392t-365.5 155 q-222 0 -364 -155t-142 -392t142.5 -392t365.5 -155z" />
<glyph unicode="P" horiz-adv-x="1216" d="M659 1434q121 0 222.5 -47t167 -144.5t65.5 -228.5t-65 -233.5t-168 -155t-222 -52.5h-321v-573h-174v1434h495zM639 741q55 0 106.5 16.5t94.5 48.5t68.5 86t25.5 122q0 55 -17.5 99t-46 72t-67 46.5t-79.5 26.5t-85 8h-301v-525h301z" />
<glyph unicode="Q" horiz-adv-x="1646" d="M1403 -23l65 -96l25 -37q-114 -90 -283 -90q-157 0 -263.5 68t-143.5 172q-137 4 -261 60.5t-216.5 150.5t-147.5 227.5t-55 284.5q0 154 57 289.5t152.5 230t223.5 149t267 54.5t267.5 -54.5t224 -149t152.5 -230t57 -289.5q0 -261 -150.5 -452.5t-380.5 -250.5 q30 -42 89.5 -65t140.5 -23q59 0 104 12.5t61 25.5zM825 174q223 0 364.5 153t141.5 390t-142.5 390t-365.5 153q-222 0 -364 -153t-142 -390t142.5 -390t365.5 -153z" />
<glyph unicode="R" horiz-adv-x="1304" d="M1182 0h-207l-379 573h-258v-573h-174v1434h495q121 0 222.5 -47t167 -144.5t65.5 -228.5q0 -158 -89.5 -270t-229.5 -152zM338 1266v-525h301q55 0 106.5 16.5t94.5 48.5t68.5 86t25.5 122q0 55 -17.5 99t-46 72t-67 46.5t-79.5 26.5t-85 8h-301z" />
<glyph unicode="S" horiz-adv-x="1255" d="M1133 373q0 -119 -67 -207.5t-174 -132t-235 -43.5q-115 0 -216.5 37t-170 98.5t-108 141.5t-39.5 165h184q9 -118 112.5 -192t239.5 -74q50 0 97.5 11.5t90.5 34.5t69 64t26 95q0 38 -15.5 70.5t-38.5 56.5t-68 49.5t-85 44t-108 45.5q-184 74 -262 122 q-203 124 -203 310q0 110 63.5 197t169 133.5t230.5 46.5q106 0 196 -35.5t148 -92t90.5 -125.5t32.5 -138h-185q-10 89 -86 152t-203 63q-118 0 -192 -54.5t-74 -134.5q0 -31 12 -59.5t38 -53t49.5 -42.5t64 -37.5t63 -29.5t63.5 -27q15 -6 22 -9q182 -75 258 -121 q191 -117 209 -289q2 -19 2 -40z" />
<glyph unicode="T" horiz-adv-x="1089" d="M1028 1434v-179h-387v-1255h-192v1255h-388v179h967z" />
<glyph unicode="U" horiz-adv-x="1441" d="M1298 1434v-820q0 -129 -29.5 -233.5t-82 -176.5t-125.5 -120.5t-157.5 -71t-180.5 -22.5q-121 0 -224 36.5t-183.5 109.5t-126.5 195.5t-46 282.5v820h193v-799q0 -122 29.5 -213.5t83 -145.5t122 -80t152.5 -26q174 0 278.5 113t104.5 352v799h192z" />
<glyph unicode="V" horiz-adv-x="1388" d="M1108 1434h199l-459 -1434h-307l-459 1434h201l397 -1256h29z" />
<glyph unicode="W" horiz-adv-x="1949" d="M1663 1434h195l-353 -1434h-278l-240 1079h-24l-240 -1079h-279l-352 1434h195l288 -1223h25l248 1120h254l248 -1120h24z" />
<glyph unicode="X" horiz-adv-x="1353" d="M1049 0l-355 559h-32l-357 -559h-223l479 739l-450 695h215l333 -519h33l334 519h217l-450 -695l479 -739h-223z" />
<glyph unicode="Y" horiz-adv-x="1337" d="M1028 1434h227l-491 -715v-719h-191v719l-491 715h225l346 -521h29z" />
<glyph unicode="Z" horiz-adv-x="1230" d="M387 180h721v-180h-985v106l711 1149h-670v179h923v-105z" />
<glyph unicode="[" horiz-adv-x="657" d="M123 1583h350v-149h-190v-1631h211v-149h-371v1929z" />
<glyph unicode="\" horiz-adv-x="1099" d="M123 1536h182l733 -1638h-182z" />
<glyph unicode="]" horiz-adv-x="657" d="M514 1583v-1929h-371v149h211v1631h-190v149h350z" />
<glyph unicode="^" horiz-adv-x="1136" d="M819 737l-233 443h-33l-236 -443h-194l385 697h123l383 -697h-195z" />
<glyph unicode="_" horiz-adv-x="1136" d="M123 0h891v-156h-891v156z" />
<glyph unicode="`" horiz-adv-x="665" d="M383 1393l119 -256h-125l-213 256h219z" />
<glyph unicode="a" horiz-adv-x="1103" d="M911 262q0 -72 25.5 -99.5t85.5 -27.5v-135h-72q-141 0 -182 123q-100 -133 -299 -133q-154 0 -250 83t-96 216q0 59 19.5 107t54.5 81.5t80 59t99.5 42.5t109 28t112.5 19t106 14q31 3 46 5q-2 50 -14 89.5t-36 71.5t-66.5 49t-101.5 17q-37 0 -68 -7t-51.5 -18t-37 -25 t-25.5 -27.5t-14.5 -24.5t-7.5 -18l-2 -7h-176q7 54 35.5 104.5t76 92.5t119.5 67t158 25q171 0 271.5 -102.5t100.5 -315.5v-354zM293 283q0 -88 86 -123q84 -34 188 -1q111 36 157 127q22 45 24 97v106q-71 -7 -118.5 -13.5t-106 -17.5t-95 -25.5t-70 -35t-49.5 -49 t-16 -65.5z" />
<glyph unicode="b" horiz-adv-x="1243" d="M647 1034q97 0 183.5 -38.5t150.5 -106t101.5 -166t37.5 -211.5t-37.5 -211.5t-101.5 -166t-150.5 -106t-183.5 -38.5q-189 0 -297 141h-28l-39 -131h-119v1454h174v-580q110 160 309 160zM633 158q122 0 214.5 97.5t92.5 256.5t-92.5 256.5t-214.5 97.5 q-42 0 -82.5 -12.5t-79.5 -40t-68 -67.5t-47 -100.5t-18 -133.5t18 -133.5t47 -100.5t68 -67.5t79.5 -40t82.5 -12.5z" />
<glyph unicode="c" horiz-adv-x="1189" d="M1081 360q-35 -163 -169.5 -266.5t-297.5 -103.5q-128 0 -240 66.5t-181.5 187.5t-69.5 268t69.5 268t181.5 187.5t240 66.5q166 0 306 -109t167 -276h-184q-33 99 -110 158t-179 59q-137 0 -224 -101t-87 -253t87 -253t224 -101q99 0 174 54.5t111 147.5h182z" />
<glyph unicode="d" horiz-adv-x="1247" d="M905 1454h174v-1454h-118l-39 131h-33q-106 -141 -293 -141q-198 0 -335.5 149t-137.5 373t137.5 373t335.5 149q196 0 309 -164v584zM303 512q0 -159 92.5 -256.5t214.5 -97.5q42 0 82.5 12.5t79.5 40t68 67.5t47 100.5t18 133.5t-18 133.5t-47 100.5t-68 67.5t-79.5 40 t-82.5 12.5q-122 0 -214.5 -97.5t-92.5 -256.5z" />
<glyph unicode="e" horiz-adv-x="1198" d="M608 1034q95 0 180 -35.5t152 -103t103.5 -179t29.5 -251.5h-774q12 -143 95.5 -226t215.5 -83q172 0 252 131h189q-58 -137 -178.5 -217t-262.5 -80q-96 0 -184.5 38.5t-155.5 106.5t-107 168.5t-40 216.5t40 213.5t107 162.5t154.5 101.5t183.5 36.5zM606 883 q-114 0 -194 -72.5t-105 -196.5h580q-19 121 -93.5 195t-187.5 74z" />
<glyph unicode="f" horiz-adv-x="808" d="M631 1251q-36 29 -82 29q-123 0 -123 -172v-84h246v-143h-246v-881h-172v881h-152v143h152v100q0 144 72 232t202 88q105 0 181 -66z" />
<glyph unicode="g" horiz-adv-x="1153" d="M702 199q162 0 242 -78t80 -203q0 -110 -62.5 -188.5t-160 -114t-219.5 -35.5q-112 0 -202 32.5t-145 87.5t-77.5 128.5t-7.5 155.5l155 108q-137 50 -137 172q0 128 129 193q-86 95 -86 231q0 148 105.5 248t273.5 100q122 0 215 -55q45 21 83 52t53 52l15 21l105 -145 q-58 -41 -154 -74q62 -91 62 -199q0 -150 -104.5 -250t-274.5 -100q-99 0 -182 39q-66 -36 -66 -92q0 -41 47 -63.5t168 -22.5h145zM592 889q-93 0 -150 -58t-57 -145q0 -86 56 -143.5t149 -57.5q94 0 149.5 58t55.5 145q0 86 -55 143.5t-148 57.5zM582 -258q108 0 188 48 t80 132q0 29 -10 51.5t-29.5 35.5t-39.5 22t-50 13t-49.5 5t-48.5 2q-118 4 -172 10l-138 -129q-11 -85 71.5 -137.5t197.5 -52.5z" />
<glyph unicode="h" horiz-adv-x="1187" d="M649 1034q186 0 285.5 -129.5t99.5 -349.5v-555h-180v494q0 78 -8.5 138.5t-31.5 120.5t-72 93t-121 33q-118 0 -197.5 -81.5t-79.5 -213.5v-584h-180v1454h180v-539h21q105 119 284 119z" />
<glyph unicode="i" horiz-adv-x="550" d="M297 1202q-55 0 -94 38.5t-39 92.5q0 55 38.5 93t94.5 38q54 0 92.5 -38t38.5 -93q0 -54 -38.5 -92.5t-92.5 -38.5zM385 1024v-1024h-180v1024h180z" />
<glyph unicode="j" horiz-adv-x="657" d="M403 1202q-55 0 -94 38.5t-39 92.5q0 55 38.5 93t94.5 38q54 0 93 -38t39 -93q0 -54 -39 -92.5t-93 -38.5zM309 1024h178v-1124q0 -142 -77.5 -231t-208.5 -89q-105 0 -181 66l78 125q37 -29 82 -29q58 0 93.5 41t35.5 133v1108z" />
<glyph unicode="k" horiz-adv-x="1124" d="M1022 1024l-408 -438l408 -586h-201l-327 459l-154 -166v-293h-176v1454h176v-885h33l430 455h219z" />
<glyph unicode="l" horiz-adv-x="505" d="M164 1454h178v-1454h-178v1454z" />
<glyph unicode="m" horiz-adv-x="1746" d="M1243 1034q173 0 266 -130.5t93 -348.5v-555h-181v494q0 67 -3.5 117.5t-16 103.5t-34 87t-58.5 55.5t-88 21.5q-101 0 -172.5 -75.5t-75.5 -205.5v-598h-180v494q0 55 -3 98t-10 89.5t-21.5 80t-36 61.5t-54.5 42t-76 14q-104 0 -176 -79.5t-72 -215.5v-584h-180v1024 h119l34 -115h29q108 125 262 125q172 0 287 -164h35q119 164 313 164z" />
<glyph unicode="n" horiz-adv-x="1179" d="M645 1034q190 0 289.5 -129.5t99.5 -349.5v-555h-180v494q0 78 -8.5 138.5t-31.5 120.5t-72 93t-121 33q-118 0 -197.5 -81.5t-79.5 -213.5v-584h-180v1024h119l36 -117h25q110 127 301 127z" />
<glyph unicode="o" horiz-adv-x="1228" d="M614 -10q-128 0 -240 66.5t-181.5 187.5t-69.5 268t69.5 268t181.5 187.5t240 66.5q95 0 184.5 -39.5t157.5 -107.5t109 -166t41 -209t-40.5 -209t-108.5 -166t-157.5 -107.5t-185.5 -39.5zM614 158q138 0 225 100.5t87 253.5q0 152 -87.5 253t-224.5 101t-224 -101 t-87 -253t87 -253t224 -101z" />
<glyph unicode="p" horiz-adv-x="1243" d="M647 1034q198 0 335.5 -149t137.5 -373t-137.5 -373t-335.5 -149q-196 0 -309 164v-564h-174v1434h119l39 -129h32q109 139 293 139zM633 158q122 0 214.5 97.5t92.5 256.5t-92.5 256.5t-214.5 97.5q-42 0 -82.5 -12.5t-79.5 -40t-68 -67.5t-47 -100.5t-18 -133.5 t18 -133.5t47 -100.5t68 -67.5t79.5 -40t82.5 -12.5z" />
<glyph unicode="q" horiz-adv-x="1243" d="M961 1024h118v-1434h-174v560q-110 -160 -309 -160q-97 0 -183.5 38.5t-150.5 106t-101.5 166t-37.5 211.5t37.5 211.5t101.5 166t150.5 106t183.5 38.5q182 0 295 -139h31zM610 158q42 0 82.5 12.5t79.5 40t68 67.5t47 100.5t18 133.5t-18 133.5t-47 100.5t-68 67.5 t-79.5 40t-82.5 12.5q-122 0 -214.5 -97.5t-92.5 -256.5t92.5 -256.5t214.5 -97.5z" />
<glyph unicode="r" horiz-adv-x="790" d="M625 1034h63v-176q-40 8 -84 8q-51 0 -96 -15t-82.5 -45t-59.5 -82t-22 -120v-604h-180v1024h119l34 -115h29q108 125 279 125z" />
<glyph unicode="s" horiz-adv-x="1030" d="M887 293q0 -139 -100 -221t-255 -82q-173 0 -281 98.5t-108 241.5h166q0 -90 65 -141.5t156 -51.5q78 0 132.5 38.5t54.5 109.5q0 30 -12 54.5t-29.5 40.5t-48.5 30.5t-56.5 23t-66.5 19.5q-38 10 -62.5 17.5t-63 22t-63.5 28.5t-54 37.5t-46.5 49.5t-29 62.5t-11.5 79.5 q0 132 96 208t242 76q162 0 258 -88.5t96 -202.5h-166q0 59 -54 102.5t-134 43.5q-72 0 -120 -37.5t-48 -99.5q0 -27 11.5 -49.5t28.5 -37.5t45 -28.5t52 -21t60 -17.5q43 -11 69 -18.5t67 -22.5t66.5 -29.5t56 -38.5t47 -50.5t28.5 -64t12 -81.5z" />
<glyph unicode="t" horiz-adv-x="890" d="M690 180l78 -125q-75 -65 -180 -65q-132 0 -209.5 88.5t-77.5 230.5v563h-178v134h63q60 0 99 39t39 102v184h151v-307h248v-150h-246v-548q0 -92 36.5 -133t94.5 -41q46 0 82 28z" />
<glyph unicode="u" horiz-adv-x="1185" d="M842 1024h180v-1024h-119l-33 109h-26q-105 -119 -287 -119q-193 0 -293 129t-100 350v555h180v-494q0 -62 5.5 -113t21.5 -103.5t42.5 -88t72 -58t106.5 -22.5q120 0 185 84t65 252v543z" />
<glyph unicode="v" horiz-adv-x="1179" d="M868 1024h189l-332 -1024h-270l-332 1024h188l267 -877h24z" />
<glyph unicode="w" horiz-adv-x="1622" d="M1321 1024h178l-244 -1024h-270l-162 696h-24l-162 -696h-270l-244 1024h178l191 -862h24l182 780h226l184 -780h22z" />
<glyph unicode="x" horiz-adv-x="1202" d="M860 0l-244 387h-28l-246 -387h-211l348 532l-317 492h205l223 -348h24l222 348h204l-317 -492l348 -532h-211z" />
<glyph unicode="y" horiz-adv-x="1208" d="M922 1024h184l-377 -1063q-46 -138 -73 -190q-94 -182 -272 -191h-19q-69 0 -128.5 21t-82.5 49l79 125q55 -39 123 -39q38 0 65 11.5t47.5 42t29 49.5t26.5 67q3 7 4 10l31 84h-84l-373 1024h187l309 -848h23z" />
<glyph unicode="z" horiz-adv-x="1064" d="M377 154h545v-154h-779v94l525 776h-504v154h737v-94z" />
<glyph unicode="{" horiz-adv-x="692" d="M403 858q0 -165 -127 -227v-25q127 -62 127 -227v-492q0 -51 29.5 -80.5t83.5 -29.5h23v-123h-60q-106 0 -167.5 65t-61.5 177v483q0 184 -148 184v111q148 0 148 184v483q0 112 61.5 177t167.5 65h60v-123h-23q-54 0 -83.5 -29.5t-29.5 -80.5v-492z" />
<glyph unicode="|" horiz-adv-x="495" d="M332 1577v-1864h-168v1864h168z" />
<glyph unicode="}" horiz-adv-x="671" d="M422 858q0 -89 34 -136.5t113 -47.5v-111q-79 0 -113 -47.5t-34 -136.5v-483q0 -112 -61.5 -177t-167.5 -65h-60v123h23q54 0 83 29.5t29 80.5v492q0 165 127 227v25q-127 62 -127 227v492q0 52 -29 81t-83 29h-23v123h60q106 0 167.5 -65t61.5 -177v-483z" />
<glyph unicode="~" horiz-adv-x="1343" d="M1221 672q-5 -11 -14 -29t-44 -62t-77.5 -74.5t-116 -48t-156.5 -1.5q-65 12 -128.5 43.5t-117 59t-98.5 32.5q-38 4 -71.5 -6t-55 -27t-37 -34.5t-22.5 -30.5l-7 -13l-153 62q5 11 14.5 28.5t45 60t78.5 73t115.5 49t153.5 4.5q67 -11 130 -42.5t115.5 -59.5t98.5 -33 q38 -4 71.5 6t55 27t37 34.5t22.5 29.5l7 13z" />
<glyph unicode="&#xa1;" horiz-adv-x="532" d="M266 1034q51 0 87 -36t36 -87q0 -52 -36 -87.5t-87 -35.5t-87 35.5t-36 87.5q0 51 36 87t87 36zM373 -410h-215l41 1043h133z" />
<glyph unicode="&#xa2;" horiz-adv-x="1210" d="M690 305q73 18 129 71t86 128h176q-30 -143 -139.5 -242t-251.5 -123v-141h-153v141q-173 30 -293.5 174t-120.5 342t120.5 342t293.5 174v140h153v-140q146 -24 259.5 -127.5t137.5 -250.5h-178q-27 80 -84 136.5t-135 76.5v-701zM295 655q0 -129 66.5 -225.5 t175.5 -124.5v701q-109 -28 -175.5 -125t-66.5 -226z" />
<glyph unicode="&#xa3;" horiz-adv-x="1165" d="M438 195v-27h611v-168h-924v166q5 0 13.5 1.5t34 8.5t48 18t50.5 33.5t48 51.5t34 74.5t14 101.5q0 53 -27 112h-217v162h129q-45 99 -45 203q0 84 27.5 152.5t71 111.5t101 72t114.5 41t114 12q72 0 135 -18t105 -46.5t76.5 -63t54.5 -69t33.5 -63t18.5 -46.5l5 -18 l-156 -43q-2 8 -7.5 22t-27 49.5t-49.5 62.5t-78 49t-110 22q-105 0 -177.5 -59t-72.5 -158q0 -81 70 -213h432v-162h-361q17 -56 17 -102q0 -153 -105 -270z" />
<glyph unicode="&#xa4;" horiz-adv-x="1269" d="M1079 512q0 -140 -82 -256l150 -147l-109 -109l-147 147q-115 -79 -256 -79q-140 0 -256 79l-150 -147l-106 109l147 147q-82 116 -82 256t82 256l-147 147l106 109l150 -147q112 79 256 79q141 0 256 -79l147 147l109 -109l-150 -147q82 -116 82 -256zM360 512 q0 -111 80 -192.5t195 -81.5q114 0 194 82t80 192t-80 192t-194 82q-115 0 -195 -81.5t-80 -192.5z" />
<glyph unicode="&#xa5;" horiz-adv-x="1243" d="M1141 1311l-350 -467h213v-146h-295v-127h295v-145h-295v-426h-174l-3 426h-292v145h292v127h-292v146h209l-347 467h209l293 -414h33l293 414h211z" />
<glyph unicode="&#xa6;" horiz-adv-x="495" d="M164 1577h168v-727h-168v727zM164 -287v727h168v-727h-168z" />
<glyph unicode="&#xa7;" d="M778 211q83 -32 136 -107t53 -176t-56.5 -179.5t-147 -118.5t-198.5 -40q-94 0 -172.5 33t-128 86t-77 117t-27.5 129h176q0 -72 67 -133.5t164 -61.5q91 0 156 55t65 138q0 23 -6 43t-15 36t-24 30t-29 24t-34 19t-34.5 14.5t-35.5 11.5t-32.5 8.5t-29.5 6t-22 4.5 q-55 12 -108 32t-107.5 54t-95.5 76.5t-66.5 103.5t-25.5 131q0 115 62 198.5t161 118.5q-84 34 -136 104.5t-52 170.5q0 101 56 179.5t146.5 118.5t198.5 40q94 0 172.5 -33t128.5 -86t77.5 -117t27.5 -129h-177q0 72 -67 133.5t-164 61.5q-90 0 -155.5 -54.5t-65.5 -138.5 q0 -31 10.5 -58t26 -45t41 -33.5t46 -24.5t51 -17t47 -11t42.5 -7q75 -13 143 -42t128.5 -75t96.5 -118t36 -159q0 -118 -62.5 -197.5t-163.5 -115.5zM580 309q99 0 170 60.5t71 152.5q0 99 -84.5 167.5t-191.5 68.5q-99 0 -170.5 -60.5t-71.5 -150.5q0 -100 85 -169 t192 -69z" />
<glyph unicode="&#xa8;" horiz-adv-x="901" d="M276 1128q-46 0 -79 33.5t-33 79.5q0 47 33 80t79 33t79.5 -33t33.5 -80q0 -46 -33.5 -79.5t-79.5 -33.5zM625 1128q-46 0 -79.5 33.5t-33.5 79.5q0 47 33.5 80t79.5 33t79 -33t33 -80q0 -46 -33 -79.5t-79 -33.5z" />
<glyph unicode="&#xa9;" horiz-adv-x="1699" d="M850 -10q-197 0 -364.5 97.5t-265 265t-97.5 364.5t97.5 364.5t265 265t364.5 97.5q196 0 363.5 -97.5t265.5 -265t98 -364.5t-98 -364.5t-265.5 -265t-363.5 -97.5zM850 141q155 0 287.5 77.5t210 210t77.5 288.5t-77.5 288.5t-210 209.5t-287.5 77q-156 0 -288.5 -77 t-210 -209.5t-77.5 -288.5t77.5 -288.5t210 -210t288.5 -77.5zM1198 604q-26 -122 -125.5 -199t-220.5 -77q-148 0 -258.5 112t-110.5 277t110.5 277t256.5 112q123 0 227 -81.5t125 -205.5h-151q-27 64 -82 99.5t-119 35.5q-93 0 -154 -72t-61 -165q0 -94 61 -166t160 -72 q66 0 118 33t73 92h151z" />
<glyph unicode="&#xab;" horiz-adv-x="1220" d="M453 199l-330 413l330 414h204l-333 -414l333 -413h-204zM893 199l-330 413l330 414h205l-334 -414l334 -413h-205z" />
<glyph unicode="&#xac;" horiz-adv-x="1220" d="M1098 367h-156l-2 327h-817v156h973v-55z" />
<glyph unicode="&#xad;" horiz-adv-x="983" d="M123 715h737v-156h-737v156z" />
<glyph unicode="&#xae;" horiz-adv-x="1699" d="M850 -10q-197 0 -364.5 97.5t-265 265t-97.5 364.5t97.5 364.5t265 265t364.5 97.5q196 0 363.5 -97.5t265.5 -265t98 -364.5t-98 -364.5t-265.5 -265t-363.5 -97.5zM850 141q155 0 287.5 77.5t210 210t77.5 288.5t-77.5 288.5t-210 209.5t-287.5 77q-156 0 -288.5 -77.5 t-210 -210t-77.5 -287.5q0 -156 77.5 -288.5t210 -210t288.5 -77.5zM985 348l-168 270h-76v-270h-141v737h274q101 0 174.5 -61t73.5 -166q0 -82 -44 -140.5t-115 -84.5l174 -285h-152zM741 760h119q49 0 81 24.5t32 67.5q0 41 -27 68.5t-76 27.5h-129v-188z" />
<glyph unicode="&#xaf;" horiz-adv-x="1003" d="M164 1331h676v-143h-676v143z" />
<glyph unicode="&#xb0;" horiz-adv-x="729" d="M365 834q-100 0 -171 70.5t-71 170.5t71 171t171 71q99 0 170 -71.5t71 -170.5t-71 -170t-170 -71zM365 973q43 0 72.5 29.5t29.5 72.5t-29.5 73t-72.5 30t-73 -30t-30 -73t30 -72.5t73 -29.5z" />
<glyph unicode="&#xb1;" horiz-adv-x="1095" d="M629 795h344v-156h-342v-354h-164v354h-344v156h344v348h162v-348zM123 0v156h850v-156h-850z" />
<glyph unicode="&#xb2;" horiz-adv-x="741" d="M424 991q-92 -52 -118 -74q-43 -38 -44 -81h371v-136h-531v74q0 60 20 110.5t55.5 86.5t69 59t77.5 45q18 9 50 23t49.5 22.5t37 22t28.5 30.5t9 39q0 46 -32.5 73.5t-86.5 27.5q-56 0 -91.5 -39t-35.5 -103h-143q0 46 16 92t47 86t83 65.5t116 25.5q112 0 190 -61 t78 -156q0 -36 -11 -66.5t-25.5 -50.5t-40 -39t-44.5 -28.5t-49.5 -24.5t-44.5 -23z" />
<glyph unicode="&#xb3;" horiz-adv-x="743" d="M520 1081q57 -18 89 -63.5t32 -102.5q0 -98 -71.5 -161.5t-196.5 -63.5t-198 73.5t-73 188.5h138q5 -60 38.5 -97.5t100.5 -37.5q60 0 90.5 28t30.5 79q0 40 -34.5 69t-109.5 29h-53v117h47q127 0 127 98q0 30 -30 54t-72 24q-54 0 -81 -24t-32 -58h-129q0 89 70 148 t172 59q98 0 168.5 -55t70.5 -130q0 -110 -94 -161v-13z" />
<glyph unicode="&#xb4;" horiz-adv-x="665" d="M283 1393h219l-213 -256h-125z" />
<glyph unicode="&#xb5;" horiz-adv-x="1185" d="M842 1024h180v-1024h-119l-37 117h-24q-110 -127 -295 -127q-131 0 -217 65v-465h-166v1434h180v-494q0 -385 225 -385q111 0 192 80t81 215v584z" />
<glyph unicode="&#xb6;" horiz-adv-x="1308" d="M123 1049q0 117 60.5 207.5t158.5 134.5q93 43 205 43h639v-148h-164v-1696h-150v1696h-172v-1696h-153v1072q-173 0 -291 100q-62 46 -97.5 121.5t-35.5 165.5z" />
<glyph unicode="&#xb7;" horiz-adv-x="491" d="M246 514q-51 0 -87 36t-36 87q0 52 36 87.5t87 35.5t87 -35.5t36 -87.5q0 -51 -36 -87t-87 -36z" />
<glyph unicode="&#xb8;" horiz-adv-x="761" d="M317 10h134l-62 -92q76 16 142.5 -27t66.5 -127q0 -78 -61 -131t-156 -53q-45 0 -83.5 13t-62 31t-40.5 36.5t-24 31.5l-7 13l98 55q4 -7 12.5 -17.5t38.5 -28t66 -17.5q42 0 65 19.5t23 47.5q0 27 -22.5 46.5t-65.5 19.5q-22 0 -43.5 -5t-31.5 -10l-11 -5l-57 73z" />
<glyph unicode="&#xb9;" horiz-adv-x="522" d="M274 696v478h-182v116h113q34 0 56 23t22 61v60h135l2 -738h-146z" />
<glyph unicode="&#xbb;" horiz-adv-x="1220" d="M328 199h-205l334 413l-334 414h205l329 -414zM768 199h-205l334 413l-334 414h205l330 -414z" />
<glyph unicode="&#xbf;" horiz-adv-x="882" d="M479 1034q51 0 87 -36t36 -87q0 -52 -36 -87.5t-87 -35.5t-87 35.5t-36 87.5q0 51 36 87t87 36zM578 498q0 -61 -14.5 -114t-33 -88t-51.5 -69.5t-54.5 -51.5t-57.5 -42q-30 -21 -50 -38t-40.5 -41.5t-30.5 -54.5t-10 -67q0 -35 9 -68t30 -66t63.5 -53.5t101.5 -20.5 q179 0 207 198h168q0 -45 -11 -90.5t-38 -93t-68 -84t-106.5 -59.5t-147.5 -23q-182 0 -279 102.5t-97 259.5q0 52 12 97t28 75.5t42 59.5t45 44.5t45 33.5q48 34 70 52t50 50t39 69.5t11 86.5v127h168v-131z" />
<glyph unicode="&#xc0;" horiz-adv-x="1306" d="M801 1546h-150l-256 256h262zM1067 0l-121 375h-586l-120 -375h-199l483 1434h258l484 -1434h-199zM641 1241l-223 -692h471l-223 692h-25z" />
<glyph unicode="&#xc1;" horiz-adv-x="1306" d="M930 1802l-256 -256h-150l144 256h262zM1067 0l-121 375h-586l-120 -375h-199l483 1434h258l484 -1434h-199zM641 1241l-223 -692h471l-223 692h-25z" />
<glyph unicode="&#xc2;" horiz-adv-x="1306" d="M635 1731l-121 -185h-182l223 316h186l224 -316h-183l-120 185h-27zM1067 0l-121 375h-586l-120 -375h-199l483 1434h258l484 -1434h-199zM641 1241l-223 -692h471l-223 692h-25z" />
<glyph unicode="&#xc3;" horiz-adv-x="1306" d="M522 1620q-24 3 -45.5 -4t-35 -19t-23.5 -24.5t-14 -21.5l-5 -9l-118 51q4 9 11 24t33.5 52.5t56.5 64t79 44t102 8.5q49 -9 116.5 -51t100.5 -47q24 -3 46 4t35.5 19.5t24 25t14.5 21.5l5 9l119 -53q-4 -9 -10.5 -24.5t-32 -52.5t-55 -63.5t-79 -43.5t-104.5 -6 q-51 9 -119.5 50.5t-101.5 45.5zM1067 0l-121 375h-586l-120 -375h-199l483 1434h258l484 -1434h-199zM641 1241l-223 -692h471l-223 692h-25z" />
<glyph unicode="&#xc4;" horiz-adv-x="1306" d="M408 1534q-52 0 -89.5 37t-37.5 90t37 89t90 36t88.5 -35.5t35.5 -89.5q0 -53 -36 -90t-88 -37zM899 1534q-53 0 -90 37t-37 90t37 89t90 36t89 -35.5t36 -89.5q0 -53 -36.5 -90t-88.5 -37zM1067 0l-121 375h-586l-120 -375h-199l483 1434h258l484 -1434h-199zM641 1241 l-223 -692h471l-223 692h-25z" />
<glyph unicode="&#xc5;" horiz-adv-x="1306" d="M1067 0l-121 375h-586l-120 -375h-199l463 1370q-68 62 -68 154q0 88 63.5 151.5t153.5 63.5q88 0 151.5 -63.5t63.5 -151.5q0 -90 -65 -152l463 -1372h-199zM653 1612q-37 0 -61.5 -26t-24.5 -62t24.5 -62t61.5 -26q35 0 59.5 26t24.5 62t-24.5 62t-59.5 26zM641 1241 l-223 -692h471l-223 692h-25z" />
<glyph unicode="&#xc6;" horiz-adv-x="2121" d="M1225 180h733v-180h-924v375h-542l-238 -375h-213l907 1434h217h772v-179h-712v-440h651v-178h-651v-457zM602 549h432v639h-24z" />
<glyph unicode="&#xc7;" horiz-adv-x="1460" d="M772 172q128 0 226.5 63.5t148.5 174.5h211q-61 -170 -204 -285t-325 -133l-38 -58q80 18 150.5 -27t70.5 -134q0 -81 -65 -137t-165 -56q-47 0 -87.5 13.5t-65 33t-42.5 38.5t-25 33l-7 13l102 58l5 -7.5t14 -15.5t24 -20t34.5 -16t45.5 -7q45 0 68.5 20t23.5 50 q0 29 -23 49t-69 20q-23 0 -45.5 -5.5t-33.5 -10.5l-11 -6l-59 78l63 96q-118 15 -222 75t-181.5 152.5t-122.5 221.5t-45 274q0 157 52.5 294t141 231t206.5 148t247 54q196 0 358 -116t230 -304h-211q-51 113 -150.5 175.5t-226.5 62.5q-202 0 -327.5 -150.5 t-125.5 -394.5t126 -394.5t329 -150.5z" />
<glyph unicode="&#xc8;" horiz-adv-x="1251" d="M598 1802l143 -256h-149l-256 256h262zM354 180h733v-180h-923v1255v179h903v-179h-713v-440h652v-178h-652v-457z" />
<glyph unicode="&#xc9;" horiz-adv-x="1251" d="M637 1802h262l-256 -256h-149zM354 180h733v-180h-923v1255v179h903v-179h-713v-440h652v-178h-652v-457z" />
<glyph unicode="&#xca;" horiz-adv-x="1251" d="M604 1731l-121 -185h-182l223 316h187l223 -316h-182l-121 185h-27zM354 180h733v-180h-923v1255v179h903v-179h-713v-440h652v-178h-652v-457z" />
<glyph unicode="&#xcb;" horiz-adv-x="1251" d="M375 1534q-53 0 -90 37t-37 90t37 89t90 36t89 -35.5t36 -89.5q0 -53 -36.5 -90t-88.5 -37zM866 1534q-52 0 -89.5 37t-37.5 90t37 89t90 36t89 -35.5t36 -89.5q0 -53 -36.5 -90t-88.5 -37zM354 180h733v-180h-923v1255v179h903v-179h-713v-440h652v-178h-652v-457z" />
<glyph unicode="&#xcc;" horiz-adv-x="518" d="M246 1802l143 -256h-149l-256 256h262zM354 1434v-1434h-190v1434h190z" />
<glyph unicode="&#xcd;" horiz-adv-x="518" d="M274 1802h263l-256 -256h-150zM354 1434v-1434h-190v1434h190z" />
<glyph unicode="&#xce;" horiz-adv-x="518" d="M348 1862l223 -316h-182l-121 185h-26l-121 -185h-182l223 316h186zM164 0v1434h190v-1434h-190z" />
<glyph unicode="&#xcf;" horiz-adv-x="518" d="M57 1534q-53 0 -90 37t-37 90t37 89t90 36t89 -35.5t36 -89.5q0 -53 -36.5 -90t-88.5 -37zM467 1534q-53 0 -90 37t-37 90t37 89t90 36t89 -35.5t36 -89.5q0 -53 -36.5 -90t-88.5 -37zM354 1434v-1434h-190v1434h190z" />
<glyph unicode="&#xd0;" horiz-adv-x="1529" d="M741 1434q139 0 262 -53t212 -146t140.5 -227.5t51.5 -290.5t-51 -290.5t-139.5 -227.5t-211.5 -146t-264 -53h-454v668h-205v155h205v611h454zM741 180q221 0 344 147.5t123 389.5q0 241 -123.5 388.5t-343.5 147.5h-264v-430h363v-155h-363v-488h264z" />
<glyph unicode="&#xd1;" horiz-adv-x="1458" d="M598 1620q-24 3 -45.5 -4t-35 -19t-23.5 -24.5t-14 -21.5l-5 -9l-119 51q2 5 5.5 13t17 30.5t29 43t40.5 44t52 39t63.5 23t75.5 0.5q49 -9 116.5 -51t100.5 -47q24 -3 46 4t35.5 19.5t24 25t14.5 21.5l5 9l119 -53q-4 -9 -10.5 -24.5t-32 -52.5t-55 -63.5t-79 -43.5 t-104.5 -6q-51 9 -119.5 50.5t-101.5 45.5zM1114 1434h180v-1434h-256l-673 1141h-23v-1141h-178v1434h229l697 -1168h24v1168z" />
<glyph unicode="&#xd2;" horiz-adv-x="1646" d="M846 1802l143 -256h-149l-256 256h262zM825 -10q-140 0 -268.5 55t-224 150.5t-152.5 231.5t-57 290t57 290.5t152.5 231.5t223.5 150t267 55t267.5 -55t224 -150t152.5 -231.5t57 -290.5t-56.5 -290t-152 -231.5t-223.5 -150.5t-267 -55zM825 170q223 0 364.5 154.5 t141.5 392.5q0 237 -142.5 392t-365.5 155q-222 0 -364 -155t-142 -392t142.5 -392t365.5 -155z" />
<glyph unicode="&#xd3;" horiz-adv-x="1646" d="M860 1802h262l-256 -256h-149zM825 -10q-140 0 -268.5 55t-224 150.5t-152.5 231.5t-57 290t57 290.5t152.5 231.5t223.5 150t267 55t267.5 -55t224 -150t152.5 -231.5t57 -290.5t-56.5 -290t-152 -231.5t-223.5 -150.5t-267 -55zM825 170q223 0 364.5 154.5t141.5 392.5 q0 237 -142.5 392t-365.5 155q-222 0 -364 -155t-142 -392t142.5 -392t365.5 -155z" />
<glyph unicode="&#xd4;" horiz-adv-x="1646" d="M809 1731l-121 -185h-182l223 316h186l224 -316h-183l-120 185h-27zM823 1444q139 0 267.5 -55t224 -150t152.5 -231.5t57 -290.5t-56.5 -290t-152 -231.5t-223.5 -150.5t-267 -55q-140 0 -268.5 55t-224 150.5t-152.5 231.5t-57 290t57 290.5t152.5 231.5t223.5 150 t267 55zM825 170q223 0 364.5 154.5t141.5 392.5q0 237 -142.5 392t-365.5 155q-222 0 -364 -155t-142 -392t142.5 -392t365.5 -155z" />
<glyph unicode="&#xd5;" horiz-adv-x="1646" d="M1194 1714q-4 -9 -10.5 -24.5t-32 -52.5t-55 -63.5t-79 -43.5t-104.5 -6q-51 9 -119.5 50.5t-101.5 45.5q-24 3 -45.5 -4t-35 -19t-23.5 -24.5t-14 -21.5l-5 -9l-118 51q4 9 11 24t33.5 52.5t56.5 64t79 44t102 8.5q49 -9 116.5 -51t100.5 -47q24 -3 46 4t35.5 19.5 t24 25t14.5 21.5l5 9zM825 -10q-140 0 -268.5 55t-224 150.5t-152.5 231.5t-57 290t57 290.5t152.5 231.5t223.5 150t267 55t267.5 -55t224 -150t152.5 -231.5t57 -290.5t-56.5 -290t-152 -231.5t-223.5 -150.5t-267 -55zM825 170q223 0 364.5 154.5t141.5 392.5 q0 237 -142.5 392t-365.5 155q-222 0 -364 -155t-142 -392t142.5 -392t365.5 -155z" />
<glyph unicode="&#xd6;" horiz-adv-x="1646" d="M561 1534q-53 0 -90 37t-37 90t37 89t90 36t89 -35.5t36 -89.5q0 -53 -36.5 -90t-88.5 -37zM1053 1534q-53 0 -90 37t-37 90t37 89t90 36t89 -35.5t36 -89.5q0 -53 -36.5 -90t-88.5 -37zM825 -10q-140 0 -268.5 55t-224 150.5t-152.5 231.5t-57 290t57 290.5t152.5 231.5 t223.5 150t267 55t267.5 -55t224 -150t152.5 -231.5t57 -290.5t-56.5 -290t-152 -231.5t-223.5 -150.5t-267 -55zM825 170q223 0 364.5 154.5t141.5 392.5q0 237 -142.5 392t-365.5 155q-222 0 -364 -155t-142 -392t142.5 -392t365.5 -155z" />
<glyph unicode="&#xd7;" horiz-adv-x="1294" d="M1151 991l-385 -385l385 -385l-119 -119l-385 385l-385 -385l-119 119l385 385l-385 385l119 119l385 -385l385 385z" />
<glyph unicode="&#xd8;" horiz-adv-x="1646" d="M1300 1251q105 -102 164.5 -239t59.5 -295q0 -154 -56.5 -290t-152 -231.5t-223.5 -150.5t-267 -55q-185 0 -344 92l-86 -121l-123 88l86 123q-110 99 -172.5 240t-62.5 305q0 154 57 290.5t152.5 231.5t223.5 150t267 55q190 0 355 -98l84 120l127 -90zM317 717 q0 -239 146 -395l612 878q-112 64 -252 64q-222 0 -364 -155t-142 -392zM825 170q223 0 364.5 154.5t141.5 392.5q0 234 -135 385l-612 -873q106 -59 241 -59z" />
<glyph unicode="&#xd9;" horiz-adv-x="1441" d="M672 1802l143 -256h-149l-256 256h262zM1298 1434v-820q0 -129 -29.5 -233.5t-82 -176.5t-125.5 -120.5t-157.5 -71t-180.5 -22.5q-121 0 -224 36.5t-183.5 109.5t-126.5 195.5t-46 282.5v820h193v-799q0 -122 29.5 -213.5t83 -145.5t122 -80t152.5 -26q174 0 278.5 113 t104.5 352v799h192z" />
<glyph unicode="&#xda;" horiz-adv-x="1441" d="M735 1802h262l-256 -256h-149zM1298 1434v-820q0 -129 -29.5 -233.5t-82 -176.5t-125.5 -120.5t-157.5 -71t-180.5 -22.5q-121 0 -224 36.5t-183.5 109.5t-126.5 195.5t-46 282.5v820h193v-799q0 -122 29.5 -213.5t83 -145.5t122 -80t152.5 -26q174 0 278.5 113 t104.5 352v799h192z" />
<glyph unicode="&#xdb;" horiz-adv-x="1441" d="M707 1731l-121 -185h-183l224 316h186l223 -316h-182l-121 185h-26zM1106 1434h192v-820q0 -129 -29.5 -233.5t-82 -176.5t-125.5 -120.5t-157.5 -71t-180.5 -22.5q-121 0 -224 36.5t-183.5 109.5t-126.5 195.5t-46 282.5v820h193v-799q0 -122 29.5 -213.5t83 -145.5 t122 -80t152.5 -26q174 0 278.5 113t104.5 352v799z" />
<glyph unicode="&#xdc;" horiz-adv-x="1441" d="M469 1534q-53 0 -90 37t-37 90t37 89t90 36t89 -35.5t36 -89.5q0 -53 -36.5 -90t-88.5 -37zM961 1534q-53 0 -90 37t-37 90t37 89t90 36t88.5 -35.5t35.5 -89.5q0 -53 -36 -90t-88 -37zM1298 1434v-820q0 -129 -29.5 -233.5t-82 -176.5t-125.5 -120.5t-157.5 -71 t-180.5 -22.5q-121 0 -224 36.5t-183.5 109.5t-126.5 195.5t-46 282.5v820h193v-799q0 -122 29.5 -213.5t83 -145.5t122 -80t152.5 -26q174 0 278.5 113t104.5 352v799h192z" />
<glyph unicode="&#xdd;" horiz-adv-x="1337" d="M973 1802l-256 -256h-150l144 256h262zM1028 1434h227l-491 -715v-719h-191v719l-491 715h225l346 -521h29z" />
<glyph unicode="&#xde;" horiz-adv-x="1216" d="M659 1192q121 0 222.5 -47t167 -144.5t65.5 -228.5t-65 -233.5t-168 -154.5t-222 -52h-321v-332h-174v1434h174v-242h321zM639 500q56 0 107 16.5t94 48t68.5 85.5t25.5 122q0 55 -17.5 99t-46 72t-67 46.5t-79.5 26.5t-85 8h-301v-524h301z" />
<glyph unicode="&#xdf;" horiz-adv-x="1191" d="M797 786q119 -29 195.5 -136t76.5 -247q0 -177 -120 -295t-281 -118q-73 0 -140.5 25t-103.5 55l78 110q73 -35 147 -35q97 0 170.5 74t73.5 199q0 134 -90 210.5t-264 76.5h-45v155h45q52 0 97 11.5t82.5 35.5t59 66t21.5 98q0 95 -61 150t-163 55q-103 0 -172 -61 t-69 -191v-1024h-170v1024q0 183 104 301.5t299 118.5q182 0 297 -99.5t115 -257.5q0 -102 -49 -172t-133 -106v-23z" />
<glyph unicode="&#xe0;" horiz-adv-x="1103" d="M645 1137h-125l-213 256h219zM911 262q0 -72 25.5 -99.5t85.5 -27.5v-135h-72q-141 0 -182 123q-100 -133 -299 -133q-154 0 -250 83t-96 216q0 59 19.5 107t54.5 81.5t80 59t99.5 42.5t109 28t112.5 19t106 14q31 3 46 5q-2 50 -14 89.5t-36 71.5t-66.5 49t-101.5 17 q-37 0 -68 -7t-51.5 -18t-37 -25t-25.5 -27.5t-14.5 -24.5t-7.5 -18l-2 -7h-176q7 54 35.5 104.5t76 92.5t119.5 67t158 25q171 0 271.5 -102.5t100.5 -315.5v-354zM293 283q0 -88 86 -123q84 -34 188 -1q111 36 157 127q22 45 24 97v106q-71 -7 -118.5 -13.5t-106 -17.5 t-95 -25.5t-70 -35t-49.5 -49t-16 -65.5z" />
<glyph unicode="&#xe1;" horiz-adv-x="1103" d="M801 1393l-213 -256h-125l119 256h219zM911 262q0 -72 25.5 -99.5t85.5 -27.5v-135h-72q-141 0 -182 123q-100 -133 -299 -133q-154 0 -250 83t-96 216q0 59 19.5 107t54.5 81.5t80 59t99.5 42.5t109 28t112.5 19t106 14q31 3 46 5q-2 50 -14 89.5t-36 71.5t-66.5 49 t-101.5 17q-37 0 -68 -7t-51.5 -18t-37 -25t-25.5 -27.5t-14.5 -24.5t-7.5 -18l-2 -7h-176q7 54 35.5 104.5t76 92.5t119.5 67t158 25q171 0 271.5 -102.5t100.5 -315.5v-354zM293 283q0 -88 86 -123q84 -34 188 -1q111 36 157 127q22 45 24 97v106q-71 -7 -118.5 -13.5 t-106 -17.5t-95 -25.5t-70 -35t-49.5 -49t-16 -65.5z" />
<glyph unicode="&#xe2;" horiz-adv-x="1103" d="M524 1323l-108 -184h-166l203 315h170l202 -315h-166l-108 184h-27zM911 262q0 -72 25.5 -99.5t85.5 -27.5v-135h-72q-141 0 -182 123q-100 -133 -299 -133q-154 0 -250 83t-96 216q0 59 19.5 107t54.5 81.5t80 59t99.5 42.5t109 28t112.5 19t106 14q31 3 46 5 q-2 50 -14 89.5t-36 71.5t-66.5 49t-101.5 17q-37 0 -68 -7t-51.5 -18t-37 -25t-25.5 -27.5t-14.5 -24.5t-7.5 -18l-2 -7h-176q7 54 35.5 104.5t76 92.5t119.5 67t158 25q171 0 271.5 -102.5t100.5 -315.5v-354zM293 283q0 -88 86 -123q84 -34 188 -1q111 36 157 127 q22 45 24 97v106q-71 -7 -118.5 -13.5t-106 -17.5t-95 -25.5t-70 -35t-49.5 -49t-16 -65.5z" />
<glyph unicode="&#xe3;" horiz-adv-x="1103" d="M414 1217q-22 2 -41.5 -4.5t-31.5 -17.5t-21 -22.5t-13 -19.5l-4 -8l-108 47q3 8 10 22t30.5 47.5t51 57.5t72 40t92.5 7q45 -8 106.5 -46t91.5 -42q35 -4 63 14t39 38l11 20l108 -50q-3 -8 -9.5 -22t-29.5 -48t-50 -57.5t-72 -39t-95 -5.5q-46 8 -108 46.5t-92 42.5z M911 262q0 -72 25.5 -99.5t85.5 -27.5v-135h-72q-141 0 -182 123q-100 -133 -299 -133q-154 0 -250 83t-96 216q0 59 19.5 107t54.5 81.5t80 59t99.5 42.5t109 28t112.5 19t106 14q31 3 46 5q-2 50 -14 89.5t-36 71.5t-66.5 49t-101.5 17q-37 0 -68 -7t-51.5 -18t-37 -25 t-25.5 -27.5t-14.5 -24.5t-7.5 -18l-2 -7h-176q7 54 35.5 104.5t76 92.5t119.5 67t158 25q171 0 271.5 -102.5t100.5 -315.5v-354zM293 283q0 -88 86 -123q84 -34 188 -1q111 36 157 127q22 45 24 97v106q-71 -7 -118.5 -13.5t-106 -17.5t-95 -25.5t-70 -35t-49.5 -49 t-16 -65.5z" />
<glyph unicode="&#xe4;" horiz-adv-x="1103" d="M362 1128q-46 0 -79 33.5t-33 79.5q0 47 33 80t79 33t79.5 -33t33.5 -80q0 -46 -33.5 -79.5t-79.5 -33.5zM711 1128q-46 0 -79.5 33.5t-33.5 79.5q0 47 33.5 80t79.5 33t79 -33t33 -80q0 -46 -33 -79.5t-79 -33.5zM911 262q0 -72 25.5 -99.5t85.5 -27.5v-135h-72 q-141 0 -182 123q-100 -133 -299 -133q-154 0 -250 83t-96 216q0 59 19.5 107t54.5 81.5t80 59t99.5 42.5t109 28t112.5 19t106 14q31 3 46 5q-2 50 -14 89.5t-36 71.5t-66.5 49t-101.5 17q-37 0 -68 -7t-51.5 -18t-37 -25t-25.5 -27.5t-14.5 -24.5t-7.5 -18l-2 -7h-176 q7 54 35.5 104.5t76 92.5t119.5 67t158 25q171 0 271.5 -102.5t100.5 -315.5v-354zM293 283q0 -88 86 -123q84 -34 188 -1q111 36 157 127q22 45 24 97v106q-71 -7 -118.5 -13.5t-106 -17.5t-95 -25.5t-70 -35t-49.5 -49t-16 -65.5z" />
<glyph unicode="&#xe5;" horiz-adv-x="1103" d="M559 1096q-82 0 -139.5 57t-57.5 137t58 137.5t139 57.5q80 0 138.5 -58t58.5 -137t-58.5 -136.5t-138.5 -57.5zM559 1370q-33 0 -55.5 -23.5t-22.5 -56.5t22.5 -56.5t55.5 -23.5q32 0 55 24t23 56t-23 56t-55 24zM911 262q0 -72 25.5 -99.5t85.5 -27.5v-135h-72 q-141 0 -182 123q-100 -133 -299 -133q-154 0 -250 83t-96 216q0 59 19.5 107t54.5 81.5t80 59t99.5 42.5t109 28t112.5 19t106 14q31 3 46 5q-2 50 -14 89.5t-36 71.5t-66.5 49t-101.5 17q-37 0 -68 -7t-51.5 -18t-37 -25t-25.5 -27.5t-14.5 -24.5t-7.5 -18l-2 -7h-176 q7 54 35.5 104.5t76 92.5t119.5 67t158 25q171 0 271.5 -102.5t100.5 -315.5v-354zM293 283q0 -88 86 -123q84 -34 188 -1q111 36 157 127q22 45 24 97v106q-71 -7 -118.5 -13.5t-106 -17.5t-95 -25.5t-70 -35t-49.5 -49t-16 -65.5z" />
<glyph unicode="&#xe6;" horiz-adv-x="1824" d="M1235 1034q95 0 180 -35.5t152 -103t103.5 -179t29.5 -251.5h-774q12 -143 95.5 -226t215.5 -83q172 0 252 131h188q-58 -138 -178 -217.5t-262 -79.5q-115 0 -217.5 53.5t-171.5 149.5q-44 -95 -141.5 -149t-221.5 -54q-158 0 -260 83.5t-102 219.5q0 327 627 332 q0 112 -49 176.5t-156 64.5q-51 0 -91.5 -15t-61.5 -37t-34.5 -43.5t-17.5 -36.5l-4 -15h-166q18 142 116 228.5t261 86.5q232 0 317 -172q68 83 165.5 127.5t205.5 44.5zM1233 883q-114 0 -194 -72.5t-105 -196.5h579q-19 122 -93 195.5t-187 73.5zM293 281q0 -86 86 -121 q83 -35 187 -2q112 36 158 127q21 40 24 86v102q-99 -2 -175.5 -11t-142.5 -29.5t-101.5 -59t-35.5 -92.5z" />
<glyph unicode="&#xe7;" horiz-adv-x="1189" d="M614 158q99 0 174 54.5t111 147.5h182q-32 -146 -144 -245.5t-257 -120.5l-51 -76q76 16 142.5 -27t66.5 -127q0 -78 -61 -131t-156 -53q-45 0 -84 13t-62.5 31t-40.5 36.5t-24 31.5l-7 13l99 55q1 -3 4 -7t13.5 -15t23 -19t33 -15t42.5 -7q42 0 65.5 19.5t23.5 47.5 q0 27 -23 46.5t-66 19.5q-22 0 -43.5 -5t-32.5 -10l-10 -5l-57 73l72 111q-176 27 -300 172t-124 346q0 147 69.5 268t181.5 187.5t240 66.5q166 0 306 -109t167 -276h-184q-33 99 -110 158t-179 59q-137 0 -224 -101t-87 -253t87 -253t224 -101z" />
<glyph unicode="&#xe8;" horiz-adv-x="1198" d="M666 1137h-125l-213 256h219zM608 1034q95 0 180 -35.5t152 -103t103.5 -179t29.5 -251.5h-774q12 -143 95.5 -226t215.5 -83q172 0 252 131h189q-58 -137 -178.5 -217t-262.5 -80q-96 0 -184.5 38.5t-155.5 106.5t-107 168.5t-40 216.5t40 213.5t107 162.5t154.5 101.5 t183.5 36.5zM606 883q-114 0 -194 -72.5t-105 -196.5h580q-19 121 -93.5 195t-187.5 74z" />
<glyph unicode="&#xe9;" horiz-adv-x="1198" d="M862 1393l-213 -256h-125l119 256h219zM608 1034q95 0 180 -35.5t152 -103t103.5 -179t29.5 -251.5h-774q12 -143 95.5 -226t215.5 -83q172 0 252 131h189q-58 -137 -178.5 -217t-262.5 -80q-96 0 -184.5 38.5t-155.5 106.5t-107 168.5t-40 216.5t40 213.5t107 162.5 t154.5 101.5t183.5 36.5zM606 883q-114 0 -194 -72.5t-105 -196.5h580q-19 121 -93.5 195t-187.5 74z" />
<glyph unicode="&#xea;" horiz-adv-x="1198" d="M586 1323l-109 -184h-166l203 315h170l203 -315h-166l-109 184h-26zM608 1034q95 0 180 -35.5t152 -103t103.5 -179t29.5 -251.5h-774q12 -143 95.5 -226t215.5 -83q172 0 252 131h189q-58 -137 -178.5 -217t-262.5 -80q-96 0 -184.5 38.5t-155.5 106.5t-107 168.5 t-40 216.5t40 213.5t107 162.5t154.5 101.5t183.5 36.5zM606 883q-114 0 -194 -72.5t-105 -196.5h580q-19 121 -93.5 195t-187.5 74z" />
<glyph unicode="&#xeb;" horiz-adv-x="1198" d="M424 1128q-46 0 -79.5 33.5t-33.5 79.5q0 47 33.5 80t79.5 33t79.5 -33t33.5 -80q0 -46 -33.5 -79.5t-79.5 -33.5zM772 1128q-46 0 -79.5 33.5t-33.5 79.5q0 47 33.5 80t79.5 33t79.5 -33t33.5 -80q0 -46 -33.5 -79.5t-79.5 -33.5zM608 1034q95 0 180 -35.5t152 -103 t103.5 -179t29.5 -251.5h-774q12 -143 95.5 -226t215.5 -83q172 0 252 131h189q-58 -137 -178.5 -217t-262.5 -80q-96 0 -184.5 38.5t-155.5 106.5t-107 168.5t-40 216.5t40 213.5t107 162.5t154.5 101.5t183.5 36.5zM606 883q-114 0 -194 -72.5t-105 -196.5h580 q-19 121 -93.5 195t-187.5 74z" />
<glyph unicode="&#xec;" horiz-adv-x="466" d="M246 1393l119 -256h-125l-213 256h219zM344 1024v-1024h-180v1024h180z" />
<glyph unicode="&#xed;" horiz-adv-x="466" d="M262 1393h219l-213 -256h-125zM344 1024v-1024h-180v1024h180z" />
<glyph unicode="&#xee;" horiz-adv-x="466" d="M340 1454l203 -315h-166l-109 184h-26l-109 -184h-166l203 315h170zM164 0v1024h180v-1024h-180z" />
<glyph unicode="&#xef;" horiz-adv-x="466" d="M80 1149q-46 0 -79.5 33.5t-33.5 79.5q0 47 33.5 79.5t79.5 32.5t79.5 -32.5t33.5 -79.5q0 -46 -33.5 -79.5t-79.5 -33.5zM428 1149q-46 0 -79.5 33.5t-33.5 79.5q0 47 33.5 79.5t79.5 32.5t79.5 -32.5t33.5 -79.5q0 -46 -33.5 -79.5t-79.5 -33.5zM344 1024v-1024h-180 v1024h180z" />
<glyph unicode="&#xf0;" horiz-adv-x="1349" d="M926 1253q221 -218 221 -637q0 -138 -25 -245.5t-69 -178.5t-107 -117t-134.5 -65.5t-156.5 -19.5q-128 0 -240 66.5t-181.5 187.5t-69.5 268t69.5 268t181.5 187.5t240 66.5q52 0 101 -12.5t82 -30t59 -35.5t39 -30l12 -13q-38 159 -176 269l-213 -101l-47 101l154 71 q-115 61 -232 84l70 138q197 -50 330 -142l284 133l47 -100zM655 158q138 0 225 100.5t87 253.5q0 152 -87.5 253t-224.5 101t-224 -101t-87 -253t87 -253t224 -101z" />
<glyph unicode="&#xf1;" horiz-adv-x="1179" d="M428 1217q-22 2 -41.5 -4.5t-31.5 -17.5t-21 -22.5t-13 -19.5l-4 -8l-108 47q3 8 10 22t30.5 47.5t51 57.5t72 40t92.5 7q45 -8 107 -46t92 -42q35 -4 63 14t39 38l10 20l109 -50q-3 -8 -9.5 -22t-29.5 -48t-50 -57.5t-72 -39t-95 -5.5q-46 8 -108.5 46.5t-92.5 42.5z M645 1034q190 0 289.5 -129.5t99.5 -349.5v-555h-180v494q0 78 -8.5 138.5t-31.5 120.5t-72 93t-121 33q-118 0 -197.5 -81.5t-79.5 -213.5v-584h-180v1024h119l36 -117h25q110 127 301 127z" />
<glyph unicode="&#xf2;" horiz-adv-x="1228" d="M563 1393l119 -256h-125l-213 256h219zM614 -10q-128 0 -240 66.5t-181.5 187.5t-69.5 268t69.5 268t181.5 187.5t240 66.5q95 0 184.5 -39.5t157.5 -107.5t109 -166t41 -209t-40.5 -209t-108.5 -166t-157.5 -107.5t-185.5 -39.5zM614 158q138 0 225 100.5t87 253.5 q0 152 -87.5 253t-224.5 101t-224 -101t-87 -253t87 -253t224 -101z" />
<glyph unicode="&#xf3;" horiz-adv-x="1228" d="M655 1393h219l-212 -256h-125zM614 -10q-128 0 -240 66.5t-181.5 187.5t-69.5 268t69.5 268t181.5 187.5t240 66.5q95 0 184.5 -39.5t157.5 -107.5t109 -166t41 -209t-40.5 -209t-108.5 -166t-157.5 -107.5t-185.5 -39.5zM614 158q138 0 225 100.5t87 253.5 q0 152 -87.5 253t-224.5 101t-224 -101t-87 -253t87 -253t224 -101z" />
<glyph unicode="&#xf4;" horiz-adv-x="1228" d="M602 1323l-108 -184h-166l202 315h170l203 -315h-166l-108 184h-27zM614 1034q95 0 184.5 -39.5t157.5 -107.5t109 -166t41 -209t-40.5 -209t-108.5 -166t-157.5 -107.5t-185.5 -39.5q-128 0 -240 66.5t-181.5 187.5t-69.5 268t69.5 268t181.5 187.5t240 66.5zM614 158 q138 0 225 100.5t87 253.5q0 152 -87.5 253t-224.5 101t-224 -101t-87 -253t87 -253t224 -101z" />
<glyph unicode="&#xf5;" horiz-adv-x="1228" d="M952 1300q-3 -8 -9.5 -22t-29.5 -48t-50 -57.5t-72 -39t-95 -5.5q-46 8 -108 46.5t-92 42.5q-22 2 -41.5 -4.5t-31.5 -17.5t-21 -22.5t-13 -19.5l-4 -8l-109 47q3 8 10 22t30.5 47.5t51 57.5t72 40t92.5 7q45 -8 107 -46t92 -42q35 -4 63 14t39 38l11 20zM614 -10 q-128 0 -240 66.5t-181.5 187.5t-69.5 268t69.5 268t181.5 187.5t240 66.5q95 0 184.5 -39.5t157.5 -107.5t109 -166t41 -209t-40.5 -209t-108.5 -166t-157.5 -107.5t-185.5 -39.5zM614 158q138 0 225 100.5t87 253.5q0 152 -87.5 253t-224.5 101t-224 -101t-87 -253 t87 -253t224 -101z" />
<glyph unicode="&#xf6;" horiz-adv-x="1228" d="M440 1128q-46 0 -79 33.5t-33 79.5q0 47 33 80t79 33t79.5 -33t33.5 -80q0 -46 -33.5 -79.5t-79.5 -33.5zM788 1128q-46 0 -79 33.5t-33 79.5q0 47 33 80t79 33t79.5 -33t33.5 -80q0 -46 -33.5 -79.5t-79.5 -33.5zM614 -10q-128 0 -240 66.5t-181.5 187.5t-69.5 268 t69.5 268t181.5 187.5t240 66.5q95 0 184.5 -39.5t157.5 -107.5t109 -166t41 -209t-40.5 -209t-108.5 -166t-157.5 -107.5t-185.5 -39.5zM614 158q138 0 225 100.5t87 253.5q0 152 -87.5 253t-224.5 101t-224 -101t-87 -253t87 -253t224 -101z" />
<glyph unicode="&#xf7;" horiz-adv-x="1218" d="M610 874q-51 0 -87 36t-36 87q0 52 36 87.5t87 35.5t87 -35.5t36 -87.5q0 -51 -36 -87t-87 -36zM123 686h973v-156h-973v156zM610 96q-51 0 -87 36t-36 87q0 52 36 87.5t87 35.5t87 -35.5t36 -87.5q0 -51 -36 -87t-87 -36z" />
<glyph unicode="&#xf8;" horiz-adv-x="1208" d="M954 889q152 -155 152 -377q0 -111 -40.5 -209t-108.5 -166t-157.5 -107.5t-185.5 -39.5q-126 0 -241 67l-68 -96l-90 64l70 100q-76 73 -119 172.5t-43 214.5q0 147 69.5 268t181.5 187.5t240 66.5q134 0 252 -76l66 95l92 -66zM303 512q0 -147 80 -246l389 557 q-72 43 -158 43q-137 0 -224 -101t-87 -253zM614 158q138 0 225 100.5t87 253.5q0 135 -72 233l-385 -550q64 -37 145 -37z" />
<glyph unicode="&#xf9;" horiz-adv-x="1185" d="M690 1137h-125l-213 256h219zM842 1024h180v-1024h-119l-33 109h-26q-105 -119 -287 -119q-193 0 -293 129t-100 350v555h180v-494q0 -62 5.5 -113t21.5 -103.5t42.5 -88t72 -58t106.5 -22.5q120 0 185 84t65 252v543z" />
<glyph unicode="&#xfa;" horiz-adv-x="1185" d="M836 1393l-213 -256h-125l118 256h220zM842 1024h180v-1024h-119l-33 109h-26q-105 -119 -287 -119q-193 0 -293 129t-100 350v555h180v-494q0 -62 5.5 -113t21.5 -103.5t42.5 -88t72 -58t106.5 -22.5q120 0 185 84t65 252v543z" />
<glyph unicode="&#xfb;" horiz-adv-x="1185" d="M580 1323l-109 -184h-166l203 315h170l203 -315h-166l-109 184h-26zM842 1024h180v-1024h-119l-33 109h-26q-105 -119 -287 -119q-193 0 -293 129t-100 350v555h180v-494q0 -62 5.5 -113t21.5 -103.5t42.5 -88t72 -58t106.5 -22.5q120 0 185 84t65 252v543z" />
<glyph unicode="&#xfc;" horiz-adv-x="1185" d="M420 1128q-46 0 -79.5 33.5t-33.5 79.5q0 47 33.5 80t79.5 33t79 -33t33 -80q0 -46 -33 -79.5t-79 -33.5zM768 1128q-46 0 -79.5 33.5t-33.5 79.5q0 47 33.5 80t79.5 33t79.5 -33t33.5 -80q0 -46 -33.5 -79.5t-79.5 -33.5zM842 1024h180v-1024h-119l-33 109h-26 q-105 -119 -287 -119q-193 0 -293 129t-100 350v555h180v-494q0 -62 5.5 -113t21.5 -103.5t42.5 -88t72 -58t106.5 -22.5q120 0 185 84t65 252v543z" />
<glyph unicode="&#xfd;" horiz-adv-x="1208" d="M846 1393l-213 -256h-125l119 256h219zM922 1024h184l-377 -1063q-46 -138 -73 -190q-94 -182 -272 -191h-19q-69 0 -128.5 21t-82.5 49l79 125q55 -39 123 -39q38 0 65 11.5t47.5 42t29 49.5t26.5 67q3 7 4 10l31 84h-84l-373 1024h187l309 -848h23z" />
<glyph unicode="&#xfe;" horiz-adv-x="1243" d="M647 1034q198 0 335.5 -149t137.5 -373t-137.5 -373t-335.5 -149q-196 0 -309 164v-564h-174v1434v430h174v-539h33q109 119 276 119zM633 158q122 0 214.5 97.5t92.5 256.5t-92.5 256.5t-214.5 97.5q-42 0 -82.5 -12.5t-79.5 -40t-68 -67.5t-47 -100.5t-18 -133.5 t18 -133.5t47 -100.5t68 -67.5t79.5 -40t82.5 -12.5z" />
<glyph unicode="&#xff;" horiz-adv-x="1208" d="M424 1128q-46 0 -79.5 33.5t-33.5 79.5q0 47 33.5 80t79.5 33t79.5 -33t33.5 -80q0 -46 -33.5 -79.5t-79.5 -33.5zM772 1128q-46 0 -79.5 33.5t-33.5 79.5q0 47 33.5 80t79.5 33t79.5 -33t33.5 -80q0 -46 -33.5 -79.5t-79.5 -33.5zM922 1024h184l-377 -1063 q-46 -138 -73 -190q-94 -182 -272 -191h-19q-69 0 -128.5 21t-82.5 49l79 125q55 -39 123 -39q38 0 65 11.5t47.5 42t29 49.5t26.5 67q3 7 4 10l31 84h-84l-373 1024h187l309 -848h23z" />
<glyph unicode="&#x13f;" horiz-adv-x="1210" d="M352 180h735v-180h-923v1434h188v-1254zM748 618q-55 0 -94.5 39t-39.5 93q0 55 39 93t95 38q54 0 92.5 -38t38.5 -93q0 -54 -38.5 -93t-92.5 -39z" />
<glyph unicode="&#x140;" horiz-adv-x="505" d="M164 0v1454h178v-1454h-178zM606 881q54 0 92.5 -38t38.5 -93q0 -54 -38.5 -93t-92.5 -39q-55 0 -94 39t-39 93q0 55 38.5 93t94.5 38z" />
<glyph unicode="&#x152;" horiz-adv-x="2418" d="M1522 180h733v-180h-924v225q-95 -112 -226 -173.5t-280 -61.5q-140 0 -268.5 55t-224 150.5t-152.5 231.5t-57 290t57 290.5t152.5 231.5t223.5 150t267 55q150 0 282 -62.5t226 -175.5v228h903v-179h-712v-440h651v-178h-651v-457zM825 170q223 0 364.5 154.5 t141.5 392.5q0 237 -142.5 392t-365.5 155q-222 0 -364 -155t-142 -392t142.5 -392t365.5 -155z" />
<glyph unicode="&#x153;" horiz-adv-x="2000" d="M1411 1034q95 0 180 -35.5t152 -103t103.5 -179t29.5 -251.5h-774q12 -143 95.5 -226t215.5 -83q172 0 252 131h188q-58 -138 -178 -217.5t-262 -79.5q-121 0 -227 58.5t-172 162.5q-69 -103 -175 -162t-225 -59q-128 0 -240 66.5t-181.5 187.5t-69.5 268t69.5 268 t181.5 187.5t240 66.5q119 0 223 -59t169 -162q67 105 174 163t231 58zM1409 883q-114 0 -194 -72.5t-105 -196.5h580q-19 121 -93.5 195t-187.5 74zM614 158q138 0 225 100.5t87 253.5q0 152 -87.5 253t-224.5 101t-224 -101t-87 -253t87 -253t224 -101z" />
<glyph unicode="&#x178;" horiz-adv-x="1337" d="M418 1534q-52 0 -89.5 37t-37.5 90t37 89t90 36t89 -35.5t36 -89.5q0 -53 -36.5 -90t-88.5 -37zM909 1534q-53 0 -90 37t-37 90t37 89t90 36t89 -35.5t36 -89.5q0 -53 -36.5 -90t-88.5 -37zM1028 1434h227l-491 -715v-719h-191v719l-491 715h225l346 -521h29z" />
<glyph unicode="&#x2c6;" horiz-adv-x="903" d="M573 1139l-108 184h-27l-108 -184h-166l203 315h170l202 -315h-166z" />
<glyph unicode="&#x2dc;" horiz-adv-x="1003" d="M840 1300q-3 -8 -9.5 -22t-29.5 -48t-50 -57.5t-72 -39t-95 -5.5q-46 8 -108.5 46.5t-92.5 42.5q-22 2 -41.5 -4.5t-31.5 -17.5t-21 -22.5t-13 -19.5l-4 -8l-108 47q3 8 10 22t30.5 47.5t51 57.5t72 40t92.5 7q45 -8 106.5 -46t91.5 -42q35 -4 63 14t39 38l11 20z" />
<glyph unicode="&#x2013;" horiz-adv-x="1136" d="M123 715h891v-156h-891v156z" />
<glyph unicode="&#x2014;" horiz-adv-x="1802" d="M1679 715v-156h-1556v156h1556z" />
<glyph unicode="&#x2018;" horiz-adv-x="473" d="M240 1026q-56 0 -86.5 42.5t-30.5 113.5q0 53 17 103t41.5 84t49 60.5t41.5 38.5l17 13l51 -56q-71 -64 -92 -174q43 -3 72.5 -35.5t29.5 -76.5q0 -49 -31.5 -81t-78.5 -32z" />
<glyph unicode="&#x2019;" horiz-adv-x="473" d="M233 1434q56 0 86.5 -42.5t30.5 -113.5q0 -53 -17 -103t-41.5 -84t-49 -60.5t-41.5 -38.5l-17 -13l-51 55q71 64 92 174q-43 3 -72.5 36t-29.5 77q0 49 31.5 81t78.5 32z" />
<glyph unicode="&#x201a;" horiz-adv-x="473" d="M233 219q56 0 86.5 -42.5t30.5 -113.5q0 -53 -17 -103t-41.5 -84t-49 -60.5t-41.5 -39.5l-17 -12l-51 56q71 64 92 174q-43 3 -72.5 35.5t-29.5 76.5q0 49 31.5 81t78.5 32z" />
<glyph unicode="&#x201c;" horiz-adv-x="780" d="M240 1026q-56 0 -86.5 42.5t-30.5 113.5q0 53 17 103t41.5 84t49 60.5t41.5 38.5l17 13l51 -56q-71 -64 -92 -174q43 -3 72.5 -35.5t29.5 -76.5q0 -49 -31.5 -81t-78.5 -32zM547 1026q-56 0 -86.5 42.5t-30.5 113.5q0 53 17 103t41.5 84t49 60.5t41.5 38.5l17 13l51 -56 q-71 -64 -92 -174q43 -3 72.5 -35.5t29.5 -76.5q0 -49 -31.5 -81t-78.5 -32z" />
<glyph unicode="&#x201d;" horiz-adv-x="780" d="M233 1479q56 0 86.5 -42.5t30.5 -113.5q0 -53 -17 -103t-41.5 -84t-49 -60.5t-41.5 -39.5l-17 -12l-51 55q71 64 92 174q-43 3 -72.5 36t-29.5 77q0 49 31.5 81t78.5 32zM541 1479q56 0 86 -42.5t30 -113.5q0 -53 -17 -103t-41.5 -84t-48.5 -60.5t-41 -39.5l-17 -12 l-52 55q71 64 92 174q-43 3 -72.5 36t-29.5 77q0 49 31.5 81t79.5 32z" />
<glyph unicode="&#x201e;" horiz-adv-x="780" d="M233 219q56 0 86.5 -42.5t30.5 -113.5q0 -53 -17 -103t-41.5 -84t-49 -60.5t-41.5 -39.5l-17 -12l-51 56q71 64 92 174q-43 3 -72.5 35.5t-29.5 76.5q0 49 31.5 81t78.5 32zM541 219q56 0 86 -42.5t30 -113.5q0 -53 -17 -103t-41.5 -84t-48.5 -60.5t-41 -39.5l-17 -12 l-52 56q71 64 92 174q-43 3 -72.5 35.5t-29.5 76.5q0 49 31.5 81t79.5 32z" />
<glyph unicode="&#x2022;" horiz-adv-x="491" d="M246 514q-51 0 -87 36t-36 87q0 52 36 87.5t87 35.5t87 -35.5t36 -87.5q0 -51 -36 -87t-87 -36z" />
<glyph unicode="&#x2026;" horiz-adv-x="1720" d="M246 -10q-51 0 -87 36t-36 87q0 52 36 87.5t87 35.5t87 -35.5t36 -87.5q0 -51 -36 -87t-87 -36zM860 -10q-51 0 -87 36t-36 87q0 52 36 87.5t87 35.5t87 -35.5t36 -87.5q0 -51 -36 -87t-87 -36zM1475 -10q-51 0 -87 36t-36 87q0 52 36 87.5t87 35.5t86.5 -35.5 t35.5 -87.5q0 -51 -35.5 -87t-86.5 -36z" />
<glyph unicode="&#x2039;" horiz-adv-x="780" d="M453 199l-330 413l330 414h204l-333 -414l333 -413h-204z" />
<glyph unicode="&#x203a;" horiz-adv-x="780" d="M328 199h-205l334 413l-334 414h205l329 -414z" />
<glyph unicode="&#x2044;" horiz-adv-x="530" d="M858 1311l-1020 -1311h-166l1020 1311h166z" />
<glyph unicode="&#x2070;" horiz-adv-x="778" d="M389 688q-129 0 -218 105t-89 262q0 99 25 174.5t68.5 120.5t97.5 67.5t116 22.5q96 0 167.5 -57.5t105.5 -143.5t34 -184q0 -157 -88.5 -262t-218.5 -105zM389 817q61 0 102 39t56.5 91.5t15.5 113.5q0 105 -45.5 176.5t-128.5 71.5q-81 0 -126.5 -72t-45.5 -176 q0 -60 16.5 -113t57 -92t98.5 -39z" />
<glyph unicode="&#x2074;" horiz-adv-x="774" d="M561 983h121v-121h-121v-166h-127v166h-342v96l285 476h184v-451zM252 983h182v268h-26z" />
<glyph unicode="&#x2075;" horiz-adv-x="776" d="M422 1204q100 0 176 -69t76 -183q0 -116 -78.5 -189t-196.5 -73q-126 0 -211.5 78.5t-85.5 167.5h140q8 -55 54 -85t99 -30q58 0 100 38t42 97q0 57 -40.5 90t-101.5 33q-95 0 -137 -75l-123 32l45 398h451v-136h-336l-21 -141q62 47 148 47z" />
<glyph unicode="&#x2076;" horiz-adv-x="741" d="M385 1198q102 0 178 -69t76 -183q0 -105 -82.5 -180.5t-185.5 -75.5q-104 0 -186.5 75.5t-82.5 180.5q0 67 22 125t75 137q21 34 64.5 90.5t76.5 95.5l33 40h153l-194 -248q16 12 53 12zM371 817q61 0 97 39t36 90q0 55 -36 92t-97 37t-97 -37t-36 -92q0 -51 36.5 -90 t96.5 -39z" />
<glyph unicode="&#x2077;" horiz-adv-x="745" d="M102 1434h551v-74q-72 -67 -122 -134t-78.5 -124.5t-44 -130.5t-20.5 -130t-7 -145h-150q8 217 48.5 354t146.5 244h-324v140z" />
<glyph unicode="&#x2078;" horiz-adv-x="741" d="M516 1096q59 -19 91 -72t32 -113q0 -90 -69.5 -155.5t-200.5 -65.5q-130 0 -198.5 65.5t-68.5 155.5q0 61 31 113.5t90 71.5v10q-90 41 -90 145q0 85 69 137t169 52t167.5 -52t67.5 -137q0 -46 -22 -85.5t-68 -59.5v-10zM371 1321q-46 0 -71.5 -22.5t-25.5 -57.5 q0 -37 27 -59.5t68 -22.5t69.5 22t28.5 60q0 35 -24.5 57.5t-71.5 22.5zM369 809q59 0 94 34t35 75t-33.5 75.5t-95.5 34.5t-93.5 -34t-31.5 -76q0 -41 33 -75t92 -34z" />
<glyph unicode="&#x2079;" horiz-adv-x="741" d="M397 932q-102 0 -178 69t-76 183q0 105 83 180.5t186 75.5q104 0 186 -75.5t82 -180.5q0 -67 -22 -125t-74 -137q-21 -34 -64.5 -90.5t-76.5 -95.5l-33 -40h-154l195 248q-17 -12 -54 -12zM412 1313q-61 0 -97 -39t-36 -90q0 -55 36 -92t97 -37t97 37t36 92 q0 51 -36.5 90t-96.5 39z" />
<glyph unicode="&#x2080;" horiz-adv-x="778" d="M389 -213q-129 0 -218 105t-89 262q0 98 25 174t68.5 121t97.5 67.5t116 22.5q96 0 167.5 -57.5t105.5 -143.5t34 -184q0 -157 -88.5 -262t-218.5 -105zM389 -84q61 0 102 39t56.5 91.5t15.5 113.5q0 105 -45.5 176.5t-128.5 71.5q-81 0 -126.5 -72t-45.5 -176 q0 -60 16.5 -113t57 -92t98.5 -39z" />
<glyph unicode="&#x2081;" horiz-adv-x="522" d="M274 -205v477h-182v117h113q34 0 56 23t22 61v59h135l2 -737h-146z" />
<glyph unicode="&#x2082;" horiz-adv-x="741" d="M424 88q-93 -52 -120 -76q-42 -38 -42 -80h371v-135h-531v74q0 60 20 110.5t55.5 86.5t69 59t77.5 45q18 9 50 23t49.5 22.5t37 22t28.5 30.5t9 39q0 46 -32.5 73.5t-86.5 27.5q-56 0 -91.5 -39t-35.5 -103h-143q0 46 16 92t47 86t83 65.5t116 25.5q112 0 190 -61.5 t78 -156.5q0 -36 -11 -66.5t-25.5 -50t-40 -38.5t-44.5 -29t-49.5 -24.5t-44.5 -22.5z" />
<glyph unicode="&#x2083;" horiz-adv-x="743" d="M520 180q57 -18 89 -63.5t32 -102.5q0 -98 -71.5 -161.5t-196.5 -63.5t-198 73.5t-73 188.5h138q5 -60 38.5 -97.5t100.5 -37.5q60 0 90.5 28t30.5 79q0 40 -34.5 69t-109.5 29h-53v117h47q127 0 127 98q0 30 -30 54t-72 24q-54 0 -81 -24t-32 -58h-129q0 89 70 148 t172 59q98 0 168.5 -55t70.5 -130q0 -110 -94 -161v-13z" />
<glyph unicode="&#x2084;" horiz-adv-x="774" d="M561 82h121v-121h-121v-166h-127v166h-342v96l285 475h184v-450zM252 82h182v268h-26z" />
<glyph unicode="&#x2085;" horiz-adv-x="776" d="M422 303q100 0 176 -69t76 -183q0 -116 -78.5 -189t-196.5 -73q-126 0 -211.5 78.5t-85.5 167.5h140q8 -55 54 -85t99 -30q58 0 100 38t42 97q0 57 -40.5 90t-101.5 33q-46 0 -82 -20.5t-55 -55.5l-123 33l45 397h451v-135h-336l-21 -141q62 47 148 47z" />
<glyph unicode="&#x2086;" horiz-adv-x="741" d="M385 297q102 0 178 -69t76 -183q0 -105 -82.5 -180.5t-185.5 -75.5q-104 0 -186.5 75.5t-82.5 180.5q0 67 22 125t75 137q21 34 64.5 90t76.5 95l33 40h153l-194 -247q16 12 53 12zM371 -84q61 0 97 39t36 90q0 55 -36 92t-97 37t-97 -37t-36 -92q0 -51 36.5 -90 t96.5 -39z" />
<glyph unicode="&#x2087;" horiz-adv-x="745" d="M102 532h551v-73q-72 -67 -122 -134t-78.5 -124.5t-44 -130.5t-20.5 -130t-7 -145h-150q8 217 48.5 354t146.5 244h-324v139z" />
<glyph unicode="&#x2088;" horiz-adv-x="741" d="M516 195q59 -19 91 -72t32 -113q0 -90 -69.5 -155.5t-200.5 -65.5q-130 0 -198.5 65.5t-68.5 155.5q0 61 31 113.5t90 71.5v10q-90 41 -90 145q0 85 69 137t169 52t167.5 -52t67.5 -137q0 -46 -22 -85.5t-68 -59.5v-10zM371 420q-46 0 -71.5 -22.5t-25.5 -57.5 q0 -37 27 -59.5t68 -22.5t69.5 22t28.5 60q0 35 -24.5 57.5t-71.5 22.5zM369 -92q59 0 94 33.5t35 74.5t-33.5 76t-95.5 35t-93.5 -34.5t-31.5 -76.5q0 -41 33 -74.5t92 -33.5z" />
<glyph unicode="&#x2089;" horiz-adv-x="741" d="M397 31q-102 0 -178 69t-76 183q0 105 83 180.5t186 75.5q104 0 186 -75.5t82 -180.5q0 -68 -22 -126.5t-74 -136.5q-21 -34 -64.5 -90t-76.5 -96l-33 -39h-154l195 248q-17 -12 -54 -12zM412 412q-61 0 -97 -39t-36 -90q0 -55 36 -92t97 -37t97 37t36 92q0 51 -36.5 90 t-96.5 39z" />
<glyph unicode="&#x20ac;" horiz-adv-x="1351" d="M868 160q97 0 185 41t133 86l63 -150q-76 -65 -178.5 -106t-208.5 -41q-188 0 -353 126.5t-228 329.5h-158v146h129q-2 20 -2 63q0 28 4 78h-131v146h164q66 198 228.5 320t346.5 122q106 0 208.5 -41t178.5 -106l-63 -150q-45 45 -133 86t-185 41q-125 0 -226.5 -73 t-154.5 -199h629l-59 -146h-608q-5 -63 -5 -78q0 -13 5 -63h565l-62 -146h-471q52 -130 155.5 -208t231.5 -78z" />
<glyph unicode="&#x2122;" horiz-adv-x="1509" d="M82 1315v119h504v-119h-189v-598h-127v598h-188zM1243 1434h184v-717h-120v534h-11l-166 -483h-143l-166 483h-8v-534h-123v717h184l179 -514h12z" />
<glyph unicode="&#x25fc;" horiz-adv-x="1024" d="M0 1024h1024v-1024h-1024v1024z" />
<glyph unicode="&#xfb03;" horiz-adv-x="1832" d="M1579 1464q54 0 92.5 -38t38.5 -93q0 -54 -38.5 -92.5t-92.5 -38.5q-55 0 -94 38.5t-39 92.5q0 55 38.5 93t94.5 38zM1667 1024v-1024h-180v881h-451v-881h-172v881h-192h-246v-881h-172v881h-152v143h152v100q0 144 72 232t202 88q105 0 181 -66l-78 -127q-36 29 -82 29 q-123 0 -123 -172v-84h287h151v100q0 143 72.5 231.5t202.5 88.5q104 0 180 -66l-78 -127q-36 29 -82 29q-123 0 -123 -172v-84h631z" />
<glyph unicode="&#xfb04;" horiz-adv-x="1849" d="M1280 1444q82 0 154 -18t116 -43.5t76.5 -51t45.5 -43.5l14 -18v-1270h-179v1208q-18 28 -70.5 53t-152.5 25q-110 0 -179 -53.5t-69 -177.5v-31h246v-143h-246v-881h-172v881h-192h-246v-881h-172v881h-152v143h152v100q0 144 72 232t202 88q105 0 181 -66l-78 -127 q-36 29 -82 29q-123 0 -123 -172v-84h287h151v47q0 173 109 273t307 100zM1511 1198v4v-4z" />
<glyph horiz-adv-x="1187" d="M1040 201l107 -56q-2 -6 -5 -16.5t-18.5 -37.5t-35.5 -47t-57.5 -37t-82.5 -17q-132 0 -180 133q-100 -133 -299 -133q-154 0 -250 83t-96 216q0 59 19.5 107t54.5 81.5t80 59t99.5 42.5t109 28t112.5 19t106 14q31 3 46 5q-2 50 -14 89.5t-36 71.5t-66.5 49t-101.5 17 q-37 0 -68 -7t-51.5 -18t-37 -25t-25.5 -27.5t-14.5 -24.5t-7.5 -18l-2 -7h-176q7 54 35.5 104.5t76 92.5t119.5 67t158 25q171 0 271.5 -102.5t100.5 -315.5v-354q0 -127 64 -127q24 0 40 16.5t21 32.5zM293 283q0 -88 86 -123q84 -34 188 -1q111 36 157 127q22 45 24 97 v106q-71 -7 -118.5 -13.5t-106 -17.5t-95 -25.5t-70 -35t-49.5 -49t-16 -65.5z" />
<glyph horiz-adv-x="1183" d="M801 1393l-213 -256h-125l119 256h219zM1040 201l107 -56q-2 -6 -5 -16.5t-18.5 -37.5t-35.5 -47t-57.5 -37t-82.5 -17q-132 0 -180 133q-100 -133 -299 -133q-154 0 -250 83t-96 216q0 59 19.5 107t54.5 81.5t80 59t99.5 42.5t109 28t112.5 19t106 14q31 3 46 5 q-2 50 -14 89.5t-36 71.5t-66.5 49t-101.5 17q-37 0 -68 -7t-51.5 -18t-37 -25t-25.5 -27.5t-14.5 -24.5t-7.5 -18l-2 -7h-176q7 54 35.5 104.5t76 92.5t119.5 67t158 25q171 0 271.5 -102.5t100.5 -315.5v-354q0 -127 64 -127q24 0 40 16.5t21 32.5zM293 283q0 -88 86 -123 q84 -34 188 -1q111 36 157 127q22 45 24 97v106q-71 -7 -118.5 -13.5t-106 -17.5t-95 -25.5t-70 -35t-49.5 -49t-16 -65.5z" />
<glyph horiz-adv-x="1183" d="M524 1323l-108 -184h-166l203 315h170l202 -315h-166l-108 184h-27zM1040 201l107 -56q-2 -6 -5 -16.5t-18.5 -37.5t-35.5 -47t-57.5 -37t-82.5 -17q-132 0 -180 133q-100 -133 -299 -133q-154 0 -250 83t-96 216q0 59 19.5 107t54.5 81.5t80 59t99.5 42.5t109 28 t112.5 19t106 14q31 3 46 5q-2 50 -14 89.5t-36 71.5t-66.5 49t-101.5 17q-37 0 -68 -7t-51.5 -18t-37 -25t-25.5 -27.5t-14.5 -24.5t-7.5 -18l-2 -7h-176q7 54 35.5 104.5t76 92.5t119.5 67t158 25q171 0 271.5 -102.5t100.5 -315.5v-354q0 -127 64 -127q24 0 40 16.5 t21 32.5zM293 283q0 -88 86 -123q84 -34 188 -1q111 36 157 127q22 45 24 97v106q-71 -7 -118.5 -13.5t-106 -17.5t-95 -25.5t-70 -35t-49.5 -49t-16 -65.5z" />
<glyph horiz-adv-x="1183" d="M362 1128q-46 0 -79 33.5t-33 79.5q0 47 33 80t79 33t79.5 -33t33.5 -80q0 -46 -33.5 -79.5t-79.5 -33.5zM711 1128q-46 0 -79.5 33.5t-33.5 79.5q0 47 33.5 80t79.5 33t79 -33t33 -80q0 -46 -33 -79.5t-79 -33.5zM1040 201l107 -56q-2 -6 -5 -16.5t-18.5 -37.5 t-35.5 -47t-57.5 -37t-82.5 -17q-132 0 -180 133q-100 -133 -299 -133q-154 0 -250 83t-96 216q0 59 19.5 107t54.5 81.5t80 59t99.5 42.5t109 28t112.5 19t106 14q31 3 46 5q-2 50 -14 89.5t-36 71.5t-66.5 49t-101.5 17q-37 0 -68 -7t-51.5 -18t-37 -25t-25.5 -27.5 t-14.5 -24.5t-7.5 -18l-2 -7h-176q7 54 35.5 104.5t76 92.5t119.5 67t158 25q171 0 271.5 -102.5t100.5 -315.5v-354q0 -127 64 -127q24 0 40 16.5t21 32.5zM293 283q0 -88 86 -123q84 -34 188 -1q111 36 157 127q22 45 24 97v106q-71 -7 -118.5 -13.5t-106 -17.5t-95 -25.5 t-70 -35t-49.5 -49t-16 -65.5z" />
<glyph horiz-adv-x="1183" d="M645 1137h-125l-213 256h219zM1040 201l107 -56q-2 -6 -5 -16.5t-18.5 -37.5t-35.5 -47t-57.5 -37t-82.5 -17q-132 0 -180 133q-100 -133 -299 -133q-154 0 -250 83t-96 216q0 59 19.5 107t54.5 81.5t80 59t99.5 42.5t109 28t112.5 19t106 14q31 3 46 5q-2 50 -14 89.5 t-36 71.5t-66.5 49t-101.5 17q-37 0 -68 -7t-51.5 -18t-37 -25t-25.5 -27.5t-14.5 -24.5t-7.5 -18l-2 -7h-176q7 54 35.5 104.5t76 92.5t119.5 67t158 25q171 0 271.5 -102.5t100.5 -315.5v-354q0 -127 64 -127q24 0 40 16.5t21 32.5zM293 283q0 -88 86 -123q84 -34 188 -1 q111 36 157 127q22 45 24 97v106q-71 -7 -118.5 -13.5t-106 -17.5t-95 -25.5t-70 -35t-49.5 -49t-16 -65.5z" />
<glyph horiz-adv-x="1183" d="M559 1096q-82 0 -139.5 57t-57.5 137t58 137.5t139 57.5q80 0 138.5 -58t58.5 -137t-58.5 -136.5t-138.5 -57.5zM559 1370q-33 0 -55.5 -23.5t-22.5 -56.5t22.5 -56.5t55.5 -23.5q32 0 55 24t23 56t-23 56t-55 24zM1040 201l107 -56q-2 -6 -5 -16.5t-18.5 -37.5 t-35.5 -47t-57.5 -37t-82.5 -17q-132 0 -180 133q-100 -133 -299 -133q-154 0 -250 83t-96 216q0 59 19.5 107t54.5 81.5t80 59t99.5 42.5t109 28t112.5 19t106 14q31 3 46 5q-2 50 -14 89.5t-36 71.5t-66.5 49t-101.5 17q-37 0 -68 -7t-51.5 -18t-37 -25t-25.5 -27.5 t-14.5 -24.5t-7.5 -18l-2 -7h-176q7 54 35.5 104.5t76 92.5t119.5 67t158 25q171 0 271.5 -102.5t100.5 -315.5v-354q0 -127 64 -127q24 0 40 16.5t21 32.5zM293 283q0 -88 86 -123q84 -34 188 -1q111 36 157 127q22 45 24 97v106q-71 -7 -118.5 -13.5t-106 -17.5t-95 -25.5 t-70 -35t-49.5 -49t-16 -65.5z" />
<glyph horiz-adv-x="1183" d="M414 1217q-22 2 -41.5 -4.5t-31.5 -17.5t-21 -22.5t-13 -19.5l-4 -8l-108 47q3 8 10 22t30.5 47.5t51 57.5t72 40t92.5 7q45 -8 106.5 -46t91.5 -42q35 -4 63 14t39 38l11 20l108 -50q-3 -8 -9.5 -22t-29.5 -48t-50 -57.5t-72 -39t-95 -5.5q-46 8 -108 46.5t-92 42.5z M1040 201l107 -56q-2 -6 -5 -16.5t-18.5 -37.5t-35.5 -47t-57.5 -37t-82.5 -17q-132 0 -180 133q-100 -133 -299 -133q-154 0 -250 83t-96 216q0 59 19.5 107t54.5 81.5t80 59t99.5 42.5t109 28t112.5 19t106 14q31 3 46 5q-2 50 -14 89.5t-36 71.5t-66.5 49t-101.5 17 q-37 0 -68 -7t-51.5 -18t-37 -25t-25.5 -27.5t-14.5 -24.5t-7.5 -18l-2 -7h-176q7 54 35.5 104.5t76 92.5t119.5 67t158 25q171 0 271.5 -102.5t100.5 -315.5v-354q0 -127 64 -127q24 0 40 16.5t21 32.5zM293 283q0 -88 86 -123q84 -34 188 -1q111 36 157 127q22 45 24 97 v106q-71 -7 -118.5 -13.5t-106 -17.5t-95 -25.5t-70 -35t-49.5 -49t-16 -65.5z" />
<glyph horiz-adv-x="1243" d="M905 1024h174v-1024h-118l-37 125h-35q-109 -135 -295 -135q-196 0 -333.5 147.5t-137.5 374.5t137.5 374.5t333.5 147.5q201 0 311 -160v150zM604 158q57 0 109 20.5t95.5 61.5t70 111t26.5 161t-26.5 161t-70.5 111t-96 61.5t-108 20.5q-115 0 -208 -98.5t-93 -255.5 t93 -255.5t208 -98.5z" />
<glyph horiz-adv-x="1243" d="M903 1393l-213 -256h-125l119 256h219zM905 1024h174v-1024h-118l-37 125h-35q-109 -135 -295 -135q-196 0 -333.5 147.5t-137.5 374.5t137.5 374.5t333.5 147.5q201 0 311 -160v150zM604 158q57 0 109 20.5t95.5 61.5t70 111t26.5 161t-26.5 161t-70.5 111t-96 61.5 t-108 20.5q-115 0 -208 -98.5t-93 -255.5t93 -255.5t208 -98.5z" />
<glyph horiz-adv-x="1243" d="M606 1323l-108 -184h-166l203 315h170l202 -315h-166l-108 184h-27zM905 1024h174v-1024h-118l-37 125h-35q-109 -135 -295 -135q-196 0 -333.5 147.5t-137.5 374.5t137.5 374.5t333.5 147.5q201 0 311 -160v150zM604 158q57 0 109 20.5t95.5 61.5t70 111t26.5 161 t-26.5 161t-70.5 111t-96 61.5t-108 20.5q-115 0 -208 -98.5t-93 -255.5t93 -255.5t208 -98.5z" />
<glyph horiz-adv-x="1243" d="M453 1128q-46 0 -79.5 33.5t-33.5 79.5q0 47 33.5 80t79.5 33t79 -33t33 -80q0 -46 -33 -79.5t-79 -33.5zM801 1128q-46 0 -79.5 33.5t-33.5 79.5q0 47 33.5 80t79.5 33t79 -33t33 -80q0 -46 -33 -79.5t-79 -33.5zM905 1024h174v-1024h-118l-37 125h-35 q-109 -135 -295 -135q-196 0 -333.5 147.5t-137.5 374.5t137.5 374.5t333.5 147.5q201 0 311 -160v150zM604 158q57 0 109 20.5t95.5 61.5t70 111t26.5 161t-26.5 161t-70.5 111t-96 61.5t-108 20.5q-115 0 -208 -98.5t-93 -255.5t93 -255.5t208 -98.5z" />
<glyph horiz-adv-x="1243" d="M743 1137h-125l-212 256h219zM905 1024h174v-1024h-118l-37 125h-35q-109 -135 -295 -135q-196 0 -333.5 147.5t-137.5 374.5t137.5 374.5t333.5 147.5q201 0 311 -160v150zM604 158q57 0 109 20.5t95.5 61.5t70 111t26.5 161t-26.5 161t-70.5 111t-96 61.5t-108 20.5 q-115 0 -208 -98.5t-93 -255.5t93 -255.5t208 -98.5z" />
<glyph horiz-adv-x="1243" d="M635 1096q-82 0 -139.5 57t-57.5 137t58 137.5t139 57.5q80 0 138 -58t58 -137t-58 -136.5t-138 -57.5zM635 1370q-33 0 -55.5 -23.5t-22.5 -56.5t22.5 -56.5t55.5 -23.5q32 0 55 24t23 56t-23 56t-55 24zM905 1024h174v-1024h-118l-37 125h-35q-109 -135 -295 -135 q-196 0 -333.5 147.5t-137.5 374.5t137.5 374.5t333.5 147.5q201 0 311 -160v150zM604 158q57 0 109 20.5t95.5 61.5t70 111t26.5 161t-26.5 161t-70.5 111t-96 61.5t-108 20.5q-115 0 -208 -98.5t-93 -255.5t93 -255.5t208 -98.5z" />
<glyph horiz-adv-x="1243" d="M481 1217q-22 2 -41.5 -4.5t-31.5 -17.5t-20.5 -22.5t-12.5 -19.5l-4 -8l-109 47q3 8 10 22t30.5 47.5t51 57.5t72 40t92.5 7q45 -8 107 -46t92 -42q35 -4 63 14t38 38l11 20l109 -50q-3 -8 -9.5 -22t-29.5 -48t-50 -57.5t-72 -39t-95 -5.5q-46 8 -108.5 46.5t-92.5 42.5 zM905 1024h174v-1024h-118l-37 125h-35q-109 -135 -295 -135q-196 0 -333.5 147.5t-137.5 374.5t137.5 374.5t333.5 147.5q201 0 311 -160v150zM604 158q57 0 109 20.5t95.5 61.5t70 111t26.5 161t-26.5 161t-70.5 111t-96 61.5t-108 20.5q-115 0 -208 -98.5t-93 -255.5 t93 -255.5t208 -98.5z" />
<glyph horiz-adv-x="1247" d="M965 1024h118v-983q0 -62 -14.5 -123t-51 -123t-90.5 -109t-140 -76.5t-193 -29.5q-113 0 -206.5 32.5t-149 83t-85.5 108t-30 112.5h170q2 -7 7 -18.5t27.5 -41t52 -52.5t84 -41.5t120.5 -18.5q67 0 125 18t104.5 53t73 93.5t26.5 132.5v115q-112 -166 -313 -166 q-97 0 -183.5 38.5t-150.5 106t-101.5 166t-37.5 211.5t37.5 211.5t101.5 166t150.5 106t183.5 38.5q182 0 295 -139h31zM614 158q42 0 82.5 12.5t79.5 40t68 67.5t47 100.5t18 133.5t-18 133.5t-47 100.5t-68 67.5t-79.5 40t-82.5 12.5q-122 0 -214.5 -97.5t-92.5 -256.5 t92.5 -256.5t214.5 -97.5z" />
<glyph horiz-adv-x="550" d="M297 1202q-55 0 -94 38.5t-39 92.5q0 55 38.5 93t94.5 38q54 0 92.5 -38t38.5 -93q0 -54 -38.5 -92.5t-92.5 -38.5zM385 1024v-1024h-180v1024h180z" />
<glyph horiz-adv-x="1206" d="M883 1024h180v-983q0 -64 -12 -124t-44.5 -123t-83 -109t-135 -75.5t-192.5 -29.5q-115 0 -205.5 32t-142.5 83.5t-78.5 108t-26.5 112.5h170q1 -7 5 -18.5t22.5 -41t45.5 -52.5t80.5 -41.5t121.5 -18.5q140 0 222.5 74.5t82.5 222.5v86q-12 -20 -32 -39.5t-56 -43.5 t-93.5 -39t-127.5 -15q-205 0 -302.5 127t-97.5 352v555h181v-494q0 -207 52.5 -291.5t190.5 -84.5q275 0 275 286v584z" />
<glyph horiz-adv-x="1206" d="M872 1393l-213 -256h-124l118 256h219zM883 1024h180v-983q0 -64 -12 -124t-44.5 -123t-83 -109t-135 -75.5t-192.5 -29.5q-115 0 -205.5 32t-142.5 83.5t-78.5 108t-26.5 112.5h170q1 -7 5 -18.5t22.5 -41t45.5 -52.5t80.5 -41.5t121.5 -18.5q140 0 222.5 74.5 t82.5 222.5v86q-12 -20 -32 -39.5t-56 -43.5t-93.5 -39t-127.5 -15q-205 0 -302.5 127t-97.5 352v555h181v-494q0 -207 52.5 -291.5t190.5 -84.5q275 0 275 286v584z" />
<glyph horiz-adv-x="1206" d="M449 1128q-46 0 -79.5 33.5t-33.5 79.5q0 47 33.5 80t79.5 33t79 -33t33 -80q0 -46 -33 -79.5t-79 -33.5zM797 1128q-46 0 -79.5 33.5t-33.5 79.5q0 47 33.5 80t79.5 33t79 -33t33 -80q0 -46 -33 -79.5t-79 -33.5zM883 1024h180v-983q0 -64 -12 -124t-44.5 -123t-83 -109 t-135 -75.5t-192.5 -29.5q-115 0 -205.5 32t-142.5 83.5t-78.5 108t-26.5 112.5h170q1 -7 5 -18.5t22.5 -41t45.5 -52.5t80.5 -41.5t121.5 -18.5q140 0 222.5 74.5t82.5 222.5v86q-12 -20 -32 -39.5t-56 -43.5t-93.5 -39t-127.5 -15q-205 0 -302.5 127t-97.5 352v555h181 v-494q0 -207 52.5 -291.5t190.5 -84.5q275 0 275 286v584z" />
<glyph horiz-adv-x="1277" d="M641 -10q-159 0 -278 95t-179.5 259t-60.5 375t60.5 374t178.5 257t277 94t277 -94t178.5 -257.5t60.5 -375.5q0 -211 -60 -374.5t-177.5 -258t-276.5 -94.5zM639 168q105 0 182 82t112.5 203.5t35.5 261.5q0 105 -21.5 202.5t-61.5 176t-104 125.5t-143 47 q-103 0 -179.5 -81.5t-112.5 -204t-36 -263.5q0 -142 36 -264.5t112.5 -203.5t179.5 -81z" />
<glyph horiz-adv-x="770" d="M414 0v1057h-281v149h180q50 0 81.5 32t31.5 83v113h168l2 -1434h-182z" />
<glyph horiz-adv-x="1208" d="M680 569q-57 -43 -83.5 -63.5t-72 -59t-68 -65t-48 -62.5t-36 -71.5t-10.5 -73.5h672v-174h-870v104q0 88 23.5 167.5t59.5 138.5t93 117t108 97.5t121 86.5q9 6 34 23t38 25.5t38 26.5t39.5 30t35.5 31.5t34 35.5t28 37t23 40.5t13.5 43t5.5 47.5q0 90 -64.5 153.5 t-175.5 63.5q-121 0 -195.5 -75.5t-74.5 -168.5h-182q0 57 17 115t53.5 113t87.5 97.5t125.5 68.5t162.5 26q188 0 310 -106.5t122 -280.5q0 -46 -10 -88.5t-23.5 -75.5t-41 -69.5t-47.5 -59.5t-58 -55t-59.5 -48t-64.5 -47.5t-60 -44.5z" />
<glyph horiz-adv-x="1171" d="M811 766q97 -43 152 -139.5t55 -212.5t-57 -212.5t-161.5 -154t-234.5 -57.5q-190 0 -321 112t-131 277h176q5 -85 83.5 -151t190.5 -66t189 70.5t77 191.5t-76 193.5t-204 72.5h-68v162h60q100 0 176 58.5t76 156.5q0 87 -58.5 147t-156.5 60q-88 0 -152.5 -48.5 t-71.5 -129.5h-166q0 160 113.5 254t280.5 94q171 0 279 -99t108 -262q0 -107 -45 -183t-113 -116v-18z" />
<glyph horiz-adv-x="1208" d="M866 489h219v-161h-219v-328h-176v328h-598v125l498 981h276v-945zM303 489h387v744h-20z" />
<glyph horiz-adv-x="1200" d="M608 975q132 0 234 -72t153.5 -185t51.5 -245q0 -211 -125 -347t-324 -136q-105 0 -195.5 38.5t-147.5 99.5t-89.5 132t-32.5 139h178q4 -40 25.5 -81t57 -76.5t90.5 -57.5t118 -22q124 0 196 89t72 228q0 57 -14.5 111t-44.5 104t-85.5 80.5t-129.5 30.5 q-112 0 -180.5 -54.5t-89.5 -121.5l-146 47l62 758h716v-172h-563l-33 -363q92 76 246 76z" />
<glyph horiz-adv-x="1167" d="M598 918q79 0 155.5 -34.5t136.5 -94t97 -147t37 -185.5q0 -131 -62.5 -239t-168 -168t-230.5 -60q-190 0 -315 133.5t-125 327.5q0 74 19.5 159t54.5 156q25 51 99 174t170 278.5t132 215.5h215l-350 -547q51 31 135 31zM573 162q115 0 191 83.5t76 211.5q0 126 -74 207 t-188 81q-116 0 -194.5 -81.5t-78.5 -208.5t76.5 -210t191.5 -83z" />
<glyph horiz-adv-x="1075" d="M102 1434h871v-105q-120 -110 -209.5 -238t-144.5 -252.5t-91 -271.5t-51 -277.5t-22 -289.5h-183q15 454 124.5 776.5t293.5 485.5h-588v172z" />
<glyph horiz-adv-x="1232" d="M856 762q98 -31 160.5 -128t62.5 -222q0 -87 -32.5 -163.5t-91.5 -134t-147.5 -91t-193.5 -33.5q-209 0 -334.5 121t-125.5 299q0 127 64 224t159 130v18q-74 36 -119 120.5t-45 178.5q0 152 117 257.5t286 105.5t286.5 -105.5t117.5 -257.5q0 -92 -45 -177t-119 -122 v-20zM616 1286q-94 0 -157.5 -60.5t-63.5 -154.5q0 -93 63 -156t156 -63t158.5 63.5t65.5 157.5q0 93 -64 153t-158 60zM612 156q127 0 204 80t77 180t-79 178t-200 78q-123 0 -198.5 -79t-75.5 -181q0 -99 73 -177.5t199 -78.5z" />
<glyph d="M549 506q-79 0 -155.5 34.5t-136.5 94t-97 147t-37 185.5q0 131 62.5 239t168 168t230.5 60q190 0 315 -133.5t125 -327.5q0 -74 -19.5 -159.5t-54.5 -156.5q-25 -51 -99 -174t-170 -277.5t-132 -215.5h-215l350 547q-51 -31 -135 -31zM573 1262q-115 0 -190.5 -83.5 t-75.5 -211.5q0 -126 74 -207.5t188 -81.5q116 0 194.5 82t78.5 209t-77 210t-192 83z" />
<glyph horiz-adv-x="1196" d="M600 -10q-208 0 -342.5 157.5t-134.5 415.5t134 416t341 158t341 -158.5t134 -417.5q0 -258 -133 -414.5t-340 -156.5zM600 152q142 0 221.5 111.5t79.5 295.5q0 185 -80 300.5t-223 115.5q-141 0 -221 -115t-80 -299t80 -296.5t223 -112.5z" />
<glyph horiz-adv-x="688" d="M362 0v784h-229v136h129q50 0 81.5 31.5t31.5 82.5v92h157l3 -1126h-173z" />
<glyph horiz-adv-x="1083" d="M618 446q-48 -20 -71.5 -30.5t-61.5 -29t-56.5 -32.5t-43 -36t-35.5 -44t-19.5 -51.5t-8.5 -64.5h610v-158h-789v104q0 76 18 138.5t46.5 106.5t73.5 82t89 63t103 51q48 21 71.5 31.5t62 29t57.5 31.5t43.5 33t36 38t20 42t8.5 51q0 79 -60.5 128.5t-154.5 49.5 q-105 0 -172.5 -64t-67.5 -172h-172q0 66 24.5 133t71.5 126.5t127.5 97t180.5 37.5q165 0 278 -93t113 -239q0 -68 -26.5 -125.5t-75 -100.5t-100.5 -74t-120 -59z" />
<glyph horiz-adv-x="1040" d="M731 594q84 -30 135.5 -104t51.5 -171q0 -141 -107 -235t-279 -94q-187 0 -298 110t-111 267h160q5 -41 20.5 -78t43.5 -71t76 -54.5t109 -20.5q99 0 157.5 50.5t58.5 134.5q0 82 -60 137t-190 55h-47v144h38q111 0 170.5 46.5t59.5 118.5q0 68 -52.5 110t-142.5 42 q-93 0 -148.5 -44.5t-62.5 -102.5h-155q0 120 107 211.5t265 91.5q144 0 247.5 -79.5t103.5 -211.5q0 -156 -150 -236v-16z" />
<glyph horiz-adv-x="1112" d="M807 387h203v-149h-203v-238h-158v238h-547v112l465 776h240v-739zM303 387h346v569h-14z" />
<glyph horiz-adv-x="1112" d="M575 758q165 0 279.5 -104.5t114.5 -274.5t-116.5 -279.5t-297.5 -109.5q-97 0 -180 33.5t-137 87t-84.5 118.5t-30.5 129h164q6 -91 82.5 -153t183.5 -62q112 0 183 67.5t71 172.5q0 100 -66.5 165.5t-179.5 65.5q-88 0 -152 -39t-94 -92l-145 47l63 596h674v-157h-532 l-35 -291q83 80 235 80z" />
<glyph horiz-adv-x="1019" d="M526 745q71 0 136.5 -24.5t118.5 -69.5t84.5 -117.5t31.5 -160.5q0 -119 -57 -208t-145.5 -132t-192.5 -43q-106 0 -196 45t-147 134.5t-57 207.5q0 89 35 173t111 200q36 56 102 150t114 160l48 66h190l-317 -417q5 4 14.5 10t46 16t80.5 10zM500 143q104 0 168.5 61 t64.5 167q0 105 -65 167t-168 62t-168.5 -62t-65.5 -167t65.5 -166.5t168.5 -61.5z" />
<glyph horiz-adv-x="993" d="M102 1126h789v-104q-79 -73 -141.5 -147t-106.5 -140t-76 -141.5t-51 -139t-32 -146.5t-18.5 -148.5t-10.5 -159.5h-168q26 675 362 971h-547v155z" />
<glyph horiz-adv-x="1081" d="M735 608q92 -29 147.5 -107t55.5 -179q0 -138 -105 -235t-294 -97q-96 0 -173.5 27.5t-125 74t-72.5 105.5t-25 125q0 101 54.5 179t146.5 107v15q-75 32 -115.5 92t-40.5 135q0 126 105 206.5t248 80.5t247.5 -80t104.5 -205q0 -76 -41.5 -136.5t-116.5 -92.5v-15z M541 1001q-87 0 -139 -43.5t-52 -117.5q0 -79 55 -122.5t134 -43.5q77 0 134.5 43.5t57.5 122.5q0 74 -51 117.5t-139 43.5zM543 127q112 0 171.5 60t59.5 141q0 84 -63.5 142t-173.5 58q-108 0 -169 -58t-61 -140q0 -84 63 -143.5t173 -59.5z" />
<glyph horiz-adv-x="1040" d="M494 381q-71 0 -136.5 24.5t-118.5 70t-84.5 118t-31.5 160.5q0 119 57 208t145.5 132t192.5 43q106 0 196 -45t147 -134.5t57 -207.5q0 -89 -35 -173t-111 -200q-36 -56 -102 -150t-114 -161l-48 -66h-191l318 418q-5 -4 -14.5 -10t-46 -16.5t-80.5 -10.5zM520 983 q-105 0 -169 -60.5t-64 -166.5t65 -168t168 -62t168.5 62.5t65.5 167.5t-65 166t-169 61z" />
<glyph d="M563 1323q214 0 352 -185t138 -483q0 -297 -137 -481t-351 -184t-347.5 184t-133.5 483q0 298 133 482t346 184zM563 1157q-95 0 -166.5 -68.5t-108 -182t-36.5 -251.5q0 -180 59 -307l441 723q-80 86 -189 86zM563 156q97 0 171.5 68t113.5 180.5t39 248.5 q0 178 -64 312l-442 -727q79 -82 182 -82z" />
<glyph d="M698 170h267v-170h-449h-303v170h303v788h-250v146h150q50 0 81 32t31 83v92h168z" />
<glyph d="M641 487q-66 -41 -102 -65t-81 -59t-67 -61.5t-37.5 -60.5t-15.5 -69h637v-172h-830v104q0 62 10.5 115.5t26.5 93.5t43.5 77t52.5 62t62.5 51.5t65.5 43t68 39.5q12 7 18 10q52 30 81.5 47.5t71.5 45.5t65 51.5t46.5 54t34 65t10.5 72.5q0 93 -59 154t-158 61 q-61 0 -111 -25t-80 -63.5t-46.5 -82.5t-16.5 -85h-183q0 55 15.5 113t50 115.5t83.5 102.5t123.5 73t162.5 28q176 0 289.5 -102.5t113.5 -278.5q0 -69 -20.5 -129.5t-49.5 -102t-76 -83.5t-83.5 -66.5t-88.5 -57.5q-6 -3 -9 -5t-8 -5t-9 -6z" />
<glyph horiz-adv-x="1128" d="M786 694q85 -34 139 -119t54 -192q0 -77 -30 -148t-84 -125.5t-137 -87t-181 -32.5q-190 0 -308 110t-118 267h174q7 -80 72 -144.5t178 -64.5q117 0 181.5 70t64.5 167q0 92 -61.5 157.5t-182.5 65.5h-68v154h60q94 0 154.5 53.5t60.5 139.5q0 80 -54.5 134t-150.5 54 q-83 0 -141.5 -40.5t-67.5 -108.5h-170q0 138 113 228.5t270 90.5q163 0 270 -95.5t107 -240.5q0 -87 -40.5 -158t-103.5 -110v-25z" />
<glyph d="M825 428h219v-162h-219v-266h-176v266h-577v125l477 922h276v-885zM283 428h366v690h-18z" />
<glyph d="M580 874q193 0 311.5 -119t118.5 -325q0 -208 -120.5 -324t-311.5 -116q-107 0 -193.5 38.5t-137 100t-77.5 131t-27 139.5h179q0 -41 18 -82.5t50 -77.5t83 -58.5t111 -22.5q111 0 180.5 73t69.5 201q0 58 -15.5 108t-47.5 90.5t-85.5 63.5t-124.5 23q-54 0 -99 -13 t-73.5 -35t-45.5 -42t-28 -41l-145 47l61 680h717v-172h-569l-37 -336q84 69 238 69z" />
<glyph horiz-adv-x="1128" d="M604 838q75 0 147.5 -30.5t130 -84t93 -135t35.5 -176.5q0 -127 -60.5 -224.5t-157.5 -147.5t-212 -50q-85 0 -162 29t-137 82.5t-95.5 135.5t-35.5 181q0 112 49 215q67 145 385 680h215l-322 -506q41 31 127 31zM580 158q110 0 179.5 70t69.5 184t-70.5 185t-178.5 71 q-109 0 -179.5 -71t-70.5 -185t70.5 -184t179.5 -70z" />
<glyph d="M168 1313h829v-105q-111 -102 -192.5 -213.5t-132.5 -221t-83.5 -240.5t-47.5 -253.5t-21 -279.5h-182q7 221 42.5 410.5t91.5 327.5t121.5 237t141.5 166h-567v172z" />
<glyph d="M782 711q101 -31 167.5 -121t66.5 -215q0 -171 -123 -278t-322 -107q-198 0 -319 106.5t-121 276.5q0 128 67.5 217.5t166.5 120.5v16q-78 33 -126.5 107t-48.5 165q0 141 112.5 232.5t270.5 91.5t270.5 -91.5t112.5 -232.5q0 -91 -48 -165t-126 -107v-16zM573 1174 q-90 0 -148 -51.5t-58 -135.5q0 -89 62 -141.5t142 -52.5t144.5 53t64.5 141q0 84 -58.5 135.5t-148.5 51.5zM569 141q80 0 141.5 38t90 91t28.5 109q0 40 -16 80t-46.5 75.5t-81.5 57.5t-114 22q-64 0 -114.5 -22.5t-80 -58t-44.5 -76t-15 -80.5q0 -55 26 -107.5 t85.5 -90.5t140.5 -38z" />
<glyph d="M532 475q-75 0 -147.5 30.5t-130 84t-92.5 135t-35 176.5q0 127 60.5 224.5t157.5 147.5t212 50q85 0 162 -29t137 -82.5t95.5 -135.5t35.5 -181q0 -112 -49 -215q-67 -145 -385 -680h-215l321 506q-41 -31 -127 -31zM557 1155q-110 0 -180 -70t-70 -184t70.5 -185 t179.5 -71t179.5 71t70.5 185t-70.5 184t-179.5 70z" />
<glyph horiz-adv-x="827" d="M416 -6q-139 0 -226.5 109t-87.5 290t87 291.5t225 110.5t224.5 -110.5t86.5 -293.5q0 -180 -85.5 -288.5t-223.5 -108.5zM416 131q83 0 126.5 70.5t43.5 189.5q0 118 -44 190t-128 72t-128 -72t-44 -190t44.5 -189t129.5 -71z" />
<glyph horiz-adv-x="532" d="M285 0v528h-183v115h113q34 0 56 22.5t22 57.5v65h135l2 -788h-145z" />
<glyph horiz-adv-x="774" d="M434 301q-92 -55 -132 -90t-40 -76h391v-135h-551v74q0 49 15 92t35.5 72.5t56 60t60.5 47t65 39.5q10 6 37 22t38.5 23t33 21.5t31.5 25t22 25t17 29.5t5 32q0 44 -34.5 71.5t-90.5 27.5q-67 0 -106 -38.5t-39 -103.5h-144q0 46 16.5 92.5t49 88.5t89 68t128.5 26 q116 0 194 -63.5t78 -164.5q0 -28 -7.5 -54t-16.5 -45.5t-30.5 -41.5t-34.5 -34.5t-43.5 -33t-44 -28.5t-48.5 -29z" />
<glyph horiz-adv-x="763" d="M530 416q58 -18 95 -67.5t37 -117.5q0 -100 -76.5 -168.5t-200.5 -68.5q-128 0 -205.5 73.5t-77.5 188.5h138q5 -58 42.5 -96.5t104.5 -38.5q63 0 98 33t35 84q0 53 -37.5 85.5t-115.5 32.5h-54v117h47q76 0 107 29.5t31 72.5q0 44 -31 67.5t-84 23.5q-54 0 -85 -22 t-36 -60h-135q0 90 74 150.5t186 60.5q105 0 176.5 -55.5t71.5 -145.5q0 -112 -105 -166v-12z" />
<glyph horiz-adv-x="839" d="M616 287h121v-121h-121v-166h-131v166h-383v96l326 526h188v-501zM270 287h215v319h-18z" />
<glyph horiz-adv-x="796" d="M422 545q111 0 191.5 -76.5t80.5 -196.5t-81.5 -196t-209.5 -76q-132 0 -216.5 80t-84.5 176h140q8 -59 55 -92t104 -33q64 0 110 40.5t46 104.5q0 61 -44.5 102.5t-115.5 41.5q-97 0 -139 -76l-123 33l45 418h471v-136h-356l-21 -157q65 43 148 43z" />
<glyph horiz-adv-x="761" d="M406 522q99 0 176 -70.5t77 -191.5q0 -123 -82 -194.5t-196 -71.5q-115 0 -197 74t-82 202q0 112 97 262q29 44 75 108t78 106l31 42h164l-221 -294q24 28 80 28zM381 121q64 0 103.5 39t39.5 100q0 60 -40 99.5t-103 39.5t-103 -39.5t-40 -99.5t40 -99.5t103 -39.5z" />
<glyph horiz-adv-x="735" d="M102 788h551v-73q-73 -68 -122.5 -135t-78 -126.5t-44 -138.5t-20.5 -144.5t-7 -170.5h-150q8 253 48 396.5t147 252.5h-324v139z" />
<glyph horiz-adv-x="761" d="M526 426q63 -21 98 -75t35 -122q0 -101 -73 -168t-207 -67q-133 0 -205 67t-72 168q0 68 34 122t97 75v10q-51 22 -75.5 65t-24.5 93q0 90 73.5 145.5t174.5 55.5t173.5 -55.5t72.5 -145.5q0 -50 -25 -93t-76 -65v-10zM381 670q-49 0 -78 -25t-29 -67q0 -44 31.5 -69.5 t73.5 -25.5q43 0 75.5 25.5t32.5 71.5q0 40 -28.5 65t-77.5 25zM379 119q64 0 101.5 36.5t37.5 86.5q0 49 -36.5 86t-102.5 37q-67 0 -101 -36.5t-34 -86.5q0 -51 35.5 -87t99.5 -36z" />
<glyph horiz-adv-x="761" d="M356 262q-99 0 -176.5 70.5t-77.5 191.5q0 123 82.5 195t196.5 72q115 0 196.5 -74.5t81.5 -202.5q0 -114 -96 -262q-29 -44 -75 -108t-78 -106l-31 -42h-164l221 295q-25 -29 -80 -29zM381 664q-64 0 -103.5 -39.5t-39.5 -100.5q0 -60 40 -99.5t103 -39.5t103 39.5 t40 99.5t-40 100t-103 40z" />
<glyph horiz-adv-x="827" d="M416 516q-139 0 -226.5 109t-87.5 290t87 291.5t225 110.5t224.5 -110.5t86.5 -293.5q0 -180 -85.5 -288.5t-223.5 -108.5zM416 653q83 0 126.5 70.5t43.5 189.5q0 118 -44 190.5t-128 72.5t-128 -72.5t-44 -190.5t44.5 -189t129.5 -71z" />
<glyph horiz-adv-x="532" d="M285 522v529h-183v114h113q34 0 56 22.5t22 57.5v66h135l2 -789h-145z" />
<glyph horiz-adv-x="774" d="M434 823q-92 -55 -132 -90t-40 -76h391v-135h-551v74q0 49 15 92t35.5 72.5t56 60t60.5 47t65 39.5q10 6 37 22t38.5 23t33 21.5t31.5 25t22 25t17 29.5t5 32q0 44 -34.5 71.5t-90.5 27.5q-67 0 -106 -38.5t-39 -103.5h-144q0 46 16.5 92.5t49 88.5t89 68t128.5 26 q116 0 194 -63t78 -164q0 -33 -8 -61.5t-27 -54t-35 -43.5t-48.5 -40.5t-50 -33.5t-56.5 -34z" />
<glyph horiz-adv-x="763" d="M530 938q58 -18 95 -67t37 -117q0 -100 -76.5 -169t-200.5 -69q-128 0 -205.5 73.5t-77.5 188.5h138q5 -58 42.5 -96.5t104.5 -38.5q63 0 98 33t35 84q0 53 -37.5 86t-115.5 33h-54v116h47q75 0 106.5 30t31.5 73t-30.5 66.5t-84.5 23.5t-85 -22t-36 -60h-135 q0 90 74 150.5t186 60.5q105 0 176.5 -55.5t71.5 -145.5q0 -112 -105 -166v-12z" />
<glyph horiz-adv-x="839" d="M616 809h121v-121h-121v-166h-131v166h-383v96l326 527h188v-502zM270 809h215v319h-18z" />
<glyph horiz-adv-x="796" d="M422 1061q111 0 191.5 -76.5t80.5 -196.5t-81.5 -196t-209.5 -76q-132 0 -216.5 80t-84.5 176h140q8 -59 55 -92t104 -33q64 0 110 41t46 105q0 61 -44.5 102t-115.5 41q-97 0 -139 -76l-123 33l45 418h471v-135h-356l-21 -158q65 43 148 43z" />
<glyph horiz-adv-x="761" d="M406 1044q99 0 176 -70.5t77 -191.5q0 -123 -82 -194.5t-196 -71.5q-115 0 -197 74.5t-82 202.5q0 112 97 262q29 44 75 108t78 106l31 42h164l-221 -295q24 28 80 28zM381 643q64 0 103.5 39t39.5 100q0 60 -40 100t-103 40t-103 -40t-40 -100t40 -99.5t103 -39.5z" />
<glyph horiz-adv-x="735" d="M102 1311h551v-74q-73 -68 -122.5 -135t-78 -126.5t-44 -138.5t-20.5 -144.5t-7 -170.5h-150q8 253 48 396.5t147 252.5h-324v140z" />
<glyph horiz-adv-x="761" d="M526 948q63 -21 98 -74.5t35 -121.5q0 -101 -73.5 -168.5t-206.5 -67.5t-205 67.5t-72 168.5q0 68 34 121.5t97 74.5v10q-51 22 -75.5 65t-24.5 93q0 90 73.5 145.5t174.5 55.5t173.5 -55.5t72.5 -145.5q0 -50 -25 -93t-76 -65v-10zM381 1192q-49 0 -78 -25t-29 -67 q0 -44 31.5 -69t73.5 -25q43 0 75.5 25t32.5 71q0 40 -28.5 65t-77.5 25zM379 641q64 0 101.5 36.5t37.5 86.5q0 49 -36.5 86t-102.5 37q-67 0 -101 -36.5t-34 -86.5q0 -51 35.5 -87t99.5 -36z" />
<glyph horiz-adv-x="761" d="M356 788q-99 0 -176.5 71t-77.5 192q0 123 82.5 194.5t196.5 71.5q115 0 196.5 -74.5t81.5 -202.5q0 -114 -96 -262q-29 -44 -75 -108t-78 -106l-31 -42h-164l221 295q-25 -29 -80 -29zM381 1190q-64 0 -103.5 -39t-39.5 -100q0 -60 40 -100t103 -40t103 40t40 100 t-40 99.5t-103 39.5z" />
<glyph horiz-adv-x="532" d="M266 1444q51 0 87 -36t36 -87q0 -52 -36 -87.5t-87 -35.5t-87 35.5t-36 87.5q0 51 36 87t87 36zM373 0h-215l41 1042h133z" />
<glyph horiz-adv-x="882" d="M479 1444q51 0 87 -36t36 -87q0 -52 -36 -87.5t-87 -35.5t-87 35.5t-36 87.5q0 51 36 87t87 36zM578 907q0 -61 -14.5 -114t-33 -87.5t-51.5 -69t-54.5 -51.5t-57.5 -42q-30 -21 -50 -38t-40.5 -41.5t-30.5 -54.5t-10 -67q0 -35 9 -68t30 -66.5t63.5 -54t101.5 -20.5 q179 0 207 199h168q0 -45 -11 -90.5t-38 -93t-68 -84t-106.5 -59.5t-147.5 -23q-182 0 -279 102.5t-97 259.5q0 52 12 97t28 75t42 59t44.5 44t45.5 34q48 34 70 52t50 50t39 69.5t11 86.5v127h168v-131z" />
<glyph horiz-adv-x="671" d="M403 946q0 -165 -127 -227v-25q127 -62 127 -227v-492q0 -51 29.5 -80.5t83.5 -29.5h23v-123h-60q-106 0 -167.5 65t-61.5 177v483q0 184 -148 184v111q148 0 148 184v484q0 112 61.5 176.5t167.5 64.5h60v-123h-23q-54 0 -83.5 -29.5t-29.5 -80.5v-492z" />
<glyph horiz-adv-x="671" d="M422 946q0 -89 34 -136.5t113 -47.5v-111q-79 0 -113 -47.5t-34 -136.5v-483q0 -112 -61.5 -177t-167.5 -65h-60v123h23q54 0 83 29.5t29 80.5v492q0 165 127 227v25q-127 62 -127 227v492q0 52 -29 81t-83 29h-23v123h60q106 0 167.5 -64.5t61.5 -176.5v-484z" />
<glyph horiz-adv-x="657" d="M123 1671h350v-149h-190v-1631h211v-149h-371v1929z" />
<glyph horiz-adv-x="636" d="M514 1671v-1929h-371v149h211v1631h-190v149h350z" />
<glyph horiz-adv-x="692" d="M580 -102l-113 -113q-167 181 -266 425.5t-99 514.5t99 515.5t266 426.5l113 -115q-138 -150 -216.5 -373.5t-78.5 -453.5q0 -229 79 -452.5t216 -374.5z" />
<glyph horiz-adv-x="692" d="M82 -102q137 151 216 374.5t79 452.5q0 230 -78.5 453.5t-216.5 373.5l113 115q166 -180 265 -426t99 -516t-98.5 -514.5t-265.5 -425.5z" />
<glyph horiz-adv-x="1802" d="M1679 797v-156h-1556v156h1556z" />
<glyph horiz-adv-x="1136" d="M123 797h891v-156h-891v156z" />
<glyph horiz-adv-x="983" d="M123 797h737v-156h-737v156z" />
<glyph horiz-adv-x="983" d="M123 797h737v-156h-737v156z" />
<glyph horiz-adv-x="1220" d="M453 301l-330 414l330 413h204l-333 -413l333 -414h-204zM893 301l-330 414l330 413h205l-334 -413l334 -414h-205z" />
<glyph horiz-adv-x="1220" d="M328 301h-205l334 414l-334 413h205l329 -413zM768 301h-205l334 414l-334 413h205l330 -413z" />
<glyph horiz-adv-x="780" d="M453 301l-330 414l330 413h204l-333 -413l333 -414h-204z" />
<glyph horiz-adv-x="780" d="M328 301h-205l334 414l-334 413h205l329 -413z" />
<glyph horiz-adv-x="495" d="M332 1638v-1863h-168v1863h168z" />
<glyph horiz-adv-x="495" d="M164 1638h168v-727h-168v727zM164 -225v727h168v-727h-168z" />
<glyph horiz-adv-x="2048" d="M1024 1626q134 0 264 -39t244.5 -118t202 -188.5t138.5 -260.5t52 -324q0 -89 -23.5 -174t-67.5 -154.5t-115.5 -112t-159.5 -42.5q-48 0 -98.5 13.5t-103.5 51t-81 93.5q-91 -158 -311 -158q-89 0 -168.5 34t-140.5 95.5t-96.5 155.5t-35.5 207q0 212 130 351.5 t311 139.5q171 0 268 -125h33l34 115h119v-676q0 -57 41 -97t103 -40q53 0 91.5 32t57.5 84.5t27 103.5t8 103q0 176 -60.5 325t-161.5 247t-231.5 152.5t-271.5 54.5q-140 0 -270 -54.5t-230.5 -152.5t-160.5 -247t-60 -325q0 -172 61.5 -317.5t163.5 -240t230.5 -147 t265.5 -52.5q236 0 414 100l104 -107q-231 -145 -516 -145q-131 0 -261 40t-245 118.5t-203.5 186.5t-140 254t-51.5 310q0 173 51 324t138 260.5t202 188.5t245 118t265 39zM975 381q116 0 193 76.5t77 226.5q0 165 -77 254.5t-193 89.5q-100 0 -185 -90.5t-85 -232.5 q0 -79 24.5 -143t64.5 -102.5t86.5 -58.5t94.5 -20z" />
<glyph horiz-adv-x="1650" d="M285 522v529h-183v114h113q34 0 56 22.5t22 57.5v66h135l2 -789h-145zM1327 1311l-1020 -1311h-82l1020 1311h82zM1311 301q-92 -55 -132 -90t-40 -76h391v-135h-551v74q0 49 15 92t35.5 72.5t55.5 60t60 47t65 39.5q11 6 37.5 21.5t38.5 23t33 22t31.5 25t22.5 25 t17 29.5t5 32q0 44 -34.5 71.5t-90.5 27.5q-67 0 -106.5 -38.5t-39.5 -103.5h-143q0 46 16.5 92.5t49 88.5t89 68t128.5 26q116 0 194 -63.5t78 -164.5q0 -28 -7.5 -54t-16.5 -45.5t-30.5 -41.5t-34.5 -34.5t-43.5 -33t-44 -28.5t-48.5 -29z" />
<glyph horiz-adv-x="1552" d="M285 522v529h-183v114h113q34 0 56 22.5t22 57.5v66h135l2 -789h-145zM1327 1311l-1020 -1311h-82l1020 1311h82zM1329 287h121v-121h-121v-166h-131v166h-383v96l326 526h188v-501zM983 287h215v319h-18z" />
<glyph horiz-adv-x="1660" d="M530 938q58 -18 95 -67t37 -117q0 -100 -76.5 -169t-200.5 -69q-128 0 -205.5 73.5t-77.5 188.5h138q5 -58 42.5 -96.5t104.5 -38.5q63 0 98 33t35 84q0 53 -37.5 86t-115.5 33h-54v116h47q75 0 106.5 30t31.5 73t-30.5 66.5t-84.5 23.5t-85 -22t-36 -60h-135 q0 90 74 150.5t186 60.5q105 0 176.5 -55.5t71.5 -145.5q0 -112 -105 -166v-12zM1436 1311l-1020 -1311h-82l1020 1311h82zM1438 287h121v-121h-121v-166h-131v166h-383v96l325 526h189v-501zM1092 287h215v319h-19z" />
<glyph horiz-adv-x="929" d="M868 1536l-733 -1638h-72l734 1638h71z" />
<glyph horiz-adv-x="989" d="M123 1536h72l733 -1638h-72z" />
<glyph horiz-adv-x="532" d="M229 1434h76l-8 -1043h-59zM266 -10q-51 0 -87 36t-36 87q0 52 36 87.5t87 35.5t87 -35.5t36 -87.5q0 -51 -36 -87t-87 -36z" />
<glyph horiz-adv-x="532" d="M266 1034q51 0 87 -36t36 -87q0 -52 -36 -87.5t-87 -35.5t-87 35.5t-36 87.5q0 51 36 87t87 36zM229 -410l9 1043h59l8 -1043h-76z" />
<glyph horiz-adv-x="829" d="M332 526q0 203 164 344q39 33 59 51t50 49.5t44 56.5t25.5 60t11.5 72q0 34 -13 70t-41 72t-82.5 58.5t-127.5 22.5q-51 0 -93 -11.5t-70 -28t-50 -43t-34 -48.5t-21 -54.5t-12 -50t-7 -44.5h-67q0 45 10.5 91t37 93t65 83.5t100 59.5t137.5 23q84 0 151.5 -26.5 t108.5 -69t62.5 -92.5t21.5 -101q0 -57 -14.5 -103.5t-47.5 -88.5t-57.5 -65.5t-71.5 -64.5q-9 -8 -14 -12q-83 -70 -117 -144t-34 -163v-127h-74v131zM383 -10q-51 0 -87 36t-36 87q0 52 36 87.5t87 35.5t87 -35.5t36 -87.5q0 -51 -36 -87t-87 -36z" />
<glyph horiz-adv-x="829" d="M446 1034q51 0 87 -36t36 -87q0 -52 -36 -87.5t-87 -35.5t-86.5 35.5t-35.5 87.5q0 51 35.5 87t86.5 36zM498 498q0 -203 -164 -344q-40 -34 -59.5 -51t-49.5 -49t-44.5 -56.5t-26 -60t-11.5 -72.5q0 -27 7.5 -55t26.5 -59t48 -54.5t76.5 -39t106.5 -15.5q51 0 93 11.5 t70 27.5t50 43.5t33.5 49t21 54t12 50t6.5 44.5h68q0 -45 -10.5 -91t-37 -93t-65 -83.5t-100 -59.5t-137.5 -23q-84 0 -151.5 26.5t-108.5 69t-62.5 92.5t-21.5 101q0 74 32.5 139.5t62 95.5t97.5 88q8 7 12 11q83 71 117.5 144.5t34.5 162.5v127h74v-131z" />
<glyph horiz-adv-x="638" d="M330 858q0 -170 -119 -229v-21q119 -60 119 -229v-549q0 -64 30.5 -87.5t102.5 -23.5h22v-65h-59q-85 0 -124.5 44t-39.5 116v565q0 85 -45 145t-115 60v69q70 0 114 59.5t44 145.5v565q0 72 40 116t126 44h59v-65h-22q-72 0 -102.5 -23.5t-30.5 -87.5v-549z" />
<glyph horiz-adv-x="618" d="M358 858q0 -86 44 -145.5t114 -59.5v-69q-70 0 -115 -60t-45 -145v-565q0 -72 -39 -116t-124 -44h-60v65h23q72 0 102.5 23.5t30.5 87.5v549q0 169 119 229v21q-119 59 -119 229v549q0 64 -30.5 87.5t-102.5 23.5h-23v65h60q86 0 125.5 -44t39.5 -116v-565z" />
<glyph horiz-adv-x="616" d="M123 1583h309v-65h-239v-1799h260v-65h-330v1929z" />
<glyph horiz-adv-x="616" d="M473 1583v-1929h-330v65h260v1799h-239v65h309z" />
<glyph horiz-adv-x="583" d="M461 -305l-45 -41q-151 181 -237.5 431t-86.5 550t86.5 551t237.5 432l45 -43q-138 -166 -214.5 -415t-76.5 -525t76.5 -525t214.5 -415z" />
<glyph horiz-adv-x="583" d="M82 -305q138 166 214.5 415t76.5 525t-76.5 525t-214.5 415l45 43q151 -181 237.5 -432t86.5 -551t-86.5 -550t-237.5 -431z" />
<glyph horiz-adv-x="1136" d="M123 0h891v-66h-891v66z" />
<glyph horiz-adv-x="1802" d="M1679 670v-66h-1556v66h1556z" />
<glyph horiz-adv-x="1136" d="M123 670h891v-66h-891v66z" />
<glyph horiz-adv-x="983" d="M123 670h737v-66h-737v66z" />
<glyph horiz-adv-x="983" d="M123 670h737v-66h-737v66z" />
<glyph horiz-adv-x="1064" d="M459 197l-336 413l336 414h104l-334 -414l334 -413h-104zM838 197l-336 413l336 414h104l-334 -414l334 -413h-104z" />
<glyph horiz-adv-x="1064" d="M227 197h-104l334 413l-334 414h104l336 -414zM606 197h-104l334 413l-334 414h104l336 -414z" />
<glyph horiz-adv-x="686" d="M459 197l-336 413l336 414h104l-334 -414l334 -413h-104z" />
<glyph horiz-adv-x="686" d="M227 197h-104l334 413l-334 414h104l336 -414z" />
<glyph horiz-adv-x="653" d="M211 963h-45l-27 411q-3 66 49 66q24 0 37.5 -16.5t12.5 -49.5zM487 963h-45l-26 411q-3 66 49 66t49 -66z" />
<glyph horiz-adv-x="376" d="M211 963h-45l-27 411q-3 66 49 66q24 0 37.5 -16.5t12.5 -49.5z" />
<glyph horiz-adv-x="397" d="M233 1577v-1864h-69v1864h69z" />
<glyph horiz-adv-x="397" d="M164 1577h69v-727h-69v727zM164 -287v727h69v-727h-69z" />
<glyph horiz-adv-x="1347" d="M1225 958h-211l-103 -512h228v-65h-242l-74 -381h-73l73 381h-426l-75 -381h-72l76 381h-213v65h227l102 512h-243v66h258l80 410h71l-80 -410h426l82 410h74l-82 -410h197v-66zM838 446l102 512h-426l-102 -512h426z" />
<glyph horiz-adv-x="1398" d="M1296 0h-88l-250 229q-148 -239 -421 -239q-180 0 -297 100.5t-117 255.5q0 54 17 103.5t42 87t66.5 77t78.5 66.5t91 63q-94 101 -149.5 192t-55.5 187q0 59 23 115.5t65.5 103t110 75t147.5 28.5q77 0 139 -26.5t99.5 -70.5t57 -97t19.5 -109q0 -28 -5.5 -54.5t-12 -48 t-24 -47t-27.5 -41t-37 -41t-38.5 -36.5t-47 -37.5t-46.5 -35t-52.5 -37.5t-51.5 -36l408 -383l168 332h76l-191 -381zM559 1374q-109 0 -190.5 -72t-81.5 -178q0 -156 188 -344q70 42 121.5 78.5t101.5 83t76.5 98t26.5 105.5q0 90 -67.5 159.5t-174.5 69.5zM537 59 q68 0 129 20.5t106.5 55t78 70t56.5 74.5l-438 413q-61 -40 -102.5 -72t-84 -76t-64 -94t-21.5 -106q0 -123 100 -204t240 -81z" />
<glyph horiz-adv-x="2048" d="M1040 1444q134 0 261.5 -35t241 -108.5t198.5 -177t134.5 -250t49.5 -318.5q0 -142 -35 -258t-111.5 -191t-183.5 -75q-86 0 -149 49.5t-88 150.5q-53 -96 -152.5 -148t-216.5 -52q-92 0 -174.5 34t-144.5 95.5t-98.5 154t-36.5 201.5q0 218 132 358t324 140 q107 0 193.5 -46t142.5 -126h25l24 162h54v-676q0 -43 7.5 -80.5t25 -72t51.5 -55t81 -20.5q83 0 141 63.5t84.5 163.5t26.5 226q0 155 -43 288.5t-117.5 229.5t-175.5 164t-217.5 101.5t-242.5 33.5q-134 0 -259.5 -37.5t-232.5 -111.5t-187 -175.5t-125.5 -237.5 t-45.5 -290q0 -155 45.5 -290t126 -234.5t188.5 -171.5t235 -108t263 -36q137 0 239.5 36.5t196.5 107.5l45 -51q-91 -82 -220 -124t-273 -42q-141 0 -275.5 39t-251.5 117t-206 186.5t-140 257.5t-51 319q0 169 50 317t137.5 257t203 188t250 118.5t276.5 39.5zM1004 104 q148 0 252 108t104 298q0 192 -105.5 311t-255.5 119q-100 0 -188 -53.5t-143.5 -152t-55.5 -218.5q0 -121 56 -216.5t145 -145.5t191 -50z" />
<glyph horiz-adv-x="1699" d="M850 -10q-197 0 -364.5 97.5t-265 265t-97.5 364.5t97.5 364.5t265 265t364.5 97.5q196 0 363.5 -97.5t265.5 -265t98 -364.5t-98 -364.5t-265.5 -265t-363.5 -97.5zM850 59q177 0 327.5 88.5t238 240t87.5 329.5q0 133 -52 255t-139.5 210t-208 140t-253.5 52t-254 -52 t-208.5 -140t-139 -210t-51.5 -255q0 -178 87 -329.5t237.5 -240t328.5 -88.5zM1198 604q-26 -122 -125.5 -199t-220.5 -77q-148 0 -258.5 112t-110.5 277t110.5 277t256.5 112q123 0 227 -81.5t125 -205.5h-151q-27 64 -82 99.5t-119 35.5q-93 0 -154 -72t-61 -165 q0 -94 61 -166t160 -72q66 0 118 33t73 92h151z" />
<glyph horiz-adv-x="1699" d="M850 -10q-197 0 -364.5 97.5t-265 265t-97.5 364.5t97.5 364.5t265 265t364.5 97.5q196 0 363.5 -97.5t265.5 -265t98 -364.5t-98 -364.5t-265.5 -265t-363.5 -97.5zM850 59q177 0 327.5 88.5t238 240t87.5 329.5q0 133 -52 255t-139.5 210t-208 140t-253.5 52t-254 -52 t-208.5 -140t-139 -210t-51.5 -255q0 -178 87 -329.5t237.5 -240t328.5 -88.5zM995 348l-168 270h-75v-270h-142v737h275q101 0 174.5 -61t73.5 -166q0 -81 -44.5 -140t-115.5 -85l174 -285h-152zM752 760h118q49 0 81 24.5t32 67.5q0 41 -26.5 68.5t-75.5 27.5h-129v-188z " />
<glyph horiz-adv-x="1085" d="M721 201q99 -18 152 -92t53 -177t-53 -182t-139 -119.5t-189 -40.5q-90 0 -165 33t-122 86t-72.5 117t-25.5 129h73q0 -30 9 -65t32.5 -76t57.5 -73.5t89.5 -54.5t123.5 -22q128 0 216.5 72.5t88.5 197.5q0 38 -10 69t-24 53t-40 39.5t-48 28t-58 20t-60 14t-63 10.5 q-38 6 -68.5 12.5t-76.5 20.5t-81.5 31.5t-74.5 46.5t-64.5 64.5t-42 86.5t-16.5 111q0 129 68.5 216.5t175.5 106.5q-105 36 -157 107.5t-52 169.5q0 150 111.5 243t269.5 93q90 0 165 -33t122 -86t72.5 -117t25.5 -129h-74q0 30 -9 65t-32 76t-57 73.5t-89.5 54.5 t-123.5 22q-130 0 -218 -73t-88 -191q0 -30 7 -56.5t17.5 -46.5t30 -37.5t36.5 -29.5t45 -23.5t48.5 -18t54 -14t53.5 -11t55 -9.5q383 -64 383 -365q0 -129 -65 -218t-177 -109zM565 242q138 0 230 74.5t92 199.5q0 139 -109.5 224t-257.5 85q-138 0 -229.5 -74t-91.5 -200 q0 -92 52 -163.5t135 -108.5t179 -37z" />
<glyph horiz-adv-x="1509" d="M82 1368v66h504v-66h-217v-651h-70v651h-217zM1346 1434h81v-717h-69v530h-23l-235 -479h-82l-238 479h-20v-530h-70v717h82l277 -555h20z" />
<glyph horiz-adv-x="1351" d="M868 63q105 0 201.5 41t138.5 91l41 -58q-165 -147 -379 -147q-205 0 -370.5 131t-223.5 342h-153v67h137q-10 68 -10 125q0 73 12 140h-139v67h158q61 205 225 332t364 127q214 0 379 -147l-41 -58q-42 50 -138 90.5t-202 40.5q-170 0 -308.5 -107t-197.5 -278h721 l-26 -67h-715q-14 -79 -14 -140q0 -63 12 -125h639l-27 -67h-594q56 -176 196.5 -288t313.5 -112z" />
<glyph horiz-adv-x="1024" d="M901 297q0 -74 -28.5 -132.5t-77 -94.5t-107.5 -56t-125 -24v-174h-69v176q-85 7 -156 43.5t-117.5 91.5t-72 124t-25.5 142h76q0 -38 8.5 -78t30 -83t54 -77t85 -58.5t117.5 -30.5v573q-63 34 -105.5 59.5t-89.5 62t-74.5 71.5t-46 81.5t-18.5 98.5q0 90 50 159.5 t124.5 105.5t159.5 42v176h69v-176q76 -6 139 -40t102.5 -84.5t61 -110.5t21.5 -121h-76q0 46 -13 90.5t-40 87t-77.5 70.5t-117.5 34v-561q40 -21 64.5 -34.5t60.5 -35t58.5 -39t49.5 -41.5t44 -48.5t32 -54t22 -63t7 -71.5zM238 1012q0 -91 60 -152.5t196 -136.5v522 q-108 -8 -182 -67t-74 -166zM563 63q114 6 187 65.5t73 168.5q0 55 -19 99.5t-59 82t-79 63t-103 60.5v-539z" />
<glyph horiz-adv-x="1165" d="M311 88v-20h738v-68h-924v61q13 5 34.5 15t76.5 44.5t97 73.5t76.5 103t34.5 133q0 89 -65 182h-256v68h205q-40 52 -60 81t-40.5 83.5t-20.5 109.5q0 92 38.5 164.5t102 115.5t137 65t150.5 22q64 0 122 -18t100 -46.5t77.5 -63t58.5 -69t39.5 -63t23.5 -46.5l7 -18 l-72 -16q-7 22 -23.5 51.5t-48.5 68t-72 70.5t-98 54t-122 22q-146 0 -244 -83.5t-98 -209.5q0 -32 6 -60t25.5 -62.5t26.5 -47t40.5 -56.5t36.5 -48h467v-68h-420q55 -88 55 -184q0 -182 -211 -340z" />
<glyph horiz-adv-x="1243" d="M1141 1311l-449 -547h312v-66h-353v-168h353v-65h-353v-465h-67v465h-344v65h344v168h-344v66h303l-441 547h86l412 -510h31l422 510h88z" />
<glyph horiz-adv-x="1210" d="M647 207q137 9 235.5 90.5t131.5 206.5h71q-32 -152 -153 -253t-285 -116v-135h-69v135q-195 22 -325 167t-130 353t130 353.5t325 167.5v135h69v-135q165 -14 289.5 -120t150.5 -263h-71q-28 130 -126.5 215.5t-242.5 95.5v-897zM201 655q0 -179 107.5 -305.5 t269.5 -140.5v893q-162 -14 -269.5 -141t-107.5 -306z" />
<glyph horiz-adv-x="1269" d="M1079 512q0 -167 -106 -289l145 -145l-49 -49l-145 145q-122 -106 -289 -106q-168 0 -291 104l-143 -143l-49 49l143 143q-107 126 -107 291q0 163 107 289l-143 143l49 49l143 -143q125 106 291 106t291 -106l143 143l49 -49l-145 -145q106 -118 106 -287zM264 512 q0 -152 107 -261.5t264 -109.5q156 0 263.5 110t107.5 261t-107.5 261t-263.5 110q-157 0 -264 -109.5t-107 -261.5z" />
<glyph horiz-adv-x="1595" d="M430 707q-126 0 -216.5 90.5t-90.5 216.5t90.5 216.5t216.5 90.5q125 0 216 -90.5t91 -216.5t-91 -216.5t-216 -90.5zM1288 1311h-82l-913 -1311h82zM430 780q101 0 166.5 66.5t65.5 167.5t-65.5 167t-166.5 66t-166 -66t-65 -167q0 -102 65 -168t166 -66zM1165 -10 q-126 0 -216.5 90.5t-90.5 216.5t90.5 216.5t216.5 90.5q125 0 216.5 -90.5t91.5 -216.5t-91.5 -216.5t-216.5 -90.5zM1165 63q101 0 166.5 66.5t65.5 167.5t-65.5 167t-166.5 66t-166 -66t-65 -167q0 -102 65 -168t166 -66z" />
<glyph horiz-adv-x="1343" d="M1221 672q-5 -9 -15 -24t-44.5 -51t-72.5 -62t-98.5 -43t-124.5 -7q-51 8 -106 33.5t-96 52t-94 51t-101 31.5q-52 8 -99 -4t-77.5 -34t-53.5 -45.5t-33 -40.5l-11 -17l-72 31q5 9 14 23.5t42 50.5t70.5 61.5t99 42t128.5 6.5q53 -8 109 -33.5t96 -51.5t92 -50t100 -31 q52 -8 99.5 4t78 34t53.5 45.5t33 40.5l11 17z" />
<glyph horiz-adv-x="1218" d="M610 874q-51 0 -87 36t-36 87q0 52 36 87.5t87 35.5t87 -35.5t36 -87.5q0 -51 -36 -87t-87 -36zM123 643h973v-68h-973v68zM610 96q-51 0 -87 36t-36 87q0 52 36 87.5t87 35.5t87 -35.5t36 -87.5q0 -51 -36 -87t-87 -36z" />
<glyph horiz-adv-x="1218" d="M123 805h973v-68h-973v68zM123 479h973v-67h-973v67z" />
<glyph d="M143 1239l881 -567v-107l-881 -565v84l811 520v29l-811 522v84z" />
<glyph d="M983 1239v-84l-811 -522v-29l811 -520v-84l-881 565v107z" />
<glyph horiz-adv-x="1220" d="M1098 367h-70v372h-905v66h975v-438z" />
<glyph horiz-adv-x="1185" d="M952 1024h70v-1024h-53l-15 158h-22q-48 -70 -132.5 -119t-205.5 -49q-251 0 -365 229v-629h-65v1024v410h69v-453q0 -103 21 -192t63 -161t112.5 -113.5t162.5 -41.5q71 0 134 25.5t114.5 76.5t81.5 138t30 199v522z" />
<glyph horiz-adv-x="1294" d="M1116 1026l-422 -420l422 -420l-49 -49l-420 422l-420 -422l-49 49l422 420l-422 420l49 49l420 -422l420 422z" />
<glyph horiz-adv-x="1136" d="M1014 670v-66h-410v-411h-69v411h-412v66h412v413h69v-413h410z" />
<glyph horiz-adv-x="1095" d="M584 729h389v-65h-389v-420h-70v420h-391v65h391v414h70v-414zM123 0v66h850v-66h-850z" />
<glyph horiz-adv-x="729" d="M365 834q-100 0 -171 70.5t-71 170.5t71 171t171 71q99 0 170 -71.5t71 -170.5t-71 -170t-170 -71zM365 907q70 0 118.5 48.5t48.5 119.5t-48.5 119.5t-118.5 48.5q-71 0 -119.5 -48.5t-48.5 -119.5t48.5 -119.5t119.5 -48.5z" />
<glyph horiz-adv-x="1136" d="M932 737l-348 602h-29l-350 -602h-82l405 697h82l404 -697h-82z" />
<glyph horiz-adv-x="808" d="M707 1241l-248 -133l248 -135l-35 -62l-238 148l6 -281h-69l8 285l-242 -152l-35 62l246 135l-246 131l35 61l242 -147l-8 281h69l-6 -275l236 144z" />
</font>
</defs>
</svg>
